<svg width="66" height="68" viewBox="0 0 66 68" fill="none" xmlns="http://www.w3.org/2000/svg">
<g id="icon-password-confirm">
<path id="Shape" fill-rule="evenodd" clip-rule="evenodd" d="M27.9661 0C16.2461 0 6.71186 9.5342 6.71186 21.2542V26.8475H3.35593C1.51017 26.8475 0 28.3576 0 30.2034V63.7627C0 65.6085 1.51017 67.1186 3.35593 67.1186H54.8136C56.6593 67.1186 58.1695 65.6085 58.1695 63.7627V57.3305C62.7559 55.5407 66 51.0773 66 45.8644C66 40.6515 62.7559 36.1881 58.1695 34.3983V30.2034C58.1695 28.3576 56.6593 26.8475 54.8136 26.8475H51.4576V21.2542C51.4576 9.5342 41.9234 0 30.2034 0H27.9661ZM27.9661 2.23729H30.2034C30.483 2.23729 30.7572 2.25612 31.0317 2.27498C31.1283 2.28162 31.225 2.28827 31.322 2.29409V6.76867C30.9518 6.73959 30.5815 6.71186 30.2034 6.71186H27.9661C27.588 6.71186 27.2177 6.73959 26.8475 6.76867V2.29409C26.9445 2.28827 27.0412 2.28162 27.1378 2.27498C27.4123 2.25612 27.6865 2.23729 27.9661 2.23729ZM24.6102 7.11825V2.55191C15.7214 4.14374 8.94915 11.9147 8.94915 21.2542V26.8475H13.4237V21.2542C13.4237 14.3925 18.2071 8.6396 24.6102 7.11825ZM33.5593 2.55191C42.4481 4.14374 49.2203 11.9147 49.2203 21.2542V26.8475H44.7458V21.2542C44.7458 14.3925 39.9624 8.6396 33.5593 7.11825V2.55191ZM30.2034 8.94915H27.9661C21.1815 8.94915 15.661 14.4697 15.661 21.2542V26.8475H42.5085V21.2542C42.5085 14.4697 36.988 8.94915 30.2034 8.94915ZM3.35593 29.0847H6.71186H13.4237H44.7458H51.4576H54.8136C55.4288 29.0847 55.9322 29.5881 55.9322 30.2034V33.7603C55.2051 33.6261 54.4556 33.5593 53.6949 33.5593C46.9047 33.5593 41.3898 39.0742 41.3898 45.8644C41.3898 52.6546 46.9047 58.1695 53.6949 58.1695C54.4556 58.1695 55.2051 58.1027 55.9322 57.9685V63.7627C55.9322 64.378 55.4288 64.8814 54.8136 64.8814H3.35593C2.74068 64.8814 2.23729 64.378 2.23729 63.7627V30.2034C2.23729 29.5881 2.74068 29.0847 3.35593 29.0847ZM55.9322 36.0435C55.2163 35.8869 54.4668 35.7966 53.6949 35.7966C48.1464 35.7966 43.6271 40.3159 43.6271 45.8644C43.6271 51.4129 48.1464 55.9322 53.6949 55.9322C54.4668 55.9322 55.2163 55.8419 55.9322 55.6853C56.7153 55.5063 57.4647 55.2281 58.1695 54.8813C61.4807 53.2369 63.7627 49.8132 63.7627 45.8644C63.7627 41.9156 61.4807 38.4919 58.1695 36.8475C57.4647 36.5007 56.7153 36.2225 55.9322 36.0435ZM58.1695 41.7613C57.8831 41.7613 57.5973 41.8725 57.3786 42.0912L52.2048 47.2671L50.0113 45.0735C49.5739 44.6361 48.869 44.6361 48.4316 45.0735C47.9942 45.5109 47.9942 46.2179 48.4316 46.6553L51.4139 49.6376C51.6242 49.8479 51.9084 49.9676 52.2048 49.9676C52.5013 49.9676 52.7866 49.8479 52.9958 49.6376L58.9604 43.6708C59.3978 43.2334 59.3978 42.5286 58.9604 42.0912C58.7417 41.8725 58.4559 41.7613 58.1695 41.7613ZM11.1864 44.7458C11.1864 43.5101 12.1881 42.5085 13.4237 42.5085C14.6593 42.5085 15.661 43.5101 15.661 44.7458C15.661 45.9814 14.6593 46.9831 13.4237 46.9831C12.1881 46.9831 11.1864 45.9814 11.1864 44.7458ZM23.4915 42.5085C22.2559 42.5085 21.2542 43.5101 21.2542 44.7458C21.2542 45.9814 22.2559 46.9831 23.4915 46.9831C24.7271 46.9831 25.7288 45.9814 25.7288 44.7458C25.7288 43.5101 24.7271 42.5085 23.4915 42.5085ZM31.322 44.7458C31.322 43.5101 32.3237 42.5085 33.5593 42.5085C34.7949 42.5085 35.7966 43.5101 35.7966 44.7458C35.7966 45.9814 34.7949 46.9831 33.5593 46.9831C32.3237 46.9831 31.322 45.9814 31.322 44.7458ZM5.59322 60.4068C4.97573 60.4068 4.47458 60.9068 4.47458 61.5254C4.47458 62.144 4.97573 62.6441 5.59322 62.6441H43.6271C44.2446 62.6441 44.7458 62.144 44.7458 61.5254C44.7458 60.9068 44.2446 60.4068 43.6271 60.4068H5.59322ZM46.9831 61.5254C46.9831 60.9068 47.4842 60.4068 48.1017 60.4068H52.5763C53.1938 60.4068 53.6949 60.9068 53.6949 61.5254C53.6949 62.144 53.1938 62.6441 52.5763 62.6441H48.1017C47.4842 62.6441 46.9831 62.144 46.9831 61.5254Z" fill="url(#paint0_linear_0_3301)"/>
</g>
<defs>
<linearGradient id="paint0_linear_0_3301" x1="0" y1="0" x2="79.1576" y2="24.3556" gradientUnits="userSpaceOnUse">
<stop stop-color="#00E0FF"/>
<stop offset="1" stop-color="#2DA1F8"/>
</linearGradient>
</defs>
</svg>
