<svg width="66" height="76" viewBox="0 0 66 76" fill="none" xmlns="http://www.w3.org/2000/svg">
<g id="icon-password-type">
<path id="Shape" fill-rule="evenodd" clip-rule="evenodd" d="M7.51034 23.7828C7.51034 10.6684 18.1788 0 31.2931 0H33.7966C46.9109 0 57.5793 10.6684 57.5793 23.7828V30.0414H61.3345C63.4048 30.0414 65.0897 31.7262 65.0897 33.7966V71.3483C65.0897 73.4186 63.4048 75.1034 61.3345 75.1034H3.75517C1.68482 75.1034 0 73.4186 0 71.3483V33.7966C0 31.7262 1.68482 30.0414 3.75517 30.0414H7.51034V23.7828ZM33.7966 2.50345H31.2931C30.9802 2.50345 30.6735 2.52452 30.3663 2.54563L30.3663 2.54563C30.2581 2.55306 30.1499 2.56049 30.0414 2.56701V7.57391C30.4557 7.54136 30.87 7.51034 31.2931 7.51034H33.7966C34.2196 7.51034 34.634 7.54136 35.0483 7.57391V2.56701C34.9397 2.56049 34.8315 2.55306 34.7234 2.54563C34.4162 2.52452 34.1095 2.50345 33.7966 2.50345ZM27.5379 2.8555V7.96507C20.3731 9.66742 15.0207 16.1047 15.0207 23.7828V30.0414H10.0138V23.7828C10.0138 13.3321 17.5917 4.6367 27.5379 2.8555ZM55.0759 23.7828C55.0759 13.3321 47.4979 4.6367 37.5517 2.8555V7.96507C44.7166 9.66742 50.069 16.1047 50.069 23.7828V30.0414H55.0759V23.7828ZM31.2931 10.0138H33.7966C41.3883 10.0138 47.5655 16.1911 47.5655 23.7828V30.0414H17.5241V23.7828C17.5241 16.1911 23.7014 10.0138 31.2931 10.0138ZM7.51034 32.5448H3.75517C3.06547 32.5448 2.50345 33.1056 2.50345 33.7966V71.3483C2.50345 72.0392 3.06547 72.6 3.75517 72.6H61.3345C62.0242 72.6 62.5862 72.0392 62.5862 71.3483V33.7966C62.5862 33.1056 62.0242 32.5448 61.3345 32.5448H57.5793H50.069H15.0207H7.51034ZM44.9618 38.8059C44.4751 38.8437 44.0382 39.1672 43.8739 39.6591C43.6549 40.315 44.0101 41.0231 44.666 41.2409L47.5655 42.209V48.8172H46.3138C45.6228 48.8172 45.0621 49.3768 45.0621 50.069C45.0621 50.7612 45.6228 51.3207 46.3138 51.3207H47.5655V57.9289L44.666 58.897C44.0101 59.1148 43.6573 59.8217 43.8764 60.4788C44.0503 61.002 44.5376 61.3345 45.0621 61.3345C45.1922 61.3345 45.3267 61.3123 45.4581 61.2685L48.8172 60.1512L52.1764 61.2709C52.3078 61.3135 52.4422 61.3345 52.5724 61.3345C53.0969 61.3345 53.5853 61.0033 53.7606 60.4788C53.9796 59.8229 53.6244 59.1124 52.9685 58.8946L50.069 57.9289V51.3207H51.3207C52.0116 51.3207 52.5724 50.7612 52.5724 50.069C52.5724 49.3768 52.0116 48.8172 51.3207 48.8172H50.069V42.209L52.9685 41.2433C53.6244 41.0255 53.9772 40.3163 53.7581 39.6591C53.5403 39.0045 52.8348 38.6492 52.1764 38.8695L48.8172 39.9867L45.4581 38.867C45.2932 38.8119 45.1241 38.7933 44.9618 38.8059ZM12.5172 50.069C12.5172 48.6863 13.6381 47.5655 15.0207 47.5655C16.4033 47.5655 17.5241 48.6863 17.5241 50.069C17.5241 51.4516 16.4033 52.5724 15.0207 52.5724C13.6381 52.5724 12.5172 51.4516 12.5172 50.069ZM26.2862 47.5655C24.9036 47.5655 23.7828 48.6863 23.7828 50.069C23.7828 51.4516 24.9036 52.5724 26.2862 52.5724C27.6688 52.5724 28.7897 51.4516 28.7897 50.069C28.7897 48.6863 27.6688 47.5655 26.2862 47.5655ZM35.0483 50.069C35.0483 48.6863 36.1691 47.5655 37.5517 47.5655C38.9343 47.5655 40.0552 48.6863 40.0552 50.069C40.0552 51.4516 38.9343 52.5724 37.5517 52.5724C36.1691 52.5724 35.0483 51.4516 35.0483 50.069ZM6.25862 67.5931C5.56767 67.5931 5.0069 68.1526 5.0069 68.8448C5.0069 69.537 5.56767 70.0965 6.25862 70.0965H48.8172C49.5082 70.0965 50.069 69.537 50.069 68.8448C50.069 68.1526 49.5082 67.5931 48.8172 67.5931H6.25862ZM52.5724 68.8448C52.5724 68.1526 53.1332 67.5931 53.8241 67.5931H58.831C59.522 67.5931 60.0828 68.1526 60.0828 68.8448C60.0828 69.537 59.522 70.0965 58.831 70.0965H53.8241C53.1332 70.0965 52.5724 69.537 52.5724 68.8448Z" fill="url(#paint0_linear_0_3480)"/>
</g>
<defs>
<linearGradient id="paint0_linear_0_3480" x1="0" y1="0" x2="79.6024" y2="21.5866" gradientUnits="userSpaceOnUse">
<stop stop-color="#00E0FF"/>
<stop offset="1" stop-color="#2DA1F8"/>
</linearGradient>
</defs>
</svg>
