<svg width="25" height="25" viewBox="0 0 25 25" fill="none" xmlns="http://www.w3.org/2000/svg">
<path id="icon-key" fill-rule="evenodd" clip-rule="evenodd" d="M16.3462 0C11.5909 0 7.69231 3.8986 7.69231 8.65385C7.69231 9.09213 7.75508 9.486 7.81699 9.87449C7.82558 9.92842 7.83416 9.98224 7.84255 10.0361L0.270433 17.5781L0 17.8786V18.2692V24.0385V25H0.961538H5.76923H6.73077V24.0385V22.1154H8.65385H9.61539V21.1538V19.2308H11.5385H12.5V18.2692V16.3762C13.6357 16.9313 14.957 17.3077 16.3462 17.3077C21.1014 17.3077 25 13.4091 25 8.65385C25 3.8986 21.1014 0 16.3462 0ZM16.3462 1.92308C20.0524 1.92308 23.0769 4.94755 23.0769 8.65385C23.0769 12.3601 20.0524 15.3846 16.3462 15.3846C15.1831 15.3846 13.9852 15.042 13.0709 14.5433L12.8305 14.4231H12.5901H11.5385H10.5769V15.3846V17.3077H8.65385H7.69231V18.2692V20.1923H5.76923H4.80769V21.1538V23.0769H1.92308V18.6899L9.52524 11.0577L9.88582 10.7272L9.79567 10.2163C9.69952 9.63942 9.61538 9.12393 9.61538 8.65385C9.61538 4.94755 12.6399 1.92308 16.3462 1.92308ZM16.3462 6.73077C16.3462 5.66868 17.2071 4.80769 18.2692 4.80769C19.3313 4.80769 20.1923 5.66868 20.1923 6.73077C20.1923 7.79286 19.3313 8.65385 18.2692 8.65385C17.2071 8.65385 16.3462 7.79286 16.3462 6.73077Z" fill="url(#paint0_linear_0_1141)"/>
<defs>
<linearGradient id="paint0_linear_0_1141" x1="0" y1="0" x2="29.8955" y2="9.35432" gradientUnits="userSpaceOnUse">
<stop stop-color="#00E0FF"/>
<stop offset="1" stop-color="#2DA1F8"/>
</linearGradient>
</defs>
</svg>
