<svg width="44" height="44" viewBox="0 0 44 44" fill="none" xmlns="http://www.w3.org/2000/svg">
<g id="icon-marketplace-bank">
<path id="Shape" fill-rule="evenodd" clip-rule="evenodd" d="M0.721311 8.88416L21.6393 0.667969L42.5574 8.88416V12.9838H40.3934V16.5904H38.9508V35.3445H41.1148V38.951H43.2787V44.0002H0V38.951H2.16393V35.3445H4.32787V16.5904H2.88525V12.9838H0.721311V8.88416ZM41.1148 9.87033L21.6393 2.21766L2.16393 9.87033V11.5412H4.32787V15.1477H5.77049V36.7871H3.60656V40.3936H1.44262V42.5576H41.8361V40.3936H39.6721V36.7871H37.5082V15.1477H38.9508V11.5412H41.1148V9.87033ZM5.77049 11.5412C5.37321 11.5412 5.04918 11.8652 5.04918 12.2625C5.04918 12.6598 5.37321 12.9838 5.77049 12.9838C6.16778 12.9838 6.4918 12.6598 6.4918 12.2625C6.4918 11.8652 6.16778 11.5412 5.77049 11.5412ZM7.93443 12.2625C7.93443 11.8652 8.25845 11.5412 8.65574 11.5412C9.05302 11.5412 9.37705 11.8652 9.37705 12.2625C9.37705 12.6598 9.05302 12.9838 8.65574 12.9838C8.25845 12.9838 7.93443 12.6598 7.93443 12.2625ZM11.541 11.5412C11.1437 11.5412 10.8197 11.8652 10.8197 12.2625C10.8197 12.6598 11.1437 12.9838 11.541 12.9838C11.9383 12.9838 12.2623 12.6598 12.2623 12.2625C12.2623 11.8652 11.9383 11.5412 11.541 11.5412ZM13.7049 12.2625C13.7049 11.8652 14.0289 11.5412 14.4262 11.5412C14.8235 11.5412 15.1475 11.8652 15.1475 12.2625C15.1475 12.6598 14.8235 12.9838 14.4262 12.9838C14.0289 12.9838 13.7049 12.6598 13.7049 12.2625ZM17.3115 11.5412C16.9142 11.5412 16.5902 11.8652 16.5902 12.2625C16.5902 12.6598 16.9142 12.9838 17.3115 12.9838C17.7088 12.9838 18.0328 12.6598 18.0328 12.2625C18.0328 11.8652 17.7088 11.5412 17.3115 11.5412ZM19.4754 12.2625C19.4754 11.8652 19.7994 11.5412 20.1967 11.5412C20.594 11.5412 20.918 11.8652 20.918 12.2625C20.918 12.6598 20.594 12.9838 20.1967 12.9838C19.7994 12.9838 19.4754 12.6598 19.4754 12.2625ZM23.082 11.5412C22.6847 11.5412 22.3607 11.8652 22.3607 12.2625C22.3607 12.6598 22.6847 12.9838 23.082 12.9838C23.4793 12.9838 23.8033 12.6598 23.8033 12.2625C23.8033 11.8652 23.4793 11.5412 23.082 11.5412ZM25.2459 12.2625C25.2459 11.8652 25.5699 11.5412 25.9672 11.5412C26.3645 11.5412 26.6885 11.8652 26.6885 12.2625C26.6885 12.6598 26.3645 12.9838 25.9672 12.9838C25.5699 12.9838 25.2459 12.6598 25.2459 12.2625ZM28.8525 11.5412C28.4552 11.5412 28.1311 11.8652 28.1311 12.2625C28.1311 12.6598 28.4552 12.9838 28.8525 12.9838C29.2497 12.9838 29.5738 12.6598 29.5738 12.2625C29.5738 11.8652 29.2497 11.5412 28.8525 11.5412ZM31.0164 12.2625C31.0164 11.8652 31.3404 11.5412 31.7377 11.5412C32.135 11.5412 32.459 11.8652 32.459 12.2625C32.459 12.6598 32.135 12.9838 31.7377 12.9838C31.3404 12.9838 31.0164 12.6598 31.0164 12.2625ZM34.6229 11.5412C34.2257 11.5412 33.9016 11.8652 33.9016 12.2625C33.9016 12.6598 34.2257 12.9838 34.6229 12.9838C35.0202 12.9838 35.3443 12.6598 35.3443 12.2625C35.3443 11.8652 35.0202 11.5412 34.6229 11.5412ZM36.7869 12.2625C36.7869 11.8652 37.1109 11.5412 37.5082 11.5412C37.9055 11.5412 38.2295 11.8652 38.2295 12.2625C38.2295 12.6598 37.9055 12.9838 37.5082 12.9838C37.1109 12.9838 36.7869 12.6598 36.7869 12.2625ZM7.21311 15.1477C6.81583 15.1477 6.4918 15.4718 6.4918 15.869C6.4918 16.2663 6.81583 16.5904 7.21311 16.5904C7.6104 16.5904 7.93443 16.2663 7.93443 15.869C7.93443 15.4718 7.6104 15.1477 7.21311 15.1477ZM8.65574 36.7871V15.1477H12.9836V36.7871H8.65574ZM14.4262 15.1477C14.0289 15.1477 13.7049 15.4718 13.7049 15.869C13.7049 16.2663 14.0289 16.5904 14.4262 16.5904C14.8235 16.5904 15.1475 16.2663 15.1475 15.869C15.1475 15.4718 14.8235 15.1477 14.4262 15.1477ZM15.8689 36.7871V15.1477H20.1967V36.7871H15.8689ZM21.6393 15.1477C21.2421 15.1477 20.918 15.4718 20.918 15.869C20.918 16.2663 21.2421 16.5904 21.6393 16.5904C22.0366 16.5904 22.3607 16.2663 22.3607 15.869C22.3607 15.4718 22.0366 15.1477 21.6393 15.1477ZM23.082 36.7871V15.1477H27.4098V36.7871H23.082ZM28.8525 15.1477C28.4552 15.1477 28.1311 15.4718 28.1311 15.869C28.1311 16.2663 28.4552 16.5904 28.8525 16.5904C29.2497 16.5904 29.5738 16.2663 29.5738 15.869C29.5738 15.4718 29.2497 15.1477 28.8525 15.1477ZM30.2951 36.7871V15.1477H34.623V36.7871H30.2951ZM36.0656 15.1477C35.6683 15.1477 35.3443 15.4718 35.3443 15.869C35.3443 16.2663 35.6683 16.5904 36.0656 16.5904C36.4629 16.5904 36.7869 16.2663 36.7869 15.869C36.7869 15.4718 36.4629 15.1477 36.0656 15.1477ZM11.541 16.5904H10.0984V35.3445H11.541V16.5904ZM17.3115 16.5904H18.7541V35.3445H17.3115V16.5904ZM25.9672 16.5904H24.5246V35.3445H25.9672V16.5904ZM33.1803 16.5904V35.3445H31.7377V16.5904H33.1803ZM6.4918 36.0658C6.4918 35.6685 6.81583 35.3445 7.21311 35.3445C7.6104 35.3445 7.93443 35.6685 7.93443 36.0658C7.93443 36.4631 7.6104 36.7871 7.21311 36.7871C6.81583 36.7871 6.4918 36.4631 6.4918 36.0658ZM14.4262 35.3445C14.0289 35.3445 13.7049 35.6685 13.7049 36.0658C13.7049 36.4631 14.0289 36.7871 14.4262 36.7871C14.8235 36.7871 15.1475 36.4631 15.1475 36.0658C15.1475 35.6685 14.8235 35.3445 14.4262 35.3445ZM20.918 36.0658C20.918 35.6685 21.2421 35.3445 21.6393 35.3445C22.0366 35.3445 22.3607 35.6685 22.3607 36.0658C22.3607 36.4631 22.0366 36.7871 21.6393 36.7871C21.2421 36.7871 20.918 36.4631 20.918 36.0658ZM28.8525 35.3445C28.4552 35.3445 28.1311 35.6685 28.1311 36.0658C28.1311 36.4631 28.4552 36.7871 28.8525 36.7871C29.2497 36.7871 29.5738 36.4631 29.5738 36.0658C29.5738 35.6685 29.2497 35.3445 28.8525 35.3445ZM35.3443 36.0658C35.3443 35.6685 35.6683 35.3445 36.0656 35.3445C36.4629 35.3445 36.7869 35.6685 36.7869 36.0658C36.7869 36.4631 36.4629 36.7871 36.0656 36.7871C35.6683 36.7871 35.3443 36.4631 35.3443 36.0658ZM5.77049 38.951C5.37321 38.951 5.04918 39.275 5.04918 39.6723C5.04918 40.0696 5.37321 40.3936 5.77049 40.3936C6.16778 40.3936 6.4918 40.0696 6.4918 39.6723C6.4918 39.275 6.16778 38.951 5.77049 38.951ZM7.93443 39.6723C7.93443 39.275 8.25845 38.951 8.65574 38.951C9.05302 38.951 9.37705 39.275 9.37705 39.6723C9.37705 40.0696 9.05302 40.3936 8.65574 40.3936C8.25845 40.3936 7.93443 40.0696 7.93443 39.6723ZM11.541 38.951C11.1437 38.951 10.8197 39.275 10.8197 39.6723C10.8197 40.0696 11.1437 40.3936 11.541 40.3936C11.9383 40.3936 12.2623 40.0696 12.2623 39.6723C12.2623 39.275 11.9383 38.951 11.541 38.951ZM13.7049 39.6723C13.7049 39.275 14.0289 38.951 14.4262 38.951C14.8235 38.951 15.1475 39.275 15.1475 39.6723C15.1475 40.0696 14.8235 40.3936 14.4262 40.3936C14.0289 40.3936 13.7049 40.0696 13.7049 39.6723ZM17.3115 38.951C16.9142 38.951 16.5902 39.275 16.5902 39.6723C16.5902 40.0696 16.9142 40.3936 17.3115 40.3936C17.7088 40.3936 18.0328 40.0696 18.0328 39.6723C18.0328 39.275 17.7088 38.951 17.3115 38.951ZM19.4754 39.6723C19.4754 39.275 19.7994 38.951 20.1967 38.951C20.594 38.951 20.918 39.275 20.918 39.6723C20.918 40.0696 20.594 40.3936 20.1967 40.3936C19.7994 40.3936 19.4754 40.0696 19.4754 39.6723ZM23.082 38.951C22.6847 38.951 22.3607 39.275 22.3607 39.6723C22.3607 40.0696 22.6847 40.3936 23.082 40.3936C23.4793 40.3936 23.8033 40.0696 23.8033 39.6723C23.8033 39.275 23.4793 38.951 23.082 38.951ZM25.2459 39.6723C25.2459 39.275 25.5699 38.951 25.9672 38.951C26.3645 38.951 26.6885 39.275 26.6885 39.6723C26.6885 40.0696 26.3645 40.3936 25.9672 40.3936C25.5699 40.3936 25.2459 40.0696 25.2459 39.6723ZM28.8525 38.951C28.4552 38.951 28.1311 39.275 28.1311 39.6723C28.1311 40.0696 28.4552 40.3936 28.8525 40.3936C29.2497 40.3936 29.5738 40.0696 29.5738 39.6723C29.5738 39.275 29.2497 38.951 28.8525 38.951ZM31.0164 39.6723C31.0164 39.275 31.3404 38.951 31.7377 38.951C32.135 38.951 32.459 39.275 32.459 39.6723C32.459 40.0696 32.135 40.3936 31.7377 40.3936C31.3404 40.3936 31.0164 40.0696 31.0164 39.6723ZM34.6229 38.951C34.2257 38.951 33.9016 39.275 33.9016 39.6723C33.9016 40.0696 34.2257 40.3936 34.6229 40.3936C35.0202 40.3936 35.3443 40.0696 35.3443 39.6723C35.3443 39.275 35.0202 38.951 34.6229 38.951ZM36.7869 39.6723C36.7869 39.275 37.1109 38.951 37.5082 38.951C37.9055 38.951 38.2295 39.275 38.2295 39.6723C38.2295 40.0696 37.9055 40.3936 37.5082 40.3936C37.1109 40.3936 36.7869 40.0696 36.7869 39.6723Z" fill="url(#paint0_linear_0_21177)"/>
</g>
<defs>
<linearGradient id="paint0_linear_0_21177" x1="0" y1="0.667969" x2="51.765" y2="16.8452" gradientUnits="userSpaceOnUse">
<stop stop-color="#00E0FF"/>
<stop offset="1" stop-color="#2DA1F8"/>
</linearGradient>
</defs>
</svg>
