<svg width="36" height="44" viewBox="0 0 36 44" fill="none" xmlns="http://www.w3.org/2000/svg">
<g id="icon-marketplace-passports">
<path id="Shape" fill-rule="evenodd" clip-rule="evenodd" d="M0 0V44H35.4839V0H0ZM1.41935 1.41935H34.0645V42.5806H1.41935V1.41935ZM4.25806 3.54839C4.25806 3.15751 4.57687 2.83871 4.96774 2.83871C5.35862 2.83871 5.67742 3.15751 5.67742 3.54839C5.67742 3.93926 5.35862 4.25806 4.96774 4.25806C4.57687 4.25806 4.25806 3.93926 4.25806 3.54839ZM4.96774 5.67742C4.57687 5.67742 4.25806 5.99622 4.25806 6.3871C4.25806 6.77797 4.57687 7.09677 4.96774 7.09677C5.35862 7.09677 5.67742 6.77797 5.67742 6.3871C5.67742 5.99622 5.35862 5.67742 4.96774 5.67742ZM9.93548 9.22581C9.93548 7.27419 11.5323 5.67742 13.4839 5.67742C15.4355 5.67742 17.0323 7.27419 17.0323 9.22581C17.0323 10.3042 16.5333 11.2634 15.7681 11.9176C17.3594 12.7465 18.4516 14.4098 18.4516 16.3226H17.0323C17.0323 14.3543 15.4521 12.7742 13.4839 12.7742C11.5156 12.7742 9.93548 14.3543 9.93548 16.3226H8.51613C8.51613 14.4098 9.60837 12.7465 11.1996 11.9176C10.4345 11.2634 9.93548 10.3042 9.93548 9.22581ZM21.2903 7.80645H29.8065V6.3871H21.2903V7.80645ZM15.6129 9.22581C15.6129 8.04209 14.6676 7.09677 13.4839 7.09677C12.3002 7.09677 11.3548 8.04209 11.3548 9.22581C11.3548 10.4095 12.3002 11.3548 13.4839 11.3548C14.6676 11.3548 15.6129 10.4095 15.6129 9.22581ZM4.96774 8.51613C4.57687 8.51613 4.25806 8.83493 4.25806 9.22581C4.25806 9.61668 4.57687 9.93548 4.96774 9.93548C5.35862 9.93548 5.67742 9.61668 5.67742 9.22581C5.67742 8.83493 5.35862 8.51613 4.96774 8.51613ZM29.8065 12.0645H21.2903V10.6452H29.8065V12.0645ZM4.96774 11.3548C4.57687 11.3548 4.25806 11.6736 4.25806 12.0645C4.25806 12.4554 4.57687 12.7742 4.96774 12.7742C5.35862 12.7742 5.67742 12.4554 5.67742 12.0645C5.67742 11.6736 5.35862 11.3548 4.96774 11.3548ZM4.25806 14.9032C4.25806 14.5123 4.57687 14.1935 4.96774 14.1935C5.35862 14.1935 5.67742 14.5123 5.67742 14.9032C5.67742 15.2941 5.35862 15.6129 4.96774 15.6129C4.57687 15.6129 4.25806 15.2941 4.25806 14.9032ZM21.2903 14.9032V16.3226H29.8065V14.9032H21.2903ZM4.25806 17.7419C4.25806 17.3511 4.57687 17.0323 4.96774 17.0323C5.35862 17.0323 5.67742 17.3511 5.67742 17.7419C5.67742 18.1328 5.35862 18.4516 4.96774 18.4516C4.57687 18.4516 4.25806 18.1328 4.25806 17.7419ZM4.96774 19.871C4.57687 19.871 4.25806 20.1898 4.25806 20.5806C4.25806 20.9715 4.57687 21.2903 4.96774 21.2903C5.35862 21.2903 5.67742 20.9715 5.67742 20.5806C5.67742 20.1898 5.35862 19.871 4.96774 19.871ZM4.25806 23.4194C4.25806 23.0285 4.57687 22.7097 4.96774 22.7097C5.35862 22.7097 5.67742 23.0285 5.67742 23.4194C5.67742 23.8102 5.35862 24.129 4.96774 24.129C4.57687 24.129 4.25806 23.8102 4.25806 23.4194ZM8.51613 24.129H29.8065V22.7097H8.51613V24.129ZM4.25806 26.2581C4.25806 25.8672 4.57687 25.5484 4.96774 25.5484C5.35862 25.5484 5.67742 25.8672 5.67742 26.2581C5.67742 26.6489 5.35862 26.9677 4.96774 26.9677C4.57687 26.9677 4.25806 26.6489 4.25806 26.2581ZM4.25806 29.0968C4.25806 28.7059 4.57687 28.3871 4.96774 28.3871C5.35862 28.3871 5.67742 28.7059 5.67742 29.0968C5.67742 29.4876 5.35862 29.8065 4.96774 29.8065C4.57687 29.8065 4.25806 29.4876 4.25806 29.0968ZM4.96774 31.2258C4.57687 31.2258 4.25806 31.5446 4.25806 31.9355C4.25806 32.3264 4.57687 32.6452 4.96774 32.6452C5.35862 32.6452 5.67742 32.3264 5.67742 31.9355C5.67742 31.5446 5.35862 31.2258 4.96774 31.2258ZM8.51613 34.0645V32.6452H29.8065V34.0645H8.51613ZM4.96774 34.0645C4.57687 34.0645 4.25806 34.3833 4.25806 34.7742C4.25806 35.1651 4.57687 35.4839 4.96774 35.4839C5.35862 35.4839 5.67742 35.1651 5.67742 34.7742C5.67742 34.3833 5.35862 34.0645 4.96774 34.0645ZM4.25806 37.6129C4.25806 37.222 4.57687 36.9032 4.96774 36.9032C5.35862 36.9032 5.67742 37.222 5.67742 37.6129C5.67742 38.0038 5.35862 38.3226 4.96774 38.3226C4.57687 38.3226 4.25806 38.0038 4.25806 37.6129ZM4.25806 40.4516C4.25806 40.0607 4.57687 39.7419 4.96774 39.7419C5.35862 39.7419 5.67742 40.0607 5.67742 40.4516C5.67742 40.8425 5.35862 41.1613 4.96774 41.1613C4.57687 41.1613 4.25806 40.8425 4.25806 40.4516ZM8.51613 27.6774V29.0968H25.5484V27.6774H8.51613ZM8.51613 37.6129V39.0323H25.5484V37.6129H8.51613Z" fill="url(#paint0_linear_0_21144)"/>
</g>
<defs>
<linearGradient id="paint0_linear_0_21144" x1="0" y1="0" x2="43.798" y2="11.0519" gradientUnits="userSpaceOnUse">
<stop stop-color="#00E0FF"/>
<stop offset="1" stop-color="#2DA1F8"/>
</linearGradient>
</defs>
</svg>
