<?xml version="1.0" encoding="UTF-8"?>
<svg width="70px" height="70px" viewBox="0 0 70 70" version="1.1" xmlns="http://www.w3.org/2000/svg" xmlns:xlink="http://www.w3.org/1999/xlink">
    <!-- Generator: Sketch 48.2 (47327) - http://www.bohemiancoding.com/sketch -->
    <title>icons8-add_property@2x</title>
    <desc>Created with Sketch.</desc>
    <defs>
        <linearGradient x1="50%" y1="97.783801%" x2="41.8489583%" y2="-16.3970588%" id="linearGradient-1">
            <stop stop-color="#08BCCD" offset="0%"></stop>
            <stop stop-color="#2DA1F8" offset="100%"></stop>
        </linearGradient>
    </defs>
    <g id="48-Wallet-+-Add-New-Attribute" stroke="none" stroke-width="1" fill="none" fill-rule="evenodd" transform="translate(-685.000000, -134.000000)">
        <g id="icons8-add_property" transform="translate(685.000000, 134.000000)" fill="url(#linearGradient-1)" fill-rule="nonzero">
            <path d="M5,0 C2.25,0 0,2.25 0,5 L0,54 L38,54 C38,62.824219 45.175781,70 54,70 C62.824219,70 70,62.824219 70,54 C70,47.296875 65.855469,41.554688 60,39.175781 L60,5 C60,2.25 57.75,0 55,0 L5,0 Z M5,2 L55,2 C56.667969,2 58,3.332031 58,5 L58,8 C57.449219,8 57,8.449219 57,9 C57,9.550781 57.449219,10 58,10 L58,38.527344 C56.71875,38.195313 55.382813,38 54,38 C45.855469,38 39.128906,44.117188 38.140625,52 L2,52 L2,10 C2.550781,10 3,9.550781 3,9 C3,8.449219 2.550781,8 2,8 L2,5 C2,3.332031 3.332031,2 5,2 Z M6,8 C5.449219,8 5,8.449219 5,9 C5,9.550781 5.449219,10 6,10 C6.550781,10 7,9.550781 7,9 C7,8.449219 6.550781,8 6,8 Z M10,8 C9.449219,8 9,8.449219 9,9 C9,9.550781 9.449219,10 10,10 C10.550781,10 11,9.550781 11,9 C11,8.449219 10.550781,8 10,8 Z M14,8 C13.449219,8 13,8.449219 13,9 C13,9.550781 13.449219,10 14,10 C14.550781,10 15,9.550781 15,9 C15,8.449219 14.550781,8 14,8 Z M18,8 C17.449219,8 17,8.449219 17,9 C17,9.550781 17.449219,10 18,10 C18.550781,10 19,9.550781 19,9 C19,8.449219 18.550781,8 18,8 Z M22,8 C21.449219,8 21,8.449219 21,9 C21,9.550781 21.449219,10 22,10 C22.550781,10 23,9.550781 23,9 C23,8.449219 22.550781,8 22,8 Z M26,8 C25.449219,8 25,8.449219 25,9 C25,9.550781 25.449219,10 26,10 C26.550781,10 27,9.550781 27,9 C27,8.449219 26.550781,8 26,8 Z M30,8 C29.449219,8 29,8.449219 29,9 C29,9.550781 29.449219,10 30,10 C30.550781,10 31,9.550781 31,9 C31,8.449219 30.550781,8 30,8 Z M34,8 C33.449219,8 33,8.449219 33,9 C33,9.550781 33.449219,10 34,10 C34.550781,10 35,9.550781 35,9 C35,8.449219 34.550781,8 34,8 Z M38,8 C37.449219,8 37,8.449219 37,9 C37,9.550781 37.449219,10 38,10 C38.550781,10 39,9.550781 39,9 C39,8.449219 38.550781,8 38,8 Z M42,8 C41.449219,8 41,8.449219 41,9 C41,9.550781 41.449219,10 42,10 C42.550781,10 43,9.550781 43,9 C43,8.449219 42.550781,8 42,8 Z M46,8 C45.449219,8 45,8.449219 45,9 C45,9.550781 45.449219,10 46,10 C46.550781,10 47,9.550781 47,9 C47,8.449219 46.550781,8 46,8 Z M50,8 C49.449219,8 49,8.449219 49,9 C49,9.550781 49.449219,10 50,10 C50.550781,10 51,9.550781 51,9 C51,8.449219 50.550781,8 50,8 Z M54,8 C53.449219,8 53,8.449219 53,9 C53,9.550781 53.449219,10 54,10 C54.550781,10 55,9.550781 55,9 C55,8.449219 54.550781,8 54,8 Z M13,19 C11.894531,19 11,19.894531 11,21 C11,22.105469 11.894531,23 13,23 C14.105469,23 15,22.105469 15,21 C15,19.894531 14.105469,19 13,19 Z M18,20 L18,22 L47,22 L47,20 L18,20 Z M13,27 C11.894531,27 11,27.894531 11,29 C11,30.105469 11.894531,31 13,31 C14.105469,31 15,30.105469 15,29 C15,27.894531 14.105469,27 13,27 Z M18,28 L18,30 L47,30 L47,28 L18,28 Z M13,35 C11.894531,35 11,35.894531 11,37 C11,38.105469 11.894531,39 13,39 C14.105469,39 15,38.105469 15,37 C15,35.894531 14.105469,35 13,35 Z M18,36 L18,38 L47,38 L47,36 L18,36 Z M54,40 C61.742188,40 68,46.257813 68,54 C68,61.742188 61.742188,68 54,68 C46.257813,68 40,61.742188 40,54 C40,46.257813 46.257813,40 54,40 Z M53,47 L53,53 L47,53 L47,55 L53,55 L53,61 L55,61 L55,55 L61,55 L61,53 L55,53 L55,47 L53,47 Z" id="Shape"></path>
        </g>
    </g>
</svg>