<?xml version="1.0" encoding="UTF-8"?>
<svg width="24px" height="23px" viewBox="0 0 24 23" version="1.1" xmlns="http://www.w3.org/2000/svg" xmlns:xlink="http://www.w3.org/1999/xlink">
    <!-- Generator: Sketch 48.2 (47327) - http://www.bohemiancoding.com/sketch -->
    <title>icons8-coins</title>
    <desc>Created with Sketch.</desc>
    <defs></defs>
    <g id="54-ETH-Wallet---Main" stroke="none" stroke-width="1" fill="none" fill-rule="evenodd" transform="translate(-391.000000, -476.000000)">
        <g id="icons8-coins" transform="translate(391.000000, 476.000000)" fill="#00C0D9" fill-rule="nonzero">
            <path d="M17.2258065,0 C15.4112903,0 13.766129,0.348893133 12.5398185,0.9358723 C11.3150203,1.52434915 10.4516129,2.38984375 10.4516129,3.45 L10.4516129,8.5890625 C9.39012116,8.24466165 8.12903226,8.05 6.77419355,8.05 C4.95967742,8.05 3.31451613,8.39889313 2.08820555,8.9858723 C0.863407355,9.57434915 0,10.4398437 0,11.5 L0,19.55 C0,20.6101562 0.863407355,21.4756512 2.08820555,22.0641277 C3.31451613,22.6511069 4.95967742,23 6.77419355,23 C8.58870968,23 10.233871,22.6511069 11.4601815,22.0641277 C12.5972783,21.5175783 13.421371,20.7314452 13.5347783,19.7731119 C14.5992945,20.1205077 15.8649194,20.3166667 17.2258065,20.3166667 C19.0403226,20.3166667 20.6854839,19.9677735 21.9117945,19.3807944 C23.1365926,18.7923179 24,17.9268229 24,16.8666667 L24,3.45 C24,2.38984375 23.1365926,1.52434915 21.9117945,0.9358723 C20.6854839,0.348893133 19.0403226,0 17.2258065,0 Z M17.2258065,0.766666667 C18.939012,0.766666667 20.4873991,1.10507832 21.5730848,1.62617207 C22.6587701,2.14726582 23.2258065,2.81660147 23.2258065,3.45 C23.2258065,4.08339853 22.6587701,4.75273457 21.5730848,5.27382832 C20.4873991,5.79492207 18.939012,6.13333333 17.2258065,6.13333333 C15.5126009,6.13333333 13.9642138,5.79492207 12.8785281,5.27382832 C11.7928428,4.75273457 11.2258065,4.08339853 11.2258065,3.45 C11.2258065,2.81660147 11.7928428,2.14726582 12.8785281,1.62617207 C13.9642138,1.10507832 15.5126009,0.766666667 17.2258065,0.766666667 Z M15.0967742,1.91666667 C14.8835686,1.91666667 14.7096774,2.08886728 14.7096774,2.3 C14.7096774,2.51113272 14.8835686,2.68333333 15.0967742,2.68333333 C15.3099797,2.68333333 15.483871,2.51113272 15.483871,2.3 C15.483871,2.08886728 15.3099797,1.91666667 15.0967742,1.91666667 Z M16.6451613,1.91666667 C16.4319557,1.91666667 16.2580645,2.08886728 16.2580645,2.3 C16.2580645,2.51113272 16.4319557,2.68333333 16.6451613,2.68333333 C16.8583668,2.68333333 17.0322581,2.51113272 17.0322581,2.3 C17.0322581,2.08886728 16.8583668,1.91666667 16.6451613,1.91666667 Z M18.1935484,1.91666667 C17.9803428,1.91666667 17.8064516,2.08886728 17.8064516,2.3 C17.8064516,2.51113272 17.9803428,2.68333333 18.1935484,2.68333333 C18.4067539,2.68333333 18.5806452,2.51113272 18.5806452,2.3 C18.5806452,2.08886728 18.4067539,1.91666667 18.1935484,1.91666667 Z M19.7419355,1.91666667 C19.5287299,1.91666667 19.3548387,2.08886728 19.3548387,2.3 C19.3548387,2.51113272 19.5287299,2.68333333 19.7419355,2.68333333 C19.955141,2.68333333 20.1290323,2.51113272 20.1290323,2.3 C20.1290323,2.08886728 19.955141,1.91666667 19.7419355,1.91666667 Z M14.3225806,3.06666667 C14.1093751,3.06666667 13.9354839,3.23886728 13.9354839,3.45 C13.9354839,3.66113272 14.1093751,3.83333333 14.3225806,3.83333333 C14.5357862,3.83333333 14.7096774,3.66113272 14.7096774,3.45 C14.7096774,3.23886728 14.5357862,3.06666667 14.3225806,3.06666667 Z M15.8709677,3.06666667 C15.6577622,3.06666667 15.483871,3.23886728 15.483871,3.45 C15.483871,3.66113272 15.6577622,3.83333333 15.8709677,3.83333333 C16.0841733,3.83333333 16.2580645,3.66113272 16.2580645,3.45 C16.2580645,3.23886728 16.0841733,3.06666667 15.8709677,3.06666667 Z M17.4193548,3.06666667 C17.2061493,3.06666667 17.0322581,3.23886728 17.0322581,3.45 C17.0322581,3.66113272 17.2061493,3.83333333 17.4193548,3.83333333 C17.6325604,3.83333333 17.8064516,3.66113272 17.8064516,3.45 C17.8064516,3.23886728 17.6325604,3.06666667 17.4193548,3.06666667 Z M18.9677419,3.06666667 C18.7545364,3.06666667 18.5806452,3.23886728 18.5806452,3.45 C18.5806452,3.66113272 18.7545364,3.83333333 18.9677419,3.83333333 C19.1809475,3.83333333 19.3548387,3.66113272 19.3548387,3.45 C19.3548387,3.23886728 19.1809475,3.06666667 18.9677419,3.06666667 Z M20.516129,3.06666667 C20.3029235,3.06666667 20.1290323,3.23886728 20.1290323,3.45 C20.1290323,3.66113272 20.3029235,3.83333333 20.516129,3.83333333 C20.7293346,3.83333333 20.9032258,3.66113272 20.9032258,3.45 C20.9032258,3.23886728 20.7293346,3.06666667 20.516129,3.06666667 Z M15.0967742,4.21666667 C14.8835686,4.21666667 14.7096774,4.38886728 14.7096774,4.6 C14.7096774,4.81113272 14.8835686,4.98333333 15.0967742,4.98333333 C15.3099797,4.98333333 15.483871,4.81113272 15.483871,4.6 C15.483871,4.38886728 15.3099797,4.21666667 15.0967742,4.21666667 Z M16.6451613,4.21666667 C16.4319557,4.21666667 16.2580645,4.38886728 16.2580645,4.6 C16.2580645,4.81113272 16.4319557,4.98333333 16.6451613,4.98333333 C16.8583668,4.98333333 17.0322581,4.81113272 17.0322581,4.6 C17.0322581,4.38886728 16.8583668,4.21666667 16.6451613,4.21666667 Z M18.1935484,4.21666667 C17.9803428,4.21666667 17.8064516,4.38886728 17.8064516,4.6 C17.8064516,4.81113272 17.9803428,4.98333333 18.1935484,4.98333333 C18.4067539,4.98333333 18.5806452,4.81113272 18.5806452,4.6 C18.5806452,4.38886728 18.4067539,4.21666667 18.1935484,4.21666667 Z M19.7419355,4.21666667 C19.5287299,4.21666667 19.3548387,4.38886728 19.3548387,4.6 C19.3548387,4.81113272 19.5287299,4.98333333 19.7419355,4.98333333 C19.955141,4.98333333 20.1290323,4.81113272 20.1290323,4.6 C20.1290323,4.38886728 19.955141,4.21666667 19.7419355,4.21666667 Z M11.2258065,5.07317708 C11.5766129,5.41458333 12.0226815,5.7155598 12.5398185,5.9641277 C13.766129,6.55110687 15.4112903,6.9 17.2258065,6.9 C19.0403226,6.9 20.6854839,6.55110687 21.9117945,5.9641277 C22.4289314,5.7155598 22.875,5.41458333 23.2258065,5.07317708 L23.2258065,6.13333333 C23.2258065,6.76673187 22.6587701,7.4360679 21.5730848,7.95716165 C20.4873991,8.4782554 18.939012,8.81666667 17.2258065,8.81666667 C15.5126009,8.81666667 13.9642138,8.4782554 12.8785281,7.95716165 C11.7928428,7.4360679 11.2258065,6.76673187 11.2258065,6.13333333 L11.2258065,5.07317708 Z M18.1935484,7.28333333 C17.9803428,7.28333333 17.8064516,7.45553395 17.8064516,7.66666667 C17.8064516,7.87779938 17.9803428,8.05 18.1935484,8.05 C18.4067539,8.05 18.5806452,7.87779938 18.5806452,7.66666667 C18.5806452,7.45553395 18.4067539,7.28333333 18.1935484,7.28333333 Z M19.7419355,7.28333333 C19.5287299,7.28333333 19.3548387,7.45553395 19.3548387,7.66666667 C19.3548387,7.87779938 19.5287299,8.05 19.7419355,8.05 C19.955141,8.05 20.1290323,7.87779938 20.1290323,7.66666667 C20.1290323,7.45553395 19.955141,7.28333333 19.7419355,7.28333333 Z M11.2258065,7.75651042 C11.5766129,8.09791667 12.0226815,8.39739583 12.5398185,8.64746103 C13.766129,9.2344402 15.4112903,9.58333333 17.2258065,9.58333333 C19.0403226,9.58333333 20.6854839,9.2344402 21.9117945,8.64746103 C22.4289314,8.39739583 22.875,8.09791667 23.2258065,7.75651042 L23.2258065,8.81666667 C23.2258065,9.4500652 22.6587701,10.1194012 21.5730848,10.640495 C20.4873991,11.1615887 18.939012,11.5 17.2258065,11.5 C15.7862903,11.5 14.4662299,11.2604167 13.4349797,10.872591 C13.1703631,10.0969402 12.4324599,9.45455748 11.4601815,8.9858723 C11.3860889,8.95143248 11.3074599,8.91998688 11.2318548,8.88704437 C11.2303428,8.86308603 11.2258065,8.840625 11.2258065,8.81666667 L11.2258065,7.75651042 Z M6.77419355,8.81666667 C8.4873991,8.81666667 10.0357862,9.15507832 11.1214719,9.67617207 C12.2071572,10.1972658 12.7741935,10.8666015 12.7741935,11.5 C12.7741935,12.1333985 12.2071572,12.8027346 11.1214719,13.3238283 C10.0357862,13.8449221 8.4873991,14.1833333 6.77419355,14.1833333 C5.060988,14.1833333 3.5126009,13.8449221 2.42691523,13.3238283 C1.34122994,12.8027346 0.774193548,12.1333985 0.774193548,11.5 C0.774193548,10.8666015 1.34122994,10.1972658 2.42691523,9.67617207 C3.5126009,9.15507832 5.060988,8.81666667 6.77419355,8.81666667 Z M4.64516129,9.96666667 C4.43195574,9.96666667 4.25806452,10.1388673 4.25806452,10.35 C4.25806452,10.5611327 4.43195574,10.7333333 4.64516129,10.7333333 C4.85836684,10.7333333 5.03225806,10.5611327 5.03225806,10.35 C5.03225806,10.1388673 4.85836684,9.96666667 4.64516129,9.96666667 Z M6.19354839,9.96666667 C5.98034284,9.96666667 5.80645161,10.1388673 5.80645161,10.35 C5.80645161,10.5611327 5.98034284,10.7333333 6.19354839,10.7333333 C6.40675394,10.7333333 6.58064516,10.5611327 6.58064516,10.35 C6.58064516,10.1388673 6.40675394,9.96666667 6.19354839,9.96666667 Z M7.74193548,9.96666667 C7.52872994,9.96666667 7.35483871,10.1388673 7.35483871,10.35 C7.35483871,10.5611327 7.52872994,10.7333333 7.74193548,10.7333333 C7.95514103,10.7333333 8.12903226,10.5611327 8.12903226,10.35 C8.12903226,10.1388673 7.95514103,9.96666667 7.74193548,9.96666667 Z M9.29032258,9.96666667 C9.07711703,9.96666667 8.90322581,10.1388673 8.90322581,10.35 C8.90322581,10.5611327 9.07711703,10.7333333 9.29032258,10.7333333 C9.50352813,10.7333333 9.67741935,10.5611327 9.67741935,10.35 C9.67741935,10.1388673 9.50352813,9.96666667 9.29032258,9.96666667 Z M18.1935484,9.96666667 C17.9803428,9.96666667 17.8064516,10.1388673 17.8064516,10.35 C17.8064516,10.5611327 17.9803428,10.7333333 18.1935484,10.7333333 C18.4067539,10.7333333 18.5806452,10.5611327 18.5806452,10.35 C18.5806452,10.1388673 18.4067539,9.96666667 18.1935484,9.96666667 Z M19.7419355,9.96666667 C19.5287299,9.96666667 19.3548387,10.1388673 19.3548387,10.35 C19.3548387,10.5611327 19.5287299,10.7333333 19.7419355,10.7333333 C19.955141,10.7333333 20.1290323,10.5611327 20.1290323,10.35 C20.1290323,10.1388673 19.955141,9.96666667 19.7419355,9.96666667 Z M23.2258065,10.4398437 L23.2258065,11.5 C23.2258065,12.1333985 22.6587701,12.8027346 21.5730848,13.3238283 C20.4873991,13.8449221 18.939012,14.1833333 17.2258065,14.1833333 C15.8377018,14.1833333 14.5630041,13.9602214 13.5483871,13.5978515 L13.5483871,11.7276042 C14.6098792,12.0705077 15.8709677,12.2666667 17.2258065,12.2666667 C19.0403226,12.2666667 20.6854839,11.9177735 21.9117945,11.3307944 C22.4289314,11.0807292 22.875,10.78125 23.2258065,10.4398437 Z M3.87096774,11.1166667 C3.65776219,11.1166667 3.48387097,11.2888673 3.48387097,11.5 C3.48387097,11.7111327 3.65776219,11.8833333 3.87096774,11.8833333 C4.08417329,11.8833333 4.25806452,11.7111327 4.25806452,11.5 C4.25806452,11.2888673 4.08417329,11.1166667 3.87096774,11.1166667 Z M5.41935484,11.1166667 C5.20614929,11.1166667 5.03225806,11.2888673 5.03225806,11.5 C5.03225806,11.7111327 5.20614929,11.8833333 5.41935484,11.8833333 C5.63256039,11.8833333 5.80645161,11.7111327 5.80645161,11.5 C5.80645161,11.2888673 5.63256039,11.1166667 5.41935484,11.1166667 Z M6.96774194,11.1166667 C6.75453639,11.1166667 6.58064516,11.2888673 6.58064516,11.5 C6.58064516,11.7111327 6.75453639,11.8833333 6.96774194,11.8833333 C7.18094748,11.8833333 7.35483871,11.7111327 7.35483871,11.5 C7.35483871,11.2888673 7.18094748,11.1166667 6.96774194,11.1166667 Z M8.51612903,11.1166667 C8.30292348,11.1166667 8.12903226,11.2888673 8.12903226,11.5 C8.12903226,11.7111327 8.30292348,11.8833333 8.51612903,11.8833333 C8.72933458,11.8833333 8.90322581,11.7111327 8.90322581,11.5 C8.90322581,11.2888673 8.72933458,11.1166667 8.51612903,11.1166667 Z M10.0645161,11.1166667 C9.85131058,11.1166667 9.67741935,11.2888673 9.67741935,11.5 C9.67741935,11.7111327 9.85131058,11.8833333 10.0645161,11.8833333 C10.2777217,11.8833333 10.4516129,11.7111327 10.4516129,11.5 C10.4516129,11.2888673 10.2777217,11.1166667 10.0645161,11.1166667 Z M4.64516129,12.2666667 C4.43195574,12.2666667 4.25806452,12.4388673 4.25806452,12.65 C4.25806452,12.8611327 4.43195574,13.0333333 4.64516129,13.0333333 C4.85836684,13.0333333 5.03225806,12.8611327 5.03225806,12.65 C5.03225806,12.4388673 4.85836684,12.2666667 4.64516129,12.2666667 Z M6.19354839,12.2666667 C5.98034284,12.2666667 5.80645161,12.4388673 5.80645161,12.65 C5.80645161,12.8611327 5.98034284,13.0333333 6.19354839,13.0333333 C6.40675394,13.0333333 6.58064516,12.8611327 6.58064516,12.65 C6.58064516,12.4388673 6.40675394,12.2666667 6.19354839,12.2666667 Z M7.74193548,12.2666667 C7.52872994,12.2666667 7.35483871,12.4388673 7.35483871,12.65 C7.35483871,12.8611327 7.52872994,13.0333333 7.74193548,13.0333333 C7.95514103,13.0333333 8.12903226,12.8611327 8.12903226,12.65 C8.12903226,12.4388673 7.95514103,12.2666667 7.74193548,12.2666667 Z M9.29032258,12.2666667 C9.07711703,12.2666667 8.90322581,12.4388673 8.90322581,12.65 C8.90322581,12.8611327 9.07711703,13.0333333 9.29032258,13.0333333 C9.50352813,13.0333333 9.67741935,12.8611327 9.67741935,12.65 C9.67741935,12.4388673 9.50352813,12.2666667 9.29032258,12.2666667 Z M18.1935484,12.65 C17.9803428,12.65 17.8064516,12.8222006 17.8064516,13.0333333 C17.8064516,13.2444661 17.9803428,13.4166667 18.1935484,13.4166667 C18.4067539,13.4166667 18.5806452,13.2444661 18.5806452,13.0333333 C18.5806452,12.8222006 18.4067539,12.65 18.1935484,12.65 Z M19.7419355,12.65 C19.5287299,12.65 19.3548387,12.8222006 19.3548387,13.0333333 C19.3548387,13.2444661 19.5287299,13.4166667 19.7419355,13.4166667 C19.955141,13.4166667 20.1290323,13.2444661 20.1290323,13.0333333 C20.1290323,12.8222006 19.955141,12.65 19.7419355,12.65 Z M0.774193548,13.1231771 C1.125,13.4645833 1.57106865,13.7655598 2.08820555,14.0141277 C3.31451613,14.6011069 4.95967742,14.95 6.77419355,14.95 C8.58870968,14.95 10.233871,14.6011069 11.4601815,14.0141277 C11.9773185,13.7655598 12.4233871,13.4645833 12.7741935,13.1231771 L12.7741935,14.1833333 C12.7741935,14.8167319 12.2071572,15.4860679 11.1214719,16.0071616 C10.0357862,16.5282554 8.4873991,16.8666667 6.77419355,16.8666667 C5.060988,16.8666667 3.5126009,16.5282554 2.42691523,16.0071616 C1.34122994,15.4860679 0.774193548,14.8167319 0.774193548,14.1833333 L0.774193548,13.1231771 Z M23.2258065,13.1231771 L23.2258065,14.1833333 C23.2258065,14.8167319 22.6587701,15.4860679 21.5730848,16.0071616 C20.4873991,16.5282554 18.939012,16.8666667 17.2258065,16.8666667 C15.8377018,16.8666667 14.5614921,16.6435548 13.5483871,16.2811848 L13.5483871,14.4109375 C14.6098792,14.753841 15.8709677,14.95 17.2258065,14.95 C19.0403226,14.95 20.6854839,14.6011069 21.9117945,14.0141277 C22.4289314,13.7640625 22.875,13.4645833 23.2258065,13.1231771 Z M7.74193548,15.3333333 C7.52872994,15.3333333 7.35483871,15.5055339 7.35483871,15.7166667 C7.35483871,15.9277994 7.52872994,16.1 7.74193548,16.1 C7.95514103,16.1 8.12903226,15.9277994 8.12903226,15.7166667 C8.12903226,15.5055339 7.95514103,15.3333333 7.74193548,15.3333333 Z M9.29032258,15.3333333 C9.07711703,15.3333333 8.90322581,15.5055339 8.90322581,15.7166667 C8.90322581,15.9277994 9.07711703,16.1 9.29032258,16.1 C9.50352813,16.1 9.67741935,15.9277994 9.67741935,15.7166667 C9.67741935,15.5055339 9.50352813,15.3333333 9.29032258,15.3333333 Z M18.1935484,15.3333333 C17.9803428,15.3333333 17.8064516,15.5055339 17.8064516,15.7166667 C17.8064516,15.9277994 17.9803428,16.1 18.1935484,16.1 C18.4067539,16.1 18.5806452,15.9277994 18.5806452,15.7166667 C18.5806452,15.5055339 18.4067539,15.3333333 18.1935484,15.3333333 Z M19.7419355,15.3333333 C19.5287299,15.3333333 19.3548387,15.5055339 19.3548387,15.7166667 C19.3548387,15.9277994 19.5287299,16.1 19.7419355,16.1 C19.955141,16.1 20.1290323,15.9277994 20.1290323,15.7166667 C20.1290323,15.5055339 19.955141,15.3333333 19.7419355,15.3333333 Z M0.774193548,15.8065104 C1.125,16.1479167 1.57106865,16.4473958 2.08820555,16.697461 C3.31451613,17.2844402 4.95967742,17.6333333 6.77419355,17.6333333 C8.58870968,17.6333333 10.233871,17.2844402 11.4601815,16.697461 C11.9773185,16.4473958 12.4233871,16.1479167 12.7741935,15.8065104 L12.7741935,16.8666667 C12.7741935,17.5000652 12.2071572,18.1694012 11.1214719,18.690495 C10.0357862,19.2115887 8.4873991,19.55 6.77419355,19.55 C5.060988,19.55 3.5126009,19.2115887 2.42691523,18.690495 C1.34122994,18.1694012 0.774193548,17.5000652 0.774193548,16.8666667 L0.774193548,15.8065104 Z M23.2258065,15.8065104 L23.2258065,16.8666667 C23.2258065,17.5000652 22.6587701,18.1694012 21.5730848,18.690495 C20.4873991,19.2115887 18.939012,19.55 17.2258065,19.55 C15.8377018,19.55 14.5614921,19.3283854 13.5483871,18.9645181 L13.5483871,17.0942708 C14.6098792,17.4371744 15.8709677,17.6333333 17.2258065,17.6333333 C19.0403226,17.6333333 20.6854839,17.2844402 21.9117945,16.697461 C22.4289314,16.4473958 22.875,16.1479167 23.2258065,15.8065104 Z M7.74193548,18.0166667 C7.52872994,18.0166667 7.35483871,18.1888673 7.35483871,18.4 C7.35483871,18.6111327 7.52872994,18.7833333 7.74193548,18.7833333 C7.95514103,18.7833333 8.12903226,18.6111327 8.12903226,18.4 C8.12903226,18.1888673 7.95514103,18.0166667 7.74193548,18.0166667 Z M9.29032258,18.0166667 C9.07711703,18.0166667 8.90322581,18.1888673 8.90322581,18.4 C8.90322581,18.6111327 9.07711703,18.7833333 9.29032258,18.7833333 C9.50352813,18.7833333 9.67741935,18.6111327 9.67741935,18.4 C9.67741935,18.1888673 9.50352813,18.0166667 9.29032258,18.0166667 Z M18.1935484,18.0166667 C17.9803428,18.0166667 17.8064516,18.1888673 17.8064516,18.4 C17.8064516,18.6111327 17.9803428,18.7833333 18.1935484,18.7833333 C18.4067539,18.7833333 18.5806452,18.6111327 18.5806452,18.4 C18.5806452,18.1888673 18.4067539,18.0166667 18.1935484,18.0166667 Z M19.7419355,18.0166667 C19.5287299,18.0166667 19.3548387,18.1888673 19.3548387,18.4 C19.3548387,18.6111327 19.5287299,18.7833333 19.7419355,18.7833333 C19.955141,18.7833333 20.1290323,18.6111327 20.1290323,18.4 C20.1290323,18.1888673 19.955141,18.0166667 19.7419355,18.0166667 Z M0.774193548,18.4898437 C1.125,18.83125 1.57106865,19.1307292 2.08820555,19.3807944 C3.31451613,19.9677735 4.95967742,20.3166667 6.77419355,20.3166667 C8.58870968,20.3166667 10.233871,19.9677735 11.4601815,19.3807944 C11.9773185,19.1307292 12.4233871,18.83125 12.7741935,18.4898437 L12.7741935,19.55 C12.7741935,20.1833985 12.2071572,20.8527346 11.1214719,21.3738283 C10.0357862,21.8949221 8.4873991,22.2333333 6.77419355,22.2333333 C5.060988,22.2333333 3.5126009,21.8949221 2.42691523,21.3738283 C1.34122994,20.8527346 0.774193548,20.1833985 0.774193548,19.55 L0.774193548,18.4898437 Z M7.74193548,20.7 C7.52872994,20.7 7.35483871,20.8722006 7.35483871,21.0833333 C7.35483871,21.2944661 7.52872994,21.4666667 7.74193548,21.4666667 C7.95514103,21.4666667 8.12903226,21.2944661 8.12903226,21.0833333 C8.12903226,20.8722006 7.95514103,20.7 7.74193548,20.7 Z M9.29032258,20.7 C9.07711703,20.7 8.90322581,20.8722006 8.90322581,21.0833333 C8.90322581,21.2944661 9.07711703,21.4666667 9.29032258,21.4666667 C9.50352813,21.4666667 9.67741935,21.2944661 9.67741935,21.0833333 C9.67741935,20.8722006 9.50352813,20.7 9.29032258,20.7 Z" id="Shape"></path>
        </g>
    </g>
</svg>