<?xml version="1.0" encoding="UTF-8"?>
<svg width="35px" height="27px" viewBox="0 0 35 27" version="1.1" xmlns="http://www.w3.org/2000/svg" xmlns:xlink="http://www.w3.org/1999/xlink">
    <!-- Generator: Sketch 48.2 (47327) - http://www.bohemiancoding.com/sketch -->
    <title>icons8-gmail</title>
    <desc>Created with Sketch.</desc>
    <defs></defs>
    <g id="58-ETH-Wallet---Receive" stroke="none" stroke-width="1" fill="none" fill-rule="evenodd" transform="translate(-668.000000, -693.000000)">
        <g id="Group" transform="translate(608.000000, 689.000000)" fill="#93B0C1" fill-rule="nonzero">
            <g id="icons8-gmail" transform="translate(60.000000, 4.000000)">
                <path d="M3.25,0 C1.4628905,0 0.0039065,1.4570315 0,3.2421875 C0,3.2441405 0,3.2441405 0,3.246094 C0,3.248047 0,3.248047 0,3.25 L0,23.75 C0,25.5390625 1.4609375,27 3.25,27 L31.75,27 C33.5390625,27 35,25.5390625 35,23.75 L35,3.25 C35,3.248047 35,3.248047 35,3.246094 C35,3.2441405 35,3.2441405 35,3.2421875 C34.996094,1.4570315 33.5371095,0 31.75,0 L3.25,0 Z M3.25,1 L31.75,1 C32.2226565,1 32.6601565,1.1445315 33.0214845,1.390625 L32.9472655,1.5253905 L33.1347655,1.9316405 L33.5722655,2.0253905 L33.625,2.001953 C33.861328,2.359375 34,2.7851565 34,3.248047 C34,3.248047 34,3.248047 34,3.25 C33.998047,4.0664065 33.5996095,4.828125 32.9296875,5.294922 L17.5,16.046875 L2.0703125,5.294922 C1.4003905,4.828125 1.001953,4.0664065 1,3.25 C1,3.248047 1,3.248047 1,3.248047 C1,2.767578 1.152344,2.326172 1.40625,1.9609375 L1.6914065,2.001953 L2.0078125,1.6875 L1.966797,1.4003905 C2.330078,1.1503905 2.7714845,1 3.25,1 Z M3.015625,2.1972655 L2.699219,2.515625 L2.763672,2.9589845 L2.888672,3.0820315 L2.9296875,3.111328 L3.373047,3.173828 L3.689453,2.859375 L3.625,2.4140625 L3.5,2.2890625 L3.4609375,2.261719 L3.015625,2.1972655 Z M31.6796875,2.203125 L31.5214845,2.2753905 L31.4785155,2.3046875 L31.265625,2.6972655 L31.453125,3.105469 L31.890625,3.1972655 L32.0507815,3.125 L32.091797,3.095703 L32.3046875,2.703125 L32.1171875,2.296875 L31.6796875,2.203125 Z M4.6972655,3.3691405 L4.3808595,3.6875 L4.4453125,4.1308595 L4.5703125,4.2558595 L4.609375,4.283203 L5.0546875,4.3476565 L5.371094,4.03125 L5.3066405,3.5859375 L5.1816405,3.4628905 L5.140625,3.433594 L4.6972655,3.3691405 Z M30,3.375 L29.8378905,3.4472655 L29.796875,3.4765625 L29.5839845,3.8691405 L29.7714845,4.277344 L30.2089845,4.371094 L30.3691405,4.296875 L30.4101565,4.267578 L30.625,3.875 L30.4375,3.46875 L30,3.375 Z M6.3808595,4.5410155 L6.0625,4.859375 L6.126953,5.3027345 L6.251953,5.4277345 L6.292969,5.455078 L6.736328,5.5195315 L7.0527345,5.203125 L6.9902345,4.7597655 L6.8652345,4.6347655 L6.8222655,4.607422 L6.3808595,4.5410155 Z M28.3164065,4.546875 L28.15625,4.6191405 L28.1152345,4.6484375 L27.9003905,5.0410155 L28.0878905,5.449219 L28.527344,5.542969 L28.6875,5.46875 L28.7285155,5.439453 L28.9433595,5.046875 L28.7558595,4.640625 L28.3164065,4.546875 Z M1,5.6816405 C1.152344,5.839844 1.3164065,5.986328 1.5,6.1152345 L3.4882815,7.5 C3.216797,7.5078125 3,7.7285155 3,8 C3,8.2753905 3.2246095,8.5 3.5,8.5 C3.7753905,8.5 4,8.2753905 4,8 C4,7.9453125 3.9902345,7.890625 3.9726565,7.8378905 L17.5,17.265625 L31.027344,7.8378905 C31.0097655,7.890625 31,7.9453125 31,8 C31,8.2753905 31.2246095,8.5 31.5,8.5 C31.7753905,8.5 32,8.2753905 32,8 C32,7.7285155 31.783203,7.5058595 31.511719,7.5 L33.5,6.1152345 C33.683594,5.986328 33.8476565,5.839844 34,5.6816405 L34,23.75 C34,24.9140625 33.126953,25.8496095 32,25.9746095 C31.986328,25.7089845 31.765625,25.5 31.5,25.5 C31.2246095,25.5 31,25.7246095 31,26 L4,26 C4,25.7246095 3.7753905,25.5 3.5,25.5 C3.234375,25.5 3.013672,25.7089845 3,25.9746095 C1.873047,25.8496095 1,24.9140625 1,23.75 L1,5.6816405 Z M8.0625,5.7128905 L7.7441405,6.03125 L7.808594,6.4746095 L7.933594,6.5996095 L7.9746095,6.626953 L8.417969,6.6914065 L8.734375,6.375 L8.671875,5.9316405 L8.546875,5.8066405 L8.5058595,5.779297 L8.0625,5.7128905 Z M26.6347655,5.71875 L26.4746095,5.7910155 L26.433594,5.8203125 L26.21875,6.214844 L26.40625,6.621094 L26.845703,6.714844 L27.0058595,6.640625 L27.046875,6.611328 L27.2597655,6.21875 L27.0722655,5.8125 L26.6347655,5.71875 Z M9.7441405,6.8847655 L9.4277345,7.203125 L9.4921875,7.6464845 L9.6152345,7.7714845 L9.65625,7.798828 L10.0996095,7.8652345 L10.4160155,7.546875 L10.3515625,7.1035155 L10.2285155,6.9785155 L10.1875,6.951172 L9.7441405,6.8847655 Z M24.953125,6.890625 L24.792969,6.9628905 L24.751953,6.9921875 L24.5390625,7.386719 L24.7265625,7.794922 L25.1640625,7.886719 L25.3222655,7.8125 L25.3652345,7.7851565 L25.578125,7.390625 L25.390625,6.984375 L24.953125,6.890625 Z M11.4257815,8.058594 L11.109375,8.375 L11.171875,8.8183595 L11.296875,8.9433595 L11.3378905,8.970703 L11.78125,9.0371095 L12.0996095,8.71875 L12.033203,8.2753905 L11.9101565,8.1503905 L11.8691405,8.123047 L11.4257815,8.058594 Z M23.2714845,8.0625 L23.111328,8.136719 L23.0703125,8.1640625 L22.857422,8.558594 L23.044922,8.966797 L23.482422,9.060547 L23.640625,8.984375 L23.6816405,8.9570315 L23.8964845,8.5625 L23.7089845,8.15625 L23.2714845,8.0625 Z M13.107422,9.230469 L12.7890625,9.546875 L12.8535155,9.9902345 L12.9785155,10.1152345 L13.0214845,10.142578 L13.4628905,10.2089845 L13.78125,9.890625 L13.716797,9.4472655 L13.591797,9.3222655 L13.5507815,9.294922 L13.107422,9.230469 Z M21.589844,9.234375 L21.4296875,9.308594 L21.388672,9.3359375 L21.173828,9.730469 L21.361328,10.138672 L21.798828,10.232422 L21.9609375,10.15625 L22,10.1289065 L22.214844,9.734375 L22.027344,9.328125 L21.589844,9.234375 Z M3.5,9.5 C3.2246095,9.5 3,9.7246095 3,10 C3,10.2753905 3.2246095,10.5 3.5,10.5 C3.7753905,10.5 4,10.2753905 4,10 C4,9.7246095 3.7753905,9.5 3.5,9.5 Z M31.5,9.5 C31.2246095,9.5 31,9.7246095 31,10 C31,10.2753905 31.2246095,10.5 31.5,10.5 C31.7753905,10.5 32,10.2753905 32,10 C32,9.7246095 31.7753905,9.5 31.5,9.5 Z M14.7890625,10.402344 L14.4726565,10.71875 L14.5371095,11.1640625 L14.6621095,11.2871095 L14.703125,11.314453 L15.1464845,11.3808595 L15.4609375,11.0625 L15.3984375,10.6191405 L15.2734375,10.4941405 L15.232422,10.466797 L14.7890625,10.402344 Z M19.90625,10.40625 L19.748047,10.480469 L19.705078,10.5097655 L19.4921875,10.904297 L19.6796875,11.310547 L20.1171875,11.404297 L20.279297,11.330078 L20.3203125,11.3007815 L20.533203,10.90625 L20.345703,10.5 L19.90625,10.40625 Z M3.5,11.5 C3.2246095,11.5 3,11.7246095 3,12 C3,12.2753905 3.2246095,12.5 3.5,12.5 C3.7753905,12.5 4,12.2753905 4,12 C4,11.7246095 3.7753905,11.5 3.5,11.5 Z M31.5,11.5 C31.2246095,11.5 31,11.7246095 31,12 C31,12.2753905 31.2246095,12.5 31.5,12.5 C31.7753905,12.5 32,12.2753905 32,12 C32,11.7246095 31.7753905,11.5 31.5,11.5 Z M16.470703,11.574219 L16.154297,11.890625 L16.21875,12.3359375 L16.34375,12.4589845 L16.3828125,12.4882815 L16.828125,12.5527345 L17.1445315,12.234375 L17.080078,11.7910155 L16.955078,11.667969 L16.9140625,11.638672 L16.470703,11.574219 Z M18.2265625,11.578125 L18.064453,11.654297 L18.0234375,11.6816405 L17.810547,12.076172 L17.998047,12.482422 L18.4375,12.576172 L18.595703,12.501953 L18.638672,12.4746095 L18.8515625,12.080078 L18.6640625,11.671875 L18.2265625,11.578125 Z M3.5,13.5 C3.2246095,13.5 3,13.7246095 3,14 C3,14.2753905 3.2246095,14.5 3.5,14.5 C3.7753905,14.5 4,14.2753905 4,14 C4,13.7246095 3.7753905,13.5 3.5,13.5 Z M31.5,13.5 C31.2246095,13.5 31,13.7246095 31,14 C31,14.2753905 31.2246095,14.5 31.5,14.5 C31.7753905,14.5 32,14.2753905 32,14 C32,13.7246095 31.7753905,13.5 31.5,13.5 Z M3.5,15.5 C3.2246095,15.5 3,15.7246095 3,16 C3,16.2753905 3.2246095,16.5 3.5,16.5 C3.7753905,16.5 4,16.2753905 4,16 C4,15.7246095 3.7753905,15.5 3.5,15.5 Z M31.5,15.5 C31.2246095,15.5 31,15.7246095 31,16 C31,16.2753905 31.2246095,16.5 31.5,16.5 C31.7753905,16.5 32,16.2753905 32,16 C32,15.7246095 31.7753905,15.5 31.5,15.5 Z M3.5,17.5 C3.2246095,17.5 3,17.7246095 3,18 C3,18.2753905 3.2246095,18.5 3.5,18.5 C3.7753905,18.5 4,18.2753905 4,18 C4,17.7246095 3.7753905,17.5 3.5,17.5 Z M31.5,17.5 C31.2246095,17.5 31,17.7246095 31,18 C31,18.2753905 31.2246095,18.5 31.5,18.5 C31.7753905,18.5 32,18.2753905 32,18 C32,17.7246095 31.7753905,17.5 31.5,17.5 Z M3.5,19.5 C3.2246095,19.5 3,19.7246095 3,20 C3,20.2753905 3.2246095,20.5 3.5,20.5 C3.7753905,20.5 4,20.2753905 4,20 C4,19.7246095 3.7753905,19.5 3.5,19.5 Z M31.5,19.5 C31.2246095,19.5 31,19.7246095 31,20 C31,20.2753905 31.2246095,20.5 31.5,20.5 C31.7753905,20.5 32,20.2753905 32,20 C32,19.7246095 31.7753905,19.5 31.5,19.5 Z M3.5,21.5 C3.2246095,21.5 3,21.7246095 3,22 C3,22.2753905 3.2246095,22.5 3.5,22.5 C3.7753905,22.5 4,22.2753905 4,22 C4,21.7246095 3.7753905,21.5 3.5,21.5 Z M31.5,21.5 C31.2246095,21.5 31,21.7246095 31,22 C31,22.2753905 31.2246095,22.5 31.5,22.5 C31.7753905,22.5 32,22.2753905 32,22 C32,21.7246095 31.7753905,21.5 31.5,21.5 Z M3.5,23.5 C3.2246095,23.5 3,23.7246095 3,24 C3,24.2753905 3.2246095,24.5 3.5,24.5 C3.7753905,24.5 4,24.2753905 4,24 C4,23.7246095 3.7753905,23.5 3.5,23.5 Z M31.5,23.5 C31.2246095,23.5 31,23.7246095 31,24 C31,24.2753905 31.2246095,24.5 31.5,24.5 C31.7753905,24.5 32,24.2753905 32,24 C32,23.7246095 31.7753905,23.5 31.5,23.5 Z" id="Shape"></path>
            </g>
        </g>
    </g>
</svg>