<svg xmlns="http://www.w3.org/2000/svg" width="35" height="36" viewBox="0 0 35 36">
    <path fill="#93A4AF" fill-rule="nonzero" d="M33.563.692a.676.676 0 0 0-.257.087l-32.941 18a.688.688 0 1 0 .107 1.255l9.35 3.093-.9 9.347a.69.69 0 0 0 .407.716c.279.122.603.04.794-.197l5.897-6.729 8.9 8.849a.68.68 0 0 0 1.137-.325l8.235-33.23a.69.69 0 0 0-.136-.628.68.68 0 0 0-.593-.238zm-.986 2.034l-7.57 30.548-8.129-8.091L28.695 8.719a.692.692 0 0 0-.022-.974.678.678 0 0 0-.965.022L10.444 21.873l-8.042-2.64L32.577 2.726zm-8.021 9.39l-9.008 12.612a.656.656 0 0 0-.064.087l-.043.043a.902.902 0 0 0-.043.065l-4.91 5.56.728-7.485 13.34-10.883z"/>
</svg>
