<svg xmlns="http://www.w3.org/2000/svg" width="35" height="36" viewBox="0 0 35 36">
    <path fill="#00ADC6" fill-rule="nonzero" d="M4.494.742a.884.884 0 0 0-.095.024.766.766 0 0 0-.595.766v6.894h6.848a.764.764 0 0 0 .669-1.152.764.764 0 0 0-.669-.38H6.325c2.883-2.84 6.82-4.596 11.175-4.596 8.833 0 15.978 7.193 15.978 16.085 0 8.892-7.145 16.085-15.978 16.085S1.522 27.275 1.522 18.383c0-2.66.65-5.164 1.783-7.372l-1.355-.695A17.606 17.606 0 0 0 0 18.383C0 28.104 7.843 36 17.5 36S35 28.104 35 18.383 27.157.766 17.5.766c-4.738 0-9.023 1.918-12.174 5.003V1.532a.764.764 0 0 0-.832-.79zM17.5 3.064c-.42 0-.76.344-.76.766 0 .422.34.766.76.766s.76-.344.76-.766a.765.765 0 0 0-.76-.766zm7.228 1.939c-.419 0-.76.344-.76.766 0 .421.341.766.76.766.42 0 .761-.345.761-.766a.765.765 0 0 0-.76-.766zm5.303 5.337c-.42 0-.761.345-.761.766 0 .422.341.766.76.766.42 0 .761-.344.761-.766a.765.765 0 0 0-.76-.766zm-17.572 1.844c-2.11 0-3.614 1.385-3.614 3.375v.023h1.57v-.023c0-1.152.79-1.915 1.973-1.915 1.106 0 1.95.736 1.95 1.723 0 .793-.348 1.367-1.784 2.872L8.94 22.021v1.221h7.228v-1.508h-4.921v-.12l2.401-2.441c1.798-1.831 2.33-2.759 2.33-3.902 0-1.78-1.483-3.087-3.519-3.087zm10.058.263c-1.911 2.881-3.51 5.391-4.47 7.157v1.556h5.23v2.082h1.594V21.16h1.498v-1.508H24.87v-7.205h-2.354zm.69 1.484h.095v5.768H19.64v-.12a81.265 81.265 0 0 1 3.567-5.648zM3.043 17.617c-.419 0-.76.344-.76.766 0 .422.341.766.76.766.42 0 .761-.344.761-.766a.765.765 0 0 0-.76-.766zm28.914 0c-.42 0-.761.344-.761.766 0 .422.341.766.76.766.42 0 .761-.344.761-.766a.765.765 0 0 0-.76-.766zM4.969 24.894c-.419 0-.76.344-.76.766 0 .421.341.766.76.766.42 0 .761-.345.761-.766a.765.765 0 0 0-.76-.766zm25.062 0c-.42 0-.761.344-.761.766 0 .421.341.766.76.766.42 0 .761-.345.761-.766a.765.765 0 0 0-.76-.766zM10.27 30.23c-.418 0-.76.344-.76.766 0 .422.342.766.76.766.42 0 .762-.344.762-.766a.765.765 0 0 0-.761-.766zm14.457 0c-.419 0-.76.344-.76.766 0 .422.341.766.76.766.42 0 .761-.344.761-.766a.765.765 0 0 0-.76-.766zm-7.228 1.94a.765.765 0 1 0 0 1.532c.42 0 .76-.345.76-.767a.765.765 0 0 0-.76-.766z"/>
</svg>
