<svg xmlns="http://www.w3.org/2000/svg" width="57" height="65" viewBox="0 0 57 65">
    <defs>
        <linearGradient id="a" x1="50%" x2="50%" y1="97.784%" y2="1.559%">
            <stop offset="0%" stop-color="#08BCCD"/>
            <stop offset="100%" stop-color="#2DA1F8"/>
        </linearGradient>
        <linearGradient id="b" x1="50%" x2="41.849%" y1="97.784%" y2="-16.397%">
            <stop offset="0%" stop-color="#08BCCD"/>
            <stop offset="100%" stop-color="#2DA1F8"/>
        </linearGradient>
    </defs>
    <g fill="none" fill-rule="nonzero">
        <ellipse cx="26.98" cy="45.5" fill="url(#a)" rx="4.18" ry="4.206"/>
        <path fill="url(#b)" d="M57 16.25L28.5 0 0 16.25v32.5L28.5 65 57 48.75v-32.5zM37.603 14.05a1.866 1.866 0 0 1-1.856 1.864h-6.903v4.014h5.092a1.86 1.86 0 0 1 1.856 1.864 1.86 1.86 0 0 1-1.856 1.863h-5.092v14.29c.003.066.003.132 0 .198 3.602.952 5.944 4.436 5.479 8.146-.466 3.71-3.596 6.501-7.32 6.526-3.725.025-6.892-2.723-7.407-6.427-.515-3.704 1.78-7.218 5.37-8.219a1.963 1.963 0 0 1-.014-.217V14.147a1.95 1.95 0 0 1 1.947-1.955c.163 0 .325.022.483.063a1.83 1.83 0 0 1 .469-.063h7.902a1.866 1.866 0 0 1 1.856 1.864l-.006-.005z"/>
    </g>
</svg>
