<?xml version="1.0" encoding="UTF-8"?>
<svg width="36px" height="36px" viewBox="0 0 36 36" version="1.1" xmlns="http://www.w3.org/2000/svg" xmlns:xlink="http://www.w3.org/1999/xlink">
    <!-- Generator: Sketch 48.2 (47327) - http://www.bohemiancoding.com/sketch -->
    <title>icons8-share_2</title>
    <desc>Created with Sketch.</desc>
    <defs></defs>
    <g id="58-ETH-Wallet---Receive" stroke="none" stroke-width="1" fill="none" fill-rule="evenodd" transform="translate(-797.000000, -689.000000)">
        <g id="Group" transform="translate(608.000000, 689.000000)" fill="#93B0C1" fill-rule="nonzero">
            <g id="icons8-share_2" transform="translate(189.000000, 0.000000)">
                <path d="M30.6,0 C27.6257814,0 25.2,2.4257814 25.2,5.4 C25.2,6.6984378 25.6617186,7.8914064 26.428125,8.821875 C26.409375,8.8804686 26.4,8.9390628 26.4,9 C26.4,9.3304686 26.6695314,9.6 27,9.6 C27.0609378,9.6 27.1195314,9.590625 27.178125,9.571875 C28.1109378,10.3382814 29.3039064,10.8 30.6,10.8 C33.5742186,10.8 36,8.3742186 36,5.4 C36,2.4257814 33.5742186,0 30.6,0 Z M30.6,1.2 C32.9273436,1.2 34.8,3.0726564 34.8,5.4 C34.8,7.7273436 32.9273436,9.6 30.6,9.6 C28.2726564,9.6 26.4,7.7273436 26.4,5.4 C26.4,3.0726564 28.2726564,1.2 30.6,1.2 Z M30.6,2.4 C30.2695314,2.4 30,2.6695314 30,3 C30,3.3304686 30.2695314,3.6 30.6,3.6 C30.9304686,3.6 31.2,3.3304686 31.2,3 C31.2,2.6695314 30.9304686,2.4 30.6,2.4 Z M28.2,4.8 C27.8695314,4.8 27.6,5.0695314 27.6,5.4 C27.6,5.7304686 27.8695314,6 28.2,6 C28.5304686,6 28.8,5.7304686 28.8,5.4 C28.8,5.0695314 28.5304686,4.8 28.2,4.8 Z M33,4.8 C32.6695314,4.8 32.4,5.0695314 32.4,5.4 C32.4,5.7304686 32.6695314,6 33,6 C33.3304686,6 33.6,5.7304686 33.6,5.4 C33.6,5.0695314 33.3304686,4.8 33,4.8 Z M30.6,7.2 C30.2695314,7.2 30,7.4695314 30,7.8 C30,8.1304686 30.2695314,8.4 30.6,8.4 C30.9304686,8.4 31.2,8.1304686 31.2,7.8 C31.2,7.4695314 30.9304686,7.2 30.6,7.2 Z M25.2,10.2 C24.8695314,10.2 24.6,10.4695314 24.6,10.8 C24.6,11.1304686 24.8695314,11.4 25.2,11.4 C25.5304686,11.4 25.8,11.1304686 25.8,10.8 C25.8,10.4695314 25.5304686,10.2 25.2,10.2 Z M23.4,12 C23.0695314,12 22.8,12.2695314 22.8,12.6 C22.8,12.9304686 23.0695314,13.2 23.4,13.2 C23.7304686,13.2 24,12.9304686 24,12.6 C24,12.2695314 23.7304686,12 23.4,12 Z M5.4,12.6 C2.4257814,12.6 0,15.0257814 0,18 C0,20.9742186 2.4257814,23.4 5.4,23.4 C8.1726564,23.4 10.4648436,21.2929686 10.7648436,18.6 C10.7765628,18.6 10.7882814,18.6 10.8,18.6 C11.1304686,18.6 11.4,18.3304686 11.4,18 C11.4,17.6695314 11.1304686,17.4 10.8,17.4 C10.7882814,17.4 10.7765628,17.4023436 10.7648436,17.4023436 C10.4648436,14.7070314 8.1726564,12.6 5.4,12.6 Z M5.4,13.8 C7.7273436,13.8 9.6,15.6726564 9.6,18 C9.6,20.3273436 7.7273436,22.2 5.4,22.2 C3.0726564,22.2 1.2,20.3273436 1.2,18 C1.2,15.6726564 3.0726564,13.8 5.4,13.8 Z M21.6,13.8 C21.2695314,13.8 21,14.0695314 21,14.4 C21,14.7304686 21.2695314,15 21.6,15 C21.9304686,15 22.2,14.7304686 22.2,14.4 C22.2,14.0695314 21.9304686,13.8 21.6,13.8 Z M5.4,15 C5.0695314,15 4.8,15.2695314 4.8,15.6 C4.8,15.9304686 5.0695314,16.2 5.4,16.2 C5.7304686,16.2 6,15.9304686 6,15.6 C6,15.2695314 5.7304686,15 5.4,15 Z M19.8,15.6 C19.4695314,15.6 19.2,15.8695314 19.2,16.2 C19.2,16.5304686 19.4695314,16.8 19.8,16.8 C20.1304686,16.8 20.4,16.5304686 20.4,16.2 C20.4,15.8695314 20.1304686,15.6 19.8,15.6 Z M3,17.4 C2.6695314,17.4 2.4,17.6695314 2.4,18 C2.4,18.3304686 2.6695314,18.6 3,18.6 C3.3304686,18.6 3.6,18.3304686 3.6,18 C3.6,17.6695314 3.3304686,17.4 3,17.4 Z M7.8,17.4 C7.4695314,17.4 7.2,17.6695314 7.2,18 C7.2,18.3304686 7.4695314,18.6 7.8,18.6 C8.1304686,18.6 8.4,18.3304686 8.4,18 C8.4,17.6695314 8.1304686,17.4 7.8,17.4 Z M13.2,17.4 C12.8695314,17.4 12.6,17.6695314 12.6,18 C12.6,18.3304686 12.8695314,18.6 13.2,18.6 C13.5304686,18.6 13.8,18.3304686 13.8,18 C13.8,17.6695314 13.5304686,17.4 13.2,17.4 Z M15.6,17.4 C15.2695314,17.4 15,17.6695314 15,18 C15,18.3304686 15.2695314,18.6 15.6,18.6 C15.9304686,18.6 16.2,18.3304686 16.2,18 C16.2,17.6695314 15.9304686,17.4 15.6,17.4 Z M18,17.4 C17.6695314,17.4 17.4,17.6695314 17.4,18 C17.4,18.3304686 17.6695314,18.6 18,18.6 C18.3304686,18.6 18.6,18.3304686 18.6,18 C18.6,17.6695314 18.3304686,17.4 18,17.4 Z M19.8,19.2 C19.4695314,19.2 19.2,19.4695314 19.2,19.8 C19.2,20.1304686 19.4695314,20.4 19.8,20.4 C20.1304686,20.4 20.4,20.1304686 20.4,19.8 C20.4,19.4695314 20.1304686,19.2 19.8,19.2 Z M5.4,19.8 C5.0695314,19.8 4.8,20.0695314 4.8,20.4 C4.8,20.7304686 5.0695314,21 5.4,21 C5.7304686,21 6,20.7304686 6,20.4 C6,20.0695314 5.7304686,19.8 5.4,19.8 Z M21.6,21 C21.2695314,21 21,21.2695314 21,21.6 C21,21.9304686 21.2695314,22.2 21.6,22.2 C21.9304686,22.2 22.2,21.9304686 22.2,21.6 C22.2,21.2695314 21.9304686,21 21.6,21 Z M23.4,22.8 C23.0695314,22.8 22.8,23.0695314 22.8,23.4 C22.8,23.7304686 23.0695314,24 23.4,24 C23.7304686,24 24,23.7304686 24,23.4 C24,23.0695314 23.7304686,22.8 23.4,22.8 Z M25.2,24.6 C24.8695314,24.6 24.6,24.8695314 24.6,25.2 C24.6,25.5304686 24.8695314,25.8 25.2,25.8 C25.5304686,25.8 25.8,25.5304686 25.8,25.2 C25.8,24.8695314 25.5304686,24.6 25.2,24.6 Z M30.6,25.2 C29.3015628,25.2 28.1085936,25.6617186 27.178125,26.428125 C27.1195314,26.409375 27.0609378,26.4 27,26.4 C26.6695314,26.4 26.4,26.6695314 26.4,27 C26.4,27.0609378 26.409375,27.1195314 26.428125,27.178125 C25.6617186,28.1109378 25.2,29.3039064 25.2,30.6 C25.2,33.5742186 27.6257814,36 30.6,36 C33.5742186,36 36,33.5742186 36,30.6 C36,27.6257814 33.5742186,25.2 30.6,25.2 Z M30.6,26.4 C32.9273436,26.4 34.8,28.2726564 34.8,30.6 C34.8,32.9273436 32.9273436,34.8 30.6,34.8 C28.2726564,34.8 26.4,32.9273436 26.4,30.6 C26.4,28.2726564 28.2726564,26.4 30.6,26.4 Z M30.6,27.6 C30.2695314,27.6 30,27.8695314 30,28.2 C30,28.5304686 30.2695314,28.8 30.6,28.8 C30.9304686,28.8 31.2,28.5304686 31.2,28.2 C31.2,27.8695314 30.9304686,27.6 30.6,27.6 Z M28.2,30 C27.8695314,30 27.6,30.2695314 27.6,30.6 C27.6,30.9304686 27.8695314,31.2 28.2,31.2 C28.5304686,31.2 28.8,30.9304686 28.8,30.6 C28.8,30.2695314 28.5304686,30 28.2,30 Z M33,30 C32.6695314,30 32.4,30.2695314 32.4,30.6 C32.4,30.9304686 32.6695314,31.2 33,31.2 C33.3304686,31.2 33.6,30.9304686 33.6,30.6 C33.6,30.2695314 33.3304686,30 33,30 Z M30.6,32.4 C30.2695314,32.4 30,32.6695314 30,33 C30,33.3304686 30.2695314,33.6 30.6,33.6 C30.9304686,33.6 31.2,33.3304686 31.2,33 C31.2,32.6695314 30.9304686,32.4 30.6,32.4 Z" id="Shape"></path>
            </g>
        </g>
    </g>
</svg>