<svg xmlns="http://www.w3.org/2000/svg" width="848" height="801" viewBox="0 0 848 801">
    <defs>
        <linearGradient id="a" x1="50%" x2="41.849%" y1="97.784%" y2="-16.397%">
            <stop offset="0%" stop-color="#08BCCD"/>
            <stop offset="100%" stop-color="#2DA1F8"/>
        </linearGradient>
        <filter id="b" width="255.2%" height="255.2%" x="-77.6%" y="-77.6%" filterUnits="objectBoundingBox">
            <feGaussianBlur in="SourceGraphic" stdDeviation="30"/>
        </filter>
        <linearGradient id="c" x1="36.571%" x2="76.337%" y1="18.444%" y2="80.91%">
            <stop offset="0%" stop-color="#1E262E"/>
            <stop offset="100%" stop-color="#1E262E"/>
        </linearGradient>
        <linearGradient id="d" x1="50%" x2="50%" y1="97.784%" y2="1.559%">
            <stop offset="0%" stop-color="#08BCCD"/>
            <stop offset="100%" stop-color="#2DA1F8"/>
        </linearGradient>
    </defs>
    <g fill="none" fill-rule="evenodd">
        <g stroke="url(#a)" transform="translate(-98 -128)">
            <path d="M419.568 128.901l421.299 104.8 102.6 399.599-318.7 294.799-421.298-104.8-102.6-399.599z" opacity=".02"/>
            <path d="M373.055 151.884l423.222 50.261L945.39 578.761 671.28 905.116l-423.222-50.261L98.945 478.239z" opacity=".04"/>
            <path d="M330.64 180.113l418.245-3.092 191.527 348.387-226.717 351.479-418.245 3.092-191.527-348.387z" opacity=".06"/>
            <path d="M292.894 212.932l406.692-54.407L928.86 474.094 751.44 844.068 344.75 898.475 115.476 582.906z" opacity=".08"/>
            <path d="M260.284 249.622l388.997-102.89 261.883 278.877-127.113 381.769-388.996 102.89L133.17 631.392z" opacity=".1"/>
            <path d="M233.174 289.424l365.683-147.83L887.85 380.67l-76.689 386.906-365.683 147.83L156.485 676.33z" opacity=".12"/>
            <path d="M211.82 331.547l337.355-188.595 310.348 196.953-27.008 385.548L495.16 914.048 184.813 717.095z" opacity=".14"/>
            <path d="M196.367 375.19l304.685-224.652 325.8 153.31 21.116 377.962-304.685 224.652-325.8-153.31z" opacity=".16"/>
            <path d="M186.853 419.55L455.25 163.98l335.314 108.95 66.918 364.52-268.397 255.57-335.314-108.95z" opacity=".18"/>
            <path d="M183.208 463.84l229.254-281.02 338.96 64.66 109.706 345.68-229.255 281.02-338.96-64.66z" opacity=".2"/>
            <path d="M185.26 507.304l188.044-300.787 336.908 21.197 148.863 321.982-188.044 300.787-336.908-21.197z" opacity=".22"/>
            <path d="M192.743 549.226l145.561-314.761 329.425-20.726 183.863 294.035L706.03 822.535l-329.424 20.726z" opacity=".24"/>
            <path d="M205.304 588.945l102.592-322.944 316.864-60.445L839.03 468.055 736.44 790.999l-316.864 60.445z" opacity=".26"/>
            <path d="M222.51 625.865l59.905-325.44 299.658-97.365 239.753 228.075-59.905 325.44-299.658 97.365z" opacity=".28"/>
            <path d="M243.86 659.462l18.232-322.452L540.4 206.048l260.075 191.49-18.232 322.452-278.308 130.962z" opacity=".3"/>
            <path d="M268.799 689.293l-21.74-314.275 253.369-160.793 275.108 153.482 21.74 314.275-253.369 160.793z" opacity=".32"/>
            <path d="M296.727 715.001l-59.384-301.29 225.44-186.5L747.61 341.999l59.384 301.29-225.441 186.5z" opacity=".34"/>
            <path d="M327.012 736.32L232.87 452.374l195.156-207.82 289.297 76.126 94.14 283.946-195.156 207.82z" opacity=".36"/>
            <path d="M359.004 753.075l-125.526-262.76L396.64 265.739l288.69 38.186 125.527 262.76-163.164 224.576z" opacity=".38"/>
            <path d="M392.05 765.184L238.907 526.885l130.118-236.684 283.26 1.615 153.141 238.299L675.31 766.799z" opacity=".4"/>
            <path d="M425.5 772.655L248.828 561.492l96.668-244.156 273.34-32.991 176.672 211.163-96.668 244.156z" opacity=".42"/>
            <path d="M458.727 775.584L262.83 593.6l63.44-247.084 259.338-65.1L781.505 463.4l-63.44 247.084z" opacity=".44"/>
            <path d="M491.135 774.15L280.449 622.748l31.033-245.65L553.2 282.851l210.686 151.4-31.033 245.65z" opacity=".46"/>
            <path d="M522.168 768.605l-221-120.052V408.447l221-120.052 221 120.052v240.106z" opacity=".48"/>
            <path d="M551.321 759.275l-226.89-88.566-29.153-230.775 197.736-142.209 226.89 88.566 29.153 230.775z" opacity=".5"/>
            <path d="M578.15 746.54L349.664 689l-55.984-218.04 172.505-160.5 228.489 57.542 55.983 218.04z" opacity=".52"/>
            <path d="M602.278 730.835l-226.01-27.543-80.11-202.334 145.9-174.793 226.01 27.543 80.11 202.334z" opacity=".54"/>
            <path d="M623.394 712.63l-219.74.914-101.227-184.13L420.941 344.37l219.74-.914 101.227 184.13z" opacity=".56"/>
            <path d="M641.268 692.428l-210.027 27.364-119.1-163.928 90.926-191.292 210.028-27.364 119.1 163.928z" opacity=".58"/>
            <path d="M655.744 670.744L458.47 722.156 324.894 579.912l63.697-193.656 197.274-51.412L719.44 477.088z" opacity=".6"/>
            <path d="M666.744 648.104L484.819 720.83 340.243 601.226l37.348-192.33 181.925-72.726 144.577 119.604z" opacity=".62"/>
            <path d="M674.267 625.025l-164.461 91.052-152.1-96.525 12.362-187.577 164.461-91.052 152.1 96.525z" opacity=".64"/>
            <path d="M678.385 602.01L533.003 708.218l-156.217-73.51L365.95 454.99l145.382-106.208 156.218 73.51z" opacity=".66"/>
            <path d="M679.24 579.536L554.044 697.628 396.97 646.59l-31.875-169.127 125.198-118.092 157.073 51.037z" opacity=".68"/>
            <path d="M677.04 558.043L572.62 684.721 417.75 655.178l-50.453-156.221 104.419-126.678 154.871 29.543z" opacity=".7"/>
            <path d="M672.044 537.93l-83.54 132.014-149.877-9.43-66.336-141.443 83.54-132.015 149.877 9.43z" opacity=".72"/>
            <path d="M664.569 519.54l-63.038 134.224-142.401 8.959-79.364-125.264 63.038-134.223 142.402-8.959z" opacity=".74"/>
            <path d="M654.967 503.167l-43.352 133.488-132.8 25.333-89.447-108.155 43.352-133.488 132.8-25.333z" opacity=".76"/>
            <path d="M643.624 489.037L618.742 619.09l-121.456 39.463-96.574-90.59 24.882-130.055 121.456-39.463z" opacity=".78"/>
            <path d="M630.946 477.313l-7.979 124.22-108.779 51.187-100.8-73.033 7.98-124.22 108.78-51.187z" opacity=".8"/>
            <path d="M617.355 468.093l7.06 116.325-95.186 60.407-102.248-55.918-7.061-116.325 95.187-60.407z" opacity=".82"/>
            <path d="M603.269 461.408l20.004 106.745-81.1 67.092-101.106-39.653-20.005-106.745 81.1-67.092z" opacity=".84"/>
            <path d="M589.101 457.223l30.683 95.879-66.934 71.277-97.616-24.602-30.682-95.879 66.933-71.277z" opacity=".86"/>
            <path d="M575.247 455.442l38.99 84.14-53.079 73.057-92.07-11.081-38.99-84.14 53.079-73.057z" opacity=".88"/>
            <path d="M562.074 455.91l44.894 71.945-39.907 72.59-84.8.645-44.893-71.945 39.906-72.59z" opacity=".9"/>
            <path d="M549.915 458.418l48.421 59.705-27.747 70.082-76.169 10.377L446 538.877l27.747-70.082z" opacity=".92"/>
            <path d="M539.06 462.71l49.669 47.816-16.892 65.79-66.562 17.975-49.668-47.817 16.892-65.79z" opacity=".94"/>
            <path d="M529.749 468.488l48.791 36.649-7.58 60.012-56.374 23.363-48.791-36.649 7.581-60.012z" opacity=".96"/>
            <path d="M522.168 476l46 26.25v52.5l-46 26.25-46-26.25v-52.5z" opacity=".98"/>
        </g>
        <path fill="url(#a)" d="M523 470l50.23 29v58L523 586l-50.23-29v-58z" filter="url(#b)" transform="translate(-98 -128)"/>
    </g>
</svg>
