<?xml version="1.0" encoding="UTF-8"?>
<svg width="37px" height="36px" viewBox="0 0 37 36" version="1.1" xmlns="http://www.w3.org/2000/svg" xmlns:xlink="http://www.w3.org/1999/xlink">
    <!-- Generator: Sketch 48.2 (47327) - http://www.bohemiancoding.com/sketch -->
    <title>icons8-wallet</title>
    <desc>Created with Sketch.</desc>
    <defs></defs>
    <g id="33-SelfKey-Home-+-Null" stroke="none" stroke-width="1" fill="none" fill-rule="evenodd" transform="translate(-178.000000, -800.000000)">
        <g id="icons8-wallet" transform="translate(178.000000, 800.000000)" fill="#14B2DB" fill-rule="nonzero">
            <path d="M31.9698385,0.140625 L1.734375,2.3226564 C0.762935754,2.3882814 0,3.196875 0,4.1601564 L0,33 C0,34.65 1.3647541,36 3.03278689,36 L33.3606557,36 C35.0286885,36 36.3934426,34.65 36.3934426,33 L36.3934426,23.83125 C36.7535861,23.6203128 37,23.2382814 37,22.8 L37,18 C37,17.5617186 36.7535861,17.1796878 36.3934426,16.96875 L36.3934426,7.8 C36.3934426,6.5765628 35.6423541,5.521875 34.5737705,5.0554686 L34.5737705,2.5359378 C34.5737705,1.1507814 33.367764,0.0421878 31.9698385,0.140625 Z M32.0598746,1.3382814 C32.7706841,1.2867186 33.3606557,1.8304686 33.3606557,2.5359378 L33.3606557,4.8 L1.85995118,4.8 C1.49506931,4.8 1.21311475,4.5210936 1.21311475,4.1601564 C1.21311475,3.815625 1.47137536,3.54375 1.81730292,3.5179686 L1.81967213,3.5179686 L32.0598746,1.3382814 Z M1.21311475,5.8523436 C1.40740297,5.94375 1.6230147,6 1.85995118,6 L33.3606557,6 C34.3723746,6 35.1803279,6.7992186 35.1803279,7.8 L35.1803279,16.8 L30.9344262,16.8 C28.9323132,16.8 27.295082,18.4195314 27.295082,20.4 L27.295082,21 L27.4182889,21 C27.7191984,22.6851564 29.1455557,24 30.9344262,24 L35.1803279,24 L35.1803279,33 C35.1803279,34.0007814 34.3723746,34.8 33.3606557,34.8 L3.03278689,34.8 C2.02106798,34.8 1.21311475,34.0007814 1.21311475,33 L1.21311475,5.8523436 Z M3.63934426,7.8 C3.30526398,7.8 3.03278689,8.0695314 3.03278689,8.4 C3.03278689,8.7304686 3.30526398,9 3.63934426,9 C3.97342454,9 4.24590164,8.7304686 4.24590164,8.4 C4.24590164,8.0695314 3.97342454,7.8 3.63934426,7.8 Z M6.06557377,7.8 C5.73149349,7.8 5.45901639,8.0695314 5.45901639,8.4 C5.45901639,8.7304686 5.73149349,9 6.06557377,9 C6.39965405,9 6.67213115,8.7304686 6.67213115,8.4 C6.67213115,8.0695314 6.39965405,7.8 6.06557377,7.8 Z M8.49180328,7.8 C8.157723,7.8 7.8852459,8.0695314 7.8852459,8.4 C7.8852459,8.7304686 8.157723,9 8.49180328,9 C8.82588356,9 9.09836066,8.7304686 9.09836066,8.4 C9.09836066,8.0695314 8.82588356,7.8 8.49180328,7.8 Z M10.9180328,7.8 C10.5839525,7.8 10.3114754,8.0695314 10.3114754,8.4 C10.3114754,8.7304686 10.5839525,9 10.9180328,9 C11.2521131,9 11.5245902,8.7304686 11.5245902,8.4 C11.5245902,8.0695314 11.2521131,7.8 10.9180328,7.8 Z M13.3442623,7.8 C13.010182,7.8 12.7377049,8.0695314 12.7377049,8.4 C12.7377049,8.7304686 13.010182,9 13.3442623,9 C13.6783426,9 13.9508197,8.7304686 13.9508197,8.4 C13.9508197,8.0695314 13.6783426,7.8 13.3442623,7.8 Z M15.7704918,7.8 C15.4364115,7.8 15.1639344,8.0695314 15.1639344,8.4 C15.1639344,8.7304686 15.4364115,9 15.7704918,9 C16.1045721,9 16.3770492,8.7304686 16.3770492,8.4 C16.3770492,8.0695314 16.1045721,7.8 15.7704918,7.8 Z M18.1967213,7.8 C17.862641,7.8 17.5901639,8.0695314 17.5901639,8.4 C17.5901639,8.7304686 17.862641,9 18.1967213,9 C18.5308016,9 18.8032787,8.7304686 18.8032787,8.4 C18.8032787,8.0695314 18.5308016,7.8 18.1967213,7.8 Z M20.6229508,7.8 C20.2888705,7.8 20.0163934,8.0695314 20.0163934,8.4 C20.0163934,8.7304686 20.2888705,9 20.6229508,9 C20.9570311,9 21.2295082,8.7304686 21.2295082,8.4 C21.2295082,8.0695314 20.9570311,7.8 20.6229508,7.8 Z M23.0491803,7.8 C22.7151,7.8 22.442623,8.0695314 22.442623,8.4 C22.442623,8.7304686 22.7151,9 23.0491803,9 C23.3832606,9 23.6557377,8.7304686 23.6557377,8.4 C23.6557377,8.0695314 23.3832606,7.8 23.0491803,7.8 Z M25.4754098,7.8 C25.1413296,7.8 24.8688525,8.0695314 24.8688525,8.4 C24.8688525,8.7304686 25.1413296,9 25.4754098,9 C25.8094901,9 26.0819672,8.7304686 26.0819672,8.4 C26.0819672,8.0695314 25.8094901,7.8 25.4754098,7.8 Z M27.9016393,7.8 C27.5675591,7.8 27.295082,8.0695314 27.295082,8.4 C27.295082,8.7304686 27.5675591,9 27.9016393,9 C28.2357196,9 28.5081967,8.7304686 28.5081967,8.4 C28.5081967,8.0695314 28.2357196,7.8 27.9016393,7.8 Z M30.3278689,7.8 C29.9937886,7.8 29.7213115,8.0695314 29.7213115,8.4 C29.7213115,8.7304686 29.9937886,9 30.3278689,9 C30.6619491,9 30.9344262,8.7304686 30.9344262,8.4 C30.9344262,8.0695314 30.6619491,7.8 30.3278689,7.8 Z M32.7540984,7.8 C32.4200181,7.8 32.147541,8.0695314 32.147541,8.4 C32.147541,8.7304686 32.4200181,9 32.7540984,9 C33.0881786,9 33.3606557,8.7304686 33.3606557,8.4 C33.3606557,8.0695314 33.0881786,7.8 32.7540984,7.8 Z M3.63934426,10.2 C3.30526398,10.2 3.03278689,10.4695314 3.03278689,10.8 C3.03278689,11.1304686 3.30526398,11.4 3.63934426,11.4 C3.97342454,11.4 4.24590164,11.1304686 4.24590164,10.8 C4.24590164,10.4695314 3.97342454,10.2 3.63934426,10.2 Z M32.7540984,10.2 C32.4200181,10.2 32.147541,10.4695314 32.147541,10.8 C32.147541,11.1304686 32.4200181,11.4 32.7540984,11.4 C33.0881786,11.4 33.3606557,11.1304686 33.3606557,10.8 C33.3606557,10.4695314 33.0881786,10.2 32.7540984,10.2 Z M3.63934426,12.6 C3.30526398,12.6 3.03278689,12.8695314 3.03278689,13.2 C3.03278689,13.5304686 3.30526398,13.8 3.63934426,13.8 C3.97342454,13.8 4.24590164,13.5304686 4.24590164,13.2 C4.24590164,12.8695314 3.97342454,12.6 3.63934426,12.6 Z M32.7540984,12.6 C32.4200181,12.6 32.147541,12.8695314 32.147541,13.2 C32.147541,13.5304686 32.4200181,13.8 32.7540984,13.8 C33.0881786,13.8 33.3606557,13.5304686 33.3606557,13.2 C33.3606557,12.8695314 33.0881786,12.6 32.7540984,12.6 Z M3.63934426,15 C3.30526398,15 3.03278689,15.2695314 3.03278689,15.6 C3.03278689,15.9304686 3.30526398,16.2 3.63934426,16.2 C3.97342454,16.2 4.24590164,15.9304686 4.24590164,15.6 C4.24590164,15.2695314 3.97342454,15 3.63934426,15 Z M32.7540984,15 C32.4200181,15 32.147541,15.2695314 32.147541,15.6 C32.147541,15.9304686 32.4200181,16.2 32.7540984,16.2 C33.0881786,16.2 33.3606557,15.9304686 33.3606557,15.6 C33.3606557,15.2695314 33.0881786,15 32.7540984,15 Z M3.63934426,17.4 C3.30526398,17.4 3.03278689,17.6695314 3.03278689,18 C3.03278689,18.3304686 3.30526398,18.6 3.63934426,18.6 C3.97342454,18.6 4.24590164,18.3304686 4.24590164,18 C4.24590164,17.6695314 3.97342454,17.4 3.63934426,17.4 Z M30.9344262,18 L35.7868852,18 L35.7868852,22.8 L30.9344262,22.8 C29.588627,22.8 28.5081967,21.73125 28.5081967,20.4 C28.5081967,19.06875 29.588627,18 30.9344262,18 Z M30.9344262,19.2 C30.2638959,19.2 29.7213115,19.7367186 29.7213115,20.4 C29.7213115,21.0632814 30.2638959,21.6 30.9344262,21.6 C31.6049566,21.6 32.147541,21.0632814 32.147541,20.4 C32.147541,19.7367186 31.6049566,19.2 30.9344262,19.2 Z M3.63934426,19.8 C3.30526398,19.8 3.03278689,20.0695314 3.03278689,20.4 C3.03278689,20.7304686 3.30526398,21 3.63934426,21 C3.97342454,21 4.24590164,20.7304686 4.24590164,20.4 C4.24590164,20.0695314 3.97342454,19.8 3.63934426,19.8 Z M3.63934426,22.2 C3.30526398,22.2 3.03278689,22.4695314 3.03278689,22.8 C3.03278689,23.1304686 3.30526398,23.4 3.63934426,23.4 C3.97342454,23.4 4.24590164,23.1304686 4.24590164,22.8 C4.24590164,22.4695314 3.97342454,22.2 3.63934426,22.2 Z M3.63934426,24.6 C3.30526398,24.6 3.03278689,24.8695314 3.03278689,25.2 C3.03278689,25.5304686 3.30526398,25.8 3.63934426,25.8 C3.97342454,25.8 4.24590164,25.5304686 4.24590164,25.2 C4.24590164,24.8695314 3.97342454,24.6 3.63934426,24.6 Z M32.7540984,24.6 C32.4200181,24.6 32.147541,24.8695314 32.147541,25.2 C32.147541,25.5304686 32.4200181,25.8 32.7540984,25.8 C33.0881786,25.8 33.3606557,25.5304686 33.3606557,25.2 C33.3606557,24.8695314 33.0881786,24.6 32.7540984,24.6 Z M3.63934426,27 C3.30526398,27 3.03278689,27.2695314 3.03278689,27.6 C3.03278689,27.9304686 3.30526398,28.2 3.63934426,28.2 C3.97342454,28.2 4.24590164,27.9304686 4.24590164,27.6 C4.24590164,27.2695314 3.97342454,27 3.63934426,27 Z M32.7540984,27 C32.4200181,27 32.147541,27.2695314 32.147541,27.6 C32.147541,27.9304686 32.4200181,28.2 32.7540984,28.2 C33.0881786,28.2 33.3606557,27.9304686 33.3606557,27.6 C33.3606557,27.2695314 33.0881786,27 32.7540984,27 Z M3.63934426,29.4 C3.30526398,29.4 3.03278689,29.6695314 3.03278689,30 C3.03278689,30.3304686 3.30526398,30.6 3.63934426,30.6 C3.97342454,30.6 4.24590164,30.3304686 4.24590164,30 C4.24590164,29.6695314 3.97342454,29.4 3.63934426,29.4 Z M32.7540984,29.4 C32.4200181,29.4 32.147541,29.6695314 32.147541,30 C32.147541,30.3304686 32.4200181,30.6 32.7540984,30.6 C33.0881786,30.6 33.3606557,30.3304686 33.3606557,30 C33.3606557,29.6695314 33.0881786,29.4 32.7540984,29.4 Z M3.63934426,31.8 C3.30526398,31.8 3.03278689,32.0695314 3.03278689,32.4 C3.03278689,32.7304686 3.30526398,33 3.63934426,33 C3.97342454,33 4.24590164,32.7304686 4.24590164,32.4 C4.24590164,32.0695314 3.97342454,31.8 3.63934426,31.8 Z M6.06557377,31.8 C5.73149349,31.8 5.45901639,32.0695314 5.45901639,32.4 C5.45901639,32.7304686 5.73149349,33 6.06557377,33 C6.39965405,33 6.67213115,32.7304686 6.67213115,32.4 C6.67213115,32.0695314 6.39965405,31.8 6.06557377,31.8 Z M8.49180328,31.8 C8.157723,31.8 7.8852459,32.0695314 7.8852459,32.4 C7.8852459,32.7304686 8.157723,33 8.49180328,33 C8.82588356,33 9.09836066,32.7304686 9.09836066,32.4 C9.09836066,32.0695314 8.82588356,31.8 8.49180328,31.8 Z M10.9180328,31.8 C10.5839525,31.8 10.3114754,32.0695314 10.3114754,32.4 C10.3114754,32.7304686 10.5839525,33 10.9180328,33 C11.2521131,33 11.5245902,32.7304686 11.5245902,32.4 C11.5245902,32.0695314 11.2521131,31.8 10.9180328,31.8 Z M13.3442623,31.8 C13.010182,31.8 12.7377049,32.0695314 12.7377049,32.4 C12.7377049,32.7304686 13.010182,33 13.3442623,33 C13.6783426,33 13.9508197,32.7304686 13.9508197,32.4 C13.9508197,32.0695314 13.6783426,31.8 13.3442623,31.8 Z M15.7704918,31.8 C15.4364115,31.8 15.1639344,32.0695314 15.1639344,32.4 C15.1639344,32.7304686 15.4364115,33 15.7704918,33 C16.1045721,33 16.3770492,32.7304686 16.3770492,32.4 C16.3770492,32.0695314 16.1045721,31.8 15.7704918,31.8 Z M18.1967213,31.8 C17.862641,31.8 17.5901639,32.0695314 17.5901639,32.4 C17.5901639,32.7304686 17.862641,33 18.1967213,33 C18.5308016,33 18.8032787,32.7304686 18.8032787,32.4 C18.8032787,32.0695314 18.5308016,31.8 18.1967213,31.8 Z M20.6229508,31.8 C20.2888705,31.8 20.0163934,32.0695314 20.0163934,32.4 C20.0163934,32.7304686 20.2888705,33 20.6229508,33 C20.9570311,33 21.2295082,32.7304686 21.2295082,32.4 C21.2295082,32.0695314 20.9570311,31.8 20.6229508,31.8 Z M23.0491803,31.8 C22.7151,31.8 22.442623,32.0695314 22.442623,32.4 C22.442623,32.7304686 22.7151,33 23.0491803,33 C23.3832606,33 23.6557377,32.7304686 23.6557377,32.4 C23.6557377,32.0695314 23.3832606,31.8 23.0491803,31.8 Z M25.4754098,31.8 C25.1413296,31.8 24.8688525,32.0695314 24.8688525,32.4 C24.8688525,32.7304686 25.1413296,33 25.4754098,33 C25.8094901,33 26.0819672,32.7304686 26.0819672,32.4 C26.0819672,32.0695314 25.8094901,31.8 25.4754098,31.8 Z M27.9016393,31.8 C27.5675591,31.8 27.295082,32.0695314 27.295082,32.4 C27.295082,32.7304686 27.5675591,33 27.9016393,33 C28.2357196,33 28.5081967,32.7304686 28.5081967,32.4 C28.5081967,32.0695314 28.2357196,31.8 27.9016393,31.8 Z M30.3278689,31.8 C29.9937886,31.8 29.7213115,32.0695314 29.7213115,32.4 C29.7213115,32.7304686 29.9937886,33 30.3278689,33 C30.6619491,33 30.9344262,32.7304686 30.9344262,32.4 C30.9344262,32.0695314 30.6619491,31.8 30.3278689,31.8 Z M32.7540984,31.8 C32.4200181,31.8 32.147541,32.0695314 32.147541,32.4 C32.147541,32.7304686 32.4200181,33 32.7540984,33 C33.0881786,33 33.3606557,32.7304686 33.3606557,32.4 C33.3606557,32.0695314 33.0881786,31.8 32.7540984,31.8 Z" id="Shape"></path>
        </g>
    </g>
</svg>