<svg xmlns="http://www.w3.org/2000/svg" width="33" height="36" viewBox="0 0 33 36">
    <defs>
        <linearGradient id="a" x1="50%" x2="50%" y1="0%" y2="100%">
            <stop offset="0%" stop-color="#FF6E00"/>
            <stop offset="100%" stop-color="#FF5100"/>
        </linearGradient>
    </defs>
    <path fill="url(#a)" fill-rule="nonzero" d="M16.496.016l-.256.126S9.528 3.495.57 3.495H0v.569c0 13.198 4.033 21.177 8.106 25.828 4.07 4.653 8.214 5.999 8.214 5.999l.176.056.175-.056s4.144-1.346 8.215-6c4.072-4.65 8.105-12.629 8.105-25.827v-.569h-.569c-8.958 0-15.67-3.353-15.67-3.353l-.256-.126zm0 1.257c.653.316 6.872 3.195 15.338 3.333-.114 12.625-3.967 20.155-7.802 24.54-3.752 4.285-7.274 5.49-7.536 5.578-.263-.088-3.784-1.293-7.537-5.579C5.124 24.761 1.27 17.231 1.158 4.606c8.465-.138 14.684-3.017 15.338-3.333zm-1.067 2.935l-.198.036-.053.022-.347.374.094.5.457.228.198-.037.054-.02.344-.376-.093-.5-.456-.227zm2.32.043l-.507.06-.255.442.202.466.173.1.054.02.506-.06.253-.442-.2-.469-.173-.1-.053-.017zm-4.489.71l-.197.025-.054.016-.37.35.06.507.44.256.2-.025.055-.015.369-.351-.06-.507-.443-.255zm6.662.025l-.502.091-.227.456.229.455.178.09.055.015.502-.091.23-.454-.23-.455-.18-.091-.055-.016zm-8.866.609l-.202.009-.055.015-.391.327.026.509.427.282.198-.011.057-.013.391-.327-.028-.509-.423-.282zm11.092.009l-.497.106-.214.465.245.446.182.083.055.015.498-.106.211-.465-.242-.446-.184-.083-.054-.015zm-13.35.495l-.197.005-.058.01-.402.314.01.509.415.298.2-.005.057-.01.402-.312-.01-.51-.416-.299zm15.581.007l-.489.144-.178.478.276.429.189.069.058.011.488-.144.176-.478-.278-.429-.186-.069-.056-.011zm2.273.378l-.482.166-.156.485.294.415.19.06.059.01.48-.165.157-.485-.295-.417-.191-.06-.056-.01zm-20.326.01l-.058.01-.411.297-.011.51.402.313.202.004.056-.009.413-.3.009-.509-.402-.31-.2-.005zm-2.22.26h-.038c-.033.003-.042.003-.029.003l-.535.033v.56a.57.57 0 0 0 .987.393.568.568 0 0 0-.384-.989zm24.761 0a.567.567 0 0 0-.348 1.005l.002.002a.566.566 0 0 0 .622.118.573.573 0 0 0 .347-.53V6.79l-.536-.033-.031-.002a.232.232 0 0 0-.056 0zM14.19 8.047l.63 11.945h3.354l.03-.54.599-11.405h-4.613zM28.727 9.11l-.4.316-.05.195-.005.058.189.473.493.131.4-.318.051-.193.005-.058-.19-.473-.493-.131zm-24.772.047l-.355.362-.027.198v.042l.002.035.262.438.507.053.347-.375.02-.2v-.018l-.003-.018V9.67l-.246-.447-.507-.066zm11.432.026h2.217l-.51 9.67h-1.196l-.511-9.67zm13.136 2.287l-.42.289-.064.188-.01.058.16.485.483.164.418-.289.064-.189.009-.06-.156-.482-.484-.164zm-24.404.086l-.322.394-.009.202.007.058.287.422.51.02.323-.393.009-.2-.01-.058-.286-.422-.509-.023zm24.028 2.249l-.437.262-.078.185-.011.057.124.494.471.195.438-.26.078-.186.01-.056-.123-.495-.472-.196zm-23.179.12l-.509.011-.297.411.004.202.011.056.311.404L5 15l.298-.414-.004-.2-.011-.058-.314-.402zm22.628 2.182l-.455.231-.089.18-.016.058.092.5.457.226.456-.23.089-.18.015-.056-.093-.5-.456-.23zm-22.121.133l-.507.042-.27.432.015.2.015.055.338.382.509-.042.27-.431-.017-.2-.015-.056-.338-.382zm21.404 2.12l-.474.184-.106.171-.02.054.04.509.433.268.476-.186.106-.169.022-.053-.044-.51-.433-.268zm-20.73.14l-.503.091-.227.458.036.195.02.056.373.346.502-.09.227-.456-.036-.198-.02-.055-.373-.347zm19.803 2.042l-.482.16-.116.167-.024.053.02.509.418.289.484-.163.113-.164.025-.053-.02-.511-.418-.287zm-18.92.151l-.493.131-.19.473.05.194.027.053.4.315.49-.13.192-.474-.051-.193-.027-.051-.398-.318zm9.464 1.004a2.283 2.283 0 0 0-2.276 2.276 2.283 2.283 0 0 0 2.276 2.275 2.283 2.283 0 0 0 2.275-2.275 2.283 2.283 0 0 0-2.275-2.276zm8.383.942l-.5.105-.133.149-.03.049-.041.508.38.338.5-.102.133-.151.029-.049.042-.509-.38-.338zm-16.809.163l-.473.19-.131.494.077.184.03.051.437.263.471-.19.131-.495-.078-.184-.028-.049-.436-.264zm8.426.033c.635 0 1.137.502 1.137 1.138 0 .635-.502 1.137-1.137 1.137a1.129 1.129 0 0 1-1.138-1.137c0-.636.502-1.138 1.138-1.138zm7.11 1.802l-.505.073-.14.142-.033.05-.071.504.36.36.504-.076.143-.142.033-.047.071-.504-.362-.36zm-14.247.153l-.46.22-.1.5.089.18.033.049.451.236.458-.218.1-.502-.085-.18-.035-.047-.451-.238zm12.825 1.731l-.509.02-.156.125-.037.044-.125.493.32.396.509-.018.156-.127.037-.044.125-.496-.32-.393zm-11.379.122l-.43.271-.04.51.106.168.038.042.477.185.43-.271.041-.51-.106-.168-.04-.044-.476-.183zm9.284 1.596l-.17.109-.04.04-.175.48.28.424.509.031.169-.109.04-.04.175-.48-.28-.426-.508-.03zm-7.644.095l-.402.316.015.51.123.156.044.04.493.131.4-.315-.013-.509-.124-.158-.043-.037-.493-.134zm5.895 1.436l-.178.093-.047.035-.217.46.235.451.505.08.177-.09.045-.036.22-.462-.238-.451-.502-.08zm-4.077.066l-.37.351.063.507.138.147.046.033.505.084.366-.353-.06-.504-.137-.147-.05-.033-.501-.085zm2.188 1.216a.567.567 0 0 0-.238 1.08l.025.013.255.126.278-.14a.564.564 0 0 0 .302-.644.565.565 0 0 0-.566-.433c-.002-.002-.002-.002-.005 0-.017-.002-.035-.002-.05-.002z"/>
</svg>
