<svg xmlns="http://www.w3.org/2000/svg" width="586" height="466" viewBox="0 0 586 466">
    <defs>
        <linearGradient id="a" x1="50%" x2="41.849%" y1="97.784%" y2="-16.397%">
            <stop offset="0%" stop-color="#08BCCD"/>
            <stop offset="100%" stop-color="#2DA1F8"/>
        </linearGradient>
    </defs>
    <g fill="none" fill-rule="evenodd" stroke="url(#a)" transform="translate(-854 -584)">
        <path d="M1329.967 584.95l627.49 156.026 152.784 595.05-474.708 439.024-627.492-156.026-152.782-595.05z" opacity=".02"/>
        <path d="M1260.703 619.173l630.349 74.798 222.047 560.827-408.302 486.029-630.35-74.798-222.046-560.827z" opacity=".04"/>
        <path d="M1197.543 661.21l622.927-4.665 285.207 518.79-337.72 523.454-622.927 4.666-285.207-518.79z" opacity=".06"/>
        <path d="M1141.334 710.081l605.713-81.09 341.416 469.918-264.297 551.01-605.714 81.09-341.416-469.918z" opacity=".08"/>
        <path d="M1092.773 764.717l579.352-153.3 389.976 415.283-189.375 568.582-579.352 153.3L903.398 1333.3z" opacity=".1"/>
        <path d="M1052.404 823.987l544.621-220.229 430.346 356.014-114.275 576.241-544.622 220.229-430.346-356.014z" opacity=".12"/>
        <path d="M1020.605 886.714l502.424-280.94 462.145 293.286-40.28 574.226-502.424 280.94-462.145-293.286z" opacity=".14"/>
        <path d="M997.594 951.703l453.76-334.638 485.156 228.297 31.395 562.935-453.76 334.638-485.156-228.297z" opacity=".16"/>
        <path d="M983.426 1017.76l399.71-380.68 499.323 162.24 99.614 542.92-399.71 380.68-499.323-162.24z" opacity=".18"/>
        <path d="M977.998 1083.713l341.408-418.58 504.752 96.287 163.344 514.867-341.408 418.58-504.752-96.287z" opacity=".2"/>
        <path d="M981.054 1148.436l280.027-448.014 501.696 31.564 221.669 479.578-280.028 448.014-501.696-31.564z" opacity=".22"/>
        <path d="M992.198 1210.863l216.75-468.822 490.553-30.862 273.8 437.958-216.75 468.822-490.553 30.862z" opacity=".24"/>
        <path d="M1010.902 1270.01l152.753-481.003 471.848-90.01 319.095 390.993-152.753 481.003-471.848 90.01z" opacity=".26"/>
        <path d="M1036.523 1324.988l89.175-484.714 446.227-144.988 357.052 339.726-89.175 484.714-446.227 144.988z" opacity=".28"/>
        <path d="M1068.316 1375.018l27.109-480.258 414.434-195.018 387.324 285.24-27.109 480.258-414.433 195.018z" opacity=".3"/>
        <path d="M1105.453 1419.44l-32.424-468.074 377.297-239.44 409.72 228.634 32.424 468.074-377.296 239.44z" opacity=".32"/>
        <path d="M1147.04 1457.722l-88.488-448.727 335.709-277.722 424.197 171.005 88.49 448.727-335.71 277.722z" opacity=".34"/>
        <path d="M1192.139 1489.47l-140.253-422.892 290.611-309.47 430.864 113.423 140.252 422.891-290.61 309.47z" opacity=".36"/>
        <path d="M1239.78 1514.42l-186.996-391.334 242.97-334.42 429.966 56.914 186.995 391.334-242.97 334.42z" opacity=".38"/>
        <path d="M1288.988 1532.451l-228.12-354.896 193.761-352.452 421.882 2.446 228.121 354.896-193.762 352.452z" opacity=".4"/>
        <path d="M1338.8 1543.577l-263.164-314.48 143.95-363.576 407.114-49.098 263.163 314.48-143.95 363.576z" opacity=".42"/>
        <path d="M1388.28 1547.938l-291.793-271.016 94.47-367.939 386.263-96.921 291.792 271.016-94.47 367.939z" opacity=".44"/>
        <path d="M1436.538 1545.801l-313.814-225.463 46.212-365.802L1528.96 814.2l313.814 225.463-46.211 365.802z" opacity=".46"/>
        <path d="M1482.75 1537.545l-329.172-178.772v-357.546l329.172-178.772 329.171 178.772v357.546z" opacity=".48"/>
        <path d="M1526.163 1523.651l-337.939-131.876-43.413-343.651 294.525-211.775 337.939 131.876 43.413 343.651z" opacity=".5"/>
        <path d="M1566.115 1504.688L1225.8 1419.02l-83.366-324.688 256.95-239.02 340.315 85.668 83.366 324.688z" opacity=".52"/>
        <path d="M1602.043 1481.3l-336.62-40.988-119.294-301.3 217.327-260.313 336.62 40.989 119.294 301.3z" opacity=".54"/>
        <path d="M1633.488 1454.192l-327.278 1.392-150.738-274.192 176.54-275.584 327.277-1.392 150.739 274.192z" opacity=".56"/>
        <path d="M1660.104 1424.108l-312.807 40.786-177.355-244.108 135.453-284.894 312.808-40.786 177.354 244.108z" opacity=".58"/>
        <path d="M1681.66 1391.819l-293.808 76.6-198.911-211.819 94.898-288.419 293.808-76.6 198.911 211.819z" opacity=".6"/>
        <path d="M1698.041 1358.105l-270.946 108.343-215.291-178.104 55.654-286.449 270.946-108.343 215.292 178.104z" opacity=".62"/>
        <path d="M1709.244 1323.738l-244.933 135.634-226.494-143.737 18.439-279.373 244.932-135.634 226.494 143.737z" opacity=".64"/>
        <path d="M1715.376 1289.466l-216.514 158.205-232.626-109.466-16.113-267.67 216.514-158.206 232.627 109.466z" opacity=".66"/>
        <path d="M1716.65 1255.999L1530.2 1431.9l-233.901-76-47.45-251.9L1435.3 928.1l233.9 76z" opacity=".68"/>
        <path d="M1713.372 1223.994l-155.501 188.686-230.623-43.993-75.12-232.68 155.5-188.687 230.623 43.993z" opacity=".7"/>
        <path d="M1705.934 1194.042l-124.405 196.633-223.184-14.042-98.78-210.675 124.405-196.633 223.185 14.042z" opacity=".72"/>
        <path d="M1694.802 1166.659l-93.868 199.919-212.053 13.34-118.184-186.577 93.868-199.919 212.053-13.34z" opacity=".74"/>
        <path d="M1680.504 1142.276l-64.548 198.821-197.754 37.724-133.206-161.097 64.548-198.821 197.754-37.724z" opacity=".76"/>
        <path d="M1663.612 1121.234l-37.04 193.705-180.862 58.765-143.823-134.938 37.04-193.705 180.863-58.765z" opacity=".78"/>
        <path d="M1644.734 1103.776l-11.866 185.012-161.985 76.224-150.118-108.788 11.866-185.012 161.985-76.224z" opacity=".8"/>
        <path d="M1624.494 1090.046l10.534 173.252-141.745 89.954-152.278-83.298-10.533-173.252 141.744-89.954z" opacity=".82"/>
        <path d="M1603.519 1080.091l29.81 158.981-120.769 99.91-150.58-59.073-29.81-158.981 120.77-99.91z" opacity=".84"/>
        <path d="M1582.422 1073.86l45.712 142.796-99.672 106.14-145.384-36.656-45.712-142.796 99.672-106.14z" opacity=".86"/>
        <path d="M1561.791 1071.209l58.085 125.31-79.042 108.791-137.126-16.519-58.084-125.31 79.041-108.791z" opacity=".88"/>
        <path d="M1542.175 1071.905l66.874 107.147-59.425 108.094-126.3.949-66.874-107.147 59.426-108.094z" opacity=".9"/>
        <path d="M1524.069 1075.64l72.126 88.916-41.319 104.36-113.445 15.444-72.127-88.916 41.32-104.36z" opacity=".92"/>
    </g>
</svg>
