<?xml version="1.0" encoding="iso-8859-1"?>
<!-- Generator: Adobe Illustrator 19.0.0, SVG Export Plug-In . SVG Version: 6.00 Build 0)  -->
<svg version="1.1" id="Capa_1" xmlns="http://www.w3.org/2000/svg" xmlns:xlink="http://www.w3.org/1999/xlink" x="0px" y="0px"
	 viewBox="0 0 480.003 480.003" style="enable-background:new 0 0 480.003 480.003;" xml:space="preserve">
<g>
	<g>
		<path d="M477.658,466.346l-53.656-53.656V264.002c0-22.056-17.944-40-40-40h-104v-48h168c3.232,0,6.152-1.944,7.392-4.936
			s0.552-6.432-1.736-8.72l-45.656-45.656V40.002c0-22.056-17.944-40-40-40h-144c-22.056,0-40,17.944-40,40h-104
			c-22.056,0-40,17.944-40,40V236.69L2.346,274.346c-2.288,2.288-2.976,5.728-1.736,8.72c1.24,2.992,4.16,4.936,7.392,4.936h112v152
			c0,22.056,17.944,40,40,40h312c3.232,0,6.152-1.944,7.392-4.936S479.946,468.633,477.658,466.346z M224.002,16.002h144
			c13.232,0,24,10.768,24,24v80c0,2.128,0.84,4.16,2.344,5.656l34.344,34.344H280.002v-80c0-22.056-17.944-40-40-40h-40
			C200.002,26.77,210.77,16.002,224.002,16.002z M120.002,264.002v8H27.314l26.344-26.344c1.504-1.496,2.344-3.528,2.344-5.656v-160
			c0-13.232,10.768-24,24-24h160c13.232,0,24,10.768,24,24v144h-104C137.946,224.002,120.002,241.945,120.002,264.002z
			 M160.002,464.002c-13.232,0-24-10.768-24-24v-176c0-13.232,10.768-24,24-24h224c13.232,0,24,10.768,24,24v152
			c0,2.128,0.84,4.16,2.344,5.656l42.344,42.344H160.002z"/>
	</g>
</g>
<g>
	<g>
		<path d="M193.338,174.026c4.192-6.328,6.664-13.888,6.664-22.024v-32c0-22.056-17.944-40-40-40c-22.056,0-40,17.944-40,40v32
			c0,22.056,17.944,40,40,40c8.136,0,15.696-2.472,22.024-6.664l12.32,12.32l11.312-11.312L193.338,174.026z M184.002,152.002
			c0,3.696-0.904,7.152-2.408,10.28l-7.936-7.936l-11.312,11.312l7.936,7.936c-3.128,1.504-6.584,2.408-10.28,2.408
			c-13.232,0-24-10.768-24-24v-32c0-13.232,10.768-24,24-24s24,10.768,24,24V152.002z"/>
	</g>
</g>
<g>
	<g>
		<path d="M272.002,288.002c-22.056,0-40,17.944-40,40v72h16v-24h48v24h16v-72C312.002,305.945,294.058,288.002,272.002,288.002z
			 M296.002,360.002h-48v-32c0-13.232,10.768-24,24-24s24,10.768,24,24V360.002z"/>
	</g>
</g>
<g>
	<g>
		<path d="M200.906,287.497c-3.96,4.36-7.544,9.12-10.656,14.152l13.616,8.408c2.592-4.2,5.576-8.168,8.872-11.792L200.906,287.497z
			"/>
	</g>
</g>
<g>
	<g>
		<path d="M262.858,256.433c-5.872,0.544-11.728,1.656-17.408,3.288l4.424,15.376c4.728-1.36,9.6-2.28,14.488-2.744L262.858,256.433
			z"/>
	</g>
</g>
<g>
	<g>
		<path d="M192.002,352.169l-16,0.032c0.008,5.92,0.568,11.848,1.656,17.616l15.72-2.952
			C192.473,362.057,192.01,357.114,192.002,352.169z"/>
	</g>
</g>
<g>
	<g>
		<path d="M228.97,266.177c-5.264,2.64-10.312,5.8-15.016,9.376l9.68,12.736c3.912-2.992,8.128-5.616,12.512-7.816L228.97,266.177z"
			/>
	</g>
</g>
<g>
	<g>
		<path d="M182.386,317.513c-2.12,5.504-3.736,11.24-4.808,17.072l15.744,2.872c0.88-4.84,2.224-9.616,3.992-14.176L182.386,317.513
			z"/>
	</g>
</g>
<g>
	<g>
		<path d="M346.634,380.89c-1.784,4.576-3.992,9.016-6.584,13.192l13.592,8.44c3.112-5.016,5.768-10.344,7.904-15.848
			L346.634,380.89z"/>
	</g>
</g>
<g>
	<g>
		<path d="M197.434,381.042l-14.904,5.816c2.136,5.488,4.808,10.816,7.936,15.832l13.576-8.472
			C201.434,390.042,199.21,385.609,197.434,381.042z"/>
	</g>
</g>
<g>
	<g>
		<path d="M236.434,423.682l-7.112,14.328c5.304,2.64,10.864,4.784,16.528,6.384l4.344-15.408
			C245.482,427.658,240.858,425.874,236.434,423.682z"/>
	</g>
</g>
<g>
	<g>
		<path d="M212.954,405.986l-11.792,10.816c3.992,4.352,8.392,8.352,13.088,11.896l9.632-12.784
			C219.962,412.962,216.282,409.618,212.954,405.986z"/>
	</g>
</g>
<g>
	<g>
		<path d="M279.466,431.65c-4.896,0.464-9.928,0.448-14.784,0.024l-1.416,15.936c2.888,0.256,5.792,0.392,8.76,0.392
			c3-0.008,5.984-0.152,8.92-0.416L279.466,431.65z"/>
	</g>
</g>
<g>
	<g>
		<path d="M342.714,287.065l-11.784,10.832c3.328,3.624,6.336,7.568,8.952,11.744l13.56-8.504
			C350.314,296.146,346.706,291.409,342.714,287.065z"/>
	</g>
</g>
<g>
	<g>
		<path d="M314.514,265.898l-7.096,14.344c4.408,2.176,8.64,4.784,12.568,7.736l9.608-12.8
			C324.874,271.641,319.802,268.513,314.514,265.898z"/>
	</g>
</g>
<g>
	<g>
		<path d="M361.402,316.953l-14.896,5.84c1.792,4.576,3.168,9.352,4.088,14.176l15.72-3
			C365.21,328.169,363.554,322.45,361.402,316.953z"/>
	</g>
</g>
<g>
	<g>
		<path d="M331.146,405.882c-3.312,3.624-6.976,6.976-10.896,9.944l9.648,12.768c4.704-3.56,9.104-7.576,13.08-11.944
			L331.146,405.882z"/>
	</g>
</g>
<g>
	<g>
		<path d="M280.546,256.378l-1.408,15.936c4.912,0.44,9.8,1.328,14.504,2.648l4.328-15.408
			C292.306,257.969,286.45,256.898,280.546,256.378z"/>
	</g>
</g>
<g>
	<g>
		<path d="M307.706,423.609c-4.384,2.208-9.016,4-13.736,5.344l4.384,15.392c5.68-1.616,11.24-3.784,16.512-6.424L307.706,423.609z"
			/>
	</g>
</g>
<g>
	<g>
		<path d="M352.002,352.002c0,4.944-0.456,9.888-1.344,14.696l15.736,2.92c1.064-5.768,1.608-11.696,1.608-17.352v-0.632
			L352.002,352.002z"/>
	</g>
</g>
<g>
	<g>
		<rect x="296.002" y="64.002" width="16" height="16"/>
	</g>
</g>
<g>
	<g>
		<rect x="296.002" y="96.002" width="16" height="16"/>
	</g>
</g>
<g>
	<g>
		<rect x="328.002" y="64.002" width="16" height="16"/>
	</g>
</g>
<g>
	<g>
		<rect x="328.002" y="96.002" width="16" height="16"/>
	</g>
</g>
<g>
	<g>
		<rect x="360.002" y="64.002" width="16" height="16"/>
	</g>
</g>
<g>
	<g>
		<rect x="360.002" y="96.002" width="16" height="16"/>
	</g>
</g>
<g>
</g>
<g>
</g>
<g>
</g>
<g>
</g>
<g>
</g>
<g>
</g>
<g>
</g>
<g>
</g>
<g>
</g>
<g>
</g>
<g>
</g>
<g>
</g>
<g>
</g>
<g>
</g>
<g>
</g>
</svg>
