<svg xmlns="http://www.w3.org/2000/svg" width="624" height="360" viewBox="0 0 624 360">
    <defs>
        <linearGradient id="a" x1="50%" x2="41.849%" y1="97.784%" y2="-16.397%">
            <stop offset="0%" stop-color="#08BCCD"/>
            <stop offset="100%" stop-color="#2DA1F8"/>
        </linearGradient>
    </defs>
    <g fill="none" fill-rule="evenodd" stroke="url(#a)">
        <path d="M-71.033-831.05l627.49 156.026 152.784 595.05L234.533 359.05-392.96 203.024l-152.782-595.05z" opacity=".02"/>
        <path d="M-140.297-796.827l630.349 74.798 222.047 560.827-408.302 486.029-630.35-74.798-222.046-560.827z" opacity=".04"/>
        <path d="M-203.457-754.79l622.927-4.665 285.207 518.79-337.72 523.454-622.927 4.666-285.207-518.79z" opacity=".06"/>
        <path d="M-259.666-705.919l605.713-81.09 341.416 469.918-264.297 551.01-605.714 81.09-341.416-469.918z" opacity=".08"/>
        <path d="M-308.227-651.283l579.352-153.3L661.101-389.3 471.726 179.282l-579.352 153.3L-497.602-82.7z" opacity=".1"/>
        <path d="M-348.596-592.013l544.621-220.229 430.346 356.014-114.275 576.241-544.622 220.229-430.346-356.014z" opacity=".12"/>
        <path d="M-380.395-529.286l502.424-280.94L584.174-516.94l-40.28 574.226L41.47 338.226-420.675 44.94z" opacity=".14"/>
        <path d="M-403.406-464.297l453.76-334.638L535.51-570.638 566.905-7.703l-453.76 334.638-485.156-228.297z" opacity=".16"/>
        <path d="M-417.574-398.24l399.71-380.68 499.323 162.24 99.614 542.92-399.71 380.68-499.323-162.24z" opacity=".18"/>
        <path d="M-423.002-332.287l341.408-418.58 504.752 96.287 163.344 514.867-341.408 418.58-504.752-96.287z" opacity=".2"/>
        <path d="M-419.946-267.564l280.027-448.014 501.696 31.564 221.669 479.578-280.028 448.014-501.696-31.564z" opacity=".22"/>
        <path d="M-408.802-205.137l216.75-468.822 490.553-30.862 273.8 437.958-216.75 468.822-490.553 30.862z" opacity=".24"/>
        <path d="M-390.098-145.99l152.753-481.003 471.848-90.01L553.598-326.01 400.845 154.993l-471.848 90.01z" opacity=".26"/>
        <path d="M-364.477-91.012l89.175-484.714 446.227-144.988 357.052 339.726-89.175 484.714L-7.425 248.714z" opacity=".28"/>
        <path d="M-332.684-40.982l27.109-480.258 414.434-195.018 387.324 285.24L469.074 49.24 54.641 244.258z" opacity=".3"/>
        <path d="M-295.547 3.44l-32.424-468.074 377.297-239.44 409.72 228.634L491.47-7.366l-377.296 239.44z" opacity=".32"/>
        <path d="M-253.96 41.722l-88.488-448.727L-6.74-684.727l424.197 171.005 88.49 448.727-335.71 277.722z" opacity=".34"/>
        <path d="M-208.861 73.47l-140.253-422.892 290.611-309.47 430.864 113.423 140.252 422.891-290.61 309.47z" opacity=".36"/>
        <path d="M-161.22 98.42l-186.996-391.334 242.97-334.42L324.72-570.42l186.995 391.334-242.97 334.42z" opacity=".38"/>
        <path d="M-112.012 116.451l-228.12-354.896 193.761-352.452 421.882 2.446 228.121 354.896L309.87 118.897z" opacity=".4"/>
        <path d="M-62.2 127.577l-263.164-314.48 143.95-363.576L225.7-599.577l263.163 314.48-143.95 363.576z" opacity=".42"/>
        <path d="M-12.72 131.938l-291.793-271.016 94.47-367.939 386.263-96.921 291.792 271.016-94.47 367.939z" opacity=".44"/>
        <path d="M35.538 129.801L-278.276-95.662l46.212-365.802L127.96-601.8l313.814 225.463-46.211 365.802z" opacity=".46"/>
        <path d="M81.75 121.545L-247.422-57.227v-357.546L81.75-593.545 410.92-414.773v357.546z" opacity=".48"/>
        <path d="M125.163 107.651L-212.776-24.225l-43.413-343.651L38.336-579.651l337.939 131.876 43.413 343.651z" opacity=".5"/>
        <path d="M165.115 88.688L-175.2 3.02l-83.366-324.688 256.95-239.02 340.315 85.668 83.366 324.688z" opacity=".52"/>
        <path d="M201.043 65.3l-336.62-40.988-119.294-301.3 217.327-260.313 336.62 40.989 119.294 301.3z" opacity=".54"/>
        <path d="M232.488 38.192L-94.79 39.584l-150.738-274.192 176.54-275.584 327.277-1.392 150.739 274.192z" opacity=".56"/>
        <path d="M259.104 8.108L-53.703 48.894l-177.355-244.108 135.453-284.894 312.808-40.786 177.354 244.108z" opacity=".58"/>
        <path d="M280.66-24.181l-293.808 76.6L-212.059-159.4l94.898-288.419 293.808-76.6L375.558-312.6z" opacity=".6"/>
        <path d="M297.041-57.895L26.095 50.448l-215.291-178.104 55.654-286.449 270.946-108.343 215.292 178.104z" opacity=".62"/>
        <path d="M308.244-92.262L63.31 43.372l-226.494-143.737 18.439-279.373 244.932-135.634 226.494 143.737z" opacity=".64"/>
        <path d="M314.376-126.534L97.862 31.67-134.764-77.795l-16.113-267.67L65.637-503.672l232.627 109.466z" opacity=".66"/>
        <path d="M315.65-160.001L129.2 15.9l-233.901-76-47.45-251.9L34.3-487.9l233.9 76z" opacity=".68"/>
        <path d="M312.372-192.006L156.871-3.32-73.752-47.313l-75.12-232.68L6.627-468.68l230.623 43.993z" opacity=".7"/>
    </g>
</svg>
