<svg width="54" height="62" viewBox="0 0 54 62" fill="none" xmlns="http://www.w3.org/2000/svg">
<path fill-rule="evenodd" clip-rule="evenodd" d="M0 3C0 1.35503 1.35503 0 3 0H51C52.645 0 54 1.35503 54 3V59C54 60.645 52.645 62 51 62H3C1.35503 62 0 60.645 0 59V3ZM8 2H3C2.43497 2 2 2.43497 2 3V59C2 59.565 2.43497 60 3 60H8V2ZM10 2H51C51.565 2 52 2.43497 52 3V59C52 59.565 51.565 60 51 60H10V2ZM12 5C12 4.44772 12.4477 4 13 4C13.5523 4 14 4.44772 14 5C14 5.55228 13.5523 6 13 6C12.4477 6 12 5.55228 12 5ZM17 4C16.4477 4 16 4.44772 16 5C16 5.55228 16.4477 6 17 6C17.5523 6 18 5.55228 18 5C18 4.44772 17.5523 4 17 4ZM20 5C20 4.44772 20.4477 4 21 4C21.5523 4 22 4.44772 22 5C22 5.55228 21.5523 6 21 6C20.4477 6 20 5.55228 20 5ZM25 4C24.4477 4 24 4.44772 24 5C24 5.55228 24.4477 6 25 6C25.5523 6 26 5.55228 26 5C26 4.44772 25.5523 4 25 4ZM28 5C28 4.44772 28.4477 4 29 4C29.5523 4 30 4.44772 30 5C30 5.55228 29.5523 6 29 6C28.4477 6 28 5.55228 28 5ZM33 4C32.4477 4 32 4.44772 32 5C32 5.55228 32.4477 6 33 6C33.5523 6 34 5.55228 34 5C34 4.44772 33.5523 4 33 4ZM36 5C36 4.44772 36.4477 4 37 4C37.5523 4 38 4.44772 38 5C38 5.55228 37.5523 6 37 6C36.4477 6 36 5.55228 36 5ZM41 4C40.4477 4 40 4.44772 40 5C40 5.55228 40.4477 6 41 6C41.5523 6 42 5.55228 42 5C42 4.44772 41.5523 4 41 4ZM44 5C44 4.44772 44.4477 4 45 4C45.5523 4 46 4.44772 46 5C46 5.55228 45.5523 6 45 6C44.4477 6 44 5.55228 44 5ZM49 4C48.4477 4 48 4.44772 48 5C48 5.55228 48.4477 6 49 6C49.5523 6 50 5.55228 50 5C50 4.44772 49.5523 4 49 4ZM48 9C48 8.44771 48.4477 8 49 8C49.5523 8 50 8.44771 50 9C50 9.55228 49.5523 10 49 10C48.4477 10 48 9.55228 48 9ZM49 12C48.4477 12 48 12.4477 48 13C48 13.5523 48.4477 14 49 14C49.5523 14 50 13.5523 50 13C50 12.4477 49.5523 12 49 12ZM48 17C48 16.4477 48.4477 16 49 16C49.5523 16 50 16.4477 50 17C50 17.5523 49.5523 18 49 18C48.4477 18 48 17.5523 48 17ZM21 20C20.4477 20 20 20.4477 20 21C20 21.5523 20.4477 22 21 22C21.5523 22 22 21.5523 22 21C22 20.4477 21.5523 20 21 20ZM24 21C24 20.4477 24.4477 20 25 20C25.5523 20 26 20.4477 26 21C26 21.5523 25.5523 22 25 22C24.4477 22 24 21.5523 24 21ZM29 20C28.4477 20 28 20.4477 28 21C28 21.5523 28.4477 22 29 22C29.5523 22 30 21.5523 30 21C30 20.4477 29.5523 20 29 20ZM32 21C32 20.4477 32.4477 20 33 20C33.5523 20 34 20.4477 34 21C34 21.5523 33.5523 22 33 22C32.4477 22 32 21.5523 32 21ZM37 20C36.4477 20 36 20.4477 36 21C36 21.5523 36.4477 22 37 22C37.5523 22 38 21.5523 38 21C38 20.4477 37.5523 20 37 20ZM48 21C48 20.4477 48.4477 20 49 20C49.5523 20 50 20.4477 50 21C50 21.5523 49.5523 22 49 22C48.4477 22 48 21.5523 48 21ZM49 24C48.4477 24 48 24.4477 48 25C48 25.5523 48.4477 26 49 26C49.5523 26 50 25.5523 50 25C50 24.4477 49.5523 24 49 24ZM48 29C48 28.4477 48.4477 28 49 28C49.5523 28 50 28.4477 50 29C50 29.5523 49.5523 30 49 30C48.4477 30 48 29.5523 48 29ZM49 32C48.4477 32 48 32.4477 48 33C48 33.5523 48.4477 34 49 34C49.5523 34 50 33.5523 50 33C50 32.4477 49.5523 32 49 32ZM48 37C48 36.4477 48.4477 36 49 36C49.5523 36 50 36.4477 50 37C50 37.5523 49.5523 38 49 38C48.4477 38 48 37.5523 48 37ZM49 40C48.4477 40 48 40.4477 48 41C48 41.5523 48.4477 42 49 42C49.5523 42 50 41.5523 50 41C50 40.4477 49.5523 40 49 40ZM48 45C48 44.4477 48.4477 44 49 44C49.5523 44 50 44.4477 50 45C50 45.5523 49.5523 46 49 46C48.4477 46 48 45.5523 48 45ZM49 48C48.4477 48 48 48.4477 48 49C48 49.5523 48.4477 50 49 50C49.5523 50 50 49.5523 50 49C50 48.4477 49.5523 48 49 48ZM48 53C48 52.4477 48.4477 52 49 52C49.5523 52 50 52.4477 50 53C50 53.5523 49.5523 54 49 54C48.4477 54 48 53.5523 48 53ZM13 56C12.4477 56 12 56.4477 12 57C12 57.5523 12.4477 58 13 58C13.5523 58 14 57.5523 14 57C14 56.4477 13.5523 56 13 56ZM16 57C16 56.4477 16.4477 56 17 56C17.5523 56 18 56.4477 18 57C18 57.5523 17.5523 58 17 58C16.4477 58 16 57.5523 16 57ZM21 56C20.4477 56 20 56.4477 20 57C20 57.5523 20.4477 58 21 58C21.5523 58 22 57.5523 22 57C22 56.4477 21.5523 56 21 56ZM24 57C24 56.4477 24.4477 56 25 56C25.5523 56 26 56.4477 26 57C26 57.5523 25.5523 58 25 58C24.4477 58 24 57.5523 24 57ZM29 56C28.4477 56 28 56.4477 28 57C28 57.5523 28.4477 58 29 58C29.5523 58 30 57.5523 30 57C30 56.4477 29.5523 56 29 56ZM32 57C32 56.4477 32.4477 56 33 56C33.5523 56 34 56.4477 34 57C34 57.5523 33.5523 58 33 58C32.4477 58 32 57.5523 32 57ZM37 56C36.4477 56 36 56.4477 36 57C36 57.5523 36.4477 58 37 58C37.5523 58 38 57.5523 38 57C38 56.4477 37.5523 56 37 56ZM40 57C40 56.4477 40.4477 56 41 56C41.5523 56 42 56.4477 42 57C42 57.5523 41.5523 58 41 58C40.4477 58 40 57.5523 40 57ZM45 56C44.4477 56 44 56.4477 44 57C44 57.5523 44.4477 58 45 58C45.5523 58 46 57.5523 46 57C46 56.4477 45.5523 56 45 56ZM48 57C48 56.4477 48.4477 56 49 56C49.5523 56 50 56.4477 50 57C50 57.5523 49.5523 58 49 58C48.4477 58 48 57.5523 48 57Z" fill="url(#paint0_linear_0_33999)"/>
<defs>
<linearGradient id="paint0_linear_0_33999" x1="0" y1="0" x2="65.9951" y2="17.9854" gradientUnits="userSpaceOnUse">
<stop stop-color="#00E0FF"/>
<stop offset="1" stop-color="#2DA1F8"/>
</linearGradient>
</defs>
</svg>
