<svg width="44" height="41" viewBox="0 0 44 41" fill="none" xmlns="http://www.w3.org/2000/svg">
<g id="icon-marketplace-notaries">
<path id="Shape" fill-rule="evenodd" clip-rule="evenodd" d="M2.41096 0C1.08069 0 0 1.08069 0 2.41096V32.5479H22.0589L22.6004 31.3425H1.20548V6.63014C1.20548 6.96211 1.47624 7.23288 1.80822 7.23288C2.1402 7.23288 2.41096 6.96211 2.41096 6.63014C2.41096 6.29816 2.1402 6.0274 1.80822 6.0274C1.47624 6.0274 1.20548 6.29816 1.20548 6.63014V2.41096C1.20548 1.747 1.747 1.20548 2.41096 1.20548H37.3699C38.0338 1.20548 38.5753 1.747 38.5753 2.41096L38.5753 6.63014C38.5753 6.29816 38.3046 6.0274 37.9726 6.0274C37.6406 6.0274 37.3699 6.29816 37.3699 6.63014C37.3699 6.96211 37.6406 7.23288 37.9726 7.23288C38.3046 7.23288 38.5753 6.96211 38.5753 6.63014L38.5753 19.6997L39.7808 19.5702V2.41096C39.7808 1.08069 38.7001 0 37.3699 0H2.41096ZM4.21918 6.0274C3.8872 6.0274 3.61644 6.29816 3.61644 6.63014C3.61644 6.96211 3.8872 7.23288 4.21918 7.23288C4.55116 7.23288 4.82192 6.96211 4.82192 6.63014C4.82192 6.29816 4.55116 6.0274 4.21918 6.0274ZM6.0274 6.63014C6.0274 6.29816 6.29816 6.0274 6.63014 6.0274C6.96211 6.0274 7.23288 6.29816 7.23288 6.63014C7.23288 6.96211 6.96211 7.23288 6.63014 7.23288C6.29816 7.23288 6.0274 6.96211 6.0274 6.63014ZM9.0411 6.0274C8.70912 6.0274 8.43836 6.29816 8.43836 6.63014C8.43836 6.96211 8.70912 7.23288 9.0411 7.23288C9.37307 7.23288 9.64384 6.96211 9.64384 6.63014C9.64384 6.29816 9.37307 6.0274 9.0411 6.0274ZM10.8493 6.63014C10.8493 6.29816 11.1201 6.0274 11.4521 6.0274C11.784 6.0274 12.0548 6.29816 12.0548 6.63014C12.0548 6.96211 11.784 7.23288 11.4521 7.23288C11.1201 7.23288 10.8493 6.96211 10.8493 6.63014ZM13.863 6.0274C13.531 6.0274 13.2603 6.29816 13.2603 6.63014C13.2603 6.96211 13.531 7.23288 13.863 7.23288C14.195 7.23288 14.4658 6.96211 14.4658 6.63014C14.4658 6.29816 14.195 6.0274 13.863 6.0274ZM15.6712 6.63014C15.6712 6.29816 15.942 6.0274 16.274 6.0274C16.606 6.0274 16.8767 6.29816 16.8767 6.63014C16.8767 6.96211 16.606 7.23288 16.274 7.23288C15.942 7.23288 15.6712 6.96211 15.6712 6.63014ZM18.6849 6.0274C18.353 6.0274 18.0822 6.29816 18.0822 6.63014C18.0822 6.96211 18.353 7.23288 18.6849 7.23288C19.0169 7.23288 19.2877 6.96211 19.2877 6.63014C19.2877 6.29816 19.0169 6.0274 18.6849 6.0274ZM20.4932 6.63014C20.4932 6.29816 20.7639 6.0274 21.0959 6.0274C21.4279 6.0274 21.6986 6.29816 21.6986 6.63014C21.6986 6.96211 21.4279 7.23288 21.0959 7.23288C20.7639 7.23288 20.4932 6.96211 20.4932 6.63014ZM23.5068 6.0274C23.1749 6.0274 22.9041 6.29816 22.9041 6.63014C22.9041 6.96211 23.1749 7.23288 23.5068 7.23288C23.8388 7.23288 24.1096 6.96211 24.1096 6.63014C24.1096 6.29816 23.8388 6.0274 23.5068 6.0274ZM25.3151 6.63014C25.3151 6.29816 25.5858 6.0274 25.9178 6.0274C26.2498 6.0274 26.5205 6.29816 26.5205 6.63014C26.5205 6.96211 26.2498 7.23288 25.9178 7.23288C25.5858 7.23288 25.3151 6.96211 25.3151 6.63014ZM28.3288 6.0274C27.9968 6.0274 27.726 6.29816 27.726 6.63014C27.726 6.96211 27.9968 7.23288 28.3288 7.23288C28.6607 7.23288 28.9315 6.96211 28.9315 6.63014C28.9315 6.29816 28.6607 6.0274 28.3288 6.0274ZM30.137 6.63014C30.137 6.29816 30.4077 6.0274 30.7397 6.0274C31.0717 6.0274 31.3425 6.29816 31.3425 6.63014C31.3425 6.96211 31.0717 7.23288 30.7397 7.23288C30.4077 7.23288 30.137 6.96211 30.137 6.63014ZM33.1507 6.0274C32.8187 6.0274 32.5479 6.29816 32.5479 6.63014C32.5479 6.96211 32.8187 7.23288 33.1507 7.23288C33.4827 7.23288 33.7534 6.96211 33.7534 6.63014C33.7534 6.29816 33.4827 6.0274 33.1507 6.0274ZM34.9589 6.63014C34.9589 6.29816 35.2297 6.0274 35.5616 6.0274C35.8936 6.0274 36.1644 6.29816 36.1644 6.63014C36.1644 6.96211 35.8936 7.23288 35.5616 7.23288C35.2297 7.23288 34.9589 6.96211 34.9589 6.63014ZM9.64384 12.6575C8.97753 12.6575 8.43836 13.1967 8.43836 13.863C8.43836 14.5293 8.97753 15.0685 9.64384 15.0685C10.3101 15.0685 10.8493 14.5293 10.8493 13.863C10.8493 13.1967 10.3101 12.6575 9.64384 12.6575ZM30.7397 14.4658H12.6575V13.2603H30.7397V14.4658ZM9.64384 17.4795C8.97753 17.4795 8.43836 18.0186 8.43836 18.6849C8.43836 19.3512 8.97753 19.8904 9.64384 19.8904C10.3101 19.8904 10.8493 19.3512 10.8493 18.6849C10.8493 18.0186 10.3101 17.4795 9.64384 17.4795ZM30.7397 19.2877H12.6575V18.0822H30.7397V19.2877ZM33.7534 19.3795L33.3485 19.7444L31.1282 21.7551L27.606 21.3761L26.8784 24.8418L23.8082 26.6053L25.2586 29.8356L23.8082 33.0659L26.8784 34.8294L27.606 38.2952L31.1282 37.9161L33.7534 40.2917L36.3786 37.9161L39.9009 38.2952L40.6284 34.8294L43.6986 33.0659L42.2483 29.8356L43.6986 26.6053L40.6284 24.8418L39.9009 21.3761L36.3786 21.7551L33.7534 19.3795ZM35.969 23.0101L33.7534 21.0041L31.5379 23.0101L28.5642 22.6899L27.9497 25.6188L25.3551 27.1068L26.5771 29.8356L25.3551 32.5644L27.9497 34.0524L28.5642 36.9814L31.5379 36.6612L33.7534 38.6672L35.969 36.6612L38.9426 36.9814L39.5572 34.0524L42.1518 32.5644L40.9298 29.8356L42.1518 27.1068L39.5572 25.6188L38.9426 22.6899L35.969 23.0101ZM9.64384 22.3014C8.97753 22.3014 8.43836 22.8405 8.43836 23.5068C8.43836 24.1732 8.97753 24.7123 9.64384 24.7123C10.3101 24.7123 10.8493 24.1732 10.8493 23.5068C10.8493 22.8405 10.3101 22.3014 9.64384 22.3014ZM24.524 24.1096H12.6575V22.9041H25.4375L25.2774 23.6764L24.524 24.1096Z" fill="url(#paint0_linear_0_21261)"/>
</g>
<defs>
<linearGradient id="paint0_linear_0_21261" x1="0" y1="0" x2="51.4471" y2="17.459" gradientUnits="userSpaceOnUse">
<stop stop-color="#00E0FF"/>
<stop offset="1" stop-color="#2DA1F8"/>
</linearGradient>
</defs>
</svg>
