<svg width="43" height="62" viewBox="0 0 43 62" fill="none" xmlns="http://www.w3.org/2000/svg">
<path fill-rule="evenodd" clip-rule="evenodd" d="M17.1034 0C15.9276 0 14.9655 0.962069 14.9655 2.13793V4.27586H3.2069C1.4431 4.27586 0 5.71897 0 7.48276V58.7931C0 60.5569 1.4431 62 3.2069 62H39.5517C41.3155 62 42.7586 60.5569 42.7586 58.7931V7.48276C42.7586 5.71897 41.3155 4.27586 39.5517 4.27586H27.7931V2.13793C27.7931 0.962069 26.831 0 25.6552 0H17.1034ZM17.1034 2.13793H25.6552V4.27586V6.41379V7.94208L21.3793 10.508L17.1034 7.94208V6.41379V4.27586V2.13793ZM14.9655 6.41379H3.2069C2.61897 6.41379 2.13793 6.89483 2.13793 7.48276V58.7931C2.13793 59.381 2.61897 59.8621 3.2069 59.8621H39.5517C40.1397 59.8621 40.6207 59.381 40.6207 58.7931V7.48276C40.6207 6.89483 40.1397 6.41379 39.5517 6.41379H27.7931V7.94208C27.7931 8.69036 27.3968 9.39662 26.7555 9.78145L22.4796 12.3474C22.1375 12.5505 21.7641 12.6459 21.3793 12.6459C20.9945 12.6459 20.6211 12.5505 20.279 12.3474L16.0032 9.78145C15.3618 9.39662 14.9655 8.69036 14.9655 7.94208V6.41379ZM21.3793 14.9655C17.2531 14.9655 13.8966 18.3221 13.8966 22.4483V24.5862C13.8966 26.3072 14.4743 28.1148 15.4791 29.622C12.1333 30.83 9.2782 33.4162 7.58924 36.9545C7.33269 37.489 7.55792 38.1197 8.0924 38.3763C8.6162 38.6328 9.25766 38.4076 9.51421 37.8731C11.0963 34.57 13.8326 32.2393 17.0074 31.3842C18.2153 32.4531 19.7224 33.1379 21.3793 33.1379C23.0362 33.1379 24.5433 32.4531 25.7512 31.3842C28.926 32.2393 31.6623 34.57 33.2444 37.8731C33.4261 38.2579 33.8114 38.4828 34.2069 38.4828C34.3672 38.4828 34.5166 38.4511 34.6662 38.3763C35.2007 38.1197 35.4259 37.489 35.1694 36.9545C33.4804 33.4162 30.6254 30.83 27.2795 29.622C28.2843 28.1148 28.8621 26.3072 28.8621 24.5862V22.4483C28.8621 18.3221 25.5055 14.9655 21.3793 14.9655ZM26.7241 22.4483C26.7241 19.4979 24.3297 17.1034 21.3793 17.1034C18.429 17.1034 16.0345 19.4979 16.0345 22.4483V24.5862C16.0345 26.1041 16.6759 27.7826 17.7235 29.0333C18.6749 30.1984 19.9683 31 21.3793 31C22.7903 31 24.0837 30.1984 25.0351 29.0333C26.0827 27.7826 26.7241 26.1041 26.7241 24.5862V22.4483ZM11.7586 42.7586C11.1675 42.7586 10.6897 43.2365 10.6897 43.8276C10.6897 44.4187 11.1675 44.8966 11.7586 44.8966H31C31.5911 44.8966 32.069 44.4187 32.069 43.8276C32.069 43.2365 31.5911 42.7586 31 42.7586H11.7586ZM14.9655 48.1034C14.9655 47.5123 15.4433 47.0345 16.0345 47.0345H20.3103C20.9015 47.0345 21.3793 47.5123 21.3793 48.1034C21.3793 48.6946 20.9015 49.1724 20.3103 49.1724H16.0345C15.4433 49.1724 14.9655 48.6946 14.9655 48.1034ZM24.5862 47.0345C23.9951 47.0345 23.5172 47.5123 23.5172 48.1034C23.5172 48.6946 23.9951 49.1724 24.5862 49.1724H26.7241C27.3153 49.1724 27.7931 48.6946 27.7931 48.1034C27.7931 47.5123 27.3153 47.0345 26.7241 47.0345H24.5862ZM4.27586 54.5172C4.27586 53.9261 4.70345 53.4483 5.34483 53.4483C5.98621 53.4483 6.41379 53.9272 6.41379 54.5172V56.6552C6.41379 57.2463 5.98621 57.7241 5.34483 57.7241C4.70345 57.7241 4.27586 57.2463 4.27586 56.6552V54.5172ZM10.6897 53.4483C10.0483 53.4483 9.62069 53.9261 9.62069 54.5172V56.6552C9.62069 57.2463 10.0483 57.7241 10.6897 57.7241C11.331 57.7241 11.7586 57.2463 11.7586 56.6552V54.5172C11.7586 53.9272 11.331 53.4483 10.6897 53.4483ZM14.9655 54.5172C14.9655 53.9261 15.3931 53.4483 16.0345 53.4483C16.6759 53.4483 17.1034 53.9272 17.1034 54.5172V56.6552C17.1034 57.2463 16.6759 57.7241 16.0345 57.7241C15.3931 57.7241 14.9655 57.2463 14.9655 56.6552V54.5172ZM21.3793 53.4483C20.7379 53.4483 20.3103 53.9261 20.3103 54.5172V56.6552C20.3103 57.2463 20.7379 57.7241 21.3793 57.7241C22.0207 57.7241 22.4483 57.2463 22.4483 56.6552V54.5172C22.4483 53.9272 22.0207 53.4483 21.3793 53.4483ZM25.6552 54.5172C25.6552 53.9261 26.0828 53.4483 26.7241 53.4483C27.3655 53.4483 27.7931 53.9272 27.7931 54.5172V56.6552C27.7931 57.2463 27.3655 57.7241 26.7241 57.7241C26.0828 57.7241 25.6552 57.2463 25.6552 56.6552V54.5172ZM32.069 53.4483C31.4276 53.4483 31 53.9261 31 54.5172V56.6552C31 57.2463 31.4276 57.7241 32.069 57.7241C32.7103 57.7241 33.1379 57.2463 33.1379 56.6552V54.5172C33.1379 53.9272 32.7103 53.4483 32.069 53.4483ZM36.3448 54.5172C36.3448 53.9261 36.7724 53.4483 37.4138 53.4483C38.0552 53.4483 38.4828 53.9272 38.4828 54.5172V56.6552C38.4828 57.2463 38.0552 57.7241 37.4138 57.7241C36.7724 57.7241 36.3448 57.2463 36.3448 56.6552V54.5172Z" fill="url(#paint0_linear_0_4561)"/>
<defs>
<linearGradient id="paint0_linear_0_4561" x1="0" y1="0" x2="53.64" y2="11.5751" gradientUnits="userSpaceOnUse">
<stop stop-color="#00E0FF"/>
<stop offset="1" stop-color="#2DA1F8"/>
</linearGradient>
</defs>
</svg>
