<svg width="18" height="25" viewBox="0 0 18 25" fill="none" xmlns="http://www.w3.org/2000/svg">
<path id="icon-trezor" fill-rule="evenodd" clip-rule="evenodd" d="M8.60996 0C5.18326 0 2.4101 2.77317 2.4101 6.19986V8.52351C1.20678 8.74135 0 9.03181 0 9.40871V21.5353C0 21.5353 0 21.8707 0.376902 22.0297C1.74274 22.583 7.11618 24.4848 8.35062 24.9205C8.50968 24.9793 8.55463 24.9793 8.59613 24.9793C8.65491 24.9793 8.68257 24.9793 8.84163 24.9205C10.0761 24.4848 15.4633 22.583 16.8292 22.0297C17.1784 21.8845 17.1923 21.5491 17.1923 21.5491V9.40871C17.1923 9.03181 16.0028 8.72752 14.796 8.52351V6.19986C14.8133 2.77317 12.0228 0 8.60996 0ZM8.60996 2.96335C10.6293 2.96335 11.8499 4.18396 11.8499 6.20332V8.22268C9.58506 8.06362 7.65214 8.06362 5.37344 8.22268V6.20332C5.37344 4.1805 6.59405 2.96335 8.60996 2.96335ZM13.7794 11.805C13.7794 11.4142 11.4142 11.1964 8.59613 11.1964C5.77801 11.1964 3.41286 11.4004 3.44053 11.7911V19.3568C3.44053 19.471 3.45781 19.4848 3.55809 19.5297C3.65837 19.5747 8.36445 21.2725 8.36445 21.2725C8.36445 21.2725 8.55118 21.3451 8.60996 21.3451C8.66528 21.3451 8.85546 21.2863 8.85546 21.2863C8.85546 21.2863 13.5615 19.5885 13.6618 19.5436C13.7656 19.5021 13.7794 19.4882 13.7794 19.3707V11.805Z" fill="url(#paint0_linear_0_1158)"/>
<defs>
<linearGradient id="paint0_linear_0_1158" x1="0" y1="0" x2="21.5713" y2="4.64553" gradientUnits="userSpaceOnUse">
<stop stop-color="#00E0FF"/>
<stop offset="1" stop-color="#2DA1F8"/>
</linearGradient>
</defs>
</svg>
