<svg width="68" height="55" viewBox="0 0 68 55" fill="none" xmlns="http://www.w3.org/2000/svg">
<path fill-rule="evenodd" clip-rule="evenodd" d="M5 3V0H31C32.2109 0 33.2644 0.576246 34 1.43555C34.7356 0.576246 35.7891 0 37 0H63V3H68V52H38.4941C37.715 53.7451 36.0289 55 34 55C31.9715 55 30.2847 53.7452 29.5059 52H0V3H5ZM31 2H7V45H31C32.2109 45 33.2644 45.5762 34 46.4355C34.7356 45.5762 35.7891 45 37 45H61V2H37C35.8833 2 35 2.88333 35 4H33C33 2.88333 32.1167 2 31 2ZM2 5H5V47H31C32.1167 47 33 47.8833 33 49H35C35 47.8833 35.8833 47 37 47H63V5H66V50H37.0859L36.8906 50.748C36.5546 52.0424 35.4044 53 34 53C32.5956 53 31.4444 52.0435 31.1094 50.75L30.9141 50H2V5ZM33 7C33 6.44772 33.4477 6 34 6C34.5523 6 35 6.44772 35 7C35 7.55228 34.5523 8 34 8C33.4477 8 33 7.55228 33 7ZM12 10V12H20V10H12ZM22 11C22 10.4477 22.4477 10 23 10C23.5523 10 24 10.4477 24 11C24 11.5523 23.5523 12 23 12C22.4477 12 22 11.5523 22 11ZM27 10C26.4477 10 26 10.4477 26 11C26 11.5523 26.4477 12 27 12C27.5523 12 28 11.5523 28 11C28 10.4477 27.5523 10 27 10ZM33 11C33 10.4477 33.4477 10 34 10C34.5523 10 35 10.4477 35 11C35 11.5523 34.5523 12 34 12C33.4477 12 33 11.5523 33 11ZM40 12H48V10H40V12ZM50 11C50 10.4477 50.4477 10 51 10C51.5523 10 52 10.4477 52 11C52 11.5523 51.5523 12 51 12C50.4477 12 50 11.5523 50 11ZM55 10C54.4477 10 54 10.4477 54 11C54 11.5523 54.4477 12 55 12C55.5523 12 56 11.5523 56 11C56 10.4477 55.5523 10 55 10ZM33 15C33 14.4477 33.4477 14 34 14C34.5523 14 35 14.4477 35 15C35 15.5523 34.5523 16 34 16C33.4477 16 33 15.5523 33 15ZM12 16V18H20V16H12ZM22 17C22 16.4477 22.4477 16 23 16C23.5523 16 24 16.4477 24 17C24 17.5523 23.5523 18 23 18C22.4477 18 22 17.5523 22 17ZM27 16C26.4477 16 26 16.4477 26 17C26 17.5523 26.4477 18 27 18C27.5523 18 28 17.5523 28 17C28 16.4477 27.5523 16 27 16ZM48 18H40V16H48V18ZM51 16C50.4477 16 50 16.4477 50 17C50 17.5523 50.4477 18 51 18C51.5523 18 52 17.5523 52 17C52 16.4477 51.5523 16 51 16ZM54 17C54 16.4477 54.4477 16 55 16C55.5523 16 56 16.4477 56 17C56 17.5523 55.5523 18 55 18C54.4477 18 54 17.5523 54 17ZM34 18C33.4477 18 33 18.4477 33 19C33 19.5523 33.4477 20 34 20C34.5523 20 35 19.5523 35 19C35 18.4477 34.5523 18 34 18ZM12 24V22H20V24H12ZM27 22C26.4477 22 26 22.4477 26 23C26 23.5523 26.4477 24 27 24C27.5523 24 28 23.5523 28 23C28 22.4477 27.5523 22 27 22ZM33 23C33 22.4477 33.4477 22 34 22C34.5523 22 35 22.4477 35 23C35 23.5523 34.5523 24 34 24C33.4477 24 33 23.5523 33 23ZM40 24H48V22H40V24ZM54 23C54 22.4477 54.4477 22 55 22C55.5523 22 56 22.4477 56 23C56 23.5523 55.5523 24 55 24C54.4477 24 54 23.5523 54 23ZM34 26C33.4477 26 33 26.4477 33 27C33 27.5523 33.4477 28 34 28C34.5523 28 35 27.5523 35 27C35 26.4477 34.5523 26 34 26ZM12 30V28H20V30H12ZM23 28C22.4477 28 22 28.4477 22 29C22 29.5523 22.4477 30 23 30C23.5523 30 24 29.5523 24 29C24 28.4477 23.5523 28 23 28ZM26 29C26 28.4477 26.4477 28 27 28C27.5523 28 28 28.4477 28 29C28 29.5523 27.5523 30 27 30C26.4477 30 26 29.5523 26 29ZM34 30C33.4477 30 33 30.4477 33 31C33 31.5523 33.4477 32 34 32C34.5523 32 35 31.5523 35 31C35 30.4477 34.5523 30 34 30ZM12 36V34H20V36H12ZM27 34C26.4477 34 26 34.4477 26 35C26 35.5523 26.4477 36 27 36C27.5523 36 28 35.5523 28 35C28 34.4477 27.5523 34 27 34ZM33 35C33 34.4477 33.4477 34 34 34C34.5523 34 35 34.4477 35 35C35 35.5523 34.5523 36 34 36C33.4477 36 33 35.5523 33 35ZM34 38C33.4477 38 33 38.4477 33 39C33 39.5523 33.4477 40 34 40C34.5523 40 35 39.5523 35 39C35 38.4477 34.5523 38 34 38ZM33 43C33 42.4477 33.4477 42 34 42C34.5523 42 35 42.4477 35 43C35 43.5523 34.5523 44 34 44C33.4477 44 33 43.5523 33 43Z" fill="url(#paint0_linear_0_12619)"/>
<defs>
<linearGradient id="paint0_linear_0_12619" x1="0" y1="0" x2="77.6554" y2="30.0416" gradientUnits="userSpaceOnUse">
<stop stop-color="#00E0FF"/>
<stop offset="1" stop-color="#2DA1F8"/>
</linearGradient>
</defs>
</svg>
