<svg width="24" height="24" viewBox="0 0 24 24" fill="none" xmlns="http://www.w3.org/2000/svg">
<path id="icon-tokens" fill-rule="evenodd" clip-rule="evenodd" d="M17.2258 0C15.4113 0 13.766 0.351689 12.5406 0.945816C11.3152 1.53994 10.4516 2.41298 10.4516 3.48387V6.19355V8.67263C9.38957 8.32576 8.12944 8.12903 6.77419 8.12903C4.95973 8.12903 3.31435 8.48072 2.08896 9.07485C0.863574 9.66898 0 10.542 0 11.6129V14.3226V17.0323V19.7419C0 20.8128 0.863589 21.6858 2.08896 22.28C3.31433 22.8741 4.95967 23.2258 6.77419 23.2258C8.58872 23.2258 10.2341 22.8741 11.4594 22.28C12.5972 21.7283 13.4217 20.9356 13.534 19.968C14.5987 20.3173 15.8648 20.5161 17.2258 20.5161C19.0403 20.5161 20.6857 20.1645 21.911 19.5703C23.1364 18.9762 24 18.1031 24 17.0323V14.3226V11.6129V8.90323V6.19355V3.48387C24 2.41298 23.1364 1.53994 21.911 0.945816C20.6857 0.351689 19.0403 0 17.2258 0ZM17.2258 0.774194C18.9388 0.774194 20.4868 1.11545 21.5731 1.64214C22.6594 2.16882 23.2258 2.84446 23.2258 3.48387C23.2258 4.12328 22.6594 4.79892 21.5731 5.3256C20.4868 5.85229 18.9388 6.19355 17.2258 6.19355C15.5128 6.19355 13.9648 5.85229 12.8785 5.3256C11.7922 4.79892 11.2258 4.12328 11.2258 3.48387C11.2258 2.84446 11.7922 2.16882 12.8785 1.64214C13.9648 1.11545 15.5128 0.774194 17.2258 0.774194ZM14.7097 2.32258C14.7097 2.10879 14.883 1.93548 15.0968 1.93548C15.3106 1.93548 15.4839 2.10879 15.4839 2.32258C15.4839 2.53637 15.3106 2.70968 15.0968 2.70968C14.883 2.70968 14.7097 2.53637 14.7097 2.32258ZM16.6452 1.93548C16.4314 1.93548 16.2581 2.10879 16.2581 2.32258C16.2581 2.53637 16.4314 2.70968 16.6452 2.70968C16.8589 2.70968 17.0323 2.53637 17.0323 2.32258C17.0323 2.10879 16.8589 1.93548 16.6452 1.93548ZM17.8065 2.32258C17.8065 2.10879 17.9798 1.93548 18.1935 1.93548C18.4073 1.93548 18.5806 2.10879 18.5806 2.32258C18.5806 2.53637 18.4073 2.70968 18.1935 2.70968C17.9798 2.70968 17.8065 2.53637 17.8065 2.32258ZM19.7419 1.93548C19.5281 1.93548 19.3548 2.10879 19.3548 2.32258C19.3548 2.53637 19.5281 2.70968 19.7419 2.70968C19.9557 2.70968 20.129 2.53637 20.129 2.32258C20.129 2.10879 19.9557 1.93548 19.7419 1.93548ZM13.9355 3.48387C13.9355 3.27008 14.1088 3.09677 14.3226 3.09677C14.5364 3.09677 14.7097 3.27008 14.7097 3.48387C14.7097 3.69766 14.5364 3.87097 14.3226 3.87097C14.1088 3.87097 13.9355 3.69766 13.9355 3.48387ZM15.871 3.09677C15.6572 3.09677 15.4839 3.27008 15.4839 3.48387C15.4839 3.69766 15.6572 3.87097 15.871 3.87097C16.0848 3.87097 16.2581 3.69766 16.2581 3.48387C16.2581 3.27008 16.0848 3.09677 15.871 3.09677ZM17.0323 3.48387C17.0323 3.27008 17.2056 3.09677 17.4194 3.09677C17.6331 3.09677 17.8065 3.27008 17.8065 3.48387C17.8065 3.69766 17.6331 3.87097 17.4194 3.87097C17.2056 3.87097 17.0323 3.69766 17.0323 3.48387ZM18.9677 3.09677C18.754 3.09677 18.5806 3.27008 18.5806 3.48387C18.5806 3.69766 18.754 3.87097 18.9677 3.87097C19.1815 3.87097 19.3548 3.69766 19.3548 3.48387C19.3548 3.27008 19.1815 3.09677 18.9677 3.09677ZM20.129 3.48387C20.129 3.27008 20.3023 3.09677 20.5161 3.09677C20.7299 3.09677 20.9032 3.27008 20.9032 3.48387C20.9032 3.69766 20.7299 3.87097 20.5161 3.87097C20.3023 3.87097 20.129 3.69766 20.129 3.48387ZM15.0968 4.25806C14.883 4.25806 14.7097 4.43137 14.7097 4.64516C14.7097 4.85895 14.883 5.03226 15.0968 5.03226C15.3106 5.03226 15.4839 4.85895 15.4839 4.64516C15.4839 4.43137 15.3106 4.25806 15.0968 4.25806ZM16.2581 4.64516C16.2581 4.43137 16.4314 4.25806 16.6452 4.25806C16.8589 4.25806 17.0323 4.43137 17.0323 4.64516C17.0323 4.85895 16.8589 5.03226 16.6452 5.03226C16.4314 5.03226 16.2581 4.85895 16.2581 4.64516ZM18.1935 4.25806C17.9798 4.25806 17.8065 4.43137 17.8065 4.64516C17.8065 4.85895 17.9798 5.03226 18.1935 5.03226C18.4073 5.03226 18.5806 4.85895 18.5806 4.64516C18.5806 4.43137 18.4073 4.25806 18.1935 4.25806ZM19.3548 4.64516C19.3548 4.43137 19.5281 4.25806 19.7419 4.25806C19.9557 4.25806 20.129 4.43137 20.129 4.64516C20.129 4.85895 19.9557 5.03226 19.7419 5.03226C19.5281 5.03226 19.3548 4.85895 19.3548 4.64516ZM11.2258 5.12298C11.5765 5.46744 12.0229 5.77092 12.5406 6.02193C13.766 6.61605 15.4113 6.96774 17.2258 6.96774C19.0403 6.96774 20.6856 6.61605 21.911 6.02193C22.4287 5.77092 22.8751 5.46744 23.2258 5.12298V6.19355C23.2258 6.8329 22.6594 7.50859 21.5731 8.03528C20.4868 8.56198 18.9389 8.90323 17.2258 8.90323C15.5127 8.90323 13.9648 8.56198 12.8785 8.03528C11.7923 7.50859 11.2258 6.8329 11.2258 6.19355V5.12298ZM17.8065 7.74194C17.8065 7.52815 17.9798 7.35484 18.1935 7.35484C18.4073 7.35484 18.5806 7.52815 18.5806 7.74194C18.5806 7.95572 18.4073 8.12903 18.1935 8.12903C17.9798 8.12903 17.8065 7.95572 17.8065 7.74194ZM19.7419 7.35484C19.5281 7.35484 19.3548 7.52815 19.3548 7.74194C19.3548 7.95572 19.5281 8.12903 19.7419 8.12903C19.9557 8.12903 20.129 7.95572 20.129 7.74194C20.129 7.52815 19.9557 7.35484 19.7419 7.35484ZM12.5406 8.7316C12.0229 8.48059 11.5765 8.17712 11.2258 7.83266V8.90323C11.2258 8.91741 11.2274 8.93146 11.2291 8.94551V8.94552V8.94553C11.2302 8.95511 11.2313 8.96468 11.2319 8.97429C11.2579 8.98584 11.2843 8.99715 11.3107 9.00847L11.3108 9.00849L11.3108 9.00851C11.3612 9.0301 11.4116 9.05168 11.4594 9.07485C12.4328 9.54681 13.1697 10.1968 13.435 10.9801C14.4659 11.3707 15.786 11.6129 17.2258 11.6129C18.9389 11.6129 20.4868 11.2717 21.5731 10.745C22.6594 10.2183 23.2258 9.54258 23.2258 8.90323V7.83266C22.8751 8.17712 22.4287 8.48059 21.911 8.7316C20.6857 9.32574 19.0403 9.67742 17.2258 9.67742C15.4113 9.67742 13.7659 9.32574 12.5406 8.7316ZM6.77419 8.90323C8.48723 8.90323 10.0352 9.24448 11.1215 9.77117C12.2078 10.2979 12.7742 10.9735 12.7742 11.6129C12.7742 12.2523 12.2078 12.928 11.1215 13.4546C10.0352 13.9813 8.48723 14.3226 6.77419 14.3226C5.06116 14.3226 3.5132 13.9813 2.42692 13.4546C1.34063 12.928 0.774194 12.2523 0.774194 11.6129C0.774194 10.9735 1.34063 10.2979 2.42692 9.77117C3.5132 9.24448 5.06116 8.90323 6.77419 8.90323ZM4.25806 10.4516C4.25806 10.2378 4.43137 10.0645 4.64516 10.0645C4.85895 10.0645 5.03226 10.2378 5.03226 10.4516C5.03226 10.6654 4.85895 10.8387 4.64516 10.8387C4.43137 10.8387 4.25806 10.6654 4.25806 10.4516ZM6.19355 10.0645C5.97976 10.0645 5.80645 10.2378 5.80645 10.4516C5.80645 10.6654 5.97976 10.8387 6.19355 10.8387C6.40734 10.8387 6.58065 10.6654 6.58065 10.4516C6.58065 10.2378 6.40734 10.0645 6.19355 10.0645ZM7.35484 10.4516C7.35484 10.2378 7.52815 10.0645 7.74194 10.0645C7.95572 10.0645 8.12903 10.2378 8.12903 10.4516C8.12903 10.6654 7.95572 10.8387 7.74194 10.8387C7.52815 10.8387 7.35484 10.6654 7.35484 10.4516ZM9.29032 10.0645C9.07654 10.0645 8.90323 10.2378 8.90323 10.4516C8.90323 10.6654 9.07654 10.8387 9.29032 10.8387C9.50411 10.8387 9.67742 10.6654 9.67742 10.4516C9.67742 10.2378 9.50411 10.0645 9.29032 10.0645ZM17.8065 10.4516C17.8065 10.2378 17.9798 10.0645 18.1935 10.0645C18.4073 10.0645 18.5806 10.2378 18.5806 10.4516C18.5806 10.6654 18.4073 10.8387 18.1935 10.8387C17.9798 10.8387 17.8065 10.6654 17.8065 10.4516ZM19.7419 10.0645C19.5281 10.0645 19.3548 10.2378 19.3548 10.4516C19.3548 10.6654 19.5281 10.8387 19.7419 10.8387C19.9557 10.8387 20.129 10.6654 20.129 10.4516C20.129 10.2378 19.9557 10.0645 19.7419 10.0645ZM23.2258 11.6129V10.5423C22.8751 10.8868 22.4287 11.1903 21.911 11.4413C20.6857 12.0354 19.0403 12.3871 17.2258 12.3871C15.8705 12.3871 14.6105 12.1886 13.5484 11.842V13.7313C14.5623 14.0972 15.8378 14.3226 17.2258 14.3226C18.9389 14.3226 20.4868 13.9813 21.5731 13.4546C22.6594 12.9279 23.2258 12.2523 23.2258 11.6129ZM3.87097 11.2258C3.65718 11.2258 3.48387 11.3991 3.48387 11.6129C3.48387 11.8267 3.65718 12 3.87097 12C4.08476 12 4.25806 11.8267 4.25806 11.6129C4.25806 11.3991 4.08476 11.2258 3.87097 11.2258ZM5.03226 11.6129C5.03226 11.3991 5.20557 11.2258 5.41935 11.2258C5.63314 11.2258 5.80645 11.3991 5.80645 11.6129C5.80645 11.8267 5.63314 12 5.41935 12C5.20557 12 5.03226 11.8267 5.03226 11.6129ZM6.96774 11.2258C6.75395 11.2258 6.58065 11.3991 6.58065 11.6129C6.58065 11.8267 6.75395 12 6.96774 12C7.18153 12 7.35484 11.8267 7.35484 11.6129C7.35484 11.3991 7.18153 11.2258 6.96774 11.2258ZM8.12903 11.6129C8.12903 11.3991 8.30234 11.2258 8.51613 11.2258C8.72992 11.2258 8.90323 11.3991 8.90323 11.6129C8.90323 11.8267 8.72992 12 8.51613 12C8.30234 12 8.12903 11.8267 8.12903 11.6129ZM10.0645 11.2258C9.85073 11.2258 9.67742 11.3991 9.67742 11.6129C9.67742 11.8267 9.85073 12 10.0645 12C10.2783 12 10.4516 11.8267 10.4516 11.6129C10.4516 11.3991 10.2783 11.2258 10.0645 11.2258ZM4.25806 12.7742C4.25806 12.5604 4.43137 12.3871 4.64516 12.3871C4.85895 12.3871 5.03226 12.5604 5.03226 12.7742C5.03226 12.988 4.85895 13.1613 4.64516 13.1613C4.43137 13.1613 4.25806 12.988 4.25806 12.7742ZM6.19355 12.3871C5.97976 12.3871 5.80645 12.5604 5.80645 12.7742C5.80645 12.988 5.97976 13.1613 6.19355 13.1613C6.40734 13.1613 6.58065 12.988 6.58065 12.7742C6.58065 12.5604 6.40734 12.3871 6.19355 12.3871ZM7.35484 12.7742C7.35484 12.5604 7.52815 12.3871 7.74194 12.3871C7.95572 12.3871 8.12903 12.5604 8.12903 12.7742C8.12903 12.988 7.95572 13.1613 7.74194 13.1613C7.52815 13.1613 7.35484 12.988 7.35484 12.7742ZM9.29032 12.3871C9.07654 12.3871 8.90323 12.5604 8.90323 12.7742C8.90323 12.988 9.07654 13.1613 9.29032 13.1613C9.50411 13.1613 9.67742 12.988 9.67742 12.7742C9.67742 12.5604 9.50411 12.3871 9.29032 12.3871ZM17.8065 13.1613C17.8065 12.9475 17.9798 12.7742 18.1935 12.7742C18.4073 12.7742 18.5806 12.9475 18.5806 13.1613C18.5806 13.3751 18.4073 13.5484 18.1935 13.5484C17.9798 13.5484 17.8065 13.3751 17.8065 13.1613ZM19.7419 12.7742C19.5281 12.7742 19.3548 12.9475 19.3548 13.1613C19.3548 13.3751 19.5281 13.5484 19.7419 13.5484C19.9557 13.5484 20.129 13.3751 20.129 13.1613C20.129 12.9475 19.9557 12.7742 19.7419 12.7742ZM2.08896 14.151C1.57127 13.9 1.1249 13.5965 0.774194 13.252V14.3226C0.774194 14.9619 1.34064 15.6376 2.42692 16.1643C3.51319 16.691 5.06111 17.0323 6.77419 17.0323C8.48728 17.0323 10.0352 16.691 11.1215 16.1643C12.2077 15.6376 12.7742 14.9619 12.7742 14.3226V13.252C12.4235 13.5965 11.9771 13.9 11.4594 14.151C10.234 14.7451 8.58866 15.0968 6.77419 15.0968C4.95973 15.0968 3.31435 14.7451 2.08896 14.151ZM23.2258 13.252V14.3226C23.2258 14.9619 22.6594 15.6376 21.5731 16.1643C20.4868 16.691 18.9389 17.0323 17.2258 17.0323C15.8378 17.0323 14.5619 16.8077 13.5484 16.4418V14.5517C14.6104 14.8982 15.8703 15.0968 17.2258 15.0968C19.0403 15.0968 20.6857 14.7451 21.911 14.151C22.4287 13.8999 22.8751 13.5965 23.2258 13.252ZM7.35484 15.871C7.35484 15.6572 7.52815 15.4839 7.74194 15.4839C7.95572 15.4839 8.12903 15.6572 8.12903 15.871C8.12903 16.0848 7.95572 16.2581 7.74194 16.2581C7.52815 16.2581 7.35484 16.0848 7.35484 15.871ZM9.29032 15.4839C9.07654 15.4839 8.90323 15.6572 8.90323 15.871C8.90323 16.0848 9.07654 16.2581 9.29032 16.2581C9.50411 16.2581 9.67742 16.0848 9.67742 15.871C9.67742 15.6572 9.50411 15.4839 9.29032 15.4839ZM17.8065 15.871C17.8065 15.6572 17.9798 15.4839 18.1935 15.4839C18.4073 15.4839 18.5806 15.6572 18.5806 15.871C18.5806 16.0848 18.4073 16.2581 18.1935 16.2581C17.9798 16.2581 17.8065 16.0848 17.8065 15.871ZM19.7419 15.4839C19.5281 15.4839 19.3548 15.6572 19.3548 15.871C19.3548 16.0848 19.5281 16.2581 19.7419 16.2581C19.9557 16.2581 20.129 16.0848 20.129 15.871C20.129 15.6572 19.9557 15.4839 19.7419 15.4839ZM2.08896 16.8606C1.57128 16.6096 1.1249 16.3062 0.774194 15.9617V17.0323C0.774194 17.6716 1.34064 18.3473 2.42692 18.874C3.51319 19.4007 5.06111 19.7419 6.77419 19.7419C8.48728 19.7419 10.0352 19.4007 11.1215 18.874C12.2077 18.3473 12.7742 17.6716 12.7742 17.0323V15.9617C12.4235 16.3062 11.9771 16.6096 11.4594 16.8606C10.2341 17.4548 8.58872 17.8065 6.77419 17.8065C4.95967 17.8065 3.31433 17.4548 2.08896 16.8606ZM23.2258 15.9617V17.0323C23.2258 17.6716 22.6594 18.3473 21.5731 18.874C20.4868 19.4007 18.9389 19.7419 17.2258 19.7419C15.8381 19.7419 14.5619 19.5175 13.5484 19.1515V17.2621C14.6101 17.6084 15.8706 17.8065 17.2258 17.8065C19.0403 17.8065 20.6857 17.4548 21.911 16.8606C22.4287 16.6096 22.8751 16.3062 23.2258 15.9617ZM7.35484 18.5806C7.35484 18.3669 7.52815 18.1935 7.74194 18.1935C7.95572 18.1935 8.12903 18.3669 8.12903 18.5806C8.12903 18.7944 7.95572 18.9677 7.74194 18.9677C7.52815 18.9677 7.35484 18.7944 7.35484 18.5806ZM9.29032 18.1935C9.07654 18.1935 8.90323 18.3669 8.90323 18.5806C8.90323 18.7944 9.07654 18.9677 9.29032 18.9677C9.50411 18.9677 9.67742 18.7944 9.67742 18.5806C9.67742 18.3669 9.50411 18.1935 9.29032 18.1935ZM17.8065 18.5806C17.8065 18.3669 17.9798 18.1935 18.1935 18.1935C18.4073 18.1935 18.5806 18.3669 18.5806 18.5806C18.5806 18.7944 18.4073 18.9677 18.1935 18.9677C17.9798 18.9677 17.8065 18.7944 17.8065 18.5806ZM19.7419 18.1935C19.5281 18.1935 19.3548 18.3669 19.3548 18.5806C19.3548 18.7944 19.5281 18.9677 19.7419 18.9677C19.9557 18.9677 20.129 18.7944 20.129 18.5806C20.129 18.3669 19.9557 18.1935 19.7419 18.1935ZM2.08896 19.5703C1.57128 19.3193 1.1249 19.0158 0.774194 18.6714V19.7419C0.774194 20.3813 1.34064 21.057 2.42692 21.5837C3.51319 22.1104 5.06111 22.4516 6.77419 22.4516C8.48728 22.4516 10.0352 22.1104 11.1215 21.5837C12.2077 21.057 12.7742 20.3813 12.7742 19.7419V18.6714C12.4235 19.0158 11.9771 19.3193 11.4594 19.5703C10.2341 20.1645 8.58872 20.5161 6.77419 20.5161C4.95967 20.5161 3.31433 20.1645 2.08896 19.5703ZM7.74194 20.9032C7.52815 20.9032 7.35484 21.0765 7.35484 21.2903C7.35484 21.5041 7.52815 21.6774 7.74194 21.6774C7.95572 21.6774 8.12903 21.5041 8.12903 21.2903C8.12903 21.0765 7.95572 20.9032 7.74194 20.9032ZM8.90323 21.2903C8.90323 21.0765 9.07654 20.9032 9.29032 20.9032C9.50411 20.9032 9.67742 21.0765 9.67742 21.2903C9.67742 21.5041 9.50411 21.6774 9.29032 21.6774C9.07654 21.6774 8.90323 21.5041 8.90323 21.2903Z" fill="#2DA1F8"/>
</svg>
