<svg width="41" height="60" viewBox="0 0 41 60" fill="none" xmlns="http://www.w3.org/2000/svg">
<path fill-rule="evenodd" clip-rule="evenodd" d="M16.4 0C15.2725 0 14.35 0.931034 14.35 2.06897V4.13793H3.075C1.38375 4.13793 0 5.53448 0 7.24138V56.8966C0 58.6035 1.38375 60 3.075 60H37.925C39.6162 60 41 58.6035 41 56.8966V7.24138C41 5.53448 39.6162 4.13793 37.925 4.13793H26.65V2.06897C26.65 0.931034 25.7275 0 24.6 0H16.4ZM16.4 2.06897H24.6V4.13793V6.2069V7.68588L20.5 10.169L16.4 7.68588V6.2069V4.13793V2.06897ZM14.35 6.2069H3.075C2.51125 6.2069 2.05 6.67241 2.05 7.24138V56.8966C2.05 57.4655 2.51125 57.931 3.075 57.931H37.925C38.4888 57.931 38.95 57.4655 38.95 56.8966V7.24138C38.95 6.67241 38.4888 6.2069 37.925 6.2069H26.65V7.68588C26.65 8.41002 26.27 9.09351 25.655 9.46592L21.555 11.9491C21.227 12.1456 20.869 12.238 20.5 12.238C20.131 12.238 19.773 12.1456 19.445 11.9491L15.345 9.46592C14.73 9.09351 14.35 8.41002 14.35 7.68588V6.2069ZM20.5 14.4828C16.5435 14.4828 13.325 17.731 13.325 21.7241V23.7931C13.325 25.4586 13.879 27.2079 14.8425 28.6665C11.6342 29.8355 8.8966 32.3383 7.2771 35.7624C7.0311 36.2796 7.24707 36.8901 7.75957 37.1383C8.26182 37.3866 8.8769 37.1686 9.1229 36.6514C10.6399 33.4548 13.2637 31.1994 16.3079 30.3718C17.4662 31.4062 18.9112 32.069 20.5 32.069C22.0888 32.069 23.5338 31.4062 24.6921 30.3718C27.7363 31.1994 30.3601 33.4548 31.8771 36.6514C32.0513 37.0238 32.4207 37.2414 32.8 37.2414C32.9538 37.2414 33.0969 37.2108 33.2404 37.1383C33.7529 36.8901 33.9689 36.2796 33.7229 35.7624C32.1034 32.3383 29.3658 29.8355 26.1575 28.6665C27.121 27.2079 27.675 25.4586 27.675 23.7931V21.7241C27.675 17.731 24.4565 14.4828 20.5 14.4828ZM25.625 21.7241C25.625 18.869 23.329 16.5517 20.5 16.5517C17.671 16.5517 15.375 18.869 15.375 21.7241V23.7931C15.375 25.2621 15.9901 26.8864 16.9946 28.0967C17.9068 29.2243 19.147 30 20.5 30C21.853 30 23.0932 29.2243 24.0054 28.0967C25.0099 26.8864 25.625 25.2621 25.625 23.7931V21.7241ZM11.275 41.3793C10.7082 41.3793 10.25 41.8417 10.25 42.4138C10.25 42.9859 10.7082 43.4483 11.275 43.4483H29.725C30.2918 43.4483 30.75 42.9859 30.75 42.4138C30.75 41.8417 30.2918 41.3793 29.725 41.3793H11.275ZM14.35 46.5517C14.35 45.9797 14.8082 45.5172 15.375 45.5172H19.475C20.0418 45.5172 20.5 45.9797 20.5 46.5517C20.5 47.1238 20.0418 47.5862 19.475 47.5862H15.375C14.8082 47.5862 14.35 47.1238 14.35 46.5517ZM23.575 45.5172C23.0082 45.5172 22.55 45.9797 22.55 46.5517C22.55 47.1238 23.0082 47.5862 23.575 47.5862H25.625C26.1918 47.5862 26.65 47.1238 26.65 46.5517C26.65 45.9797 26.1918 45.5172 25.625 45.5172H23.575ZM4.1 52.7586C4.1 52.1866 4.51 51.7241 5.125 51.7241C5.74 51.7241 6.15 52.1876 6.15 52.7586V54.8276C6.15 55.3997 5.74 55.8621 5.125 55.8621C4.51 55.8621 4.1 55.3997 4.1 54.8276V52.7586ZM10.25 51.7241C9.635 51.7241 9.225 52.1866 9.225 52.7586V54.8276C9.225 55.3997 9.635 55.8621 10.25 55.8621C10.865 55.8621 11.275 55.3997 11.275 54.8276V52.7586C11.275 52.1876 10.865 51.7241 10.25 51.7241ZM14.35 52.7586C14.35 52.1866 14.76 51.7241 15.375 51.7241C15.99 51.7241 16.4 52.1876 16.4 52.7586V54.8276C16.4 55.3997 15.99 55.8621 15.375 55.8621C14.76 55.8621 14.35 55.3997 14.35 54.8276V52.7586ZM20.5 51.7241C19.885 51.7241 19.475 52.1866 19.475 52.7586V54.8276C19.475 55.3997 19.885 55.8621 20.5 55.8621C21.115 55.8621 21.525 55.3997 21.525 54.8276V52.7586C21.525 52.1876 21.115 51.7241 20.5 51.7241ZM24.6 52.7586C24.6 52.1866 25.01 51.7241 25.625 51.7241C26.24 51.7241 26.65 52.1876 26.65 52.7586V54.8276C26.65 55.3997 26.24 55.8621 25.625 55.8621C25.01 55.8621 24.6 55.3997 24.6 54.8276V52.7586ZM30.75 51.7241C30.135 51.7241 29.725 52.1866 29.725 52.7586V54.8276C29.725 55.3997 30.135 55.8621 30.75 55.8621C31.365 55.8621 31.775 55.3997 31.775 54.8276V52.7586C31.775 52.1876 31.365 51.7241 30.75 51.7241ZM34.85 52.7586C34.85 52.1866 35.26 51.7241 35.875 51.7241C36.49 51.7241 36.9 52.1876 36.9 52.7586V54.8276C36.9 55.3997 36.49 55.8621 35.875 55.8621C35.26 55.8621 34.85 55.3997 34.85 54.8276V52.7586Z" fill="url(#paint0_linear_0_12721)"/>
<defs>
<linearGradient id="paint0_linear_0_12721" x1="0" y1="0" x2="51.4756" y2="11.0063" gradientUnits="userSpaceOnUse">
<stop stop-color="#00E0FF"/>
<stop offset="1" stop-color="#2DA1F8"/>
</linearGradient>
</defs>
</svg>
