<svg width="68" height="55" viewBox="0 0 68 55" fill="none" xmlns="http://www.w3.org/2000/svg">
<path opacity="0.8" fill-rule="evenodd" clip-rule="evenodd" d="M24.9971 1.41301C25.5867 0.529838 26.5803 0 27.6439 0H40.219C41.2826 0 42.2762 0.529838 42.8658 1.41301L46.1628 6.34615H64.6818C66.4388 6.34615 67.8629 7.76663 67.8629 9.51923V19.8875C67.8629 21.6031 67.0422 23.1308 65.7422 24.1017V50.7692C65.7422 53.1057 63.8431 55 61.5008 55H6.36215C4.01982 55 2.12072 53.1057 2.12072 50.7692V24.1017C0.820717 23.1308 0 21.6031 0 19.8875V9.51923C0 7.76663 1.42406 6.34615 3.18107 6.34615H21.7001L24.9971 1.41301ZM40.568 1.77419H28.182C27.8321 1.77419 27.5073 1.95861 27.313 2.26799L24.8387 6.20968H43.9113L41.437 2.26799C41.2427 1.95861 40.9179 1.77419 40.568 1.77419ZM3.71841 8.42742H20.7707H47.9772H65.0316C65.6141 8.42742 66.0887 8.89631 66.0887 9.47406V10.5207C65.5052 10.5207 65.0316 10.9885 65.0316 11.5673V13.6606C65.0316 14.2394 65.5052 14.7072 66.0887 14.7072V19.734C66.0887 21.2108 65.0709 22.4696 63.6152 22.7962L38.6035 28.3871V28.3135C38.6035 27.1591 37.6553 26.2202 36.4892 26.2202H32.2608C31.0947 26.2202 30.1465 27.1591 30.1465 28.3135V28.3871L5.13479 22.7962C3.67914 22.4696 2.66129 21.2108 2.66129 19.734V14.7072C3.24482 14.7072 3.71841 14.2394 3.71841 13.6606V11.5673C3.71841 10.9885 3.24482 10.5207 2.66129 10.5207V9.47406C2.66129 8.89631 3.13594 8.42742 3.71841 8.42742ZM6.65323 11.3105C6.65323 10.6973 7.05065 10.2016 7.54032 10.2016C8.03 10.2016 8.42742 10.6973 8.42742 11.3105V13.5282C8.42742 14.1414 8.03 14.6371 7.54032 14.6371C7.05065 14.6371 6.65323 14.1414 6.65323 13.5282V11.3105ZM12.8629 10.2016C12.3732 10.2016 11.9758 10.6973 11.9758 11.3105V13.5282C11.9758 14.1414 12.3732 14.6371 12.8629 14.6371C13.3526 14.6371 13.75 14.1414 13.75 13.5282V11.3105C13.75 10.6973 13.3526 10.2016 12.8629 10.2016ZM17.2984 11.3105C17.2984 10.6973 17.6958 10.2016 18.1855 10.2016C18.6752 10.2016 19.0726 10.6973 19.0726 11.3105V13.5282C19.0726 14.1414 18.6752 14.6371 18.1855 14.6371C17.6958 14.6371 17.2984 14.1414 17.2984 13.5282V11.3105ZM23.0645 10.2016C22.5748 10.2016 22.1774 10.6973 22.1774 11.3105V13.5282C22.1774 14.1414 22.5748 14.6371 23.0645 14.6371C23.5542 14.6371 23.9516 14.1414 23.9516 13.5282V11.3105C23.9516 10.6973 23.5542 10.2016 23.0645 10.2016ZM27.5 11.3105C27.5 10.6973 27.8974 10.2016 28.3871 10.2016C28.8768 10.2016 29.2742 10.6973 29.2742 11.3105V13.5282C29.2742 14.1414 28.8768 14.6371 28.3871 14.6371C27.8974 14.6371 27.5 14.1414 27.5 13.5282V11.3105ZM34.1532 10.2016C33.6635 10.2016 33.2661 10.6973 33.2661 11.3105V13.5282C33.2661 14.1414 33.6635 14.6371 34.1532 14.6371C34.6429 14.6371 35.0403 14.1414 35.0403 13.5282V11.3105C35.0403 10.6973 34.6429 10.2016 34.1532 10.2016ZM38.5887 11.3105C38.5887 10.6973 38.9861 10.2016 39.4758 10.2016C39.9655 10.2016 40.3629 10.6973 40.3629 11.3105V13.5282C40.3629 14.1414 39.9655 14.6371 39.4758 14.6371C38.9861 14.6371 38.5887 14.1414 38.5887 13.5282V11.3105ZM44.7984 10.2016C44.3087 10.2016 43.9113 10.6973 43.9113 11.3105V13.5282C43.9113 14.1414 44.3087 14.6371 44.7984 14.6371C45.2881 14.6371 45.6855 14.1414 45.6855 13.5282V11.3105C45.6855 10.6973 45.2881 10.2016 44.7984 10.2016ZM48.7903 11.3105C48.7903 10.6973 49.1877 10.2016 49.6774 10.2016C50.1671 10.2016 50.5645 10.6973 50.5645 11.3105V13.5282C50.5645 14.1414 50.1671 14.6371 49.6774 14.6371C49.1877 14.6371 48.7903 14.1414 48.7903 13.5282V11.3105ZM55 10.2016C54.5103 10.2016 54.1129 10.6973 54.1129 11.3105V13.5282C54.1129 14.1414 54.5103 14.6371 55 14.6371C55.4897 14.6371 55.8871 14.1414 55.8871 13.5282V11.3105C55.8871 10.6973 55.4897 10.2016 55 10.2016ZM59.4355 11.3105C59.4355 10.6973 59.8329 10.2016 60.3226 10.2016C60.8123 10.2016 61.2097 10.6973 61.2097 11.3105V13.5282C61.2097 14.1414 60.8123 14.6371 60.3226 14.6371C59.8329 14.6371 59.4355 14.1414 59.4355 13.5282V11.3105ZM63.871 25.2823V51.1007C63.871 52.2738 62.9211 53.2258 61.7483 53.2258H6.55818C5.38539 53.2258 4.43548 52.2738 4.43548 51.1007V25.2843L29.9078 31.0432V35.1626C29.9078 36.3357 30.8577 37.2877 32.0305 37.2877H36.2759C37.4487 37.2877 38.3986 36.3357 38.3986 35.1626V31.0411L63.871 25.2823ZM36.3688 28.3871H31.9355V34.5968H36.371L36.3688 28.3871ZM7.71169 46.5726C7.12742 46.5726 6.65323 46.9691 6.65323 47.4597C6.65323 47.9502 7.12742 48.3468 7.71169 48.3468H52.1673C52.7516 48.3468 53.2258 47.9502 53.2258 47.4597C53.2258 46.9691 52.7516 46.5726 52.1673 46.5726H7.71169ZM55 47.4597C55 46.9691 55.4637 46.5726 56.0349 46.5726H60.1747C60.746 46.5726 61.2097 46.9691 61.2097 47.4597C61.2097 47.9502 60.746 48.3468 60.1747 48.3468H56.0349C55.4637 48.3468 55 47.9502 55 47.4597Z" fill="url(#paint0_linear_0_10579)"/>
<defs>
<linearGradient id="paint0_linear_0_10579" x1="0" y1="0" x2="77.5394" y2="29.9363" gradientUnits="userSpaceOnUse">
<stop stop-color="#00E0FF"/>
<stop offset="1" stop-color="#2DA1F8"/>
</linearGradient>
</defs>
</svg>
