<svg xmlns="http://www.w3.org/2000/svg" width="100" height="102" viewBox="0 0 100 102">
    <g fill="none" fill-rule="evenodd">
        <g fill="#515860">
            <path d="M50 43.676a6.667 6.667 0 0 0-6.668 6.668A6.667 6.667 0 0 0 50 57.012a6.667 6.667 0 0 0 6.668-6.668A6.667 6.667 0 0 0 50 43.676zm0 10a3.343 3.343 0 0 1-3.332-3.332c0-1.832 1.5-3.332 3.332-3.332 1.832 0 3.332 1.5 3.332 3.332 0 1.832-1.5 3.332-3.332 3.332z"/>
            <path d="M50 35.34c-8.266 0-15 6.734-15 15 0 5.266 2.832 10.215 7.398 12.918.801.465 1.817.2 2.286-.582.464-.785.199-1.816-.582-2.285-3.567-2.117-5.77-5.95-5.77-10.051 0-6.434 5.234-11.668 11.668-11.668 6.434 0 11.668 5.234 11.668 11.668 0 4.101-2.2 7.933-5.75 10.035-.8.465-1.05 1.484-.582 2.285a1.65 1.65 0 0 0 1.434.816c.285 0 .582-.066.851-.234 4.547-2.684 7.38-7.633 7.38-12.902 0-8.266-6.735-15-15-15H50z"/>
            <path d="M50 .34c-27.566 0-50 22.434-50 50 0 17.602 9.434 34.117 24.617 43.082.266.148.55.234.852.234.566 0 1.132-.3 1.433-.816.465-.801.2-1.817-.582-2.285C12.132 82.175 3.332 66.774 3.332 50.34 3.332 24.61 24.266 3.676 50 3.676c25.734 0 46.668 20.934 46.668 46.668 0 16.434-8.8 31.832-22.984 40.199-.8.464-1.05 1.484-.582 2.285a1.671 1.671 0 0 0 2.285.582C90.567 84.457 100 67.94 100 50.34c0-27.566-22.434-50-50-50z"/>
            <path d="M88.332 50.34c0-21.133-17.199-38.332-38.332-38.332S11.668 29.207 11.668 50.34c0 13.484 7.234 26.133 18.883 33.016.266.148.55.234.852.234.566 0 1.132-.3 1.433-.816.465-.8.2-1.816-.582-2.285C21.617 74.192 15 62.64 15 50.34c0-19.297 15.7-35 35-35 19.301 0 35 15.699 35 35 0 12.3-6.617 23.852-17.25 30.148-.8.465-1.05 1.484-.582 2.285.465.8 1.484 1.05 2.285.582 11.648-6.879 18.88-19.531 18.88-33.016h-.001z"/>
            <path d="M76.668 50.34c0-14.699-11.965-26.668-26.668-26.668-14.699 0-26.668 11.965-26.668 26.668 0 9.367 5.035 18.148 13.148 22.949.8.465 1.816.2 2.285-.582.465-.785.2-1.816-.582-2.285-7.101-4.196-11.516-11.898-11.516-20.082 0-12.867 10.465-23.332 23.332-23.332S73.331 37.473 73.331 50.34c0 8.183-4.418 15.883-11.516 20.082-.8.465-1.05 1.484-.582 2.285a1.65 1.65 0 0 0 1.434.816c.285 0 .582-.066.851-.234 8.114-4.797 13.148-13.582 13.148-22.949h.002z"/>
        </g>
        <path fill="#1CADE4" d="M34.687 87.475c-.022-6.656 4.653-12.245 10.888-13.654l-.13-39.408a3.098 3.098 0 0 1 3.112-3.113l14.058.046a3.147 3.147 0 0 1 3.133 3.133 3.098 3.098 0 0 1-3.113 3.113l-10.93-.036.025 7.808 10.93.036a3.147 3.147 0 0 1 3.134 3.133 3.098 3.098 0 0 1-3.113 3.113l-10.93-.036.072 22.229c6.244 1.45 10.954 7.071 10.978 13.725.025 7.726-6.285 14.035-14.01 14.01-7.726-.025-14.077-6.376-14.102-14.102l-.002.003zm6.246.02a7.824 7.824 0 0 0 7.833 7.833c4.349.015 7.797-3.434 7.783-7.782a7.823 7.823 0 0 0-7.834-7.833c-4.348-.015-7.796 3.434-7.782 7.782z"/>
    </g>
</svg>
