<svg xmlns="http://www.w3.org/2000/svg" width="64" height="63" viewBox="0 0 64 63">
    <defs>
        <linearGradient id="a" x1="50%" x2="41.849%" y1="97.784%" y2="-16.397%">
            <stop offset="0%" stop-color="#08BCCD"/>
            <stop offset="100%" stop-color="#2DA1F8"/>
        </linearGradient>
    </defs>
    <path fill="url(#a)" fill-rule="nonzero" d="M2.707.293L1.293 1.707l9.516 9.516C5.969 16.406 3 23.355 3 31c0 7.645 2.969 14.594 7.809 19.777l-9.516 9.516 1.414 1.414 9.516-9.516C17.406 57.031 24.355 60 32 60c7.645 0 14.594-2.969 19.777-7.809l9.516 9.516 1.414-1.414-9.516-9.516C58.031 45.594 61 38.645 61 31c0-7.645-2.969-14.594-7.809-19.777l9.516-9.516L61.293.293l-9.516 9.516C46.594 4.969 39.645 2 32 2c-7.645 0-14.594 2.969-19.777 7.809L2.707.293zM1 4c-.55 0-1 .45-1 1s.45 1 1 1 1-.45 1-1-.45-1-1-1zm31 0c14.922 0 27 12.078 27 27S46.922 58 32 58 5 45.922 5 31 17.078 4 32 4zm31 0c-.55 0-1 .45-1 1s.45 1 1 1 1-.45 1-1-.45-1-1-1zM4 7c-.55 0-1 .45-1 1s.45 1 1 1 1-.45 1-1-.45-1-1-1zm28 0c-.55 0-1 .45-1 1s.45 1 1 1 1-.45 1-1-.45-1-1-1zm28 0c-.55 0-1 .45-1 1s.45 1 1 1 1-.45 1-1-.45-1-1-1zm-32.484.441a1.003 1.003 0 0 0-.984 1.195 1 1 0 0 0 1.175.786c.543-.11.895-.633.79-1.176a1.007 1.007 0 0 0-.981-.805zm8.996 0a1.004 1.004 0 0 0-1.008.805 1.003 1.003 0 0 0 1.539 1.027 1.003 1.003 0 0 0 .277-1.386.998.998 0 0 0-.808-.446zM23.203 8.75a.951.951 0 0 0-.387.078.992.992 0 0 0-.539 1.305c.211.508.793.75 1.301.539a.98.98 0 0 0 .543-.54c.102-.245.102-.519.004-.765a1.011 1.011 0 0 0-.922-.617zm17.621 0a.997.997 0 0 0-.406 1.922.992.992 0 0 0 1.305-.54.992.992 0 0 0-.54-1.304.959.959 0 0 0-.359-.078zM7 10c-.55 0-1 .45-1 1s.45 1 1 1 1-.45 1-1-.45-1-1-1zm50 0c-.55 0-1 .45-1 1s.45 1 1 1 1-.45 1-1-.45-1-1-1zm-37.766.875a.966.966 0 0 0-.566.168 1 1 0 1 0 .566-.168zm25.563 0a.999.999 0 0 0-.578 1.828c.222.149.492.203.754.152a1 1 0 0 0-.176-1.98zm-29.047 2.86c-.27 0-.531.105-.719.296a.995.995 0 0 0 0 1.41.995.995 0 0 0 1.41 0 .995.995 0 0 0 0-1.41.983.983 0 0 0-.691-.297zm32.527 0c-.27 0-.53.105-.718.296a.995.995 0 0 0 0 1.41.995.995 0 0 0 1.41 0 .995.995 0 0 0 0-1.41.983.983 0 0 0-.692-.297zm2.86 3.484a1.02 1.02 0 0 0-.57.172.999.999 0 1 0 1.386.273.995.995 0 0 0-.816-.445zm-38.242 0a1 1 0 0 0-.848.449.999.999 0 1 0 1.387-.277.99.99 0 0 0-.54-.172zm-2.122 3.98a.992.992 0 0 0-.945.613c-.21.512.031 1.098.543 1.31a1 1 0 1 0 .766-1.848.974.974 0 0 0-.364-.075zm42.485 0a.994.994 0 0 0-.93 1.379.997.997 0 1 0 1.844-.765.992.992 0 0 0-.914-.614zm-43.79 4.317a.994.994 0 0 0-1.007.8c-.11.543.242 1.07.785 1.18a1.003 1.003 0 0 0 1.027-1.539 1.003 1.003 0 0 0-.636-.426.815.815 0 0 0-.168-.015zm45.094 0a.857.857 0 0 0-.199.015.998.998 0 0 0-.36 1.813.996.996 0 0 0 1.388-.274 1.01 1.01 0 0 0 .152-.754 1 1 0 0 0-.98-.8zM9 30c-.55 0-1 .45-1 1s.45 1 1 1 1-.45 1-1-.45-1-1-1zm46 0c-.55 0-1 .45-1 1s.45 1 1 1 1-.45 1-1-.45-1-1-1zm-.418 4.484a1 1 0 0 0-1.004.809 1 1 0 1 0 1.961.39 1.001 1.001 0 0 0-.957-1.199zm-45.133.004c-.07 0-.136.004-.199.016a1.027 1.027 0 0 0-.64.426.998.998 0 1 0 1.664 1.113.999.999 0 0 0-.824-1.555zm1.313 4.313c-.137 0-.27.023-.39.074a1.003 1.003 0 0 0-.544 1.309.997.997 0 0 0 1.309.539.999.999 0 0 0-.375-1.922zm42.508 0a.994.994 0 0 0-.942.617.992.992 0 0 0 .54 1.305 1 1 0 1 0 .402-1.922zm-2.13 3.976a.993.993 0 0 0-.847.442 1.004 1.004 0 0 0 .273 1.39c.223.145.493.2.754.149.262-.055.489-.207.637-.43a1.001 1.001 0 0 0-.277-1.387.973.973 0 0 0-.54-.164zm-38.25 0a.965.965 0 0 0-.566.168 1 1 0 1 0 .566-.168zm2.86 3.489a.988.988 0 0 0-.719.293.995.995 0 0 0 0 1.41.995.995 0 0 0 1.41 0 .995.995 0 0 0 0-1.41.963.963 0 0 0-.691-.293zm32.527 0a.972.972 0 0 0-.722.293 1 1 0 1 0 1.414 0 .98.98 0 0 0-.692-.293zM19.238 49.12a1 1 0 1 0 .816 1.555.977.977 0 0 0 .15-.75.998.998 0 0 0-.423-.637 1.023 1.023 0 0 0-.543-.168zm25.555 0a.99.99 0 0 0-.57.172.995.995 0 0 0-.274 1.383.992.992 0 0 0 1.383.277.996.996 0 0 0 .277-1.387.995.995 0 0 0-.816-.445zM23.219 51.25a.99.99 0 0 0-.942.613.997.997 0 0 0 .54 1.309 1.003 1.003 0 0 0 1.308-.543.999.999 0 0 0-.906-1.379zm17.59 0a1.006 1.006 0 0 0-.934 1.379c.215.512.797.754 1.309.543a.997.997 0 0 0 .539-1.309.992.992 0 0 0-.914-.613zm-13.27 1.309a1 1 0 1 0-.053 2 1 1 0 0 0 .053-2zm8.953 0a.998.998 0 0 0-.984 1.195.998.998 0 0 0 1.176.785.998.998 0 0 0 .785-1.176c-.094-.465-.5-.8-.977-.804zM32 53c-.55 0-1 .45-1 1s.45 1 1 1 1-.45 1-1-.45-1-1-1zm-19 2c-.55 0-1 .45-1 1s.45 1 1 1 1-.45 1-1-.45-1-1-1zm38 0c-.55 0-1 .45-1 1s.45 1 1 1 1-.45 1-1-.45-1-1-1zm-41 3c-.55 0-1 .45-1 1s.45 1 1 1 1-.45 1-1-.45-1-1-1zm44 0c-.55 0-1 .45-1 1s.45 1 1 1 1-.45 1-1-.45-1-1-1zM7 61c-.55 0-1 .45-1 1s.45 1 1 1 1-.45 1-1-.45-1-1-1zm50 0c-.55 0-1 .45-1 1s.45 1 1 1 1-.45 1-1-.45-1-1-1z"/>
</svg>
