<svg xmlns="http://www.w3.org/2000/svg" xmlns:xlink="http://www.w3.org/1999/xlink" width="20" height="18" viewBox="0 0 20 18">
    <defs>
        <linearGradient id="a" x1="50%" x2="50%" y1="0%" y2="100%">
            <stop offset="0%" stop-color="#F34141"/>
            <stop offset="100%" stop-color="#DF0C0C"/>
        </linearGradient>
        <path id="b" d="M17.936 15.008L9.993.123c-.525-.164-1.46-.164-1.986 0L.064 15.008c-.242.174.226.992.993.992h15.886c.767 0 1.235-.818.993-.992zM9 6.077c.54-.021 1.044.37.993.992v3.97c-.486-.161-.716 0-.993 0-.27 0-.51-.161-.993 0v-3.97c-.048-.576.369-.971.993-.992zm0 7.938a.992.992 0 1 1-.001-1.984A.992.992 0 0 1 9 14.015z"/>
    </defs>
    <g fill="none" fill-rule="evenodd">
        <g transform="translate(1 1)">
            <use fill="url(#a)" xlink:href="#b"/>
            <path stroke="#F24846" stroke-width=".8" d="M18.254 14.754c.556.55-.369 1.646-1.311 1.646H1.057c-.942 0-1.867-1.096-1.31-1.646L7.731-.21l.156-.05c.603-.187 1.621-.187 2.224 0l.156.05 7.986 14.964zm-9.847-4.188c.125 0 .252.016.398.044a1.797 1.797 0 0 0 .195.028.51.51 0 0 0 .072-.006c.03-.004.054-.008.125-.022a2.11 2.11 0 0 1 .396-.044l.001-3.53c.028-.336-.229-.573-.579-.56h-.001c-.415.014-.636.231-.607.593v3.497zm.579-4.89h-.001zM9 13.617a.592.592 0 1 0 .001-1.185A.592.592 0 0 0 9 13.615z"/>
        </g>
        <g fill="#FFF">
            <path d="M10 7c.545-.02 1.051.374 1 1v4c-.49-.162-.72 0-1 0-.272 0-.513-.162-1 0V8c-.049-.58.371-.979 1-1zM10 15a1 1 0 1 1 0-2 1 1 0 0 1 0 2z"/>
        </g>
    </g>
</svg>
