<svg xmlns="http://www.w3.org/2000/svg" width="36" height="36" viewBox="0 0 36 36">
    <path fill="#00C0D9" fill-rule="nonzero" d="M18 0C8.065 0 0 8.065 0 18s8.065 18 18 18 18-8.065 18-18S27.935 0 18 0zm0 1.09c9.345 0 16.91 7.565 16.91 16.91 0 9.345-7.565 16.91-16.91 16.91-9.345 0-16.91-7.565-16.91-16.91C1.09 8.655 8.656 1.09 18 1.09zm0 1.637a.547.547 0 0 0 0 1.091.547.547 0 0 0 0-1.09zm2.887.282a.547.547 0 0 0-.12 1.082.548.548 0 0 0 .642-.428.55.55 0 0 0-.428-.644c-.032-.004-.062-.008-.094-.01zm-5.757.002a.546.546 0 1 0 .533.439.547.547 0 0 0-.533-.44zm-2.761.837a.544.544 0 0 0-.507.754c.115.28.432.411.711.296a.547.547 0 0 0-.204-1.05zm11.28 0a.547.547 0 0 0-.222 1.05.544.544 0 0 0 .711-.296.544.544 0 0 0-.49-.754zM9.824 5.208a.545.545 0 1 0 0 0zm16.365 0a.546.546 0 0 0-.462.244.545.545 0 1 0 .462-.245zM7.594 7.04a.55.55 0 0 0-.392.162.543.543 0 1 0 .769.769.543.543 0 0 0 0-.77.536.536 0 0 0-.377-.161zm20.827 0a.55.55 0 0 0-.392.162.543.543 0 1 0 .77.769.543.543 0 0 0 0-.77.536.536 0 0 0-.378-.161zm1.83 2.233a.543.543 0 0 0-.458.846c.167.251.505.32.755.15a.544.544 0 0 0-.297-.996zm-24.488 0a.545.545 0 1 0 .294.092.55.55 0 0 0-.294-.092zm12.237 0c-4.628 0-8.416 3.624-8.7 8.182H6.545L10.091 21l3.545-3.545h-2.7c.28-3.657 3.337-6.546 7.064-6.546a7.07 7.07 0 0 1 5.271 2.365l1.155-1.155A8.687 8.687 0 0 0 18 9.273zm13.61 2.546a.545.545 0 1 0 .205 1.048.546.546 0 0 0 .297-.714.547.547 0 0 0-.501-.334zm-27.204 0a.548.548 0 0 0-.222 1.05.546.546 0 1 0 .222-1.05zm28.04 2.763a.468.468 0 0 0-.109.009.548.548 0 0 0-.428.641c.06.296.347.488.641.43a.545.545 0 1 0-.104-1.08zm-28.875 0a.546.546 0 1 0 .094.009c-.032-.004-.062-.009-.094-.009zM25.909 15l-3.545 3.545h2.7c-.28 3.657-3.337 6.546-7.064 6.546a7.07 7.07 0 0 1-5.271-2.365l-1.155 1.155A8.687 8.687 0 0 0 18 26.727c4.628 0 8.416-3.624 8.7-8.182h2.755L25.909 15zM3.273 17.455a.547.547 0 0 0 0 1.09.547.547 0 0 0 0-1.09zm29.454 0a.547.547 0 0 0 0 1.09.547.547 0 0 0 0-1.09zM3.558 20.327a.546.546 0 1 0 0 0zm28.9 0a.547.547 0 0 0-.12 1.082.55.55 0 0 0 .643-.428.55.55 0 0 0-.43-.644c-.03-.004-.06-.008-.092-.01zm-.839 2.761a.545.545 0 0 0-.222 1.05.546.546 0 1 0 .222-1.05zm-27.221.002a.565.565 0 0 0-.213.04.549.549 0 0 0-.297.714c.118.28.435.412.714.294a.545.545 0 0 0-.205-1.048zm25.858 2.546a.545.545 0 0 0-.313.997c.119.081.268.111.409.081a.534.534 0 0 0 .347-.232.541.541 0 0 0-.151-.754.51.51 0 0 0-.292-.092zm-24.495 0a.548.548 0 0 0-.46.848.545.545 0 1 0 .46-.848zm1.833 2.233a.543.543 0 1 0 .377.929.543.543 0 0 0-.377-.929zm20.827 0a.543.543 0 1 0 .377.929.543.543 0 0 0-.377-.929zM9.83 29.7a.546.546 0 1 0 .294.092.538.538 0 0 0-.294-.091zm16.36 0a.544.544 0 0 0-.458.848c.165.25.504.318.756.152a.548.548 0 0 0-.299-1zm-13.812 1.36a.545.545 0 1 0 .196.043.557.557 0 0 0-.196-.043zm11.263 0a.549.549 0 0 0-.51.756.548.548 0 0 0 1.01 0 .545.545 0 0 0-.5-.756zm-8.497.84a.546.546 0 1 0-.029 1.09.546.546 0 0 0 .029-1.09zm5.731.002a.547.547 0 1 0 .107 1.08.561.561 0 0 0 .347-.232.545.545 0 0 0-.454-.848zM18 32.18a.547.547 0 0 0 0 1.092.547.547 0 0 0 0-1.091z"/>
</svg>
