<svg xmlns="http://www.w3.org/2000/svg" width="26" height="26" viewBox="0 0 26 26">
    <path fill="#597795" fill-rule="nonzero" d="M13 0c-1.61 0-2.826 1.347-2.826 2.922v1.54a8.978 8.978 0 0 0-1.213.502L7.872 3.876C6.76 2.763 4.945 2.67 3.807 3.807 2.67 4.945 2.763 6.76 3.876 7.872l1.088 1.089c-.195.39-.364.794-.502 1.213h-1.54C1.347 10.174 0 11.39 0 13c0 1.61 1.347 2.826 2.922 2.826h1.54c.138.42.307.823.502 1.213l-1.088 1.089c-1.113 1.113-1.206 2.927-.069 4.065 1.138 1.137 2.952 1.044 4.065-.069l1.089-1.088c.39.195.794.364 1.213.502v1.54C10.174 24.653 11.39 26 13 26c1.61 0 2.826-1.347 2.826-2.922v-1.54a8.978 8.978 0 0 0 1.213-.502l1.089 1.088c1.113 1.113 2.927 1.206 4.065.069 1.137-1.138 1.044-2.952-.069-4.065l-1.088-1.089c.195-.39.364-.794.502-1.213h1.54C24.653 15.826 26 14.61 26 13c0-1.61-1.347-2.826-2.922-2.826h-1.54a8.978 8.978 0 0 0-.502-1.213l1.088-1.089c1.113-1.113 1.206-2.927.069-4.065-1.138-1.137-2.952-1.044-4.065.069l-1.089 1.088a8.978 8.978 0 0 0-1.213-.502v-1.54C15.826 1.347 14.61 0 13 0zm0 1.13c.995 0 1.696.775 1.696 1.792v2.344l.414.115a7.874 7.874 0 0 1 1.787.737l.374.213 1.656-1.656c.72-.719 1.763-.772 2.466-.068.704.703.65 1.747-.068 2.466l-1.656 1.656.213.374c.315.556.562 1.155.737 1.787l.115.414h2.344c1.017 0 1.792.7 1.792 1.696 0 .995-.775 1.696-1.792 1.696h-2.344l-.115.414a7.874 7.874 0 0 1-.737 1.787l-.213.374 1.656 1.656c.719.72.772 1.763.068 2.466-.703.704-1.747.65-2.466-.068l-1.656-1.656-.374.213a7.874 7.874 0 0 1-1.787.737l-.414.115v2.344c0 1.017-.7 1.792-1.696 1.792-.995 0-1.696-.775-1.696-1.792v-2.344l-.414-.115a7.874 7.874 0 0 1-1.787-.737l-.374-.213-1.656 1.656c-.72.719-1.763.772-2.466.068-.704-.703-.65-1.747.068-2.466l1.656-1.656-.213-.374a7.874 7.874 0 0 1-.737-1.787l-.115-.414H2.922c-1.017 0-1.792-.7-1.792-1.696 0-.995.775-1.696 1.792-1.696h2.345l.114-.415c.174-.632.422-1.23.737-1.786l.213-.374-1.656-1.656c-.719-.72-.772-1.763-.068-2.466.703-.704 1.747-.65 2.466.068l1.656 1.656.374-.213a7.874 7.874 0 0 1 1.787-.737l.414-.115V2.922c0-1.017.7-1.792 1.696-1.792zm0 6.218A5.66 5.66 0 0 0 7.348 13 5.66 5.66 0 0 0 13 18.652 5.66 5.66 0 0 0 18.652 13 5.66 5.66 0 0 0 13 7.348zm0 1.13a4.51 4.51 0 0 1 4.483 3.957H15.77A2.838 2.838 0 0 0 13 10.174c-1.36 0-2.505.975-2.769 2.26H8.517A4.51 4.51 0 0 1 13 8.479zm0 2.826c.943 0 1.696.753 1.696 1.696s-.753 1.696-1.696 1.696A1.687 1.687 0 0 1 11.304 13c0-.943.753-1.696 1.696-1.696zm-4.483 2.261h1.714A2.838 2.838 0 0 0 13 15.826c1.36 0 2.505-.975 2.769-2.26h1.714A4.51 4.51 0 0 1 13 17.521a4.51 4.51 0 0 1-4.483-3.957z" opacity=".8"/>
</svg>
