<svg xmlns="http://www.w3.org/2000/svg" width="44" height="44" viewBox="0 0 44 44">
    <path fill="#FFF" fill-rule="nonzero" d="M6.765 0c-.842 0-1.512.58-1.65 1.403L.082 31.157A1.767 1.767 0 0 0 0 31.68v10.56C0 43.202.797 44 1.76 44h40.48c.962 0 1.76-.797 1.76-1.76V31.68c0-.261-.058-.52-.165-.742l-4.95-29.535A1.647 1.647 0 0 0 37.235 0H6.765zm.083 1.76h30.305l4.73 28.16H2.09L6.848 1.76zM22 6.16c-3.568 0-6.81 1.035-9.213 2.75-2.402 1.715-3.987 4.166-3.987 6.93 0 2.764 1.585 5.215 3.987 6.93 2.403 1.715 5.645 2.75 9.213 2.75 3.568 0 6.81-1.035 9.212-2.75 2.403-1.715 3.988-4.166 3.988-6.93 0-2.764-1.585-5.215-3.988-6.93C28.81 7.195 25.569 6.16 22 6.16zm0 1.76c3.228 0 6.136.949 8.195 2.42 2.06 1.471 3.245 3.403 3.245 5.5s-1.186 4.029-3.245 5.5c-2.06 1.471-4.967 2.42-8.195 2.42-3.228 0-6.136-.949-8.195-2.42-2.06-1.471-3.245-3.403-3.245-5.5s1.186-4.029 3.245-5.5c2.06-1.471 4.967-2.42 8.195-2.42zm0 5.28c-1.457 0-2.64.787-2.64 1.76s1.183 1.76 2.64 1.76 2.64-.787 2.64-1.76S23.457 13.2 22 13.2zM1.76 31.68h40.453a.41.41 0 0 0 .027.055V42.24H1.76V31.68zM35.2 35.2a1.759 1.759 0 1 0 0 3.52 1.759 1.759 0 1 0 0-3.52z"/>
</svg>
