<svg xmlns="http://www.w3.org/2000/svg" width="68" height="74" viewBox="0 0 68 74">
    <defs>
        <linearGradient id="a" x1="50%" x2="41.849%" y1="97.784%" y2="-16.397%">
            <stop offset="0%" stop-color="#08BCCD"/>
            <stop offset="100%" stop-color="#2DA1F8"/>
        </linearGradient>
    </defs>
    <path fill="url(#a)" fill-rule="nonzero" d="M33.908.032l-.526.26S19.585 7.186 1.17 7.186H0v1.169c0 27.13 8.29 43.53 16.662 53.09 8.367 9.564 16.885 12.332 16.885 12.332l.36.114.362-.114s8.518-2.768 16.885-12.332c8.372-9.56 16.661-25.96 16.661-53.09v-1.17h-1.169C48.231 7.185 34.433.294 34.433.294l-.525-.26zm0 2.585c1.342.649 14.126 6.568 31.528 6.851-.233 25.952-8.153 41.43-16.036 50.442-7.714 8.81-14.953 11.285-15.492 11.468-.54-.183-7.778-2.658-15.493-11.468C10.532 50.898 2.613 35.42 2.38 9.468c17.401-.283 30.185-6.202 31.528-6.85zm-2.193 6.034l-.406.073-.11.045-.712.768.192 1.027.94.47.407-.077.11-.04.708-.773-.192-1.027-.937-.466zm4.769.087l-1.042.123-.525.909.416.959.356.205.11.041 1.04-.123.522-.909-.411-.963-.357-.206-.11-.036zm-9.226 1.461l-.407.05-.11.032-.762.722.123 1.041.904.525.412-.05.114-.032.758-.721-.123-1.042-.91-.525zm13.692.05l-1.032.188-.466.936.47.936.366.183.114.032 1.033-.187.47-.932-.47-.936-.37-.188-.115-.032zm-18.223 1.252l-.416.018-.114.032-.804.671.055 1.046.877.58.406-.023.12-.027.803-.671-.06-1.046-.867-.58zm22.8.018l-1.023.22-.439.954.503.918.374.169.114.032 1.024-.22.433-.954-.497-.918-.38-.169-.11-.032zm-27.44 1.018l-.407.01-.119.022-.826.644.018 1.046.854.612.411-.009.119-.023.826-.639-.022-1.05-.854-.613zm32.025.014l-1.004.297-.366.982.567.882.388.141.119.023 1.004-.297.361-.982-.57-.881-.384-.142-.114-.023zm4.673.777l-.991.342-.32.996.603.854.393.123.118.019.987-.338.324-.996-.607-.859-.393-.123-.114-.018zm-41.782.022l-.119.019-.845.612-.022 1.046.826.644.416.009.114-.018.85-.617.018-1.046-.827-.64-.41-.009zm-4.563.535c-.027-.005-.054 0-.077 0-.069.004-.087.004-.06.004l-1.1.069v1.15c-.01.485.283.923.735 1.102.448.178.964.064 1.293-.293a1.168 1.168 0 0 0-.79-2.032zm50.898 0a1.166 1.166 0 0 0-.717 2.064l.005.005c.333.333.84.43 1.279.242.434-.187.717-.617.712-1.092v-1.146l-1.1-.069c.027 0 .004 0-.064-.004a.477.477 0 0 0-.115 0zm-30.171 2.653l1.292 24.554h6.897l.06-1.11 1.233-23.444h-9.482zm29.884 2.188l-.822.649-.105.402-.01.118.389.973 1.014.27.822-.653.105-.398.009-.118-.388-.973-1.014-.27zm-50.921.096l-.731.745-.055.406v.087l.005.073.539.9 1.041.11.713-.773.04-.41v-.037l-.004-.037v-.009l-.507-.918-1.041-.137zm23.499.055h4.558l-1.05 19.877h-2.458l-1.05-19.877zm27.002 4.7l-.864.593-.132.389-.018.118.328.996.992.338.858-.594.133-.388.018-.123-.32-.991-.995-.338zm-50.163.178l-.662.808-.019.416.014.119.59.867 1.05.041.662-.808.018-.411-.018-.119-.59-.868-1.045-.045zm49.39 4.622l-.9.539-.159.379-.023.119.256 1.014.968.402.9-.535.16-.383.023-.115-.256-1.018-.968-.402zm-47.645.247l-1.046.022-.612.845.009.416.023.114.639.831 1.05-.022.612-.85-.009-.411-.023-.119-.643-.826zm46.513 4.485l-.936.475-.183.37-.032.118.187 1.028.941.466.936-.475.183-.37.032-.114-.192-1.028-.936-.47zm-45.472.274l-1.041.086-.558.887.032.41.032.115.694.785 1.046-.086.558-.886-.037-.412-.032-.114-.694-.785zM55.25 37.74l-.973.379-.22.352-.04.11.082 1.045.89.553.978-.384.219-.347.046-.11-.092-1.045-.89-.553zm-42.613.288l-1.032.187-.466.94.073.403.04.114.768.712 1.032-.187.466-.936-.073-.407-.041-.114-.767-.712zm40.708 4.197l-.991.329-.237.342-.05.11.04 1.046.86.594.995-.334.233-.338.05-.11-.041-1.05-.859-.589zm-38.89.31l-1.014.27-.393.973.105.397.055.11.822.648 1.01-.27.392-.972-.105-.397-.055-.105-.817-.653zM33.908 44.6a4.692 4.692 0 0 0-4.677 4.677 4.692 4.692 0 0 0 4.677 4.677 4.692 4.692 0 0 0 4.677-4.677 4.692 4.692 0 0 0-4.677-4.677zm17.232 1.937l-1.028.214-.274.306-.059.1-.087 1.047.781.694 1.028-.21.274-.31.06-.101.086-1.046-.78-.694zm-34.552.333l-.972.393-.27 1.014.16.379.06.105.9.539.967-.388.27-1.019-.16-.38-.06-.1-.895-.543zm17.32.068a2.32 2.32 0 0 1 2.338 2.339 2.32 2.32 0 0 1-2.338 2.338 2.32 2.32 0 0 1-2.339-2.338 2.32 2.32 0 0 1 2.339-2.339zm14.615 3.705l-1.037.15-.287.293-.069.1-.146 1.037.74.74 1.037-.156.292-.292.068-.096.147-1.037-.745-.74zm-29.286.315l-.945.452-.205 1.028.182.37.069.1.927.484.94-.448.206-1.032-.173-.37-.073-.096-.927-.488zM45.6 54.516l-1.046.04-.32.257-.077.09-.256 1.015.658.813 1.046-.037.32-.26.077-.091.256-1.019-.658-.808zm-23.39.25l-.885.558-.082 1.046.219.347.077.087.982.379.882-.557.087-1.046-.22-.347-.082-.092-.977-.374zm19.083 3.28l-.347.224-.082.082-.361.987.575.872 1.046.064.347-.224.083-.082.36-.987-.575-.876-1.046-.06zm-15.712.197l-.826.648.032 1.05.251.32.091.083 1.014.269.822-.649-.027-1.045-.256-.325-.087-.077-1.014-.274zm12.118 2.95l-.366.192-.096.073-.447.945.484.928 1.037.164.365-.187.091-.073.452-.95-.488-.928-1.032-.164zm-8.381.137l-.759.722.128 1.041.283.301.096.069 1.037.174.754-.727-.124-1.036-.283-.302-.1-.068-1.032-.174zm4.498 2.498a1.17 1.17 0 1 0-.489 2.22s.014.01.05.027l.526.26.571-.287a1.16 1.16 0 0 0 .621-1.324 1.162 1.162 0 0 0-1.164-.891c-.005-.005-.005-.005-.01 0-.036-.005-.073-.005-.105-.005z"/>
</svg>
