<svg xmlns="http://www.w3.org/2000/svg" width="16" height="16" viewBox="0 0 16 16">
    <path fill="#C5D0DE" fill-rule="nonzero" d="M8 .125a7.875 7.875 0 1 0 0 15.75A7.875 7.875 0 0 0 8 .126zm1.64 12.206c-.406.159-.729.281-.97.364-.243.084-.522.125-.842.125-.49 0-.872-.12-1.146-.36a1.158 1.158 0 0 1-.406-.91c0-.144.01-.29.031-.438a4.85 4.85 0 0 1 .097-.508l.507-1.791c.045-.172.084-.334.115-.487.031-.154.044-.295.044-.422 0-.227-.047-.388-.14-.477-.097-.091-.276-.135-.542-.135-.13 0-.266.02-.404.06-.138.041-.255.08-.354.117l.136-.552c.33-.136.648-.25.953-.347.302-.096.59-.146.86-.146.486 0 .864.12 1.127.355.263.234.396.541.396.916 0 .078-.008.216-.026.412a2.817 2.817 0 0 1-.102.541l-.505 1.787a5.138 5.138 0 0 0-.112.49 2.7 2.7 0 0 0-.047.416c0 .237.052.401.159.487.104.086.289.128.552.128.122 0 .26-.021.416-.063.154-.044.266-.08.336-.114l-.132.552zm-.09-7.253a1.201 1.201 0 0 1-.85.328c-.33 0-.617-.11-.854-.328a1.042 1.042 0 0 1-.354-.794c0-.31.12-.578.354-.8.237-.221.524-.33.855-.33.33 0 .614.109.848.33.237.222.355.49.355.8 0 .31-.118.575-.355.794z"/>
</svg>
