<?xml version="1.0" encoding="UTF-8"?>
<svg width="34px" height="36px" viewBox="0 0 34 36" version="1.1" xmlns="http://www.w3.org/2000/svg" xmlns:xlink="http://www.w3.org/1999/xlink">
    <!-- Generator: Sketch 48.2 (47327) - http://www.bohemiancoding.com/sketch -->
    <title>icons8-print</title>
    <desc>Created with Sketch.</desc>
    <defs></defs>
    <g id="58-ETH-Wallet---Receive" stroke="none" stroke-width="1" fill="none" fill-rule="evenodd" transform="translate(-733.000000, -689.000000)">
        <g id="Group" transform="translate(608.000000, 689.000000)" fill="#93B0C1" fill-rule="nonzero">
            <g id="icons8-print" transform="translate(125.000000, 0.000000)">
                <path d="M7.09090909,0 L7.09090909,4.90909091 L6,4.90909091 C5.10298309,4.90909091 4.36363636,5.64843764 4.36363636,6.54545455 L4.36363636,7.63636364 L2.72727273,7.63636364 C1.83025582,7.63636364 1.09090909,8.37571036 1.09090909,9.27272727 L1.09090909,15.5007104 C0.487926,15.7414773 0,16.2230116 0,16.9090909 L0,28.9090909 C0,29.8061078 0.739346727,30.5454545 1.63636364,30.5454545 L7.09090909,30.5454545 L7.09090909,36 L26.7272727,36 L26.7272727,30.5454545 L32.1818182,30.5454545 C33.0788351,30.5454545 33.8181818,29.8061078 33.8181818,28.9090909 L33.8181818,16.9090909 C33.8181818,16.2230116 33.3302558,15.7414773 32.7272727,15.5007104 L32.7272727,9.27272727 C32.7272727,8.37571036 31.987926,7.63636364 31.0909091,7.63636364 L29.4545455,7.63636364 L29.4545455,6.54545455 C29.4545455,5.64843764 28.7151987,4.90909091 27.8181818,4.90909091 L26.7272727,4.90909091 L26.7272727,0 L7.09090909,0 Z M8.18181818,1.09090909 L25.6363636,1.09090909 L25.6363636,11.4545455 L8.18181818,11.4545455 L8.18181818,1.09090909 Z M6,6 L7.09090909,6 L7.09090909,7.63636364 L5.45454545,7.63636364 L5.45454545,6.54545455 C5.45454545,6.23650582 5.69105127,6 6,6 Z M26.7272727,6 L27.8181818,6 C28.1271305,6 28.3636364,6.23650582 28.3636364,6.54545455 L28.3636364,7.63636364 L26.7272727,7.63636364 L26.7272727,6 Z M2.72727273,8.72727273 L7.09090909,8.72727273 L7.09090909,10.3636364 C6.487926,10.3636364 6,10.8515624 6,11.4545455 C6,12.0575285 6.487926,12.5454545 7.09090909,12.5454545 L26.7272727,12.5454545 C27.3302558,12.5454545 27.8181818,12.0575285 27.8181818,11.4545455 C27.8181818,10.8515624 27.3302558,10.3636364 26.7272727,10.3636364 L26.7272727,8.72727273 L31.0909091,8.72727273 C31.3998578,8.72727273 31.6363636,8.96377855 31.6363636,9.27272727 L31.6363636,16.3636364 L32.1818182,16.3636364 C32.4907669,16.3636364 32.7272727,16.6001422 32.7272727,16.9090909 L32.7272727,28.9090909 C32.7272727,29.2180396 32.4907669,29.4545455 32.1818182,29.4545455 L26.7272727,29.4545455 L26.7272727,27.2727273 C27.3302558,27.2727273 27.8181818,26.7848013 27.8181818,26.1818182 C27.8181818,25.5788351 27.3302558,25.0909091 26.7272727,25.0909091 L7.09090909,25.0909091 C6.487926,25.0909091 6,25.5788351 6,26.1818182 C6,26.7848013 6.487926,27.2727273 7.09090909,27.2727273 L7.09090909,29.4545455 L1.63636364,29.4545455 C1.32741491,29.4545455 1.09090909,29.2180396 1.09090909,28.9090909 L1.09090909,16.9090909 C1.09090909,16.6001422 1.32741491,16.3636364 1.63636364,16.3636364 L2.18181818,16.3636364 L2.18181818,9.27272727 C2.18181818,8.96377855 2.418324,8.72727273 2.72727273,8.72727273 Z M3.81818182,15.2727273 C3.51775582,15.2727273 3.27272727,15.5177558 3.27272727,15.8181818 C3.27272727,16.1186078 3.51775582,16.3636364 3.81818182,16.3636364 C4.11860782,16.3636364 4.36363636,16.1186078 4.36363636,15.8181818 C4.36363636,15.5177558 4.11860782,15.2727273 3.81818182,15.2727273 Z M6,15.2727273 C5.699574,15.2727273 5.45454545,15.5177558 5.45454545,15.8181818 C5.45454545,16.1186078 5.699574,16.3636364 6,16.3636364 C6.300426,16.3636364 6.54545455,16.1186078 6.54545455,15.8181818 C6.54545455,15.5177558 6.300426,15.2727273 6,15.2727273 Z M8.18181818,15.2727273 C7.88139218,15.2727273 7.63636364,15.5177558 7.63636364,15.8181818 C7.63636364,16.1186078 7.88139218,16.3636364 8.18181818,16.3636364 C8.48224418,16.3636364 8.72727273,16.1186078 8.72727273,15.8181818 C8.72727273,15.5177558 8.48224418,15.2727273 8.18181818,15.2727273 Z M10.3636364,15.2727273 C10.0632104,15.2727273 9.81818182,15.5177558 9.81818182,15.8181818 C9.81818182,16.1186078 10.0632104,16.3636364 10.3636364,16.3636364 C10.6640624,16.3636364 10.9090909,16.1186078 10.9090909,15.8181818 C10.9090909,15.5177558 10.6640624,15.2727273 10.3636364,15.2727273 Z M12.5454545,15.2727273 C12.2450285,15.2727273 12,15.5177558 12,15.8181818 C12,16.1186078 12.2450285,16.3636364 12.5454545,16.3636364 C12.8458805,16.3636364 13.0909091,16.1186078 13.0909091,15.8181818 C13.0909091,15.5177558 12.8458805,15.2727273 12.5454545,15.2727273 Z M14.7272727,15.2727273 C14.4268467,15.2727273 14.1818182,15.5177558 14.1818182,15.8181818 C14.1818182,16.1186078 14.4268467,16.3636364 14.7272727,16.3636364 C15.0276987,16.3636364 15.2727273,16.1186078 15.2727273,15.8181818 C15.2727273,15.5177558 15.0276987,15.2727273 14.7272727,15.2727273 Z M16.9090909,15.2727273 C16.6086649,15.2727273 16.3636364,15.5177558 16.3636364,15.8181818 C16.3636364,16.1186078 16.6086649,16.3636364 16.9090909,16.3636364 C17.2095169,16.3636364 17.4545455,16.1186078 17.4545455,15.8181818 C17.4545455,15.5177558 17.2095169,15.2727273 16.9090909,15.2727273 Z M19.0909091,15.2727273 C18.7904831,15.2727273 18.5454545,15.5177558 18.5454545,15.8181818 C18.5454545,16.1186078 18.7904831,16.3636364 19.0909091,16.3636364 C19.3913351,16.3636364 19.6363636,16.1186078 19.6363636,15.8181818 C19.6363636,15.5177558 19.3913351,15.2727273 19.0909091,15.2727273 Z M21.2727273,15.2727273 C20.9723013,15.2727273 20.7272727,15.5177558 20.7272727,15.8181818 C20.7272727,16.1186078 20.9723013,16.3636364 21.2727273,16.3636364 C21.5731533,16.3636364 21.8181818,16.1186078 21.8181818,15.8181818 C21.8181818,15.5177558 21.5731533,15.2727273 21.2727273,15.2727273 Z M23.4545455,15.2727273 C23.1541195,15.2727273 22.9090909,15.5177558 22.9090909,15.8181818 C22.9090909,16.1186078 23.1541195,16.3636364 23.4545455,16.3636364 C23.7549715,16.3636364 24,16.1186078 24,15.8181818 C24,15.5177558 23.7549715,15.2727273 23.4545455,15.2727273 Z M25.6363636,15.2727273 C25.3359376,15.2727273 25.0909091,15.5177558 25.0909091,15.8181818 C25.0909091,16.1186078 25.3359376,16.3636364 25.6363636,16.3636364 C25.9367896,16.3636364 26.1818182,16.1186078 26.1818182,15.8181818 C26.1818182,15.5177558 25.9367896,15.2727273 25.6363636,15.2727273 Z M27.8181818,15.2727273 C27.5177558,15.2727273 27.2727273,15.5177558 27.2727273,15.8181818 C27.2727273,16.1186078 27.5177558,16.3636364 27.8181818,16.3636364 C28.1186078,16.3636364 28.3636364,16.1186078 28.3636364,15.8181818 C28.3636364,15.5177558 28.1186078,15.2727273 27.8181818,15.2727273 Z M30,15.2727273 C29.699574,15.2727273 29.4545455,15.5177558 29.4545455,15.8181818 C29.4545455,16.1186078 29.699574,16.3636364 30,16.3636364 C30.300426,16.3636364 30.5454545,16.1186078 30.5454545,15.8181818 C30.5454545,15.5177558 30.300426,15.2727273 30,15.2727273 Z M29.4545455,18.5454545 C28.8515624,18.5454545 28.3636364,19.0333805 28.3636364,19.6363636 C28.3636364,20.2393467 28.8515624,20.7272727 29.4545455,20.7272727 C30.0575285,20.7272727 30.5454545,20.2393467 30.5454545,19.6363636 C30.5454545,19.0333805 30.0575285,18.5454545 29.4545455,18.5454545 Z M8.18181818,26.1818182 L25.6363636,26.1818182 L25.6363636,34.9090909 L8.18181818,34.9090909 L8.18181818,26.1818182 Z M12,28.9090909 L12,30 L21.8181818,30 L21.8181818,28.9090909 L12,28.9090909 Z M12,31.6363636 L12,32.7272727 L21.8181818,32.7272727 L21.8181818,31.6363636 L12,31.6363636 Z" id="Shape"></path>
            </g>
        </g>
    </g>
</svg>