<svg width="44" height="44" viewBox="0 0 44 44" fill="none" xmlns="http://www.w3.org/2000/svg">
<g id="icon-marketplace-crypto">
<path id="Shape" fill-rule="evenodd" clip-rule="evenodd" d="M0 22C0 9.85677 9.85677 0 22 0C34.1432 0 44 9.85677 44 22C44 34.1432 34.1432 44 22 44C9.85677 44 0 34.1432 0 22ZM42.6667 22C42.6667 10.5781 33.4219 1.33333 22 1.33333C10.5781 1.33333 1.33333 10.5781 1.33333 22C1.33333 33.4219 10.5781 42.6667 22 42.6667C33.4219 42.6667 42.6667 33.4219 42.6667 22ZM22 3.33333C21.6328 3.33333 21.3333 3.63281 21.3333 4C21.3333 4.36719 21.6328 4.66667 22 4.66667C22.3672 4.66667 22.6667 4.36719 22.6667 4C22.6667 3.63281 22.3672 3.33333 22 3.33333ZM24.8568 4.21615C24.9219 3.89583 25.2031 3.66927 25.5286 3.67708C25.5636 3.67941 25.5964 3.68382 25.6309 3.68845L25.6432 3.6901C26.0026 3.76302 26.237 4.11458 26.1667 4.47656C26.0938 4.83594 25.7422 5.07031 25.3828 5C25.0208 4.92708 24.7865 4.57552 24.8568 4.21615ZM18.4922 3.67969C18.4479 3.67969 18.4036 3.68229 18.3594 3.6901C17.9974 3.76302 17.763 4.11458 17.8359 4.47656C17.8698 4.64844 17.9714 4.80208 18.1198 4.90104C18.2656 4.9974 18.4453 5.03385 18.6198 5C18.9818 4.92708 19.2161 4.57812 19.1432 4.21615C19.0807 3.90625 18.8099 3.68229 18.4922 3.67969ZM14.8568 4.7526C14.9401 4.71875 15.0286 4.70313 15.1172 4.70313C15.3854 4.70573 15.625 4.86719 15.7292 5.11458C15.8698 5.45573 15.7083 5.84375 15.3672 5.98698C15.026 6.1276 14.638 5.96615 14.4974 5.625C14.3542 5.28385 14.5156 4.89583 14.8568 4.7526ZM28.9036 4.70313C28.6276 4.69792 28.3776 4.85938 28.2708 5.11458C28.1302 5.45573 28.2917 5.84375 28.6328 5.98698C28.974 6.1276 29.362 5.96615 29.5026 5.625C29.6458 5.28385 29.4844 4.89583 29.1432 4.7526C29.0677 4.72135 28.9844 4.70573 28.9036 4.70313ZM11.6276 6.47917C11.7396 6.40365 11.8724 6.36458 12.0078 6.36458C12.2266 6.36719 12.4323 6.47917 12.5547 6.66406C12.7578 6.96875 12.6771 7.38281 12.3698 7.58594C12.0625 7.79167 11.6484 7.70833 11.4453 7.40365C11.2396 7.09635 11.3229 6.68229 11.6276 6.47917ZM32.0104 6.36458C31.7839 6.36198 31.5703 6.47396 31.4453 6.66406C31.2396 6.96875 31.3229 7.38281 31.6276 7.58594C31.9349 7.79167 32.349 7.70833 32.5521 7.40365C32.651 7.25781 32.6875 7.07552 32.6536 6.90365C32.6198 6.72917 32.5182 6.57552 32.3698 6.47917C32.263 6.40625 32.1406 6.36719 32.0104 6.36458ZM8.80208 8.80208C8.92708 8.67448 9.10156 8.60417 9.28125 8.60417C9.45573 8.60677 9.61979 8.67708 9.74219 8.80208C10.0026 9.0599 10.0026 9.48438 9.74219 9.74219C9.48438 10.0026 9.0599 10.0026 8.80208 9.74219C8.54167 9.48438 8.54167 9.0599 8.80208 8.80208ZM34.737 8.60417C34.5573 8.60417 34.3828 8.67448 34.2578 8.80208C33.9974 9.0599 33.9974 9.48438 34.2578 9.74219C34.5156 10.0026 34.9401 10.0026 35.1979 9.74219C35.4583 9.48438 35.4583 9.0599 35.1979 8.80208C35.0755 8.67708 34.9115 8.60677 34.737 8.60417ZM36.5964 11.4453C36.7083 11.3698 36.8385 11.3307 36.974 11.3333C37.1927 11.3333 37.3984 11.4453 37.5208 11.6276C37.7266 11.9349 37.6432 12.3464 37.3359 12.5521C37.0312 12.7578 36.6172 12.6745 36.4141 12.3672C36.2083 12.0625 36.2917 11.6484 36.5964 11.4453ZM7.04427 11.3333C6.81771 11.3281 6.60417 11.4401 6.47917 11.6276C6.27604 11.9349 6.35677 12.349 6.66406 12.5521C6.97135 12.7578 7.38281 12.6745 7.58854 12.3698C7.79167 12.0625 7.71094 11.6484 7.40365 11.4453C7.29688 11.375 7.17448 11.3359 7.04427 11.3333ZM11.3672 21.3333C11.7135 15.763 16.3438 11.3333 22 11.3333C25.1094 11.3333 27.9036 12.6797 29.8542 14.8125L28.4427 16.224C26.8542 14.4557 24.5599 13.3333 22 13.3333C17.4453 13.3333 13.7083 16.8646 13.3672 21.3333H16.6667L12.3333 25.6667L8 21.3333H11.3672ZM38.6354 14.4453C38.5469 14.4427 38.4583 14.4609 38.375 14.4948C38.0339 14.6354 37.8724 15.026 38.013 15.3646C38.1562 15.7057 38.5443 15.8672 38.8854 15.7266C39.2266 15.5859 39.388 15.1953 39.2474 14.8542C39.1432 14.6094 38.9036 14.4453 38.6354 14.4453ZM4.75521 14.8568C4.85938 14.6016 5.10938 14.4401 5.38542 14.4453C5.46875 14.4479 5.54948 14.4635 5.625 14.4974C5.96615 14.638 6.1276 15.026 5.98698 15.3672C5.84635 15.7083 5.45573 15.8698 5.11458 15.7292C4.77604 15.5859 4.61458 15.1979 4.75521 14.8568ZM39.6562 17.8229C39.612 17.8203 39.5677 17.8255 39.5234 17.8333C39.1641 17.9062 38.9297 18.2578 39 18.6172C39.0729 18.9792 39.4245 19.2135 39.7839 19.1432C40.1458 19.0703 40.3802 18.7188 40.3099 18.3568C40.2474 18.0469 39.974 17.8229 39.6562 17.8229ZM3.69271 18.3568C3.75781 18.0391 4.03906 17.8151 4.36458 17.8229C4.40127 17.8229 4.43567 17.8275 4.47208 17.8324L4.47222 17.8324L4.47224 17.8324L4.47917 17.8333C4.83854 17.9062 5.07292 18.2578 5 18.6172C4.96615 18.7917 4.86458 18.9453 4.71875 19.0443C4.57031 19.1406 4.39063 19.1771 4.21875 19.1432C4.04427 19.1094 3.89063 19.0078 3.79167 18.8594C3.69271 18.7135 3.65885 18.5312 3.69271 18.3568ZM31.6667 18.3333L27.3333 22.6667H30.6328C30.2917 27.1354 26.5547 30.6667 22 30.6667C19.4401 30.6667 17.1458 29.5443 15.5573 27.776L14.1458 29.1875C16.0964 31.3203 18.8906 32.6667 22 32.6667C27.6562 32.6667 32.2865 28.237 32.6328 22.6667H36L31.6667 18.3333ZM3.33333 22C3.33333 21.6328 3.63281 21.3333 4 21.3333C4.36719 21.3333 4.66667 21.6328 4.66667 22C4.66667 22.3672 4.36719 22.6667 4 22.6667C3.63281 22.6667 3.33333 22.3672 3.33333 22ZM40 21.3333C39.6328 21.3333 39.3333 21.6328 39.3333 22C39.3333 22.3672 39.6328 22.6667 40 22.6667C40.3672 22.6667 40.6667 22.3672 40.6667 22C40.6667 21.6328 40.3672 21.3333 40 21.3333ZM4.21615 24.8568C4.26042 24.849 4.30469 24.8438 4.34896 24.8438C4.66667 24.8464 4.9375 25.0703 5 25.3828C5.07292 25.7422 4.83854 26.0938 4.47656 26.1667C4.11458 26.237 3.76563 26.0026 3.69271 25.6432C3.61979 25.2812 3.85417 24.9297 4.21615 24.8568ZM39.6719 24.8438C39.3464 24.8359 39.0651 25.0625 39 25.3828C38.9297 25.7422 39.1641 26.0938 39.5234 26.1667C39.8854 26.237 40.237 26.0026 40.3099 25.6432C40.3802 25.2812 40.1458 24.9297 39.7839 24.8568L39.7838 24.8568L39.7838 24.8568C39.7473 24.8516 39.7109 24.8464 39.6719 24.8438ZM38.013 28.6328C38.1198 28.3776 38.3698 28.2135 38.6458 28.2188C38.7266 28.2214 38.8099 28.2396 38.8854 28.2708C39.2266 28.4115 39.388 28.8021 39.2474 29.1432C39.1042 29.4818 38.7161 29.6432 38.375 29.5026C38.0339 29.362 37.8724 28.9714 38.013 28.6328ZM5.375 28.2214C5.28646 28.2214 5.19792 28.237 5.11458 28.2708C4.95313 28.3385 4.82292 28.4688 4.75521 28.6328C4.6875 28.7969 4.6875 28.9792 4.7526 29.1432C4.89583 29.4844 5.28385 29.6458 5.625 29.5026C5.78906 29.4375 5.91927 29.3073 5.98698 29.1432C6.05469 28.9792 6.05469 28.7969 5.98698 28.6328C5.88542 28.3854 5.64323 28.224 5.375 28.2214ZM36.4141 31.6276C36.5391 31.4401 36.7526 31.3281 36.9792 31.3333C37.1068 31.3333 37.2318 31.3724 37.3359 31.4453C37.6432 31.6484 37.7266 32.0625 37.5208 32.3672C37.4245 32.5156 37.2708 32.6172 37.0964 32.651C36.9245 32.6875 36.7422 32.651 36.5964 32.5521C36.2917 32.3464 36.2083 31.9349 36.4141 31.6276ZM7.04167 31.3333C6.90625 31.3307 6.77604 31.3698 6.66406 31.4453C6.35938 31.651 6.27604 32.0625 6.47917 32.3698C6.6849 32.6745 7.09896 32.7578 7.40625 32.5521C7.71094 32.349 7.79427 31.9349 7.58854 31.6276C7.46615 31.4453 7.26042 31.3359 7.04167 31.3333ZM8.80208 34.2578C8.92708 34.1302 9.10156 34.0599 9.28125 34.0625C9.45573 34.0625 9.61979 34.1328 9.74219 34.2578C10.0026 34.5156 10.0026 34.9401 9.74219 35.1979C9.48438 35.4583 9.0599 35.4583 8.80208 35.1979C8.54167 34.9401 8.54167 34.5156 8.80208 34.2578ZM34.737 34.0625C34.5573 34.0599 34.3828 34.1302 34.2578 34.2578C33.9974 34.5156 33.9974 34.9401 34.2578 35.1979C34.5156 35.4583 34.9401 35.4583 35.1979 35.1979C35.4583 34.9401 35.4583 34.5156 35.1979 34.2578C35.0755 34.1328 34.9115 34.0625 34.737 34.0625ZM11.4479 36.5938C11.5729 36.4062 11.7865 36.2943 12.013 36.2995C12.1406 36.2995 12.2656 36.3411 12.3724 36.4115C12.6771 36.6172 12.7604 37.0286 12.5547 37.3359C12.3516 37.6406 11.9375 37.724 11.6328 37.5208C11.3255 37.3151 11.2422 36.901 11.4479 36.5938ZM32.0078 36.2995C31.8724 36.2969 31.7422 36.3359 31.6302 36.4089C31.4818 36.5078 31.3802 36.6615 31.3464 36.8359C31.3125 37.0078 31.349 37.1901 31.4479 37.3359C31.651 37.6406 32.0651 37.724 32.3724 37.5208C32.6771 37.3151 32.7604 36.901 32.5547 36.5938C32.4349 36.4115 32.2292 36.2995 32.0078 36.2995ZM14.4974 38.375C14.6016 38.1198 14.8516 37.9557 15.1276 37.9609C15.2109 37.9635 15.2917 37.9818 15.3672 38.013C15.7083 38.1536 15.8698 38.5443 15.7292 38.8854C15.5885 39.224 15.1979 39.3854 14.8568 39.2448C14.5182 39.1042 14.3568 38.7135 14.4974 38.375ZM28.8932 37.9609C28.8047 37.9609 28.7161 37.9792 28.6354 38.013C28.4714 38.0807 28.3411 38.2109 28.2734 38.3724C28.2057 38.5365 28.2057 38.7214 28.2708 38.8854C28.4141 39.224 28.8021 39.3854 29.1432 39.2448C29.3073 39.1771 29.4375 39.0469 29.5052 38.8854C29.5729 38.7214 29.5729 38.5365 29.5052 38.375C29.4036 38.125 29.1615 37.9635 28.8932 37.9609ZM17.8359 39.5234C17.8984 39.2057 18.1823 38.9792 18.5078 38.987C18.5443 38.987 18.5833 38.9922 18.6198 39C18.9818 39.0729 19.2161 39.4219 19.1432 39.7839C19.0703 40.1458 18.7214 40.3802 18.3594 40.3073C17.9974 40.2344 17.763 39.8854 17.8359 39.5234ZM25.513 38.9896C25.4688 38.987 25.4245 38.9922 25.3828 39C25.0208 39.0729 24.7865 39.4219 24.8568 39.7839C24.8932 39.9583 24.9948 40.1094 25.1406 40.2083C25.2891 40.3073 25.4688 40.3438 25.6432 40.3099C25.8151 40.2734 25.9688 40.1719 26.0677 40.026C26.1641 39.8776 26.2005 39.6979 26.1667 39.5234C26.1042 39.2135 25.8307 38.9896 25.513 38.9896ZM21.3333 40C21.3333 39.6328 21.6328 39.3333 22 39.3333C22.3672 39.3333 22.6667 39.6328 22.6667 40C22.6667 40.3672 22.3672 40.6667 22 40.6667C21.6328 40.6667 21.3333 40.3672 21.3333 40Z" fill="url(#paint0_linear_0_21024)"/>
</g>
<defs>
<linearGradient id="paint0_linear_0_21024" x1="0" y1="0" x2="52.6161" y2="16.4636" gradientUnits="userSpaceOnUse">
<stop stop-color="#00E0FF"/>
<stop offset="1" stop-color="#2DA1F8"/>
</linearGradient>
</defs>
</svg>
