<svg width="36" height="30" viewBox="0 0 36 30" fill="none" xmlns="http://www.w3.org/2000/svg">
<g id="icon-marketplace">
<path id="Shape" fill-rule="evenodd" clip-rule="evenodd" d="M13.2605 0.751465C13.5732 0.281777 14.1004 0 14.6646 0H21.3354C21.8996 0 22.4268 0.281777 22.7395 0.751465L24.4885 3.375H34.3125C35.2446 3.375 36 4.13044 36 5.0625V10.5765C36 11.4889 35.5646 12.3014 34.875 12.8177V27C34.875 28.2426 33.8676 29.25 32.625 29.25H3.375C2.13244 29.25 1.125 28.2426 1.125 27V12.8177C0.435375 12.3014 0 11.4889 0 10.5765V5.0625C0 4.13044 0.755437 3.375 1.6875 3.375H11.5115L13.2605 0.751465ZM21.3354 1.125H14.6646C14.4761 1.125 14.3012 1.21855 14.1965 1.37549L12.8639 3.375H23.1361L21.8035 1.37549C21.6988 1.21855 21.5239 1.125 21.3354 1.125ZM1.6875 4.5H10.7611H25.2378H34.3125C34.6224 4.5 34.875 4.752 34.875 5.0625V5.625C34.5645 5.625 34.3125 5.87644 34.3125 6.1875V7.3125C34.3125 7.62356 34.5645 7.875 34.875 7.875V10.5765C34.875 11.3702 34.3334 12.0468 33.5588 12.2223L20.25 15.2271V15.1875C20.25 14.5671 19.7454 14.0625 19.125 14.0625H16.875C16.2546 14.0625 15.75 14.5671 15.75 15.1875V15.2271L2.44116 12.2223C1.6666 12.0468 1.125 11.3702 1.125 10.5765V7.875C1.4355 7.875 1.6875 7.62356 1.6875 7.3125V6.1875C1.6875 5.87644 1.4355 5.625 1.125 5.625V5.0625C1.125 4.752 1.37756 4.5 1.6875 4.5ZM3.375 6.1875C3.375 5.87644 3.627 5.625 3.9375 5.625C4.248 5.625 4.5 5.87644 4.5 6.1875V7.3125C4.5 7.62356 4.248 7.875 3.9375 7.875C3.627 7.875 3.375 7.62356 3.375 7.3125V6.1875ZM6.75 5.625C6.4395 5.625 6.1875 5.87644 6.1875 6.1875V7.3125C6.1875 7.62356 6.4395 7.875 6.75 7.875C7.0605 7.875 7.3125 7.62356 7.3125 7.3125V6.1875C7.3125 5.87644 7.0605 5.625 6.75 5.625ZM9 6.1875C9 5.87644 9.252 5.625 9.5625 5.625C9.873 5.625 10.125 5.87644 10.125 6.1875V7.3125C10.125 7.62356 9.873 7.875 9.5625 7.875C9.252 7.875 9 7.62356 9 7.3125V6.1875ZM12.375 5.625C12.0645 5.625 11.8125 5.87644 11.8125 6.1875V7.3125C11.8125 7.62356 12.0645 7.875 12.375 7.875C12.6855 7.875 12.9375 7.62356 12.9375 7.3125V6.1875C12.9375 5.87644 12.6855 5.625 12.375 5.625ZM14.625 6.1875C14.625 5.87644 14.877 5.625 15.1875 5.625C15.498 5.625 15.75 5.87644 15.75 6.1875V7.3125C15.75 7.62356 15.498 7.875 15.1875 7.875C14.877 7.875 14.625 7.62356 14.625 7.3125V6.1875ZM18 5.625C17.6895 5.625 17.4375 5.87644 17.4375 6.1875V7.3125C17.4375 7.62356 17.6895 7.875 18 7.875C18.3105 7.875 18.5625 7.62356 18.5625 7.3125V6.1875C18.5625 5.87644 18.3105 5.625 18 5.625ZM20.25 6.1875C20.25 5.87644 20.502 5.625 20.8125 5.625C21.123 5.625 21.375 5.87644 21.375 6.1875V7.3125C21.375 7.62356 21.123 7.875 20.8125 7.875C20.502 7.875 20.25 7.62356 20.25 7.3125V6.1875ZM23.625 5.625C23.3145 5.625 23.0625 5.87644 23.0625 6.1875V7.3125C23.0625 7.62356 23.3145 7.875 23.625 7.875C23.9355 7.875 24.1875 7.62356 24.1875 7.3125V6.1875C24.1875 5.87644 23.9355 5.625 23.625 5.625ZM25.875 6.1875C25.875 5.87644 26.127 5.625 26.4375 5.625C26.748 5.625 27 5.87644 27 6.1875V7.3125C27 7.62356 26.748 7.875 26.4375 7.875C26.127 7.875 25.875 7.62356 25.875 7.3125V6.1875ZM29.25 5.625C28.9395 5.625 28.6875 5.87644 28.6875 6.1875V7.3125C28.6875 7.62356 28.9395 7.875 29.25 7.875C29.5605 7.875 29.8125 7.62356 29.8125 7.3125V6.1875C29.8125 5.87644 29.5605 5.625 29.25 5.625ZM31.5 6.1875C31.5 5.87644 31.752 5.625 32.0625 5.625C32.373 5.625 32.625 5.87644 32.625 6.1875V7.3125C32.625 7.62356 32.373 7.875 32.0625 7.875C31.752 7.875 31.5 7.62356 31.5 7.3125V6.1875ZM33.75 13.3319V27C33.75 27.621 33.2466 28.125 32.625 28.125H3.375C2.75344 28.125 2.25 27.621 2.25 27V13.333L15.75 16.3817V18.5625C15.75 19.1835 16.2534 19.6875 16.875 19.6875H19.125C19.7466 19.6875 20.25 19.1835 20.25 18.5625V16.3806L33.75 13.3319ZM19.1261 18.5625L19.125 15.1875H16.875V18.5625H19.1261ZM3.9375 24.75C3.627 24.75 3.375 25.0014 3.375 25.3125C3.375 25.6236 3.627 25.875 3.9375 25.875H27.5625C27.873 25.875 28.125 25.6236 28.125 25.3125C28.125 25.0014 27.873 24.75 27.5625 24.75H3.9375ZM29.25 25.3125C29.25 25.0014 29.502 24.75 29.8125 24.75H32.0625C32.373 24.75 32.625 25.0014 32.625 25.3125C32.625 25.6236 32.373 25.875 32.0625 25.875H29.8125C29.502 25.875 29.25 25.6236 29.25 25.3125Z" fill="url(#paint0_linear_0_21412)"/>
</g>
<defs>
<linearGradient id="paint0_linear_0_21412" x1="0" y1="0" x2="41.16" y2="15.8511" gradientUnits="userSpaceOnUse">
<stop stop-color="#00E0FF"/>
<stop offset="1" stop-color="#2DA1F8"/>
</linearGradient>
</defs>
</svg>
