<svg width="44" height="44" viewBox="0 0 44 44" fill="none" xmlns="http://www.w3.org/2000/svg">
<g id="icon-marketplace-incorporations">
<path id="Shape" fill-rule="evenodd" clip-rule="evenodd" d="M0 22C0 9.85677 9.85677 0 22 0C24.9896 0 27.8411 0.601563 30.4427 1.68229C31.7969 0.632813 33.4922 0 35.3333 0C39.7448 0 43.3333 3.58854 43.3333 8C43.3333 9.21354 42.8333 10.6328 42.1276 12.1745C42.0859 12.2658 42.0393 12.3592 41.9926 12.4527C41.9635 12.5111 41.9343 12.5695 41.9062 12.6276C43.2474 15.4714 44 18.651 44 22C44 34.1432 34.1432 44 22 44C9.85677 44 0 34.1432 0 22ZM23.6979 1.40625C23.138 1.35938 22.5729 1.33333 22 1.33333C21.4297 1.33333 20.8646 1.36458 20.3047 1.40885C20.526 1.52344 20.6667 1.75 20.6667 2C20.6667 2.36719 20.3672 2.66667 20 2.66667C19.6328 2.66667 19.3333 2.36719 19.3333 2C19.3333 1.79688 19.4271 1.60417 19.5859 1.47917C9.30469 2.67188 1.33333 11.3958 1.33333 22C1.33333 32.6042 9.30469 41.3281 19.5859 42.5208C19.4271 42.3958 19.3333 42.2031 19.3333 42C19.3333 41.6328 19.6328 41.3333 20 41.3333C20.3672 41.3333 20.6667 41.6328 20.6667 42C20.6667 42.25 20.526 42.4766 20.3047 42.5911C20.8646 42.6354 21.4297 42.6667 22 42.6667C22.5703 42.6667 23.1354 42.6354 23.6953 42.5911C23.474 42.4766 23.3333 42.25 23.3333 42C23.3333 41.6328 23.6328 41.3333 24 41.3333C24.3672 41.3333 24.6667 41.6328 24.6667 42C24.6667 42.2031 24.5729 42.3958 24.4141 42.5208C34.6953 41.3281 42.6667 32.6042 42.6667 22C42.6667 19.224 42.1198 16.5781 41.1276 14.1589C40.6354 15.0755 40.1042 15.9948 39.5703 16.8672C37.7188 19.8906 35.8698 22.3958 35.8698 22.3958L35.3333 23.125L34.7969 22.3958C34.7969 22.3958 32.9479 19.8906 31.0964 16.8672C30.1719 15.3568 29.2448 13.7135 28.5391 12.1745C27.8333 10.6328 27.3333 9.21354 27.3333 8C27.3333 5.96094 28.1068 4.10417 29.3672 2.6901C27.7995 2.09115 26.1406 1.68229 24.4167 1.47917C24.5729 1.60677 24.6667 1.79688 24.6667 2C24.6667 2.36719 24.3672 2.66667 24 2.66667C23.6328 2.66667 23.3333 2.36719 23.3333 2C23.3333 1.75 23.474 1.51823 23.6979 1.40625ZM35.3333 1.33333C39.0234 1.33333 42 4.3099 42 8C42 8.8125 41.5833 10.1536 40.9141 11.6172C40.2448 13.0833 39.3385 14.6875 38.4297 16.1693C36.9622 18.5682 35.8744 20.0601 35.4042 20.7049L35.3333 20.8021L35.2625 20.7049C34.7923 20.0601 33.7045 18.5682 32.237 16.1693C31.3281 14.6875 30.4219 13.0833 29.7526 11.6172C29.0833 10.1536 28.6667 8.8125 28.6667 8C28.6667 4.3099 31.6432 1.33333 35.3333 1.33333ZM21.3333 3.33333C21.3333 2.96615 21.6328 2.66667 22 2.66667C22.3672 2.66667 22.6667 2.96615 22.6667 3.33333C22.6667 3.70052 22.3672 4 22 4C21.6328 4 21.3333 3.70052 21.3333 3.33333ZM17.3333 3.33333C16.9661 3.33333 16.6667 3.63281 16.6667 4C16.6667 4.36719 16.9661 4.66667 17.3333 4.66667C17.7005 4.66667 18 4.36719 18 4C18 3.63281 17.7005 3.33333 17.3333 3.33333ZM26 4C26 3.63281 26.2995 3.33333 26.6667 3.33333C27.0339 3.33333 27.3333 3.63281 27.3333 4C27.3333 4.36719 27.0339 4.66667 26.6667 4.66667C26.2995 4.66667 26 4.36719 26 4ZM15.3333 5.33333C14.9661 5.33333 14.6667 5.63281 14.6667 6C14.6667 6.36719 14.9661 6.66667 15.3333 6.66667C15.7005 6.66667 16 6.36719 16 6C16 5.63281 15.7005 5.33333 15.3333 5.33333ZM21.3333 6C21.3333 5.63281 21.6328 5.33333 22 5.33333C22.3672 5.33333 22.6667 5.63281 22.6667 6C22.6667 6.36719 22.3672 6.66667 22 6.66667C21.6328 6.66667 21.3333 6.36719 21.3333 6ZM35.3333 5.33333C33.8672 5.33333 32.6667 6.53385 32.6667 8C32.6667 9.46615 33.8672 10.6667 35.3333 10.6667C36.7995 10.6667 38 9.46615 38 8C38 6.53385 36.7995 5.33333 35.3333 5.33333ZM36.6667 8C36.6667 7.25521 36.0781 6.66667 35.3333 6.66667C34.5885 6.66667 34 7.25521 34 8C34 8.74479 34.5885 9.33333 35.3333 9.33333C36.0781 9.33333 36.6667 8.74479 36.6667 8ZM8.66667 8C8.29948 8 8 8.29948 8 8.66667C8 9.03385 8.29948 9.33333 8.66667 9.33333C9.03385 9.33333 9.33333 9.03385 9.33333 8.66667C9.33333 8.29948 9.03385 8 8.66667 8ZM10.6667 8.66667C10.6667 8.29948 10.9661 8 11.3333 8C11.7005 8 12 8.29948 12 8.66667C12 9.03385 11.7005 9.33333 11.3333 9.33333C10.9661 9.33333 10.6667 9.03385 10.6667 8.66667ZM14 8C13.6328 8 13.3333 8.29948 13.3333 8.66667C13.3333 9.03385 13.6328 9.33333 14 9.33333C14.3672 9.33333 14.6667 9.03385 14.6667 8.66667C14.6667 8.29948 14.3672 8 14 8ZM16 8.66667C16 8.29948 16.2995 8 16.6667 8C17.0339 8 17.3333 8.29948 17.3333 8.66667C17.3333 9.03385 17.0339 9.33333 16.6667 9.33333C16.2995 9.33333 16 9.03385 16 8.66667ZM19.3333 8C18.9661 8 18.6667 8.29948 18.6667 8.66667C18.6667 9.03385 18.9661 9.33333 19.3333 9.33333C19.7005 9.33333 20 9.03385 20 8.66667C20 8.29948 19.7005 8 19.3333 8ZM21.3333 8.61979C21.3594 8.27083 21.651 8 22 8C22.3672 8 22.6667 8.29948 22.6667 8.66667C22.6667 9.03385 22.3672 9.33333 22 9.33333H21.9531C21.6042 9.30729 21.3333 9.01562 21.3333 8.66667V8.61979ZM24.6667 8C24.2995 8 24 8.29948 24 8.66667C24 9.03385 24.2995 9.33333 24.6667 9.33333C25.0339 9.33333 25.3333 9.03385 25.3333 8.66667C25.3333 8.29948 25.0339 8 24.6667 8ZM12 11.3333C12 10.9661 12.2995 10.6667 12.6667 10.6667C13.0339 10.6667 13.3333 10.9661 13.3333 11.3333C13.3333 11.7005 13.0339 12 12.6667 12C12.2995 12 12 11.7005 12 11.3333ZM22 10.6667C21.6328 10.6667 21.3333 10.9661 21.3333 11.3333C21.3333 11.7005 21.6328 12 22 12C22.3672 12 22.6667 11.7005 22.6667 11.3333C22.6667 10.9661 22.3672 10.6667 22 10.6667ZM11.3333 14C11.3333 13.6328 11.6328 13.3333 12 13.3333C12.3672 13.3333 12.6667 13.6328 12.6667 14C12.6667 14.3672 12.3672 14.6667 12 14.6667C11.6328 14.6667 11.3333 14.3672 11.3333 14ZM22 13.3333C21.6328 13.3333 21.3333 13.6328 21.3333 14C21.3333 14.3672 21.6328 14.6667 22 14.6667C22.3672 14.6667 22.6667 14.3672 22.6667 14C22.6667 13.6328 22.3672 13.3333 22 13.3333ZM10.6667 16.6667C10.6667 16.2995 10.9661 16 11.3333 16C11.7005 16 12 16.2995 12 16.6667C12 17.0339 11.7005 17.3333 11.3333 17.3333C10.9661 17.3333 10.6667 17.0339 10.6667 16.6667ZM22 16C21.6328 16 21.3333 16.2995 21.3333 16.6667C21.3333 17.0339 21.6328 17.3333 22 17.3333C22.3672 17.3333 22.6667 17.0339 22.6667 16.6667C22.6667 16.2995 22.3672 16 22 16ZM10 19.3333C10 18.9661 10.2995 18.6667 10.6667 18.6667C11.0339 18.6667 11.3333 18.9661 11.3333 19.3333C11.3333 19.7005 11.0339 20 10.6667 20C10.2995 20 10 19.7005 10 19.3333ZM22 18.6667C21.6328 18.6667 21.3333 18.9661 21.3333 19.3333C21.3333 19.7005 21.6328 20 22 20C22.3672 20 22.6667 19.7005 22.6667 19.3333C22.6667 18.9661 22.3672 18.6667 22 18.6667ZM2.66667 22C2.66667 21.6328 2.96615 21.3333 3.33333 21.3333C3.70052 21.3333 4 21.6328 4 22C4 22.3672 3.70052 22.6667 3.33333 22.6667C2.96615 22.6667 2.66667 22.3672 2.66667 22ZM6 21.3333C5.63281 21.3333 5.33333 21.6328 5.33333 22C5.33333 22.3672 5.63281 22.6667 6 22.6667C6.36719 22.6667 6.66667 22.3672 6.66667 22C6.66667 21.6328 6.36719 21.3333 6 21.3333ZM8 22C8 21.6328 8.29948 21.3333 8.66667 21.3333C9.03385 21.3333 9.33333 21.6328 9.33333 22C9.33333 22.3672 9.03385 22.6667 8.66667 22.6667C8.29948 22.6667 8 22.3672 8 22ZM11.3333 21.3333C10.9661 21.3333 10.6667 21.6328 10.6667 22C10.6667 22.3672 10.9661 22.6667 11.3333 22.6667C11.7005 22.6667 12 22.3672 12 22C12 21.6328 11.7005 21.3333 11.3333 21.3333ZM13.3333 22C13.3333 21.6328 13.6328 21.3333 14 21.3333C14.3672 21.3333 14.6667 21.6328 14.6667 22C14.6667 22.3672 14.3672 22.6667 14 22.6667C13.6328 22.6667 13.3333 22.3672 13.3333 22ZM16.6667 21.3333C16.2995 21.3333 16 21.6328 16 22C16 22.3672 16.2995 22.6667 16.6667 22.6667C17.0339 22.6667 17.3333 22.3672 17.3333 22C17.3333 21.6328 17.0339 21.3333 16.6667 21.3333ZM18.6667 22C18.6667 21.6328 18.9661 21.3333 19.3333 21.3333C19.7005 21.3333 20 21.6328 20 22C20 22.3672 19.7005 22.6667 19.3333 22.6667C18.9661 22.6667 18.6667 22.3672 18.6667 22ZM22 21.3333C21.6328 21.3333 21.3333 21.6328 21.3333 22C21.3333 22.3672 21.6328 22.6667 22 22.6667C22.3672 22.6667 22.6667 22.3672 22.6667 22C22.6667 21.6328 22.3672 21.3333 22 21.3333ZM24 22C24 21.6328 24.2995 21.3333 24.6667 21.3333C25.0339 21.3333 25.3333 21.6328 25.3333 22C25.3333 22.3672 25.0339 22.6667 24.6667 22.6667C24.2995 22.6667 24 22.3672 24 22ZM27.3333 21.3333C26.9661 21.3333 26.6667 21.6328 26.6667 22C26.6667 22.3672 26.9661 22.6667 27.3333 22.6667C27.7005 22.6667 28 22.3672 28 22C28 21.6328 27.7005 21.3333 27.3333 21.3333ZM29.3333 22C29.3333 21.6328 29.6328 21.3333 30 21.3333C30.3672 21.3333 30.6667 21.6328 30.6667 22C30.6667 22.3672 30.3672 22.6667 30 22.6667C29.6328 22.6667 29.3333 22.3672 29.3333 22ZM32.6667 21.3333C32.2995 21.3333 32 21.6328 32 22C32 22.3672 32.2995 22.6667 32.6667 22.6667C33.0339 22.6667 33.3333 22.3672 33.3333 22C33.3333 21.6328 33.0339 21.3333 32.6667 21.3333ZM37.3333 22C37.3333 21.6328 37.6328 21.3333 38 21.3333C38.3672 21.3333 38.6667 21.6328 38.6667 22C38.6667 22.3672 38.3672 22.6667 38 22.6667C37.6328 22.6667 37.3333 22.3672 37.3333 22ZM40.6667 21.3333C40.2995 21.3333 40 21.6328 40 22C40 22.3672 40.2995 22.6667 40.6667 22.6667C41.0339 22.6667 41.3333 22.3672 41.3333 22C41.3333 21.6328 41.0339 21.3333 40.6667 21.3333ZM10 24.6667C10 24.2995 10.2995 24 10.6667 24C11.0339 24 11.3333 24.2995 11.3333 24.6667C11.3333 25.0339 11.0339 25.3333 10.6667 25.3333C10.2995 25.3333 10 25.0339 10 24.6667ZM22 24C21.6328 24 21.3333 24.2995 21.3333 24.6667C21.3333 25.0339 21.6328 25.3333 22 25.3333C22.3672 25.3333 22.6667 25.0339 22.6667 24.6667C22.6667 24.2995 22.3672 24 22 24ZM32.6667 24.6667C32.6667 24.2995 32.9661 24 33.3333 24C33.7005 24 34 24.2995 34 24.6667C34 25.0339 33.7005 25.3333 33.3333 25.3333C32.9661 25.3333 32.6667 25.0339 32.6667 24.6667ZM11.3333 26.6667C10.9661 26.6667 10.6667 26.9661 10.6667 27.3333C10.6667 27.7005 10.9661 28 11.3333 28C11.7005 28 12 27.7005 12 27.3333C12 26.9661 11.7005 26.6667 11.3333 26.6667ZM21.3333 27.3333C21.3333 26.9661 21.6328 26.6667 22 26.6667C22.3672 26.6667 22.6667 26.9661 22.6667 27.3333C22.6667 27.7005 22.3672 28 22 28C21.6328 28 21.3333 27.7005 21.3333 27.3333ZM32.6667 26.6667C32.2995 26.6667 32 26.9661 32 27.3333C32 27.7005 32.2995 28 32.6667 28C33.0339 28 33.3333 27.7005 33.3333 27.3333C33.3333 26.9661 33.0339 26.6667 32.6667 26.6667ZM11.3333 30C11.3333 29.6328 11.6328 29.3333 12 29.3333C12.3672 29.3333 12.6667 29.6328 12.6667 30C12.6667 30.3672 12.3672 30.6667 12 30.6667C11.6328 30.6667 11.3333 30.3672 11.3333 30ZM22 29.3333C21.6328 29.3333 21.3333 29.6328 21.3333 30C21.3333 30.3672 21.6328 30.6667 22 30.6667C22.3672 30.6667 22.6667 30.3672 22.6667 30C22.6667 29.6328 22.3672 29.3333 22 29.3333ZM31.3333 30C31.3333 29.6328 31.6328 29.3333 32 29.3333C32.3672 29.3333 32.6667 29.6328 32.6667 30C32.6667 30.3672 32.3672 30.6667 32 30.6667C31.6328 30.6667 31.3333 30.3672 31.3333 30ZM12.6667 32C12.2995 32 12 32.2995 12 32.6667C12 33.0339 12.2995 33.3333 12.6667 33.3333C13.0339 33.3333 13.3333 33.0339 13.3333 32.6667C13.3333 32.2995 13.0339 32 12.6667 32ZM21.3333 32.6667C21.3333 32.2995 21.6328 32 22 32C22.3672 32 22.6667 32.2995 22.6667 32.6667C22.6667 33.0339 22.3672 33.3333 22 33.3333C21.6328 33.3333 21.3333 33.0339 21.3333 32.6667ZM31.3333 32C30.9661 32 30.6667 32.2995 30.6667 32.6667C30.6667 33.0339 30.9661 33.3333 31.3333 33.3333C31.7005 33.3333 32 33.0339 32 32.6667C32 32.2995 31.7005 32 31.3333 32ZM8 35.3333C8 34.9661 8.29948 34.6667 8.66667 34.6667C9.03385 34.6667 9.33333 34.9661 9.33333 35.3333C9.33333 35.7005 9.03385 36 8.66667 36C8.29948 36 8 35.7005 8 35.3333ZM11.3333 34.6667C10.9661 34.6667 10.6667 34.9661 10.6667 35.3333C10.6667 35.7005 10.9661 36 11.3333 36C11.7005 36 12 35.7005 12 35.3333C12 34.9661 11.7005 34.6667 11.3333 34.6667ZM13.3333 35.3333C13.3333 34.9661 13.6328 34.6667 14 34.6667C14.3672 34.6667 14.6667 34.9661 14.6667 35.3333C14.6667 35.7005 14.3672 36 14 36C13.6328 36 13.3333 35.7005 13.3333 35.3333ZM16.6667 34.6667C16.2995 34.6667 16 34.9661 16 35.3333C16 35.7005 16.2995 36 16.6667 36C17.0339 36 17.3333 35.7005 17.3333 35.3333C17.3333 34.9661 17.0339 34.6667 16.6667 34.6667ZM18.6667 35.3333C18.6667 34.9661 18.9661 34.6667 19.3333 34.6667C19.7005 34.6667 20 34.9661 20 35.3333C20 35.7005 19.7005 36 19.3333 36C18.9661 36 18.6667 35.7005 18.6667 35.3333ZM22 34.6667C21.651 34.6667 21.3594 34.9375 21.3333 35.2865V35.3333C21.3333 35.6823 21.6042 35.974 21.9531 36H22C22.3672 36 22.6667 35.7005 22.6667 35.3333C22.6667 34.9661 22.3672 34.6667 22 34.6667ZM24 35.3333C24 34.9661 24.2995 34.6667 24.6667 34.6667C25.0339 34.6667 25.3333 34.9661 25.3333 35.3333C25.3333 35.7005 25.0339 36 24.6667 36C24.2995 36 24 35.7005 24 35.3333ZM27.3333 34.6667C26.9661 34.6667 26.6667 34.9661 26.6667 35.3333C26.6667 35.7005 26.9661 36 27.3333 36C27.7005 36 28 35.7005 28 35.3333C28 34.9661 27.7005 34.6667 27.3333 34.6667ZM29.3333 35.3333C29.3333 34.9661 29.6328 34.6667 30 34.6667C30.3672 34.6667 30.6667 34.9661 30.6667 35.3333C30.6667 35.7005 30.3672 36 30 36C29.6328 36 29.3333 35.7005 29.3333 35.3333ZM32.6667 34.6667C32.2995 34.6667 32 34.9661 32 35.3333C32 35.7005 32.2995 36 32.6667 36C33.0339 36 33.3333 35.7005 33.3333 35.3333C33.3333 34.9661 33.0339 34.6667 32.6667 34.6667ZM34.6667 35.3333C34.6667 34.9661 34.9661 34.6667 35.3333 34.6667C35.7005 34.6667 36 34.9661 36 35.3333C36 35.7005 35.7005 36 35.3333 36C34.9661 36 34.6667 35.7005 34.6667 35.3333ZM15.3333 37.3333C14.9661 37.3333 14.6667 37.6328 14.6667 38C14.6667 38.3672 14.9661 38.6667 15.3333 38.6667C15.7005 38.6667 16 38.3672 16 38C16 37.6328 15.7005 37.3333 15.3333 37.3333ZM21.3333 38C21.3333 37.6328 21.6328 37.3333 22 37.3333C22.3672 37.3333 22.6667 37.6328 22.6667 38C22.6667 38.3672 22.3672 38.6667 22 38.6667C21.6328 38.6667 21.3333 38.3672 21.3333 38ZM28.6667 37.3333C28.2995 37.3333 28 37.6328 28 38C28 38.3672 28.2995 38.6667 28.6667 38.6667C29.0339 38.6667 29.3333 38.3672 29.3333 38C29.3333 37.6328 29.0339 37.3333 28.6667 37.3333ZM16.6667 40C16.6667 39.6328 16.9661 39.3333 17.3333 39.3333C17.7005 39.3333 18 39.6328 18 40C18 40.3672 17.7005 40.6667 17.3333 40.6667C16.9661 40.6667 16.6667 40.3672 16.6667 40ZM26.6667 39.3333C26.2995 39.3333 26 39.6328 26 40C26 40.3672 26.2995 40.6667 26.6667 40.6667C27.0339 40.6667 27.3333 40.3672 27.3333 40C27.3333 39.6328 27.0339 39.3333 26.6667 39.3333ZM21.3333 40.6667C21.3333 40.2995 21.6328 40 22 40C22.3672 40 22.6667 40.2995 22.6667 40.6667C22.6667 41.0339 22.3672 41.3333 22 41.3333C21.6328 41.3333 21.3333 41.0339 21.3333 40.6667Z" fill="url(#paint0_linear_0_21068)"/>
</g>
<defs>
<linearGradient id="paint0_linear_0_21068" x1="0" y1="0" x2="52.6161" y2="16.4636" gradientUnits="userSpaceOnUse">
<stop stop-color="#00E0FF"/>
<stop offset="1" stop-color="#2DA1F8"/>
</linearGradient>
</defs>
</svg>
