<svg width="44" height="42" viewBox="0 0 44 42" fill="none" xmlns="http://www.w3.org/2000/svg">
<path id="icon-marketplace-loans" fill-rule="evenodd" clip-rule="evenodd" d="M34.6717 0C30.6375 0 27.3424 3.35005 27.3424 7.45161V7.48601C22.8839 7.83531 19.3467 11.6352 19.3467 16.2581C19.3467 21.1085 23.2378 25.0645 28.0087 25.0645C32.7795 25.0645 36.6706 21.1085 36.6706 16.2581C36.6706 15.7077 36.6134 15.1731 36.5171 14.6518C39.6664 13.8156 42.0011 10.9049 42.0011 7.45161C42.0011 3.35005 38.706 0 34.6717 0ZM34.6717 1.35484C37.985 1.35484 40.6685 4.08304 40.6685 7.45161C40.6685 10.291 38.7528 12.6672 36.1709 13.3473C35.9575 12.7254 35.6738 12.138 35.3354 11.5902C35.3354 11.5768 35.3361 11.564 35.3368 11.5516V11.5515V11.5515L35.3368 11.5512V11.5512V11.5511V11.5511V11.551L35.3375 11.5379L35.3377 11.5309L35.338 11.5161C35.338 11.2012 35.1246 10.9287 34.8253 10.8572C33.8493 9.58707 32.5427 8.59476 31.0357 8.02054C31.2257 7.89617 31.3402 7.68183 31.3402 7.45161C31.3402 7.0785 31.0409 6.77419 30.6739 6.77419C30.3069 6.77419 30.0076 7.0785 30.0076 7.45161C30.0076 7.54158 30.0258 7.63155 30.0597 7.71623C29.612 7.60244 29.1487 7.52306 28.675 7.48601V7.45161C28.675 4.08304 31.3584 1.35484 34.6717 1.35484ZM34.0054 3.3871C34.0054 3.01399 34.3047 2.70968 34.6717 2.70968C35.0387 2.70968 35.338 3.01399 35.338 3.3871C35.338 3.76021 35.0387 4.06452 34.6717 4.06452C34.3047 4.06452 34.0054 3.76021 34.0054 3.3871ZM31.8529 3.90045C31.6734 3.89781 31.5016 3.96925 31.374 4.09892C31.1138 4.36353 31.1138 4.79221 31.374 5.05683C31.6343 5.32145 32.056 5.32145 32.3162 5.05683C32.5765 4.79221 32.5765 4.36353 32.3162 4.09892C32.1939 3.97455 32.0273 3.9031 31.8529 3.90045ZM37.0272 4.09892C37.1548 3.96925 37.3291 3.89781 37.5087 3.9031C37.6805 3.9031 37.8471 3.97455 37.9694 4.09892C38.2297 4.36353 38.2297 4.79221 37.9694 5.05683C37.7091 5.32145 37.2875 5.32145 37.0272 5.05948C36.9023 4.92981 36.832 4.75781 36.832 4.57787C36.832 4.39793 36.9023 4.22593 37.0272 4.09892ZM38.6696 6.77419C38.3026 6.77419 38.0033 7.0785 38.0033 7.45161C38.0033 7.82472 38.3026 8.12903 38.6696 8.12903C39.0365 8.12903 39.3359 7.82472 39.3359 7.45161C39.3359 7.0785 39.0365 6.77419 38.6696 6.77419ZM35.338 16.2581C35.338 12.1433 32.056 8.80645 28.0087 8.80645C23.9614 8.80645 20.6793 12.1433 20.6793 16.2581C20.6793 20.3729 23.9614 23.7097 28.0087 23.7097C32.056 23.7097 35.338 20.3729 35.338 16.2581ZM37.5061 9.65058C37.3265 9.64529 37.1522 9.71673 37.0246 9.8464C36.7669 10.1137 36.7669 10.5423 37.0272 10.807C37.2875 11.0689 37.7091 11.0689 37.9694 10.807C38.2297 10.5423 38.2297 10.111 37.9694 9.8464C37.8471 9.72203 37.6805 9.65058 37.5061 9.65058ZM27.3424 10.8387C27.3424 10.4656 27.6417 10.1613 28.0087 10.1613C28.3757 10.1613 28.675 10.4656 28.675 10.8387C28.675 11.2118 28.3757 11.5161 28.0087 11.5161C27.6417 11.5161 27.3424 11.2118 27.3424 10.8387ZM25.3252 10.889C25.2159 10.889 25.1066 10.9207 25.0103 10.9763C24.6902 11.1642 24.5809 11.5796 24.7657 11.9025C24.9504 12.2253 25.3565 12.3391 25.6766 12.1512C25.8276 12.0612 25.9395 11.9131 25.9863 11.7384C26.0332 11.5664 26.0098 11.3812 25.9187 11.2251C25.7989 11.0107 25.5699 10.881 25.3252 10.889ZM30.0961 11.2277C30.2106 11.0266 30.4162 10.8996 30.6427 10.889C30.7702 10.8837 30.8951 10.9128 31.0071 10.979C31.3246 11.1668 31.4339 11.5796 31.2491 11.9051C31.0669 12.2279 30.6583 12.3391 30.3407 12.1512C30.1872 12.0639 30.0753 11.9157 30.0284 11.7411C29.9842 11.5664 30.0076 11.3812 30.0961 11.2277ZM32.6077 12.871C32.4958 12.8736 32.3865 12.9054 32.2902 12.9609C32.1367 13.0509 32.0247 13.1991 31.9805 13.3737C31.9336 13.5457 31.9571 13.731 32.0482 13.8871C32.2304 14.2099 32.639 14.3211 32.9565 14.1332C33.2741 13.948 33.386 13.5325 33.2012 13.2097C33.0788 12.9953 32.8524 12.8657 32.6077 12.871ZM22.8136 13.2097C22.9281 13.0112 23.1337 12.8842 23.3602 12.871C23.4877 12.8657 23.6152 12.8974 23.7246 12.9636C24.0421 13.1488 24.154 13.5643 23.9692 13.8871C23.8807 14.0432 23.735 14.157 23.5632 14.2046C23.394 14.2496 23.2118 14.2258 23.0582 14.1358C22.9047 14.0459 22.7928 13.8977 22.7485 13.723C22.7017 13.551 22.7251 13.3658 22.8136 13.2097ZM22.6782 15.5806C22.3113 15.5806 22.0119 15.885 22.0119 16.2581C22.0119 16.6312 22.3113 16.9355 22.6782 16.9355C23.0452 16.9355 23.3445 16.6312 23.3445 16.2581C23.3445 15.885 23.0452 15.5806 22.6782 15.5806ZM32.6728 16.2581C32.6728 15.885 32.9721 15.5806 33.3391 15.5806C33.7061 15.5806 34.0054 15.885 34.0054 16.2581C34.0054 16.6312 33.7061 16.9355 33.3391 16.9355C32.9721 16.9355 32.6728 16.6312 32.6728 16.2581ZM23.3758 18.2903C23.2639 18.293 23.1545 18.3247 23.0582 18.3803C22.9047 18.4703 22.7928 18.6184 22.7485 18.7931C22.7017 18.9651 22.7251 19.1503 22.8136 19.3065C22.9984 19.6293 23.407 19.7404 23.7246 19.5525C24.0421 19.3673 24.154 18.9519 23.9692 18.629C23.8469 18.4147 23.6204 18.285 23.3758 18.2903ZM32.0482 18.629C32.1601 18.4306 32.3657 18.3036 32.5921 18.293C32.7197 18.2877 32.8472 18.3168 32.9565 18.3829C33.2767 18.5708 33.386 18.9836 33.2012 19.3064C33.0164 19.6319 32.6104 19.7431 32.2902 19.5552C31.9727 19.3673 31.8634 18.9545 32.0482 18.629ZM30.6557 20.2723C30.5464 20.275 30.4371 20.3067 30.3407 20.3649C30.1872 20.4522 30.0753 20.6004 30.0284 20.7751C29.9842 20.9497 30.0076 21.135 30.0961 21.2884C30.2809 21.6139 30.6869 21.7251 31.0071 21.5372C31.3246 21.3493 31.4339 20.9365 31.2491 20.611C31.1294 20.3967 30.9003 20.267 30.6557 20.2723ZM24.7657 20.6137C24.8776 20.4125 25.0832 20.2855 25.3122 20.275C25.4372 20.2697 25.5647 20.2988 25.6766 20.3649C25.8276 20.4549 25.9395 20.6031 25.9863 20.7777C26.0332 20.9497 26.0098 21.135 25.9187 21.2911C25.8328 21.4472 25.687 21.561 25.5152 21.606C25.3435 21.6536 25.1613 21.6298 25.0103 21.5398C24.6902 21.3519 24.5809 20.9365 24.7657 20.6137ZM10.6848 21C10.0315 21 9.4068 21.127 8.83159 21.3466C8.82518 21.3475 8.82321 21.3468 8.82136 21.3461C8.81718 21.3447 8.81357 21.3434 8.76132 21.3599L8.77954 21.3546C7.33761 21.7991 0.513194 23.7335 0.513194 23.7335C0.27374 23.7917 0.086342 23.9769 0.0238759 24.2151C-0.0411928 24.4559 0.0290817 24.7126 0.206069 24.8846C0.380453 25.0539 0.635523 25.1148 0.867168 25.0407C0.867168 25.0407 7.54063 23.1513 9.1205 22.6644C9.16735 22.6565 9.2142 22.6459 9.25845 22.6274C9.70612 22.4527 10.1824 22.3548 10.6848 22.3548C11.4161 22.3548 12.0954 22.5559 12.6863 22.9052C12.7061 22.9187 12.7278 22.9283 12.7483 22.9374L12.7483 22.9374L12.7591 22.9423L12.7748 22.9502C16.8808 24.9223 25.1297 29.1168 25.5095 29.3125C25.5166 29.3173 25.5293 29.3257 25.5484 29.3382L25.5725 29.354C25.5881 29.3645 25.6037 29.3751 25.6168 29.3831C26.2492 29.7297 26.6761 30.386 26.6761 31.1613C26.6761 31.5688 26.5589 31.9393 26.3559 32.2595C25.7703 33.1856 24.6355 33.3814 23.5762 32.8628C23.5632 32.8575 23.5502 32.8522 23.5398 32.8443L23.0843 32.6564C22.863 32.5558 22.6028 32.5876 22.4102 32.7384C22.2176 32.8866 22.1187 33.1327 22.1551 33.3761C22.1889 33.6196 22.3529 33.826 22.5819 33.9133L23.0348 34.1012L22.9984 34.0827C24.3388 34.7389 25.9759 34.5907 27.0222 33.5534L27.7484 34.0588C27.9332 34.1885 28.1727 34.2123 28.3809 34.125L39.3124 29.5312L39.0339 28.9676C39.1927 29.2878 39.5675 29.428 39.8903 29.2878C40.1297 29.1846 40.39 29.129 40.6685 29.129C41.7799 29.129 42.6674 30.0314 42.6674 31.1613C42.6674 31.934 42.2431 32.5876 41.6185 32.9369C41.3186 33.1024 41.1908 33.4768 41.3293 33.7982L41.0823 33.2332L27.9548 40.3177C27.9557 40.3171 27.9547 40.3173 27.9522 40.3181C27.9468 40.3199 27.934 40.3247 27.9176 40.3303C27.8864 40.3409 27.8551 40.3514 27.8265 40.3673C27.4673 40.542 27.0847 40.6452 26.6761 40.6452C26.2831 40.6452 25.9135 40.5525 25.5699 40.3911L25.5655 40.3896L25.5541 40.3851L25.5403 40.3793C25.5345 40.3769 25.5288 40.3746 25.5231 40.3726L25.5014 40.3643L25.4899 40.3598C25.4827 40.357 25.4791 40.3556 25.479 40.3558L25.4805 40.3568L25.4898 40.362L25.4996 40.3673L8.94612 33.2465C8.79516 33.183 8.62858 33.175 8.47502 33.2279L0.479358 35.9376C0.130589 36.0567 -0.0594122 36.4404 0.0577115 36.795C0.174836 37.1496 0.552235 37.3427 0.901004 37.2237L8.65721 34.5934L24.9635 41.6057C25.065 41.6534 25.0858 41.6534 25.0624 41.6428C25.5491 41.865 26.0957 42 26.6761 42C27.3033 42 27.889 41.8412 28.4043 41.5872L28.4175 41.5829L28.4318 41.5784C28.4613 41.5692 28.4915 41.5598 28.5292 41.5396C28.5347 41.5377 28.5401 41.5346 28.5447 41.532L28.5501 41.529L42.2536 34.1356C42.3655 34.0747 42.4566 33.9848 42.519 33.8736C43.3779 33.265 44 32.3097 44 31.1613C44 29.2984 42.5008 27.7742 40.6685 27.7742C40.3041 27.7742 39.9657 27.8747 39.6378 27.9859H39.6352C39.5467 27.9859 39.4582 28.0018 39.3775 28.0388L28.2039 32.7331L27.6547 32.3547C27.6841 32.2807 27.7153 32.2073 27.7464 32.134C27.8777 31.8247 28.0087 31.5164 28.0087 31.1613C28.0087 29.8965 27.3113 28.7955 26.3004 28.2183C26.2911 28.2081 26.2439 28.1723 26.1555 28.1235C26.1503 28.1208 26.1451 28.1182 26.1373 28.1155C26.1373 28.1155 17.5664 23.7494 13.3292 21.7171C13.3239 21.7145 13.3187 21.7118 13.3161 21.7092C13.2922 21.6991 13.2753 21.6922 13.2645 21.6879C12.5004 21.2556 11.6224 21 10.6848 21ZM27.3424 21.6774C27.3424 21.3043 27.6417 21 28.0087 21C28.3757 21 28.675 21.3043 28.675 21.6774C28.675 22.0505 28.3757 22.3548 28.0087 22.3548C27.6417 22.3548 27.3424 22.0505 27.3424 21.6774ZM14.6826 29.8065C14.3156 29.8065 14.0163 30.1108 14.0163 30.4839C14.0163 30.857 14.3156 31.1613 14.6826 31.1613C15.0496 31.1613 15.3489 30.857 15.3489 30.4839C15.3489 30.1108 15.0496 29.8065 14.6826 29.8065ZM16.0152 31.1613C16.0152 30.7882 16.3145 30.4839 16.6815 30.4839C17.0485 30.4839 17.3478 30.7882 17.3478 31.1613C17.3478 31.5344 17.0485 31.8387 16.6815 31.8387C16.3145 31.8387 16.0152 31.5344 16.0152 31.1613ZM18.6804 31.1613C18.3134 31.1613 18.0141 31.4656 18.0141 31.8387C18.0141 32.2118 18.3134 32.5161 18.6804 32.5161C19.0474 32.5161 19.3467 32.2118 19.3467 31.8387C19.3467 31.4656 19.0474 31.1613 18.6804 31.1613ZM20.013 32.5161C20.013 32.143 20.3123 31.8387 20.6793 31.8387C21.0463 31.8387 21.3456 32.143 21.3456 32.5161C21.3456 32.8892 21.0463 33.1935 20.6793 33.1935C20.3123 33.1935 20.013 32.8892 20.013 32.5161Z" fill="url(#paint0_linear_0_21231)"/>
<defs>
<linearGradient id="paint0_linear_0_21231" x1="0" y1="0" x2="52.1626" y2="17.0989" gradientUnits="userSpaceOnUse">
<stop stop-color="#00E0FF"/>
<stop offset="1" stop-color="#2DA1F8"/>
</linearGradient>
</defs>
</svg>
