<svg xmlns="http://www.w3.org/2000/svg" width="70" height="70" viewBox="0 0 70 70">
    <defs>
        <linearGradient id="a" x1="50%" x2="41.849%" y1="97.784%" y2="-16.397%">
            <stop offset="0%" stop-color="#08BCCD"/>
            <stop offset="100%" stop-color="#2DA1F8"/>
        </linearGradient>
    </defs>
    <path fill="url(#a)" fill-rule="nonzero" d="M5 0C2.25 0 0 2.25 0 5v49h38c0 8.824 7.176 16 16 16s16-7.176 16-16c0-6.703-4.145-12.445-10-14.824V5c0-2.75-2.25-5-5-5H5zm0 2h50c1.668 0 3 1.332 3 3v3c-.55 0-1 .45-1 1s.45 1 1 1v28.527A15.907 15.907 0 0 0 54 38c-8.145 0-14.871 6.117-15.86 14H2V10c.55 0 1-.45 1-1s-.45-1-1-1V5c0-1.668 1.332-3 3-3zm1 6c-.55 0-1 .45-1 1s.45 1 1 1 1-.45 1-1-.45-1-1-1zm4 0c-.55 0-1 .45-1 1s.45 1 1 1 1-.45 1-1-.45-1-1-1zm4 0c-.55 0-1 .45-1 1s.45 1 1 1 1-.45 1-1-.45-1-1-1zm4 0c-.55 0-1 .45-1 1s.45 1 1 1 1-.45 1-1-.45-1-1-1zm4 0c-.55 0-1 .45-1 1s.45 1 1 1 1-.45 1-1-.45-1-1-1zm4 0c-.55 0-1 .45-1 1s.45 1 1 1 1-.45 1-1-.45-1-1-1zm4 0c-.55 0-1 .45-1 1s.45 1 1 1 1-.45 1-1-.45-1-1-1zm4 0c-.55 0-1 .45-1 1s.45 1 1 1 1-.45 1-1-.45-1-1-1zm4 0c-.55 0-1 .45-1 1s.45 1 1 1 1-.45 1-1-.45-1-1-1zm4 0c-.55 0-1 .45-1 1s.45 1 1 1 1-.45 1-1-.45-1-1-1zm4 0c-.55 0-1 .45-1 1s.45 1 1 1 1-.45 1-1-.45-1-1-1zm4 0c-.55 0-1 .45-1 1s.45 1 1 1 1-.45 1-1-.45-1-1-1zm4 0c-.55 0-1 .45-1 1s.45 1 1 1 1-.45 1-1-.45-1-1-1zM13 19a1.999 1.999 0 1 0 0 4 1.999 1.999 0 1 0 0-4zm5 1v2h29v-2H18zm-5 7a1.999 1.999 0 1 0 0 4 1.999 1.999 0 1 0 0-4zm5 1v2h29v-2H18zm-5 7a1.999 1.999 0 1 0 0 4 1.999 1.999 0 1 0 0-4zm5 1v2h29v-2H18zm36 4c7.742 0 14 6.258 14 14s-6.258 14-14 14-14-6.258-14-14 6.258-14 14-14zm-1 7v6h-6v2h6v6h2v-6h6v-2h-6v-6h-2z"/>
</svg>
