<?xml version="1.0" encoding="UTF-8"?>
<svg width="31px" height="36px" viewBox="0 0 31 36" version="1.1" xmlns="http://www.w3.org/2000/svg" xmlns:xlink="http://www.w3.org/1999/xlink">
    <!-- Generator: Sketch 48.2 (47327) - http://www.bohemiancoding.com/sketch -->
    <title>icons8-appointment_reminders</title>
    <desc>Created with Sketch.</desc>
    <defs>
        <linearGradient x1="50%" y1="0%" x2="50%" y2="100%" id="linearGradient-1">
            <stop stop-color="#78E4D3" offset="0%"></stop>
            <stop stop-color="#43C4A7" offset="100%"></stop>
        </linearGradient>
    </defs>
    <g id="33-SelfKey-Home-+-Null" stroke="none" stroke-width="1"  transform="translate(-182.000000, -885.000000)">
        <g id="icons8-appointment_reminders" transform="translate(182.000000, 885.000000)">
            <path d="M15.1304348,0 C13.9830162,0 13.0434783,0.939537913 13.0434783,2.08695652 L13.0434783,2.85326087 C9.43206522,3.67663043 6.59307078,6.5828807 5.90217391,10.2839677 C5.16440243,10.6793478 4.59171183,11.3600546 4.49796209,12.2425273 L2.89198383,27.0896739 C2.76154904,28.3043478 1.7425273,29.2173913 0.52173913,29.2173913 L0,29.2173913 L0,32.3478261 L11.4782609,32.3478261 C11.4782609,34.3593751 13.1188857,36 15.1304348,36 C17.1419838,36 18.7826087,34.3593751 18.7826087,32.3478261 L30.2608696,32.3478261 L30.2608696,29.2173913 L29.7391304,29.2173913 C28.5183423,29.2173913 27.4993205,28.3043478 27.3688857,27.0896739 L25.7629075,12.2425273 C25.6691577,11.3600546 25.0964677,10.6793478 24.3586957,10.2839677 C23.6677988,6.5828807 20.8288043,3.67663043 17.2173913,2.85326087 L17.2173913,2.08695652 C17.2173913,0.939537913 16.2778534,0 15.1304348,0 Z M15.1304348,1.04347826 C15.7133155,1.04347826 16.173913,1.50407635 16.173913,2.08695652 L16.173913,2.67391304 C15.8315217,2.63519009 15.4830162,2.60869565 15.1304348,2.60869565 C14.7778534,2.60869565 14.4293478,2.63519009 14.0869565,2.67391304 L14.0869565,2.08695652 C14.0869565,1.50407635 14.5475546,1.04347826 15.1304348,1.04347826 Z M15.1304348,3.65217391 C19.2656249,3.65217391 22.726223,6.65625026 23.3804348,10.6528534 L23.4313857,10.9504075 L23.7146739,11.0563857 C24.2567937,11.2581522 24.6603261,11.7472826 24.7255435,12.3525814 L26.3315217,27.2017664 C26.349864,27.3688857 26.3845111,27.5278534 26.4273099,27.6847826 C26.2214677,27.7622285 26.0869565,27.9558423 26.0869565,28.173913 C26.0869565,28.461277 26.3213317,28.6956522 26.6086957,28.6956522 C26.6922553,28.6956522 26.7758155,28.675272 26.851223,28.636549 C27.375,29.4415763 28.2309783,30.0040763 29.2173913,30.1630435 L29.2173913,31.3043478 L1.04347826,31.3043478 L1.04347826,30.1630435 C2.0298913,30.0040763 2.88586957,29.4415763 3.40964661,28.636549 C3.48505461,28.675272 3.56861426,28.6956522 3.65217391,28.6956522 C3.93953791,28.6956522 4.17391304,28.461277 4.17391304,28.173913 C4.17391304,27.9558423 4.03940243,27.7622285 3.83355965,27.6847826 C3.87635896,27.5278534 3.91100557,27.3688857 3.92934783,27.2017664 L5.53532609,12.3525814 C5.60054348,11.7472826 6.00407635,11.2581522 6.54619565,11.0563857 L6.82948383,10.9504075 L6.88043478,10.6528534 C7.53464661,6.65625026 10.9952447,3.65217391 15.1304348,3.65217391 Z M7.82608696,9.91304348 C7.53872296,9.91304348 7.30434783,10.1474186 7.30434783,10.4347826 C7.30434783,10.7221466 7.53872296,10.9565217 7.82608696,10.9565217 C8.11345096,10.9565217 8.34782609,10.7221466 8.34782609,10.4347826 C8.34782609,10.1474186 8.11345096,9.91304348 7.82608696,9.91304348 Z M9.91304348,9.91304348 C9.62567948,9.91304348 9.39130435,10.1474186 9.39130435,10.4347826 C9.39130435,10.7221466 9.62567948,10.9565217 9.91304348,10.9565217 C10.2004075,10.9565217 10.4347826,10.7221466 10.4347826,10.4347826 C10.4347826,10.1474186 10.2004075,9.91304348 9.91304348,9.91304348 Z M12,9.91304348 C11.712636,9.91304348 11.4782609,10.1474186 11.4782609,10.4347826 C11.4782609,10.7221466 11.712636,10.9565217 12,10.9565217 C12.287364,10.9565217 12.5217391,10.7221466 12.5217391,10.4347826 C12.5217391,10.1474186 12.287364,9.91304348 12,9.91304348 Z M14.0869565,9.91304348 C13.7995925,9.91304348 13.5652174,10.1474186 13.5652174,10.4347826 C13.5652174,10.7221466 13.7995925,10.9565217 14.0869565,10.9565217 C14.3743205,10.9565217 14.6086957,10.7221466 14.6086957,10.4347826 C14.6086957,10.1474186 14.3743205,9.91304348 14.0869565,9.91304348 Z M16.173913,9.91304348 C15.886549,9.91304348 15.6521739,10.1474186 15.6521739,10.4347826 C15.6521739,10.7221466 15.886549,10.9565217 16.173913,10.9565217 C16.461277,10.9565217 16.6956522,10.7221466 16.6956522,10.4347826 C16.6956522,10.1474186 16.461277,9.91304348 16.173913,9.91304348 Z M18.2608696,9.91304348 C17.9735056,9.91304348 17.7391304,10.1474186 17.7391304,10.4347826 C17.7391304,10.7221466 17.9735056,10.9565217 18.2608696,10.9565217 C18.5482336,10.9565217 18.7826087,10.7221466 18.7826087,10.4347826 C18.7826087,10.1474186 18.5482336,9.91304348 18.2608696,9.91304348 Z M20.3478261,9.91304348 C20.0604621,9.91304348 19.826087,10.1474186 19.826087,10.4347826 C19.826087,10.7221466 20.0604621,10.9565217 20.3478261,10.9565217 C20.6351901,10.9565217 20.8695652,10.7221466 20.8695652,10.4347826 C20.8695652,10.1474186 20.6351901,9.91304348 20.3478261,9.91304348 Z M22.4347826,9.91304348 C22.1474186,9.91304348 21.9130435,10.1474186 21.9130435,10.4347826 C21.9130435,10.7221466 22.1474186,10.9565217 22.4347826,10.9565217 C22.7221466,10.9565217 22.9565217,10.7221466 22.9565217,10.4347826 C22.9565217,10.1474186 22.7221466,9.91304348 22.4347826,9.91304348 Z M5.73913043,27.6521739 C5.45176643,27.6521739 5.2173913,27.886549 5.2173913,28.173913 C5.2173913,28.461277 5.45176643,28.6956522 5.73913043,28.6956522 C6.02649443,28.6956522 6.26086957,28.461277 6.26086957,28.173913 C6.26086957,27.886549 6.02649443,27.6521739 5.73913043,27.6521739 Z M7.82608696,27.6521739 C7.53872296,27.6521739 7.30434783,27.886549 7.30434783,28.173913 C7.30434783,28.461277 7.53872296,28.6956522 7.82608696,28.6956522 C8.11345096,28.6956522 8.34782609,28.461277 8.34782609,28.173913 C8.34782609,27.886549 8.11345096,27.6521739 7.82608696,27.6521739 Z M9.91304348,27.6521739 C9.62567948,27.6521739 9.39130435,27.886549 9.39130435,28.173913 C9.39130435,28.461277 9.62567948,28.6956522 9.91304348,28.6956522 C10.2004075,28.6956522 10.4347826,28.461277 10.4347826,28.173913 C10.4347826,27.886549 10.2004075,27.6521739 9.91304348,27.6521739 Z M12,27.6521739 C11.712636,27.6521739 11.4782609,27.886549 11.4782609,28.173913 C11.4782609,28.461277 11.712636,28.6956522 12,28.6956522 C12.287364,28.6956522 12.5217391,28.461277 12.5217391,28.173913 C12.5217391,27.886549 12.287364,27.6521739 12,27.6521739 Z M14.0869565,27.6521739 C13.7995925,27.6521739 13.5652174,27.886549 13.5652174,28.173913 C13.5652174,28.461277 13.7995925,28.6956522 14.0869565,28.6956522 C14.3743205,28.6956522 14.6086957,28.461277 14.6086957,28.173913 C14.6086957,27.886549 14.3743205,27.6521739 14.0869565,27.6521739 Z M16.173913,27.6521739 C15.886549,27.6521739 15.6521739,27.886549 15.6521739,28.173913 C15.6521739,28.461277 15.886549,28.6956522 16.173913,28.6956522 C16.461277,28.6956522 16.6956522,28.461277 16.6956522,28.173913 C16.6956522,27.886549 16.461277,27.6521739 16.173913,27.6521739 Z M18.2608696,27.6521739 C17.9735056,27.6521739 17.7391304,27.886549 17.7391304,28.173913 C17.7391304,28.461277 17.9735056,28.6956522 18.2608696,28.6956522 C18.5482336,28.6956522 18.7826087,28.461277 18.7826087,28.173913 C18.7826087,27.886549 18.5482336,27.6521739 18.2608696,27.6521739 Z M20.3478261,27.6521739 C20.0604621,27.6521739 19.826087,27.886549 19.826087,28.173913 C19.826087,28.461277 20.0604621,28.6956522 20.3478261,28.6956522 C20.6351901,28.6956522 20.8695652,28.461277 20.8695652,28.173913 C20.8695652,27.886549 20.6351901,27.6521739 20.3478261,27.6521739 Z M22.4347826,27.6521739 C22.1474186,27.6521739 21.9130435,27.886549 21.9130435,28.173913 C21.9130435,28.461277 22.1474186,28.6956522 22.4347826,28.6956522 C22.7221466,28.6956522 22.9565217,28.461277 22.9565217,28.173913 C22.9565217,27.886549 22.7221466,27.6521739 22.4347826,27.6521739 Z M24.5217391,27.6521739 C24.2343751,27.6521739 24,27.886549 24,28.173913 C24,28.461277 24.2343751,28.6956522 24.5217391,28.6956522 C24.8091031,28.6956522 25.0434783,28.461277 25.0434783,28.173913 C25.0434783,27.886549 24.8091031,27.6521739 24.5217391,27.6521739 Z M12.5217391,32.3478261 L17.7391304,32.3478261 C17.7391304,33.7948372 16.5774459,34.9565217 15.1304348,34.9565217 C13.6834242,34.9565217 12.5217391,33.7948372 12.5217391,32.3478261 Z" id="Shape"></path>
        </g>
    </g>
</svg>