<?xml version="1.0" encoding="UTF-8"?>
<svg width="64px" height="63px" viewBox="0 0 64 63" version="1.1" xmlns="http://www.w3.org/2000/svg" xmlns:xlink="http://www.w3.org/1999/xlink">
    <!-- Generator: Sketch 48.2 (47327) - http://www.bohemiancoding.com/sketch -->
    <title>icons8-currency</title>
    <desc>Created with Sketch.</desc>
    <defs>
        <linearGradient x1="50%" y1="97.783801%" x2="41.8489583%" y2="-16.3970588%" id="linearGradient-1">
            <stop stop-color="#08BCCD" offset="0%"></stop>
            <stop stop-color="#2DA1F8" offset="100%"></stop>
        </linearGradient>
    </defs>
    <g id="34-Dash-+-Add-Custom-Token-+-Input-Values" stroke="none" stroke-width="1" fill="none" fill-rule="evenodd" transform="translate(-688.000000, -132.000000)">
        <g id="icons8-currency" transform="translate(688.000000, 132.000000)" fill="url(#linearGradient-1)" fill-rule="nonzero">
            <path d="M2.707031,0.292969 L1.292969,1.707031 L10.808594,11.222656 C5.96875,16.40625 3,23.355469 3,31 C3,38.644531 5.96875,45.59375 10.808594,50.777344 L1.292969,60.292969 L2.707031,61.707031 L12.222656,52.191406 C17.40625,57.03125 24.355469,60 32,60 C39.644531,60 46.59375,57.03125 51.777344,52.191406 L61.292969,61.707031 L62.707031,60.292969 L53.191406,50.777344 C58.03125,45.59375 61,38.644531 61,31 C61,23.355469 58.03125,16.40625 53.191406,11.222656 L62.707031,1.707031 L61.292969,0.292969 L51.777344,9.808594 C46.59375,4.96875 39.644531,2 32,2 C24.355469,2 17.40625,4.96875 12.222656,9.808594 L2.707031,0.292969 Z M1,4 C0.449219,4 0,4.449219 0,5 C0,5.550781 0.449219,6 1,6 C1.550781,6 2,5.550781 2,5 C2,4.449219 1.550781,4 1,4 Z M32,4 C46.921875,4 59,16.078125 59,31 C59,45.921875 46.921875,58 32,58 C17.078125,58 5,45.921875 5,31 C5,16.078125 17.078125,4 32,4 Z M63,4 C62.449219,4 62,4.449219 62,5 C62,5.550781 62.449219,6 63,6 C63.550781,6 64,5.550781 64,5 C64,4.449219 63.550781,4 63,4 Z M4,7 C3.449219,7 3,7.449219 3,8 C3,8.550781 3.449219,9 4,9 C4.550781,9 5,8.550781 5,8 C5,7.449219 4.550781,7 4,7 Z M32,7 C31.449219,7 31,7.449219 31,8 C31,8.550781 31.449219,9 32,9 C32.550781,9 33,8.550781 33,8 C33,7.449219 32.550781,7 32,7 Z M60,7 C59.449219,7 59,7.449219 59,8 C59,8.550781 59.449219,9 60,9 C60.550781,9 61,8.550781 61,8 C61,7.449219 60.550781,7 60,7 Z M27.515625,7.441406 C27.449219,7.441406 27.382813,7.449219 27.316406,7.460938 C26.777344,7.570313 26.425781,8.09375 26.53125,8.636719 C26.640625,9.179688 27.167969,9.53125 27.707031,9.421875 C28.25,9.3125 28.601563,8.789063 28.496094,8.246094 C28.402344,7.78125 27.992188,7.445313 27.515625,7.441406 Z M36.511719,7.441406 C36.023438,7.429688 35.601563,7.769531 35.503906,8.246094 C35.398438,8.789063 35.75,9.3125 36.292969,9.421875 C36.550781,9.472656 36.820313,9.421875 37.042969,9.273438 C37.261719,9.125 37.417969,8.898438 37.46875,8.636719 C37.519531,8.375 37.464844,8.105469 37.320313,7.886719 C37.171875,7.664063 36.941406,7.511719 36.683594,7.460938 C36.625,7.449219 36.570313,7.441406 36.511719,7.441406 Z M23.203125,8.75 C23.070313,8.75 22.941406,8.773438 22.816406,8.828125 C22.304688,9.039063 22.0625,9.621094 22.277344,10.132813 C22.488281,10.640625 23.070313,10.882813 23.578125,10.671875 C23.824219,10.574219 24.019531,10.378906 24.121094,10.132813 C24.222656,9.886719 24.222656,9.613281 24.125,9.367188 C23.96875,8.996094 23.605469,8.753906 23.203125,8.75 Z M40.824219,8.75 C40.410156,8.742188 40.035156,8.984375 39.875,9.367188 C39.664063,9.878906 39.90625,10.460938 40.417969,10.671875 C40.929688,10.886719 41.511719,10.644531 41.722656,10.132813 C41.9375,9.621094 41.695313,9.039063 41.183594,8.828125 C41.070313,8.777344 40.945313,8.753906 40.824219,8.75 Z M7,10 C6.449219,10 6,10.449219 6,11 C6,11.550781 6.449219,12 7,12 C7.550781,12 8,11.550781 8,11 C8,10.449219 7.550781,10 7,10 Z M57,10 C56.449219,10 56,10.449219 56,11 C56,11.550781 56.449219,12 57,12 C57.550781,12 58,11.550781 58,11 C58,10.449219 57.550781,10 57,10 Z M19.234375,10.875 C19.03125,10.871094 18.832031,10.929688 18.667969,11.042969 C18.207031,11.351563 18.082031,11.96875 18.390625,12.429688 C18.695313,12.890625 19.316406,13.011719 19.777344,12.707031 C20,12.558594 20.152344,12.332031 20.203125,12.070313 C20.253906,11.808594 20.199219,11.539063 20.050781,11.316406 C19.871094,11.042969 19.5625,10.878906 19.234375,10.875 Z M44.796875,10.875 C44.453125,10.867188 44.132813,11.035156 43.945313,11.316406 C43.636719,11.777344 43.761719,12.398438 44.21875,12.703125 C44.441406,12.851563 44.710938,12.90625 44.972656,12.855469 C45.234375,12.804688 45.460938,12.652344 45.609375,12.429688 C45.914063,11.96875 45.792969,11.347656 45.332031,11.042969 C45.171875,10.9375 44.988281,10.878906 44.796875,10.875 Z M15.75,13.734375 C15.480469,13.734375 15.21875,13.839844 15.03125,14.03125 C14.640625,14.417969 14.640625,15.054688 15.03125,15.441406 C15.417969,15.832031 16.054688,15.832031 16.441406,15.441406 C16.832031,15.054688 16.832031,14.417969 16.441406,14.03125 C16.257813,13.84375 16.011719,13.738281 15.75,13.734375 Z M48.277344,13.734375 C48.007813,13.734375 47.746094,13.839844 47.558594,14.03125 C47.167969,14.417969 47.167969,15.054688 47.558594,15.441406 C47.945313,15.832031 48.582031,15.832031 48.96875,15.441406 C49.359375,15.054688 49.359375,14.417969 48.96875,14.03125 C48.785156,13.84375 48.539063,13.738281 48.277344,13.734375 Z M51.136719,17.21875 C50.933594,17.21875 50.734375,17.277344 50.566406,17.390625 C50.109375,17.695313 49.984375,18.316406 50.292969,18.777344 C50.601563,19.234375 51.21875,19.359375 51.679688,19.050781 C52.136719,18.742188 52.261719,18.125 51.953125,17.664063 C51.773438,17.390625 51.464844,17.222656 51.136719,17.21875 Z M12.894531,17.21875 C12.554688,17.214844 12.234375,17.382813 12.046875,17.667969 C11.738281,18.125 11.863281,18.746094 12.320313,19.050781 C12.78125,19.359375 13.402344,19.234375 13.707031,18.777344 C14.015625,18.316406 13.890625,17.695313 13.433594,17.390625 C13.273438,17.28125 13.085938,17.222656 12.894531,17.21875 Z M10.773438,21.199219 C10.359375,21.1875 9.984375,21.433594 9.828125,21.8125 C9.617188,22.324219 9.859375,22.910156 10.371094,23.121094 C10.878906,23.332031 11.464844,23.089844 11.675781,22.578125 C11.886719,22.070313 11.644531,21.484375 11.136719,21.273438 C11.019531,21.226563 10.898438,21.199219 10.773438,21.199219 Z M53.257813,21.199219 C53.125,21.195313 52.992188,21.222656 52.867188,21.273438 C52.355469,21.484375 52.113281,22.070313 52.328125,22.578125 C52.539063,23.089844 53.121094,23.332031 53.632813,23.121094 C54.144531,22.910156 54.386719,22.324219 54.171875,21.8125 C54.019531,21.445313 53.660156,21.199219 53.257813,21.199219 Z M9.46875,25.515625 C8.980469,25.5 8.554688,25.839844 8.460938,26.316406 C8.351563,26.859375 8.703125,27.386719 9.246094,27.496094 C9.789063,27.601563 10.3125,27.25 10.421875,26.707031 C10.472656,26.449219 10.421875,26.179688 10.273438,25.957031 C10.125,25.738281 9.898438,25.582031 9.636719,25.53125 C9.582031,25.519531 9.523438,25.515625 9.46875,25.515625 Z M54.5625,25.515625 C54.496094,25.511719 54.429688,25.519531 54.363281,25.53125 C54.105469,25.582031 53.875,25.734375 53.726563,25.957031 C53.582031,26.175781 53.527344,26.445313 53.578125,26.707031 C53.628906,26.96875 53.78125,27.195313 54.003906,27.34375 C54.222656,27.492188 54.492188,27.546875 54.753906,27.496094 C55.015625,27.441406 55.242188,27.289063 55.390625,27.070313 C55.539063,26.847656 55.59375,26.578125 55.542969,26.316406 C55.449219,25.851563 55.039063,25.515625 54.5625,25.515625 Z M9,30 C8.449219,30 8,30.449219 8,31 C8,31.550781 8.449219,32 9,32 C9.550781,32 10,31.550781 10,31 C10,30.449219 9.550781,30 9,30 Z M55,30 C54.449219,30 54,30.449219 54,31 C54,31.550781 54.449219,32 55,32 C55.550781,32 56,31.550781 56,31 C56,30.449219 55.550781,30 55,30 Z M54.582031,34.484375 C54.097656,34.472656 53.671875,34.8125 53.578125,35.292969 C53.46875,35.832031 53.820313,36.359375 54.363281,36.46875 C54.90625,36.574219 55.429688,36.222656 55.539063,35.683594 C55.648438,35.140625 55.296875,34.613281 54.753906,34.503906 C54.699219,34.496094 54.640625,34.488281 54.582031,34.484375 Z M9.449219,34.488281 C9.378906,34.488281 9.3125,34.492188 9.25,34.503906 C8.988281,34.558594 8.757813,34.710938 8.609375,34.929688 C8.464844,35.152344 8.410156,35.421875 8.460938,35.683594 C8.511719,35.941406 8.664063,36.171875 8.886719,36.320313 C9.105469,36.464844 9.375,36.519531 9.636719,36.46875 C9.898438,36.417969 10.125,36.265625 10.273438,36.042969 C10.421875,35.824219 10.476563,35.554688 10.421875,35.292969 C10.332031,34.828125 9.921875,34.492188 9.449219,34.488281 Z M10.761719,38.800781 C10.625,38.800781 10.492188,38.824219 10.371094,38.875 C9.859375,39.089844 9.617188,39.671875 9.828125,40.183594 C10.039063,40.695313 10.625,40.9375 11.136719,40.722656 C11.644531,40.511719 11.886719,39.929688 11.675781,39.417969 C11.523438,39.046875 11.160156,38.804688 10.761719,38.800781 Z M53.269531,38.800781 C52.859375,38.792969 52.484375,39.035156 52.328125,39.417969 C52.113281,39.929688 52.355469,40.511719 52.867188,40.722656 C53.113281,40.824219 53.386719,40.824219 53.632813,40.722656 C53.878906,40.621094 54.074219,40.425781 54.171875,40.183594 C54.386719,39.671875 54.144531,39.085938 53.632813,38.875 C53.519531,38.828125 53.394531,38.804688 53.269531,38.800781 Z M51.140625,42.777344 C50.800781,42.769531 50.480469,42.9375 50.292969,43.21875 C49.984375,43.679688 50.109375,44.300781 50.566406,44.609375 C50.789063,44.753906 51.058594,44.808594 51.320313,44.757813 C51.582031,44.703125 51.808594,44.550781 51.957031,44.328125 C52.261719,43.871094 52.140625,43.25 51.679688,42.941406 C51.519531,42.835938 51.335938,42.777344 51.140625,42.777344 Z M12.890625,42.777344 C12.6875,42.773438 12.488281,42.832031 12.324219,42.945313 C11.863281,43.25 11.738281,43.871094 12.046875,44.332031 C12.351563,44.792969 12.972656,44.914063 13.433594,44.609375 C13.652344,44.460938 13.804688,44.234375 13.859375,43.972656 C13.910156,43.710938 13.855469,43.441406 13.707031,43.21875 C13.527344,42.945313 13.21875,42.78125 12.890625,42.777344 Z M15.75,46.265625 C15.480469,46.261719 15.21875,46.367188 15.03125,46.558594 C14.640625,46.945313 14.640625,47.582031 15.03125,47.96875 C15.417969,48.359375 16.054688,48.359375 16.441406,47.96875 C16.832031,47.582031 16.832031,46.945313 16.441406,46.558594 C16.257813,46.371094 16.011719,46.265625 15.75,46.265625 Z M48.277344,46.265625 C48.007813,46.257813 47.746094,46.363281 47.554688,46.558594 C47.164063,46.945313 47.164063,47.582031 47.554688,47.96875 C47.945313,48.359375 48.578125,48.359375 48.96875,47.96875 C49.359375,47.582031 49.359375,46.945313 48.96875,46.558594 C48.785156,46.371094 48.539063,46.269531 48.277344,46.265625 Z M19.238281,49.121094 C18.898438,49.113281 18.578125,49.28125 18.390625,49.566406 C18.085938,50.027344 18.207031,50.648438 18.667969,50.953125 C19.128906,51.261719 19.746094,51.136719 20.054688,50.675781 C20.203125,50.457031 20.257813,50.1875 20.203125,49.925781 C20.152344,49.664063 20,49.4375 19.78125,49.289063 C19.621094,49.183594 19.433594,49.125 19.238281,49.121094 Z M44.792969,49.121094 C44.589844,49.117188 44.390625,49.179688 44.222656,49.292969 C43.765625,49.597656 43.640625,50.21875 43.949219,50.675781 C44.253906,51.136719 44.875,51.261719 45.332031,50.953125 C45.792969,50.648438 45.917969,50.027344 45.609375,49.566406 C45.429688,49.292969 45.121094,49.125 44.792969,49.121094 Z M23.21875,51.25 C22.808594,51.238281 22.433594,51.484375 22.277344,51.863281 C22.0625,52.375 22.304688,52.960938 22.816406,53.171875 C23.328125,53.382813 23.910156,53.140625 24.125,52.628906 C24.335938,52.121094 24.09375,51.535156 23.582031,51.324219 C23.46875,51.277344 23.34375,51.25 23.21875,51.25 Z M40.808594,51.25 C40.675781,51.246094 40.542969,51.273438 40.421875,51.324219 C40.175781,51.425781 39.980469,51.621094 39.878906,51.863281 C39.777344,52.109375 39.777344,52.386719 39.875,52.628906 C40.089844,53.140625 40.671875,53.382813 41.183594,53.171875 C41.695313,52.960938 41.9375,52.375 41.722656,51.863281 C41.570313,51.496094 41.210938,51.25 40.808594,51.25 Z M27.539063,52.558594 C27.050781,52.546875 26.625,52.886719 26.53125,53.363281 C26.480469,53.625 26.535156,53.894531 26.679688,54.113281 C26.828125,54.335938 27.058594,54.488281 27.316406,54.539063 C27.859375,54.648438 28.386719,54.296875 28.496094,53.753906 C28.601563,53.210938 28.25,52.6875 27.707031,52.578125 C27.652344,52.566406 27.597656,52.558594 27.539063,52.558594 Z M36.492188,52.558594 C36.425781,52.558594 36.359375,52.566406 36.292969,52.578125 C35.75,52.6875 35.398438,53.210938 35.507813,53.753906 C35.617188,54.296875 36.140625,54.648438 36.683594,54.539063 C37.226563,54.429688 37.578125,53.90625 37.46875,53.363281 C37.375,52.898438 36.96875,52.5625 36.492188,52.558594 Z M32,53 C31.449219,53 31,53.449219 31,54 C31,54.550781 31.449219,55 32,55 C32.550781,55 33,54.550781 33,54 C33,53.449219 32.550781,53 32,53 Z M13,55 C12.449219,55 12,55.449219 12,56 C12,56.550781 12.449219,57 13,57 C13.550781,57 14,56.550781 14,56 C14,55.449219 13.550781,55 13,55 Z M51,55 C50.449219,55 50,55.449219 50,56 C50,56.550781 50.449219,57 51,57 C51.550781,57 52,56.550781 52,56 C52,55.449219 51.550781,55 51,55 Z M10,58 C9.449219,58 9,58.449219 9,59 C9,59.550781 9.449219,60 10,60 C10.550781,60 11,59.550781 11,59 C11,58.449219 10.550781,58 10,58 Z M54,58 C53.449219,58 53,58.449219 53,59 C53,59.550781 53.449219,60 54,60 C54.550781,60 55,59.550781 55,59 C55,58.449219 54.550781,58 54,58 Z M7,61 C6.449219,61 6,61.449219 6,62 C6,62.550781 6.449219,63 7,63 C7.550781,63 8,62.550781 8,62 C8,61.449219 7.550781,61 7,61 Z M57,61 C56.449219,61 56,61.449219 56,62 C56,62.550781 56.449219,63 57,63 C57.550781,63 58,62.550781 58,62 C58,61.449219 57.550781,61 57,61 Z" id="Shape"></path>
        </g>
    </g>
</svg>