<?xml version="1.0" encoding="UTF-8"?>
<!DOCTYPE svg PUBLIC "-//W3C//DTD SVG 1.1//EN" "http://www.w3.org/Graphics/SVG/1.1/DTD/svg11.dtd">
<!-- Creator: CorelDRAW X7 -->
<svg xmlns="http://www.w3.org/2000/svg" xml:space="preserve" width="10in" height="10in" version="1.1" style="shape-rendering:geometricPrecision; text-rendering:geometricPrecision; image-rendering:optimizeQuality; fill-rule:evenodd; clip-rule:evenodd"
viewBox="0 0 10000 10000"
 xmlns:xlink="http://www.w3.org/1999/xlink">
 <defs>
  <style type="text/css">
   <![CDATA[
    .fil0 {fill:none}
    .fil1 {fill:#F49120}
    .fil2 {fill:white;fill-rule:nonzero}
   ]]>
  </style>
 </defs>
 <g id="Layer_x0020_1">
  <metadata id="CorelCorpID_0Corel-Layer"/>
  <rect class="fil0" x="1250" y="1250" width="7500" height="7500"/>
  <rect class="fil0" x="1283" y="1217" width="7500" height="7500"/>
  <circle class="fil1" cx="5033" cy="4967" r="3100"/>
  <g id="Gatecoin.eps">
   <path class="fil2" d="M4760 2847c335,-43 682,-8 999,108 499,178 924,550 1169,1020 329,615 325,1395 -12,2006 -280,523 -787,918 -1362,1061 -509,125 -1066,62 -1527,-189 -462,-246 -829,-667 -1005,-1160 -214,-582 -155,-1256 157,-1791 325,-571 927,-979 1581,-1055zm47 201c-413,50 -808,235 -1107,524 -389,369 -616,906 -596,1443 6,736 486,1437 1163,1723 364,157 778,208 1166,117 484,-99 924,-397 1200,-807 247,-363 365,-813 326,-1250 -49,-572 -368,-1112 -846,-1431 -378,-260 -851,-371 -1306,-319zm-1281 1464c156,-541 628,-975 1180,-1085 81,-11 158,65 148,147 1,452 1,904 0,1356 8,73 -54,142 -128,141 -352,2 -705,0 -1057,1 27,318 162,627 390,852 194,202 454,335 727,390 107,25 80,211 -34,200 -576,-93 -1073,-545 -1230,-1105 -90,-290 -88,-608 4,-897zm349 -272c258,3 516,1 774,0 -2,-134 3,-269 -2,-403 -6,-93 -120,-149 -200,-105 -234,110 -433,290 -572,508zm-106 207c-59,130 -82,272 -99,413 280,-1 560,1 840,-1 73,9 141,-54 138,-126 3,-95 0,-190 1,-284 -293,-3 -587,0 -880,-2zm1441 -875c-5,-80 70,-156 151,-145 375,75 714,299 940,605 189,252 294,562 308,875 12,345 -91,694 -293,975 -231,323 -588,558 -980,629 -70,19 -135,-50 -127,-118 2,-175 -4,-350 3,-525 15,-102 175,-112 204,-14 15,100 -2,202 7,302 12,65 89,94 146,69 460,-193 797,-654 828,-1153 -346,0 -692,0 -1038,0 -80,8 -154,-62 -149,-142 -1,-452 -1,-905 0,-1358zm213 260c-5,136 0,273 -2,409 258,0 515,1 773,-1 -140,-218 -339,-398 -574,-508 -78,-42 -191,7 -197,100zm-2 616c2,103 -4,207 3,310 7,64 69,108 132,101 280,2 560,0 840,1 -9,-141 -42,-280 -96,-411 -293,-2 -586,0 -879,-1z"/>
  </g>
 </g>
</svg>
