<svg xmlns="http://www.w3.org/2000/svg" width="35" height="35" viewBox="0 0 35 35">
    <g fill="none" fill-rule="nonzero">
        <path fill="#F44336" d="M14.933 34.067l-14-14a3.099 3.099 0 0 1 0-4.434l14-14a3.099 3.099 0 0 1 4.434 0l14 14a3.099 3.099 0 0 1 0 4.434l-14 14c-1.245 1.244-3.267 1.244-4.434 0z"/>
        <path fill="#FFF" d="M15.244 24.656c0-.234.078-.467.156-.7.078-.234.233-.39.389-.545.155-.155.389-.311.622-.389.233-.078.467-.155.778-.155s.544.077.778.155c.233.078.466.234.622.39.155.155.311.31.389.544.078.233.155.466.155.7 0 .233-.077.466-.155.7-.078.233-.234.388-.39.544a1.694 1.694 0 0 1-.621.389c-.234.078-.467.155-.778.155s-.545-.077-.778-.155c-.233-.078-.389-.233-.622-.389-.156-.156-.311-.311-.389-.544-.078-.234-.156-.39-.156-.7zm3.267-3.578h-2.8l-.389-11.745H18.9l-.389 11.745z"/>
    </g>
</svg>
