<?xml version="1.0" encoding="UTF-8"?>
<svg width="15px" height="16px" viewBox="0 0 15 16" version="1.1" xmlns="http://www.w3.org/2000/svg" xmlns:xlink="http://www.w3.org/1999/xlink">
    <!-- Generator: Sketch 52 (66869) - http://www.bohemiancoding.com/sketch -->
    <title>icon-menu-address</title>
    <desc>Created with Sketch.</desc>
    <g id="🖥-Main-Dashboard" stroke="none" stroke-width="1" fill="none" fill-rule="evenodd">
        <g id="300-Navigation" transform="translate(-1172.000000, -351.000000)" fill="#FFFFFF" fill-rule="nonzero">
            <g id="Menu" transform="translate(1140.000000, 0.000000)">
                <g id="Top-menu" transform="translate(30.000000, 164.000000)">
                    <path d="M5.33333333,187 C4.2366248,187 3.33333333,187.903291 3.33333333,189 L3.33333333,189.666667 L2.66666667,189.666667 L2,189.666667 L2,191 L2.66666667,191 L4,191 L4.66666667,191 L4.66666667,189.666667 L4.66666667,189 C4.66666667,188.624709 4.95804187,188.333333 5.33333333,188.333333 L14.6666667,188.333333 C15.0419587,188.333333 15.3333333,188.624709 15.3333333,189 L15.3333333,201 C15.3333333,201.375292 15.0419587,201.666667 14.6666667,201.666667 L5.33333333,201.666667 C4.95804187,201.666667 4.66666667,201.375292 4.66666667,201 L4.66666667,200.333333 L3.33333333,200.333333 L3.33333333,201 C3.33333333,202.096708 4.2366248,203 5.33333333,203 L14.6666667,203 C15.7633747,203 16.6666667,202.096708 16.6666667,201 L16.6666667,189 C16.6666667,187.903291 15.7633747,187 14.6666667,187 L5.33333333,187 Z M10,191 C8.53513707,191 7.33333333,192.201804 7.33333333,193.666667 C7.33333333,194.381227 7.6229636,195.030007 8.08593747,195.510417 C6.85044333,196.192814 6,197.4948 6,199 L7.33333333,199 C7.33333333,197.518792 8.51879213,196.333333 10,196.333333 C11.4812079,196.333333 12.6666667,197.518792 12.6666667,199 L14,199 C14,197.4948 13.149556,196.192814 11.9140625,195.510417 C12.3770364,195.030007 12.6666667,194.381227 12.6666667,193.666667 C12.6666667,192.201804 11.4648629,191 10,191 Z M3.33333333,192.333333 L3.33333333,193 L3.33333333,193.666667 L2.66666667,193.666667 L2,193.666667 L2,195 L2.66666667,195 L4,195 L4.66666667,195 L4.66666667,193.666667 L4.66666667,193 L4.66666667,192.333333 L3.33333333,192.333333 Z M10,192.333333 C10.7442761,192.333333 11.3333333,192.922391 11.3333333,193.666667 C11.3333333,194.410943 10.7442761,195 10,195 C9.25572387,195 8.66666667,194.410943 8.66666667,193.666667 C8.66666667,192.922391 9.25572387,192.333333 10,192.333333 Z M3.33333333,196.333333 L3.33333333,197 L3.33333333,197.666667 L2.66666667,197.666667 L2,197.666667 L2,199 L2.66666667,199 L3.33333333,199 L4,199 L4.66666667,199 L4.66666667,197.666667 L4.66666667,197 L4.66666667,196.333333 L3.33333333,196.333333 Z" id="icon-menu-address"></path>
                </g>
            </g>
        </g>
    </g>
</svg>