<?xml version="1.0" encoding="UTF-8"?>
<svg width="16px" height="16px" viewBox="0 0 16 16" version="1.1" xmlns="http://www.w3.org/2000/svg" xmlns:xlink="http://www.w3.org/1999/xlink">
    <!-- Generator: Sketch 52 (66869) - http://www.bohemiancoding.com/sketch -->
    <title>icon-menu-dashboard</title>
    <desc>Created with Sketch.</desc>
    <g id="🖥-Main-Dashboard" stroke="none" stroke-width="1" fill="none" fill-rule="evenodd">
        <g id="300-Navigation" transform="translate(-1171.000000, -171.000000)" stroke="#FFFFFF">
            <g id="Menu" transform="translate(1140.000000, 0.000000)">
                <g id="Top-menu" transform="translate(30.000000, 164.000000)">
                    <path d="M6.6,18.7 L2.6,18.7 C1.99214237,18.7 1.5,19.1921424 1.5,19.8 L1.5,21.4 C1.5,22.0078576 1.99214237,22.5 2.6,22.5 L6.6,22.5 C7.20785763,22.5 7.7,22.0078576 7.7,21.4 L7.7,19.8 C7.7,19.1921424 7.20785763,18.7 6.6,18.7 Z M15.4,7.5 L11.4,7.5 C10.7921424,7.5 10.3,7.99214237 10.3,8.6 L10.3,10.2 C10.3,10.8078576 10.7921424,11.3 11.4,11.3 L15.4,11.3 C16.0078576,11.3 16.5,10.8078576 16.5,10.2 L16.5,8.6 C16.5,7.99214237 16.0078576,7.5 15.4,7.5 Z M15.4,13.9 L11.4,13.9 C10.7921424,13.9 10.3,14.3921424 10.3,15 L10.3,21.4 C10.3,22.0078576 10.7921424,22.5 11.4,22.5 L15.4,22.5 C16.0078576,22.5 16.5,22.0078576 16.5,21.4 L16.5,15 C16.5,14.3921424 16.0078576,13.9 15.4,13.9 Z M6.6,7.5 L2.6,7.5 C1.99214237,7.5 1.5,7.99214237 1.5,8.6 L1.5,15 C1.5,15.6078576 1.99214237,16.1 2.6,16.1 L6.6,16.1 C7.20785763,16.1 7.7,15.6078576 7.7,15 L7.7,8.6 C7.7,7.99214237 7.20785763,7.5 6.6,7.5 Z" id="icon-menu-dashboard"></path>
                </g>
            </g>
        </g>
    </g>
</svg>