<?xml version="1.0" encoding="UTF-8"?>
<svg width="14px" height="20px" viewBox="0 0 14 20" version="1.1" xmlns="http://www.w3.org/2000/svg" xmlns:xlink="http://www.w3.org/1999/xlink">
    <!-- Generator: Sketch 52 (66869) - http://www.bohemiancoding.com/sketch -->
    <title>icon-menu-profile</title>
    <desc>Created with Sketch.</desc>
    <g id="🖥-Main-Dashboard" stroke="none" stroke-width="1" fill="none" fill-rule="evenodd">
        <g id="300-Navigation" transform="translate(-1172.000000, -289.000000)" fill="#FFFFFF" fill-rule="nonzero">
            <g id="Menu" transform="translate(1140.000000, 0.000000)">
                <g id="Top-menu" transform="translate(30.000000, 164.000000)">
                    <path d="M9,125 C8.2272,125 7.6,125.6286 7.6,126.4 L4.1,126.4 C2.94845604,126.4 2,127.348456 2,128.5 L2,142.5 C2,143.651543 2.94845604,144.6 4.1,144.6 L13.9,144.6 C15.0515434,144.6 16,143.651543 16,142.5 L16,128.5 C16,127.348456 15.0515434,126.4 13.9,126.4 L10.4,126.4 C10.4,125.6286 9.7728,125 9,125 Z M4.1,127.8 L7.6,127.8 C7.6,128.5728 8.2272,129.2 9,129.2 C9.7728,129.2 10.4,128.5728 10.4,127.8 L13.9,127.8 C14.2940566,127.8 14.6,128.105944 14.6,128.5 L14.6,142.5 C14.6,142.894057 14.2940566,143.2 13.9,143.2 L4.1,143.2 C3.70594396,143.2 3.4,142.894057 3.4,142.5 L3.4,128.5 C3.4,128.105944 3.70594396,127.8 4.1,127.8 Z M9,130.6 C7.46189392,130.6 6.2,131.861894 6.2,133.4 C6.2,134.150288 6.50411178,134.831508 6.99023434,135.335938 C5.6929655,136.052455 4.8,137.41954 4.8,139 L6.2,139 C6.2,137.444732 7.44473174,136.2 9,136.2 C10.5552683,136.2 11.8,137.444732 11.8,139 L13.2,139 C13.2,137.41954 12.3070338,136.052455 11.0097657,135.335938 C11.4958882,134.831508 11.8,134.150288 11.8,133.4 C11.8,131.861894 10.5381061,130.6 9,130.6 Z M9,132 C9.78148994,132 10.4,132.61851 10.4,133.4 C10.4,134.18149 9.78148994,134.8 9,134.8 C8.21851006,134.8 7.6,134.18149 7.6,133.4 C7.6,132.61851 8.21851006,132 9,132 Z M4.8,140.4 L4.8,141.8 L13.2,141.8 L13.2,140.4 L4.8,140.4 Z" id="icon-menu-profile"></path>
                </g>
            </g>
        </g>
    </g>
</svg>