<?xml version="1.0" encoding="UTF-8"?>
<svg width="15px" height="16px" viewBox="0 0 15 16" version="1.1" xmlns="http://www.w3.org/2000/svg" xmlns:xlink="http://www.w3.org/1999/xlink">
    <!-- Generator: Sketch 52 (66869) - http://www.bohemiancoding.com/sketch -->
    <title>icon-menu-marketplace</title>
    <desc>Created with Sketch.</desc>
    <g id="🖥-Main-Dashboard" stroke="none" stroke-width="1" fill="none" fill-rule="evenodd">
        <g id="300-Navigation" transform="translate(-1172.000000, -231.000000)" fill="#FFFFFF" fill-rule="nonzero">
            <g id="Menu" transform="translate(1140.000000, 0.000000)">
                <g id="Top-menu" transform="translate(30.000000, 164.000000)">
                    <path d="M9.38553362,67 C7.35756163,67 5.69322606,68.6643356 5.69322606,70.6923076 L3.23168769,70.6923076 C2.90455284,70.691849 2.63422394,70.9473943 2.6163031,71.2740382 L2.00091851,82.3509607 C1.99168262,82.5199149 2.0524149,82.6852189 2.16883617,82.808007 C2.28525744,82.9307951 2.44709678,83.0002347 2.6163031,82.9999994 L16.1547641,82.9999994 C16.3239705,83.0002347 16.4858098,82.9307951 16.6022311,82.808007 C16.7186523,82.6852189 16.7793846,82.5199149 16.7701487,82.3509607 L16.1547641,71.2740382 C16.1368433,70.9473943 15.8665144,70.691849 15.5393795,70.6923076 L13.0778412,70.6923076 C13.0778412,68.6643356 11.4135056,67 9.38553362,67 Z M9.38553362,68.2307692 C10.7421769,68.2307692 11.847072,69.3356643 11.847072,70.6923076 L6.92399525,70.6923076 C6.92399525,69.3356643 8.02889035,68.2307692 9.38553362,68.2307692 Z M3.81341838,71.9230767 L5.69322606,71.9230767 L5.69322606,74.3846151 L6.92399525,74.3846151 L6.92399525,71.9230767 L11.847072,71.9230767 L11.847072,74.3846151 L13.0778412,74.3846151 L13.0778412,71.9230767 L14.9552454,71.9230767 L15.5033217,81.7692302 L3.26774542,81.7692302 L3.81341838,71.9230767 Z" id="icon-menu-marketplace"></path>
                </g>
            </g>
        </g>
    </g>
</svg>