<?xml version="1.0" encoding="iso-8859-1"?>
<!-- Generator: Adobe Illustrator 18.1.1, SVG Export Plug-In . SVG Version: 6.00 Build 0)  -->
<svg xmlns="http://www.w3.org/2000/svg" xmlns:xlink="http://www.w3.org/1999/xlink" version="1.1" id="Capa_1" x="0px" y="0px" viewBox="0 0 92 92" style="enable-background:new 0 0 92 92;" xml:space="preserve" width="512px" height="512px">
<g>
	<g>
		<path d="M45.385,0.004C19.983,0.344-0.333,21.215,0.004,46.619c0.34,25.393,21.209,45.715,46.611,45.377    c25.398-0.342,45.719-21.213,45.381-46.615C91.656,19.986,70.785-0.335,45.385,0.004z M50.484,15.333    c4.676,0,6.057,2.714,6.057,5.815c0,3.877-3.104,7.461-8.396,7.461c-4.43,0-6.537-2.229-6.414-5.91    C41.731,19.597,44.33,15.333,50.484,15.333z M38.497,74.75c-3.195,0-5.537-1.938-3.301-10.467l3.666-15.125    c0.637-2.424,0.744-3.393,0-3.393c-0.959,0-5.107,1.674-7.557,3.322l-1.598-2.617c7.773-6.491,16.712-10.299,20.544-10.299    c3.195,0,3.727,3.779,2.131,9.594l-4.199,15.9c-0.744,2.811-0.424,3.779,0.318,3.779c0.961,0,4.102-1.166,7.188-3.59l1.811,2.424    C49.939,71.838,41.69,74.75,38.497,74.75z" fill="#c5d0de"/>
	</g>
</g>
<g>
</g>
<g>
</g>
<g>
</g>
<g>
</g>
<g>
</g>
<g>
</g>
<g>
</g>
<g>
</g>
<g>
</g>
<g>
</g>
<g>
</g>
<g>
</g>
<g>
</g>
<g>
</g>
<g>
</g>
</svg>
