<svg width="44px" height="44px" viewBox="0 0 44 44" xmlns="http://www.w3.org/2000/svg" xmlns:xlink="http://www.w3.org/1999/xlink">
    <g fill="none" fill-rule="evenodd">
        <rect width="44" height="44" fill="#2DA1F8" rx="9"/>
        <path d="M33.2899445,22.9203128 C31.3240959,20.9415891 28.2827759,20.6709767 26.0176127,22.1008593 L14.3790117,10.384719 C13.8693908,9.87176033 13.0437885,9.87176033 12.5342002,10.384719 L8.38221571,14.5638959 C7.87259476,15.0768546 7.87259476,15.9078641 8.38221571,16.4207899 C8.89183732,16.9337157 9.71743957,16.9337486 10.2270279,16.4207899 L13.4554644,13.171209 L15.7614951,15.4923429 L12.5330586,18.7419238 C12.0234377,19.2548825 12.0234377,20.0858919 12.5330586,20.5988178 C13.0426796,21.1117436 13.8682818,21.1117765 14.3778702,20.5988178 L17.6063067,17.3492369 L24.1715292,23.9574578 C22.7509506,26.237555 23.0210741,29.2987939 24.9856507,31.2774191 C27.2674805,33.5741936 31.0068426,33.5741936 33.2886398,31.2774191 C35.5704371,28.9806446 35.5704697,25.2167919 33.2886398,22.9200502 L33.2899445,22.9203128 Z M31.4451329,24.7772068 C32.7293777,26.0698627 32.7293777,28.1267859 31.4451329,29.4196059 C30.1608881,30.7124259 28.1173489,30.7122618 26.832941,29.4196059 C25.5485331,28.12695 25.5486962,26.0700268 26.832941,24.7772068 C28.1171858,23.4843868 30.1607251,23.4845509 31.4451329,24.7772068 Z" id="Page-1-Copy" fill="#FFFFFF" transform="translate(21.500000, 21.500000) scale(-1, 1) rotate(45.000000) translate(-21.500000, -21.500000) "></path>
    </g>
</svg>