<svg xmlns="http://www.w3.org/2000/svg" width="36" height="36" viewBox="0 0 36 36">
    <path fill="#009DB4" fill-rule="nonzero" d="M17.723.529a.54.54 0 0 0-.529.546v17.194a.54.54 0 0 0 .267.472.542.542 0 0 0 .541 0 .54.54 0 0 0 .267-.472V1.075a.539.539 0 0 0-.546-.546zm-4.827.684C5.46 3.325 0 10.17 0 18.27 0 28.045 7.955 36 17.731 36c9.777 0 17.732-7.955 17.732-17.731 0-8.1-5.462-14.944-12.896-17.056v1.119c6.834 2.076 11.821 8.433 11.821 15.937 0 9.184-7.472 16.656-16.657 16.656-9.184 0-16.656-7.472-16.656-16.656 0-7.504 4.987-13.861 11.82-15.937V1.213zm-.712 3.115a.536.536 0 0 0-.5.743.536.536 0 0 0 .701.292.539.539 0 0 0-.201-1.035zm11.111 0a.539.539 0 0 0-.218 1.035.536.536 0 0 0 .701-.292.536.536 0 0 0-.483-.743zM9.678 5.667a.537.537 0 1 0 0 0zm16.121 0a.537.537 0 0 0-.455.241.537.537 0 1 0 .455-.241zM7.48 7.472a.541.541 0 0 0-.386.16.535.535 0 1 0 .758.757.535.535 0 0 0 0-.757.528.528 0 0 0-.372-.16zm20.517 0a.541.541 0 0 0-.386.16.535.535 0 1 0 .757.757.535.535 0 0 0 0-.757.528.528 0 0 0-.371-.16zm1.803 2.2a.535.535 0 0 0-.451.833.536.536 0 1 0 .451-.833zm-24.123 0a.537.537 0 1 0 .29.09.542.542 0 0 0-.29-.09zM31.14 12.18a.537.537 0 1 0 .201 1.033.538.538 0 0 0 .292-.704.538.538 0 0 0-.493-.33zm-26.799 0a.54.54 0 0 0-.218 1.035.538.538 0 1 0 .218-1.035zm27.622 2.722a.46.46 0 0 0-.107.008.54.54 0 0 0-.422.632.54.54 0 0 0 .632.424.537.537 0 1 0-.103-1.064zm-28.444 0a.538.538 0 1 0 .092.008c-.031-.004-.06-.008-.092-.008zm-.294 2.83a.538.538 0 0 0 0 1.074.538.538 0 0 0 0-1.075zm29.015 0a.538.538 0 0 0 0 1.074.538.538 0 0 0 0-1.075zM3.505 20.56a.538.538 0 1 0 0 0zm28.47 0a.54.54 0 0 0-.12 1.066.541.541 0 0 0 .634-.422.541.541 0 0 0-.424-.634c-.03-.004-.06-.008-.09-.01zm-.828 2.72a.537.537 0 0 0-.218 1.035.538.538 0 1 0 .218-1.035zm-26.815.002a.557.557 0 0 0-.21.04.54.54 0 0 0-.292.703.536.536 0 0 0 .704.29.537.537 0 0 0-.201-1.033zm25.472 2.508a.537.537 0 0 0-.309.982c.118.08.265.11.404.08a.526.526 0 0 0 .342-.229.533.533 0 0 0-.15-.743.502.502 0 0 0-.287-.09zm-24.129 0a.54.54 0 0 0-.453.835.54.54 0 0 0 .747.147.537.537 0 0 0-.294-.982zm1.805 2.2a.535.535 0 1 0 .372.915.535.535 0 0 0-.372-.915zm20.517 0a.535.535 0 1 0 .372.915.535.535 0 0 0-.372-.915zM9.682 29.794a.538.538 0 1 0 .29.09.53.53 0 0 0-.29-.09zm16.115 0a.536.536 0 0 0-.451.835.539.539 0 0 0 .745.149.54.54 0 0 0-.294-.984zm-13.605 1.339a.537.537 0 1 0 .193.042.55.55 0 0 0-.193-.042zm11.095 0a.54.54 0 0 0-.502.745.54.54 0 0 0 .995 0 .537.537 0 0 0-.493-.745zm-8.37.827a.538.538 0 1 0-.029 1.075.538.538 0 0 0 .029-1.075zm5.646.002a.539.539 0 1 0 .105 1.064.553.553 0 0 0 .342-.229.537.537 0 0 0-.447-.835zm-2.832.277a.538.538 0 0 0 0 1.074.538.538 0 0 0 0-1.074z" opacity=".6"/>
</svg>
