<?xml version="1.0" encoding="UTF-8"?>
<svg width="24px" height="26px" viewBox="0 0 24 26" version="1.1" xmlns="http://www.w3.org/2000/svg" xmlns:xlink="http://www.w3.org/1999/xlink">
    <!-- Generator: Sketch 51.2 (57519) - http://www.bohemiancoding.com/sketch -->
    <title>icon-refresh</title>
    <desc>Created with Sketch.</desc>
    <defs></defs>
    <g id="🖥-Main-Dashboard" stroke="none" stroke-width="1" fill="none" fill-rule="evenodd">
        <g id="301-Dashboard-+-Null-State" transform="translate(-1231.000000, -985.000000)" fill="#93B0C1">
            <g id="Transactions" transform="translate(150.000000, 960.000000)">
                <g id="Title" transform="translate(30.000000, 20.000000)">
                    <g id="icon-refresh" transform="translate(1051.000000, 5.000000)">
                        <path d="M12.168,3.51 C14.2464437,3.50947645 16.2699962,4.17715762 17.94,5.4145 L15.2815,5.7915 C14.7430224,5.82919343 14.3370566,6.29627237 14.37475,6.83475 C14.4124434,7.37322763 14.8795224,7.77919343 15.418,7.7415 L15.5545,7.7415 L20.1045,7.0915 C20.3605374,7.05451483 20.5913807,6.91729274 20.7462073,6.71004456 C20.9010339,6.50279639 20.9671502,6.24251355 20.93,5.9865 L20.28,1.4365 C20.2046131,0.898022369 19.7069776,0.522613132 19.1685,0.598 C18.6300224,0.673386868 18.2546131,1.17102237 18.33,1.7095 L18.59,3.5165 C14.4293175,0.770345201 8.98552093,0.962206664 5.02849302,3.99446249 C1.07146511,7.02671832 -0.529577056,12.2332907 1.04,16.965 L2.6195,15.3855 C1.97310427,12.4917766 2.678606,9.46115459 4.53655311,7.15041983 C6.39450023,4.83968506 9.20297692,3.49996084 12.168,3.51 Z" id="Shape"></path>
                        <path d="M23.2635,9.568 L21.684,11.1475 C22.5577085,15.1307753 20.8601491,19.2370159 17.4287646,21.4405243 C13.9973801,23.6440328 9.55713562,23.4792632 6.2985,21.0275 L8.411,20.7285 C8.94947763,20.6531131 9.32488687,20.1554776 9.2495,19.617 C9.17411313,19.0785224 8.67647763,18.7031131 8.138,18.7785 L3.588,19.4285 C3.33196256,19.4654852 3.10111929,19.6027073 2.94629271,19.8099554 C2.79146614,20.0172036 2.72534984,20.2774864 2.7625,20.5335 L3.4125,25.0835 C3.4803204,25.5631817 3.8900505,25.9203113 4.3745,25.922 L4.511,25.922 C4.76703744,25.8850148 4.99788071,25.7477927 5.15270729,25.5405446 C5.30753386,25.3332964 5.37365016,25.0730136 5.3365,24.817 L5.005,22.477 C9.07290578,25.6179615 14.7142649,25.7365297 18.9105514,22.7692623 C23.106838,19.801995 24.8754277,14.4437227 23.27,9.5615 L23.2635,9.568 Z" id="Shape"></path>
                    </g>
                </g>
            </g>
        </g>
    </g>
</svg>
