<svg width="24px" height="24px" viewBox="0 0 24 24" version="1.1" xmlns="http://www.w3.org/2000/svg" xmlns:xlink="http://www.w3.org/1999/xlink">
    <g id="54-ETH-Wallet---Main" stroke="none" stroke-width="1" fill="none" fill-rule="evenodd" transform="translate(-615.000000, -475.000000)">
        <g id="icons8-sent" transform="translate(615.000000, 475.000000)" fill="#00C0D9" fill-rule="nonzero">
            <path d="M0,0 L0,8.66567819 L1.48257969,11.9999998 L0,15.3343214 L0,24 L24,11.9999998 L23.3224612,11.6604892 L0,0 Z M0.759080801,1.22757598 L22.3039288,11.9999998 L0.759080801,22.772424 L0.759080801,15.7301703 L18.289103,12.3736099 L18.289103,11.6263897 L0.759080801,8.26982931 L0.759080801,1.22757598 Z M1.02149731,9.09414362 L16.2001484,11.9999998 L1.02149731,14.905856 L2.31282431,11.9999998 L1.02149731,9.09414362 Z M3.0363232,11.6204594 C2.82727956,11.6204594 2.6567828,11.7909562 2.6567828,11.9999998 C2.6567828,12.2090435 2.82727956,12.3795402 3.0363232,12.3795402 C3.24536684,12.3795402 3.4158636,12.2090435 3.4158636,11.9999998 C3.4158636,11.7909562 3.24536684,11.6204594 3.0363232,11.6204594 Z M4.5544848,11.6204594 C4.34544116,11.6204594 4.1749444,11.7909562 4.1749444,11.9999998 C4.1749444,12.2090435 4.34544116,12.3795402 4.5544848,12.3795402 C4.76352844,12.3795402 4.9340252,12.2090435 4.9340252,11.9999998 C4.9340252,11.7909562 4.76352844,11.6204594 4.5544848,11.6204594 Z M6.0726464,11.6204594 C5.86360276,11.6204594 5.693106,11.7909562 5.693106,11.9999998 C5.693106,12.2090435 5.86360276,12.3795402 6.0726464,12.3795402 C6.28169005,12.3795402 6.45218681,12.2090435 6.45218681,11.9999998 C6.45218681,11.7909562 6.28169005,11.6204594 6.0726464,11.6204594 Z M7.59080801,11.6204594 C7.38176436,11.6204594 7.21126761,11.7909562 7.21126761,11.9999998 C7.21126761,12.2090435 7.38176436,12.3795402 7.59080801,12.3795402 C7.79985165,12.3795402 7.97034841,12.2090435 7.97034841,11.9999998 C7.97034841,11.7909562 7.79985165,11.6204594 7.59080801,11.6204594 Z M9.10896961,11.6204594 C8.89992597,11.6204594 8.72942921,11.7909562 8.72942921,11.9999998 C8.72942921,12.2090435 8.89992597,12.3795402 9.10896961,12.3795402 C9.31801325,12.3795402 9.48851001,12.2090435 9.48851001,11.9999998 C9.48851001,11.7909562 9.31801325,11.6204594 9.10896961,11.6204594 Z M10.6271312,11.6204594 C10.4180876,11.6204594 10.2475908,11.7909562 10.2475908,11.9999998 C10.2475908,12.2090435 10.4180876,12.3795402 10.6271312,12.3795402 C10.8361748,12.3795402 11.0066716,12.2090435 11.0066716,11.9999998 C11.0066716,11.7909562 10.8361748,11.6204594 10.6271312,11.6204594 Z M12.1452928,11.6204594 C11.9362492,11.6204594 11.7657524,11.7909562 11.7657524,11.9999998 C11.7657524,12.2090435 11.9362492,12.3795402 12.1452928,12.3795402 C12.3543365,12.3795402 12.5248332,12.2090435 12.5248332,11.9999998 C12.5248332,11.7909562 12.3543365,11.6204594 12.1452928,11.6204594 Z M13.6634544,11.6204594 C13.4544108,11.6204594 13.283914,11.7909562 13.283914,11.9999998 C13.283914,12.2090435 13.4544108,12.3795402 13.6634544,12.3795402 C13.8724981,12.3795402 14.0429948,12.2090435 14.0429948,11.9999998 C14.0429948,11.7909562 13.8724981,11.6204594 13.6634544,11.6204594 Z" id="Shape"></path>
        </g>
    </g>
</svg>