<?xml version="1.0" encoding="UTF-8"?>
<svg width="43px" height="35px" viewBox="0 0 43 35" version="1.1" xmlns="http://www.w3.org/2000/svg" xmlns:xlink="http://www.w3.org/1999/xlink">
    <!-- Generator: Sketch 48.2 (47327) - http://www.bohemiancoding.com/sketch -->
    <title>icons8-upload</title>
    <desc>Created with Sketch.</desc>
    <defs></defs>
    <g id="21-Create-SelfKey-ID-or-Upload-ID" stroke="none" stroke-width="1" fill="none" fill-rule="evenodd" transform="translate(-450.000000, -636.000000)">
        <g id="Group-6" transform="translate(420.000000, 149.000000)" fill="#FFFFFF" fill-rule="nonzero">
            <g id="Group-5" transform="translate(30.000000, 487.000000)">
                <g id="icons8-upload">
                    <path d="M21.5,0 L13.8994139,5.68331353 L14.9128257,6.44108838 L20.7833333,2.05143541 L20.7833333,23.2105263 L22.2166667,23.2105263 L22.2166667,2.05143541 L28.0871743,6.44108838 L29.1005861,5.68331353 L21.5,0 Z M3.58333333,4.99043062 C1.6125,4.99043062 0,6.19617225 0,7.66985646 L0,32.3205742 C0,33.7942584 1.6125,35 3.58333333,35 L39.4166667,35 C41.3875,35 43,33.7942584 43,32.3205742 L43,7.66985646 C43,6.19617225 41.3875,4.99043062 39.4166667,4.99043062 L33.6833333,4.99043062 L33.6833333,6.06220096 L39.4166667,6.06220096 C40.6120444,6.06220096 41.5666667,6.77601661 41.5666667,7.66985646 L41.5666667,32.3205742 C41.5666667,33.214414 40.6120444,33.9282297 39.4166667,33.9282297 L3.58333333,33.9282297 C2.38795555,33.9282297 1.43333333,33.214414 1.43333333,32.3205742 L1.43333333,7.66985646 C1.43333333,6.77601661 2.38795555,6.06220096 3.58333333,6.06220096 L9.31666667,6.06220096 L9.31666667,4.99043062 L3.58333333,4.99043062 Z M5.73333333,8.74162679 C5.33860695,8.74162679 5.01666667,8.98235659 5.01666667,9.27751196 C5.01666667,9.57266733 5.33860695,9.81339713 5.73333333,9.81339713 C6.12805972,9.81339713 6.45,9.57266733 6.45,9.27751196 C6.45,8.98235659 6.12805972,8.74162679 5.73333333,8.74162679 Z M8.6,8.74162679 C8.20527362,8.74162679 7.88333333,8.98235659 7.88333333,9.27751196 C7.88333333,9.57266733 8.20527362,9.81339713 8.6,9.81339713 C8.99472638,9.81339713 9.31666667,9.57266733 9.31666667,9.27751196 C9.31666667,8.98235659 8.99472638,8.74162679 8.6,8.74162679 Z M34.4,8.74162679 C34.0052736,8.74162679 33.6833333,8.98235659 33.6833333,9.27751196 C33.6833333,9.57266733 34.0052736,9.81339713 34.4,9.81339713 C34.7947264,9.81339713 35.1166667,9.57266733 35.1166667,9.27751196 C35.1166667,8.98235659 34.7947264,8.74162679 34.4,8.74162679 Z M37.2666667,8.74162679 C36.8719403,8.74162679 36.55,8.98235659 36.55,9.27751196 C36.55,9.57266733 36.8719403,9.81339713 37.2666667,9.81339713 C37.661393,9.81339713 37.9833333,9.57266733 37.9833333,9.27751196 C37.9833333,8.98235659 37.661393,8.74162679 37.2666667,8.74162679 Z M5.73333333,10.8851675 C5.33860695,10.8851675 5.01666667,11.1258973 5.01666667,11.4210526 C5.01666667,11.716208 5.33860695,11.9569378 5.73333333,11.9569378 C6.12805972,11.9569378 6.45,11.716208 6.45,11.4210526 C6.45,11.1258973 6.12805972,10.8851675 5.73333333,10.8851675 Z M37.2666667,10.8851675 C36.8719403,10.8851675 36.55,11.1258973 36.55,11.4210526 C36.55,11.716208 36.8719403,11.9569378 37.2666667,11.9569378 C37.661393,11.9569378 37.9833333,11.716208 37.9833333,11.4210526 C37.9833333,11.1258973 37.661393,10.8851675 37.2666667,10.8851675 Z M5.73333333,13.0287081 C5.33860695,13.0287081 5.01666667,13.2694379 5.01666667,13.5645933 C5.01666667,13.8597487 5.33860695,14.1004785 5.73333333,14.1004785 C6.12805972,14.1004785 6.45,13.8597487 6.45,13.5645933 C6.45,13.2694379 6.12805972,13.0287081 5.73333333,13.0287081 Z M37.2666667,13.0287081 C36.8719403,13.0287081 36.55,13.2694379 36.55,13.5645933 C36.55,13.8597487 36.8719403,14.1004785 37.2666667,14.1004785 C37.661393,14.1004785 37.9833333,13.8597487 37.9833333,13.5645933 C37.9833333,13.2694379 37.661393,13.0287081 37.2666667,13.0287081 Z M5.73333333,15.1722488 C5.33860695,15.1722488 5.01666667,15.4129786 5.01666667,15.708134 C5.01666667,16.0032893 5.33860695,16.2440191 5.73333333,16.2440191 C6.12805972,16.2440191 6.45,16.0032893 6.45,15.708134 C6.45,15.4129786 6.12805972,15.1722488 5.73333333,15.1722488 Z M37.2666667,15.1722488 C36.8719403,15.1722488 36.55,15.4129786 36.55,15.708134 C36.55,16.0032893 36.8719403,16.2440191 37.2666667,16.2440191 C37.661393,16.2440191 37.9833333,16.0032893 37.9833333,15.708134 C37.9833333,15.4129786 37.661393,15.1722488 37.2666667,15.1722488 Z M5.73333333,17.3157895 C5.33860695,17.3157895 5.01666667,17.5565193 5.01666667,17.8516746 C5.01666667,18.14683 5.33860695,18.3875598 5.73333333,18.3875598 C6.12805972,18.3875598 6.45,18.14683 6.45,17.8516746 C6.45,17.5565193 6.12805972,17.3157895 5.73333333,17.3157895 Z M37.2666667,17.3157895 C36.8719403,17.3157895 36.55,17.5565193 36.55,17.8516746 C36.55,18.14683 36.8719403,18.3875598 37.2666667,18.3875598 C37.661393,18.3875598 37.9833333,18.14683 37.9833333,17.8516746 C37.9833333,17.5565193 37.661393,17.3157895 37.2666667,17.3157895 Z M5.73333333,19.4593301 C5.33860695,19.4593301 5.01666667,19.7000599 5.01666667,19.9952153 C5.01666667,20.2903707 5.33860695,20.5311005 5.73333333,20.5311005 C6.12805972,20.5311005 6.45,20.2903707 6.45,19.9952153 C6.45,19.7000599 6.12805972,19.4593301 5.73333333,19.4593301 Z M37.2666667,19.4593301 C36.8719403,19.4593301 36.55,19.7000599 36.55,19.9952153 C36.55,20.2903707 36.8719403,20.5311005 37.2666667,20.5311005 C37.661393,20.5311005 37.9833333,20.2903707 37.9833333,19.9952153 C37.9833333,19.7000599 37.661393,19.4593301 37.2666667,19.4593301 Z M5.73333333,21.6028708 C5.33860695,21.6028708 5.01666667,21.8436006 5.01666667,22.138756 C5.01666667,22.4339113 5.33860695,22.6746411 5.73333333,22.6746411 C6.12805972,22.6746411 6.45,22.4339113 6.45,22.138756 C6.45,21.8436006 6.12805972,21.6028708 5.73333333,21.6028708 Z M37.2666667,21.6028708 C36.8719403,21.6028708 36.55,21.8436006 36.55,22.138756 C36.55,22.4339113 36.8719403,22.6746411 37.2666667,22.6746411 C37.661393,22.6746411 37.9833333,22.4339113 37.9833333,22.138756 C37.9833333,21.8436006 37.661393,21.6028708 37.2666667,21.6028708 Z M5.73333333,23.7464115 C5.33860695,23.7464115 5.01666667,23.9871413 5.01666667,24.2822967 C5.01666667,24.577452 5.33860695,24.8181818 5.73333333,24.8181818 C6.12805972,24.8181818 6.45,24.577452 6.45,24.2822967 C6.45,23.9871413 6.12805972,23.7464115 5.73333333,23.7464115 Z M37.2666667,23.7464115 C36.8719403,23.7464115 36.55,23.9871413 36.55,24.2822967 C36.55,24.577452 36.8719403,24.8181818 37.2666667,24.8181818 C37.661393,24.8181818 37.9833333,24.577452 37.9833333,24.2822967 C37.9833333,23.9871413 37.661393,23.7464115 37.2666667,23.7464115 Z M5.73333333,25.8899522 C5.33860695,25.8899522 5.01666667,26.130682 5.01666667,26.4258373 C5.01666667,26.7209927 5.33860695,26.9617225 5.73333333,26.9617225 C6.12805972,26.9617225 6.45,26.7209927 6.45,26.4258373 C6.45,26.130682 6.12805972,25.8899522 5.73333333,25.8899522 Z M37.2666667,25.8899522 C36.8719403,25.8899522 36.55,26.130682 36.55,26.4258373 C36.55,26.7209927 36.8719403,26.9617225 37.2666667,26.9617225 C37.661393,26.9617225 37.9833333,26.7209927 37.9833333,26.4258373 C37.9833333,26.130682 37.661393,25.8899522 37.2666667,25.8899522 Z M5.73333333,28.0334928 C5.33860695,28.0334928 5.01666667,28.2742226 5.01666667,28.569378 C5.01666667,28.8645334 5.33860695,29.1052632 5.73333333,29.1052632 C6.12805972,29.1052632 6.45,28.8645334 6.45,28.569378 C6.45,28.2742226 6.12805972,28.0334928 5.73333333,28.0334928 Z M37.2666667,28.0334928 C36.8719403,28.0334928 36.55,28.2742226 36.55,28.569378 C36.55,28.8645334 36.8719403,29.1052632 37.2666667,29.1052632 C37.661393,29.1052632 37.9833333,28.8645334 37.9833333,28.569378 C37.9833333,28.2742226 37.661393,28.0334928 37.2666667,28.0334928 Z M5.73333333,30.1770335 C5.33860695,30.1770335 5.01666667,30.4177633 5.01666667,30.7129187 C5.01666667,31.008074 5.33860695,31.2488038 5.73333333,31.2488038 C6.12805972,31.2488038 6.45,31.008074 6.45,30.7129187 C6.45,30.4177633 6.12805972,30.1770335 5.73333333,30.1770335 Z M8.6,30.1770335 C8.20527362,30.1770335 7.88333333,30.4177633 7.88333333,30.7129187 C7.88333333,31.008074 8.20527362,31.2488038 8.6,31.2488038 C8.99472638,31.2488038 9.31666667,31.008074 9.31666667,30.7129187 C9.31666667,30.4177633 8.99472638,30.1770335 8.6,30.1770335 Z M11.4666667,30.1770335 C11.0719403,30.1770335 10.75,30.4177633 10.75,30.7129187 C10.75,31.008074 11.0719403,31.2488038 11.4666667,31.2488038 C11.8613931,31.2488038 12.1833333,31.008074 12.1833333,30.7129187 C12.1833333,30.4177633 11.8613931,30.1770335 11.4666667,30.1770335 Z M14.3333333,30.1770335 C13.9386069,30.1770335 13.6166667,30.4177633 13.6166667,30.7129187 C13.6166667,31.008074 13.9386069,31.2488038 14.3333333,31.2488038 C14.7280597,31.2488038 15.05,31.008074 15.05,30.7129187 C15.05,30.4177633 14.7280597,30.1770335 14.3333333,30.1770335 Z M17.2,30.1770335 C16.8052736,30.1770335 16.4833333,30.4177633 16.4833333,30.7129187 C16.4833333,31.008074 16.8052736,31.2488038 17.2,31.2488038 C17.5947264,31.2488038 17.9166667,31.008074 17.9166667,30.7129187 C17.9166667,30.4177633 17.5947264,30.1770335 17.2,30.1770335 Z M20.0666667,30.1770335 C19.6719403,30.1770335 19.35,30.4177633 19.35,30.7129187 C19.35,31.008074 19.6719403,31.2488038 20.0666667,31.2488038 C20.461393,31.2488038 20.7833333,31.008074 20.7833333,30.7129187 C20.7833333,30.4177633 20.461393,30.1770335 20.0666667,30.1770335 Z M22.9333333,30.1770335 C22.5386069,30.1770335 22.2166667,30.4177633 22.2166667,30.7129187 C22.2166667,31.008074 22.5386069,31.2488038 22.9333333,31.2488038 C23.3280597,31.2488038 23.65,31.008074 23.65,30.7129187 C23.65,30.4177633 23.3280597,30.1770335 22.9333333,30.1770335 Z M25.8,30.1770335 C25.4052736,30.1770335 25.0833333,30.4177633 25.0833333,30.7129187 C25.0833333,31.008074 25.4052736,31.2488038 25.8,31.2488038 C26.1947264,31.2488038 26.5166667,31.008074 26.5166667,30.7129187 C26.5166667,30.4177633 26.1947264,30.1770335 25.8,30.1770335 Z M28.6666667,30.1770335 C28.2719403,30.1770335 27.95,30.4177633 27.95,30.7129187 C27.95,31.008074 28.2719403,31.2488038 28.6666667,31.2488038 C29.061393,31.2488038 29.3833333,31.008074 29.3833333,30.7129187 C29.3833333,30.4177633 29.061393,30.1770335 28.6666667,30.1770335 Z M31.5333333,30.1770335 C31.1386069,30.1770335 30.8166667,30.4177633 30.8166667,30.7129187 C30.8166667,31.008074 31.1386069,31.2488038 31.5333333,31.2488038 C31.9280597,31.2488038 32.25,31.008074 32.25,30.7129187 C32.25,30.4177633 31.9280597,30.1770335 31.5333333,30.1770335 Z M34.4,30.1770335 C34.0052736,30.1770335 33.6833333,30.4177633 33.6833333,30.7129187 C33.6833333,31.008074 34.0052736,31.2488038 34.4,31.2488038 C34.7947264,31.2488038 35.1166667,31.008074 35.1166667,30.7129187 C35.1166667,30.4177633 34.7947264,30.1770335 34.4,30.1770335 Z M37.2666667,30.1770335 C36.8719403,30.1770335 36.55,30.4177633 36.55,30.7129187 C36.55,31.008074 36.8719403,31.2488038 37.2666667,31.2488038 C37.661393,31.2488038 37.9833333,31.008074 37.9833333,30.7129187 C37.9833333,30.4177633 37.661393,30.1770335 37.2666667,30.1770335 Z" id="Shape"></path>
                </g>
            </g>
        </g>
    </g>
</svg>