<svg xmlns="http://www.w3.org/2000/svg" width="34" height="44" viewBox="0 0 34 44">
    <g fill="#FFF" fill-rule="evenodd">
        <path d="M18.969 0L34 15.063V42a2 2 0 0 1-2 2H2a2 2 0 0 1-2-2V2a2 2 0 0 1 2-2H18.969zM2 42h30V18H17.953C16.849 18 16 17.064 16 15.96V2H2v40zm29.995-26L18.09 2H18v14h13.995zM0 10v6h2v-6H0zm0 2h2v2H0v-2z"/>
        <path d="M20.623 27.967a1.059 1.059 0 1 1-1.497 1.497l-1.067-1.066v5.76a1.057 1.057 0 0 1-1.06 1.06 1.059 1.059 0 0 1-1.058-1.059v-5.761l-1.067 1.067a1.06 1.06 0 0 1-1.498-1.498l2.875-2.875a1.06 1.06 0 0 1 1.498 0l2.874 2.875z"/>
    </g>
</svg>
