<svg width="240" height="199" viewBox="0 0 240 199" fill="none" xmlns="http://www.w3.org/2000/svg">
<path fill-rule="evenodd" clip-rule="evenodd" d="M72.2839 142.21V168.413H99.6513V164.488H76.389V142.21H72.2839ZM27.3674 146.971V148.498H23.2623V146.971C23.2623 146.753 23.18 146.565 23.0152 146.408C22.8505 146.251 22.6541 146.172 22.4261 146.172H4.94134C4.71328 146.172 4.51689 146.251 4.35218 146.408C4.18747 146.565 4.10511 146.753 4.10511 146.971V152.568C4.10511 152.786 4.18747 152.974 4.35218 153.131C4.51689 153.289 4.71328 153.368 4.94134 153.368H22.4261C23.7945 153.368 24.9601 153.828 25.923 154.749C26.886 155.669 27.3674 156.784 27.3674 158.092V163.689C27.3674 164.997 26.886 166.112 25.923 167.032C24.9601 167.953 23.7945 168.413 22.4261 168.413H4.94134C3.57296 168.413 2.40732 167.953 1.44439 167.032C0.481459 166.112 0 164.997 0 163.689V162.162H4.10511V163.689C4.10511 163.907 4.18747 164.095 4.35218 164.252C4.51689 164.41 4.71328 164.488 4.94134 164.488H22.4261C22.6541 164.488 22.8505 164.41 23.0152 164.252C23.18 164.095 23.2623 163.907 23.2623 163.689V158.092C23.2623 157.874 23.18 157.686 23.0152 157.529C22.8505 157.371 22.6541 157.293 22.4261 157.293H4.94134C3.57296 157.293 2.40732 156.832 1.44439 155.912C0.481459 154.991 0 153.876 0 152.568V146.971C0 145.663 0.481459 144.548 1.44439 143.628C2.40732 142.707 3.57296 142.247 4.94134 142.247H22.4261C23.7945 142.247 24.9601 142.707 25.923 143.628C26.886 144.548 27.3674 145.663 27.3674 146.971ZM62.4451 142.247V146.172H41.4634V153.368H58.34V157.293H41.4634V164.488H62.4451V168.413H37.3583V142.247H62.4451ZM107.78 142.247H132.866V146.172H111.885V153.368H128.761V157.293H111.885V168.413H107.78V142.247ZM167.412 142.247H162.547L152.778 153.368H145.176V142.247H141.071V168.413H145.176V157.293H152.778L162.547 168.413H167.412V167.868L156.427 155.33L167.412 142.792V142.247ZM202.338 142.247V146.172H181.356V153.368H198.233V157.293H181.356V164.488H202.338V168.413H177.251V142.247H202.338ZM240 142.247H235.135L225.328 154.167L215.483 142.247H210.656L223.275 158.601V168.413H227.381V158.601L240 142.247Z" fill="white"/>
<g filter="url(#filter0_d_134_31584)">
<path d="M162.206 33.1624V81.5519L120.146 105.727L78.0864 81.5519V33.1624L120.146 9L162.206 33.1624Z" stroke="#00BBD8" stroke-width="1.5"/>
<path d="M117.844 27.9727L117.84 27.9727C117.078 27.9781 116.35 28.2856 115.813 28.8267C115.54 29.0981 115.324 29.4219 115.179 29.7785C115.033 30.1347 114.961 30.5165 114.965 30.9012V65.4648C112.506 66.168 110.371 67.7359 108.953 69.8928L108.95 69.8974C107.525 72.101 106.938 74.7489 107.296 77.3534C107.504 78.9721 108.072 80.5227 108.959 81.889C109.847 83.2563 111.031 84.4036 112.422 85.2443C113.814 86.0849 115.376 86.5971 116.993 86.7418C118.609 86.8866 120.237 86.6601 121.754 86.0796C123.271 85.4992 124.637 84.5799 125.75 83.3914C126.863 82.2029 127.694 80.7759 128.182 79.2179C128.669 77.6599 128.8 76.011 128.565 74.3949C128.329 72.7788 127.734 71.2371 126.823 69.8855L126.823 69.8855L126.816 69.876C125.313 67.7191 123.19 66.0838 120.739 65.187V44.7052H127.918C128.283 44.7076 128.645 44.6363 128.982 44.4954L128.693 43.8034L128.982 44.4954C129.32 44.3544 129.625 44.1468 129.881 43.8851C130.395 43.363 130.684 42.6588 130.686 41.9254L130.686 41.911L130.685 41.8966C130.66 41.1917 130.374 40.5205 129.883 40.0154L129.883 40.0154L129.876 40.0091C129.358 39.4892 128.656 39.1953 127.923 39.1932H127.921H120.739V33.5235H130.513H130.543L130.573 33.521C131.271 33.4649 131.922 33.1457 132.395 32.6289L131.842 32.1224L132.395 32.6289C132.868 32.1123 133.13 31.436 133.13 30.7351C133.13 30.0342 132.868 29.358 132.395 28.8413C131.922 28.3245 131.271 28.0053 130.573 27.9492L130.543 27.9467L130.512 27.9468L117.844 27.9727Z" stroke="url(#paint0_linear_134_31584)" stroke-width="1.5"/>
<path d="M117.963 82.1726C121.267 82.1726 123.944 79.4551 123.944 76.1029C123.944 72.7507 121.267 70.0332 117.963 70.0332C114.66 70.0332 111.982 72.7507 111.982 76.1029C111.982 79.4551 114.66 82.1726 117.963 82.1726Z" stroke="#00BBD8" stroke-width="1.5"/>
</g>
<path d="M2.20981 199H0V182.879H2.20981V199Z" fill="#00BBD8"/>
<path d="M24.1402 190.945C24.1402 192.152 23.9466 193.251 23.5593 194.241C23.172 195.231 22.6253 196.079 21.9191 196.784C21.2128 197.489 20.3661 198.036 19.3789 198.426C18.3917 198.809 17.2982 199 16.0984 199H9.99291V182.879H16.0984C17.2982 182.879 18.3917 183.074 19.3789 183.464C20.3661 183.846 21.2128 184.394 21.9191 185.106C22.6253 185.811 23.172 186.659 23.5593 187.649C23.9466 188.639 24.1402 189.737 24.1402 190.945ZM21.8735 190.945C21.8735 189.955 21.7368 189.07 21.4634 188.29C21.19 187.51 20.8028 186.85 20.3016 186.31C19.8004 185.77 19.1929 185.357 18.479 185.072C17.7652 184.787 16.9717 184.645 16.0984 184.645H12.2141V197.234H16.0984C16.9717 197.234 17.7652 197.091 18.479 196.806C19.1929 196.521 19.8004 196.112 20.3016 195.58C20.8028 195.04 21.19 194.38 21.4634 193.6C21.7368 192.82 21.8735 191.935 21.8735 190.945Z" fill="#00BBD8"/>
<path d="M40.6211 182.879V184.656H32.7842V190.011H39.1289V191.721H32.7842V197.222H40.6211V199H30.563V182.879H40.6211Z" fill="#00BBD8"/>
<path d="M48.3567 182.879C48.5541 182.879 48.6984 182.905 48.7895 182.957C48.8882 183.002 48.9984 183.1 49.1199 183.25L58.5742 195.4C58.5514 195.205 58.5362 195.017 58.5286 194.837C58.521 194.65 58.5172 194.47 58.5172 194.297V182.879H60.4537V199H59.3374C59.1627 199 59.0146 198.97 58.8931 198.91C58.7792 198.85 58.6653 198.749 58.5514 198.606L49.1085 186.467C49.1237 186.655 49.135 186.839 49.1426 187.019C49.1502 187.199 49.154 187.364 49.154 187.514V199H47.2176V182.879H48.3567Z" fill="#00BBD8"/>
<path d="M78.9719 182.879V184.712H73.6979V199H71.4881V184.712H66.1914V182.879H78.9719Z" fill="#00BBD8"/>
<path d="M87.3291 199H85.1193V182.879H87.3291V199Z" fill="#00BBD8"/>
<path d="M106.23 182.879V184.712H100.956V199H98.7459V184.712H93.4492V182.879H106.23Z" fill="#00BBD8"/>
<path d="M118.255 192.587V199H116.056V192.587L110.076 182.879H112.013C112.21 182.879 112.366 182.927 112.48 183.025C112.594 183.122 112.692 183.242 112.776 183.385L116.512 189.651C116.664 189.914 116.789 190.161 116.888 190.394C116.994 190.626 117.089 190.855 117.173 191.08C117.256 190.847 117.347 190.615 117.446 190.382C117.545 190.15 117.67 189.906 117.822 189.651L121.547 183.385C121.615 183.265 121.706 183.152 121.82 183.047C121.942 182.935 122.097 182.879 122.287 182.879H124.246L118.255 192.587Z" fill="#00BBD8"/>
<path d="M135.711 182.879H137.545C137.743 182.879 137.906 182.927 138.035 183.025C138.164 183.122 138.252 183.246 138.297 183.396L141.669 194.601C141.73 194.804 141.783 195.021 141.828 195.254C141.881 195.486 141.931 195.73 141.976 195.985C142.03 195.73 142.083 195.486 142.136 195.254C142.189 195.014 142.25 194.796 142.318 194.601L146.157 183.396C146.202 183.269 146.29 183.152 146.419 183.047C146.555 182.935 146.719 182.879 146.909 182.879H147.546C147.744 182.879 147.903 182.927 148.025 183.025C148.154 183.122 148.245 183.246 148.298 183.396L152.114 194.601C152.251 194.991 152.372 195.437 152.479 195.94C152.524 195.692 152.566 195.456 152.604 195.231C152.642 195.006 152.691 194.796 152.752 194.601L156.135 183.396C156.173 183.261 156.257 183.141 156.386 183.036C156.522 182.931 156.686 182.879 156.875 182.879H158.596L153.504 199H151.522L147.387 186.704C147.303 186.471 147.228 186.201 147.159 185.894C147.121 186.044 147.083 186.19 147.045 186.332C147.015 186.467 146.981 186.591 146.943 186.704L142.785 199H140.803L135.711 182.879Z" fill="#00BBD8"/>
<path d="M176.517 199H174.809C174.611 199 174.452 198.951 174.33 198.854C174.209 198.756 174.118 198.632 174.057 198.482L172.531 194.59H165.206L163.68 198.482C163.627 198.617 163.536 198.737 163.406 198.842C163.277 198.947 163.118 199 162.928 199H161.219L167.746 182.879H169.99L176.517 199ZM165.821 193.015H171.915L169.352 186.456C169.185 186.051 169.022 185.545 168.863 184.937C168.779 185.245 168.696 185.53 168.612 185.792C168.536 186.047 168.46 186.272 168.384 186.467L165.821 193.015Z" fill="#00BBD8"/>
<path d="M184.199 197.166H191.261V199H181.989V182.879H184.199V197.166Z" fill="#00BBD8"/>
<path d="M199.318 197.166H206.381V199H197.109V182.879H199.318V197.166Z" fill="#00BBD8"/>
<path d="M222.286 182.879V184.656H214.449V190.011H220.794V191.721H214.449V197.222H222.286V199H212.228V182.879H222.286Z" fill="#00BBD8"/>
<path d="M240 182.879V184.712H234.726V199H232.516V184.712H227.22V182.879H240Z" fill="#00BBD8"/>
<defs>
<filter id="filter0_d_134_31584" x="69.3364" y="0.13501" width="101.62" height="114.457" filterUnits="userSpaceOnUse" color-interpolation-filters="sRGB">
<feFlood flood-opacity="0" result="BackgroundImageFix"/>
<feColorMatrix in="SourceAlpha" type="matrix" values="0 0 0 0 0 0 0 0 0 0 0 0 0 0 0 0 0 0 127 0" result="hardAlpha"/>
<feOffset/>
<feGaussianBlur stdDeviation="4"/>
<feColorMatrix type="matrix" values="0 0 0 0 0 0 0 0 0 0.796078 0 0 0 0 0.886275 0 0 0 1 0"/>
<feBlend mode="normal" in2="BackgroundImageFix" result="effect1_dropShadow_134_31584"/>
<feBlend mode="normal" in="SourceGraphic" in2="effect1_dropShadow_134_31584" result="shape"/>
</filter>
<linearGradient id="paint0_linear_134_31584" x1="118.786" y1="21.0267" x2="118.786" y2="93.4083" gradientUnits="userSpaceOnUse">
<stop stop-color="#00DEEE"/>
<stop offset="1" stop-color="#00BBD8"/>
</linearGradient>
</defs>
</svg>
