<?xml version="1.0" encoding="UTF-8"?>
<svg width="50px" height="47px" viewBox="0 0 50 47" version="1.1" xmlns="http://www.w3.org/2000/svg" xmlns:xlink="http://www.w3.org/1999/xlink">
    <!-- Generator: Sketch 52.5 (67469) - http://www.bohemiancoding.com/sketch -->
    <title>icon-add-image</title>
    <desc>Created with Sketch.</desc>
    <g id="💻-ID-Dashboard" stroke="none" stroke-width="1" fill="none" fill-rule="evenodd">
        <g id="406---Delete-Attribute" transform="translate(-207.000000, -325.000000)" fill="#1E262E" fill-rule="nonzero">
            <g id="Area-box-1" transform="translate(150.000000, 264.000000)">
                <g id="Profile" transform="translate(30.000000, 24.000000)">
                    <g id="Profile-Pic">
                        <path d="M32,37 C29.2433333,37 27,39.2433333 27,42 L27,72 C27,74.7566667 29.2433333,77 32,77 L45.684896,77 C45.1448957,75.9433333 44.706302,74.83 44.376302,73.6666667 L32,73.6666667 C31.08,73.6666667 30.3333333,72.92 30.3333333,72 L30.3333333,68.9075533 L42.188802,55.5546873 L46.0559897,59.6302083 C46.619323,58.6402083 47.2726043,57.7070833 48.002604,56.84375 L42.110677,50.6328127 L30.3333333,63.88802 L30.3333333,42 C30.3333333,41.08 31.08,40.3333333 32,40.3333333 L68.6666667,40.3333333 C69.5866667,40.3333333 70.3333333,41.08 70.3333333,42 L70.3333333,52.3515627 C71.5233333,52.9615623 72.6466667,53.6827083 73.6666667,54.5260417 L73.6666667,42 C73.6666667,39.2433333 71.4233333,37 68.6666667,37 L32,37 Z M60.3333333,43.6666667 C58.4923842,43.6666667 57,45.1590508 57,47 C57,48.8409492 58.4923842,50.3333333 60.3333333,50.3333333 C62.1742825,50.3333333 63.6666667,48.8409492 63.6666667,47 C63.6666667,45.1590508 62.1742825,43.6666667 60.3333333,43.6666667 Z M62,53.6666667 C53.7354697,53.6666667 47,60.4021363 47,68.6666667 C47,76.9311967 53.7354697,83.6666667 62,83.6666667 C70.26453,83.6666667 77,76.9311967 77,68.6666667 C77,60.4021363 70.26453,53.6666667 62,53.6666667 Z M62,57 C68.4630633,57 73.6666667,62.2036037 73.6666667,68.6666667 C73.6666667,75.12973 68.4630633,80.3333333 62,80.3333333 C55.536937,80.3333333 50.3333333,75.12973 50.3333333,68.6666667 C50.3333333,62.2036037 55.536937,57 62,57 Z M60.3333333,60.3333333 L60.3333333,67 L53.6666667,67 L53.6666667,70.3333333 L60.3333333,70.3333333 L60.3333333,77 L63.6666667,77 L63.6666667,70.3333333 L70.3333333,70.3333333 L70.3333333,67 L63.6666667,67 L63.6666667,60.3333333 L60.3333333,60.3333333 Z" id="icon-add-image"></path>
                    </g>
                </g>
            </g>
        </g>
    </g>
</svg>
